<?xml version="1.0" encoding="utf-8"?>
<svg xmlns="http://www.w3.org/2000/svg" viewBox="0 0 842 633">
  <g id="BASE">
    <rect x="0" y="0" class="st0" width="842" height="632.8" style="fill: rgb(234, 225, 225);"/>
  </g>
  <g id="VER_y_CALL" transform="matrix(1, 0, 0, 1, 99.132195, -70.606728)"/>
  <g id="PATIOS">
    <polygon class="st1" points="714.7,58.4 574.4,58.4 574.1,58.4 490.9,58.4 490.9,218 574.2,218 574.3,400.8 490.9,400.8 &#10;&#9;&#9;490.9,545.8 574.4,545.8 797.2,546.2 &#9;" style="fill: none; stroke: rgb(0, 0, 0); stroke-miterlimit: 10;"/>
    <polygon class="st2" points="797.2,546.2 571.4,545.8 571.1,58.4 714.7,58.4 &#9;" style="fill: rgb(73, 73, 73);"/>
  </g>
  <g id="Corredor">
    <g>
      <rect x="304.9" y="212.4" class="st3" width="186" height="182" style="fill: rgb(178, 178, 178);"/>
    </g>
    <g>
      <rect x="490.9" y="212.4" class="st4" width="98.5" height="70.6" style="fill: rgb(178, 178, 178); stroke: rgb(0, 0, 0); stroke-miterlimit: 10;"/>
    </g>
    <g>
      <rect x="490.9" y="282.8" class="st5" width="98.3" height="106.1" style="fill: rgb(83, 83, 83); stroke: rgb(0, 0, 0); stroke-miterlimit: 10;"/>
    </g>
    <rect x="374.2" y="381.6" class="st3" width="30.6" height="110.6" style="fill: rgb(178, 178, 178);"/>
  </g>
  <g id="Deta_corre">
    <path class="st1" d="M490.8,245.3l0.1-13.8l-16.1,0C474.8,231.5,474.6,245.2,490.8,245.3z" style="fill: none; stroke: rgb(0, 0, 0); stroke-miterlimit: 10;"/>
    <path class="st1" d="M490.8,246l0,13.8l-16.1-0.1C474.7,259.8,474.6,246.1,490.8,246z" style="fill: none; stroke: rgb(0, 0, 0); stroke-miterlimit: 10;"/>
    <rect x="546.6" y="282.7" class="st6" width="42.7" height="6.1" style="fill: rgb(177, 177, 177); stroke: rgb(0, 0, 0); stroke-miterlimit: 10;"/>
    <rect x="546.6" y="288.9" class="st7" width="42.7" height="6.1" style="fill: rgb(156, 155, 155); stroke: rgb(0, 0, 0); stroke-miterlimit: 10;"/>
    <rect x="546.6" y="295" class="st8" width="42.7" height="6.1" style="fill: rgb(134, 134, 134); stroke: rgb(0, 0, 0); stroke-miterlimit: 10;"/>
    <rect x="546.6" y="301.1" class="st9" width="42.7" height="6.1" style="fill: rgb(111, 111, 110); stroke: rgb(0, 0, 0); stroke-miterlimit: 10;"/>
    <rect x="546.6" y="307.3" class="st10" width="42.7" height="6.1" style="fill: rgb(87, 87, 86); stroke: rgb(0, 0, 0); stroke-miterlimit: 10;"/>
    <rect x="546.6" y="313.4" class="st10" width="42.7" height="6.1" style="fill: rgb(87, 87, 86); stroke: rgb(0, 0, 0); stroke-miterlimit: 10;"/>
    <rect x="546.6" y="319.5" class="st11" width="42.7" height="6.1" style="fill: rgb(60, 60, 59); stroke: rgb(0, 0, 0); stroke-miterlimit: 10;"/>
    <rect x="546.6" y="325.6" class="st12" width="42.7" height="6.1" style="fill: rgb(29, 29, 27); stroke: rgb(0, 0, 0); stroke-miterlimit: 10;"/>
    <line class="st13" x1="491.4" y1="212.4" x2="491.4" y2="282.6" style="fill: none; stroke: rgb(0, 0, 0); stroke-miterlimit: 10; stroke-width: 2px;"/>
  </g>
  <g id="AULAS">
    <rect x="170.4" y="58.4" class="st14" width="233.5" height="154" style="fill: rgb(248, 247, 247); stroke: rgb(0, 0, 0); stroke-miterlimit: 10;"/>
    <rect x="170.4" y="212.4" class="st14" width="134.5" height="133.3" style="fill: rgb(248, 247, 247); stroke: rgb(0, 0, 0); stroke-miterlimit: 10;"/>
    <rect x="170.4" y="345.7" class="st14" width="134.5" height="200.2" style="fill: rgb(248, 247, 247); stroke: rgb(0, 0, 0); stroke-miterlimit: 10;"/>
    <rect x="404.3" y="389.6" class="st14" width="166.8" height="156.1" style="fill: rgb(248, 247, 247); stroke: rgb(0, 0, 0); stroke-miterlimit: 10;"/>
    <rect x="304.9" y="394.3" class="st14" width="69.8" height="76.4" style="fill: rgb(248, 247, 247); stroke: rgb(0, 0, 0); stroke-miterlimit: 10;"/>
    <rect x="304.9" y="471" class="st14" width="69.8" height="75" style="fill: rgb(248, 247, 247); stroke: rgb(0, 0, 0); stroke-miterlimit: 10;"/>
    <rect x="375" y="492.4" class="st14" width="29.1" height="53.6" style="fill: rgb(248, 247, 247); stroke: rgb(0, 0, 0); stroke-miterlimit: 10;"/>
    <rect x="404" y="58.4" class="st14" width="167.8" height="154" style="fill: rgb(248, 247, 247); stroke: rgb(0, 0, 0); stroke-miterlimit: 10;"/>
    <rect x="304.9" y="258.2" class="st14" width="48.7" height="87.4" style="fill: rgb(248, 247, 247); stroke: rgb(0, 0, 0); stroke-miterlimit: 10;"/>
  </g>
  <g id="Detalle_ofic">
    <path class="st1" d="M374.5,454.6l0,11.3l-13.1-0.1C361.4,465.8,361.3,454.6,374.5,454.6z" style="fill: none; stroke: rgb(0, 0, 0); stroke-miterlimit: 10;"/>
    <path class="st1" d="M374.6,486.6l0-11.3l-13.1,0.1C361.5,475.4,361.4,486.6,374.6,486.6z" style="fill: none; stroke: rgb(0, 0, 0); stroke-miterlimit: 10;"/>
    <path class="st1" d="M395.9,492.4l-11.3,0l0.1,13.1C384.7,505.5,395.9,505.6,395.9,492.4z" style="fill: none; stroke: rgb(0, 0, 0); stroke-miterlimit: 10;"/>
    <path class="st1" d="M429.3,212.2l13.8,0.1l0-16.1C443.2,196.2,429.5,196.1,429.3,212.2z" style="fill: none; stroke: rgb(0, 0, 0); stroke-miterlimit: 10;"/>
    <path class="st1" d="M428.3,212.2l-13.8,0.1l0-16.1C414.5,196.2,428.2,196.1,428.3,212.2z" style="fill: none; stroke: rgb(0, 0, 0); stroke-miterlimit: 10;"/>
    <g>
      <path class="st1" d="M380.8,212.2l13.8,0.1l0-16.1C394.7,196.2,381,196.1,380.8,212.2z" style="fill: none; stroke: rgb(0, 0, 0); stroke-miterlimit: 10;"/>
      <path class="st1" d="M379.8,212.2l-13.8,0.1l0-16.1C366,196.2,379.7,196.1,379.8,212.2z" style="fill: none; stroke: rgb(0, 0, 0); stroke-miterlimit: 10;"/>
    </g>
    <g>
      <path class="st1" d="M304.6,235.9l0.1-13.8l-16.1,0C288.6,222,288.4,235.7,304.6,235.9z" style="fill: none; stroke: rgb(0, 0, 0); stroke-miterlimit: 10;"/>
      <path class="st1" d="M304.6,236.9l0.1,13.8l-16.1,0C288.6,250.8,288.4,237.1,304.6,236.9z" style="fill: none; stroke: rgb(0, 0, 0); stroke-miterlimit: 10;"/>
    </g>
    <g>
      <path class="st1" d="M304.6,369l0.1-13.8l-16.1,0C288.6,355.1,288.4,368.8,304.6,369z" style="fill: none; stroke: rgb(0, 0, 0); stroke-miterlimit: 10;"/>
      <path class="st1" d="M304.6,370l0.1,13.8l-16.1,0C288.6,383.9,288.4,370.2,304.6,370z" style="fill: none; stroke: rgb(0, 0, 0); stroke-miterlimit: 10;"/>
    </g>
    <g>
      <path class="st1" d="M428.8,389.5l-13.8-0.1l0,16.1C415,405.5,428.7,405.6,428.8,389.5z" style="fill: none; stroke: rgb(0, 0, 0); stroke-miterlimit: 10;"/>
      <path class="st1" d="M429.9,389.5l13.8-0.1l0,16.1C443.7,405.5,430,405.6,429.9,389.5z" style="fill: none; stroke: rgb(0, 0, 0); stroke-miterlimit: 10;"/>
    </g>
  </g>
  <g id="OCULTO" transform="matrix(1, 0, 0, 1, 99.132195, -70.606728)"/>
  <g id="Oculto_Resu">
    <path class="st15" d="M841.6,58.4v-58H165.9H0.4v632h165.4v-0.1h675.7v-78.6l0,0L841.6,58.4z M170.5,545.9l-0.1-487.5h544.2 l82.5,487.5H170.5z" style="fill: rgb(56, 56, 56); stroke: rgb(0, 0, 0); stroke-miterlimit: 10;"/>
  </g>
  <g id="Detalle_ocul" transform="matrix(1, 0, 0, 1, 99.132195, -70.606728)"/>
  <g id="REF_FIJAS">
    <rect x="308.6" y="445.1" class="st16" width="49.3" height="49" style="fill: rgb(248, 247, 247);"/>
    <g>
      <g>
        <path d="M330.3,335.1l0,3.4l1.6,0.7l0,1.8l-7.4-3.3l0-1.7l7.4-3.3l0,1.8L330.3,335.1z M329,335.7l-2.8,1.2l2.8,1.2L329,335.7z"/>
        <path d="M331.2,332.5l-1.3-0.6c0.5-0.6,0.8-1.5,0.8-2.4c0-1-0.3-1.4-0.8-1.4c-1.4,0-0.5,4.3-3.2,4.3c-1.3,0-2.3-1-2.3-3.1 c0-0.9,0.2-1.9,0.7-2.6l1.3,0.5c-0.4,0.7-0.6,1.4-0.6,2c0,1,0.4,1.4,0.8,1.4c1.4,0,0.4-4.3,3.2-4.3c1.2,0,2.3,1,2.3,3.2 C332,330.7,331.7,331.9,331.2,332.5z"/>
        <path d="M328.2,325.6c-2.2,0-3.8-1.7-3.8-4c0-1.3,0.5-2.3,1.3-3l1,1.1c-0.6,0.5-0.9,1.1-0.9,1.9c0,1.4,1,2.4,2.4,2.4 c1.4,0,2.4-1,2.4-2.4c0-0.7-0.3-1.4-0.9-1.9l1-1.1c0.9,0.7,1.3,1.8,1.3,3.1C332.1,323.9,330.5,325.6,328.2,325.6z"/>
        <path d="M330.6,311.7l1.4,0l0,5.7l-7.4,0l0-5.6l1.4,0l0,3.9l1.6,0l0-3.4l1.3,0l0,3.4l1.7,0L330.6,311.7z"/>
        <path d="M324.6,303.5l7.4,0l0,1.4l-4.5,3.7l4.5,0l0,1.7l-7.4,0l0-1.4l4.5-3.7l-4.5,0L324.6,303.5z"/>
        <path d="M331.3,302.4l-1.3-0.6c0.5-0.6,0.8-1.6,0.8-2.4c0-1-0.3-1.4-0.8-1.4c-1.4,0-0.5,4.3-3.2,4.3c-1.3,0-2.3-1-2.3-3.1 c0-0.9,0.2-1.9,0.7-2.6l1.3,0.5c-0.4,0.7-0.6,1.4-0.6,2c0,1,0.4,1.4,0.8,1.4c1.4,0,0.4-4.3,3.2-4.3c1.2,0,2.3,1,2.3,3.2 C332.2,300.6,331.8,301.7,331.3,302.4z"/>
        <path d="M328.4,295.5c-2.2,0-3.8-1.7-3.8-4.1c0-2.3,1.6-4,3.8-4c2.2,0,3.8,1.7,3.8,4.1C332.2,293.8,330.6,295.5,328.4,295.5z M328.4,289.2c-1.4,0-2.4,1-2.4,2.3c0,1.3,1,2.3,2.4,2.3c1.4,0,2.4-1,2.4-2.3C330.8,290.2,329.8,289.2,328.4,289.2z"/>
        <path d="M332.2,281.4l-2.1,1.4l0,0.1l0,1.5l2.1,0l0,1.7l-7.4,0l0-3.2c0-2,1-3.2,2.7-3.2c1.1,0,1.9,0.6,2.3,1.5l2.4-1.6 L332.2,281.4z M326.1,283l0,1.4l2.6,0l0-1.4c0-1-0.5-1.6-1.3-1.6C326.6,281.4,326.1,282,326.1,283z"/>
        <path d="M330.8,272.6l1.4,0l0,5.7l-7.4,0l0-5.6l1.4,0l0,3.9l1.6,0l0-3.4l1.3,0l0,3.4l1.7,0L330.8,272.6z"/>
        <path d="M331.5,271.9l-1.3-0.6c0.5-0.6,0.8-1.6,0.8-2.4c0-1-0.3-1.4-0.8-1.4c-1.4,0-0.5,4.3-3.2,4.3c-1.3,0-2.3-1-2.3-3.1 c0-0.9,0.2-1.9,0.7-2.6l1.3,0.5c-0.4,0.7-0.6,1.4-0.6,2c0,1,0.4,1.4,0.8,1.4c1.4,0,0.4-4.3,3.2-4.3c1.2,0,2.3,1,2.3,3.2 C332.3,270,332,271.2,331.5,271.9z"/>
      </g>
    </g>
    <g>
      <g>
        <path class="st17" d="M511.3,296.8c-0.7,0-1.4,0-2.1,0c-0.8,0-1.3-0.4-1.5-1.1c-0.2-0.6,0.1-1.3,0.6-1.6c0.3-0.1,0.6-0.2,0.9-0.3 c1.9,0,3.9,0,5.8,0c0.9,0,1.5,0.6,1.5,1.5c0,2,0,3.9,0,5.9c0,0.9-0.7,1.5-1.5,1.5c-0.8,0-1.5-0.6-1.5-1.5c0-0.7,0-1.3,0-2 c0,0,0,0-0.1-0.1c-0.2,0.2-0.4,0.3-0.6,0.5c-1.9,1.9-3.8,3.8-5.7,5.7c-0.4,0.4-0.8,0.6-1.4,0.5c-0.6-0.1-1-0.4-1.2-1 c-0.2-0.6-0.1-1.1,0.3-1.6c1.4-1.4,2.9-2.9,4.3-4.3c0.7-0.7,1.3-1.3,2-2C511.3,296.9,511.3,296.8,511.3,296.8z" style="fill: rgb(255, 255, 255);"/>
        <path class="st17" d="M515.6,313.5c0,0.5,0,1,0,1.4c0,1.8,0,3.6,0,5.4c0,1-0.6,1.7-1.7,1.7c-2.6,0-5.2,0-7.7,0 c-1,0-1.7-0.6-1.7-1.5c0-0.9,0.7-1.5,1.7-1.5c1.9,0,3.8,0,5.7,0c0.2,0,0.4,0,0.6,0c0-0.2,0-0.4,0-0.5c0-2,0-4.1,0-6.1 c0-1.2,0.6-1.8,1.8-1.8c2,0,4,0,6.1,0c0.2,0,0.4,0,0.6,0c0-0.2,0-0.4,0-0.6c0-1.9,0-3.9,0-5.8c0-1.2,0.6-1.8,1.8-1.8 c2,0,3.9,0,5.9,0c0.2,0,0.4,0,0.6,0c0-0.2,0-0.4,0-0.5c0-2.1,0-4.2,0-6.3c0-1.1,0.6-1.7,1.7-1.7c2.7,0,5.4,0,8.1,0 c1,0,1.7,0.6,1.7,1.5c0,0.9-0.7,1.5-1.7,1.5c-2,0-4.1,0-6.1,0c-0.2,0-0.4,0-0.7,0c0,0.2,0,0.4,0,0.7c0,2.1,0,4.1,0,6.2 c0,1.2-0.6,1.7-1.8,1.8c-2,0-3.9,0-5.9,0c-0.2,0-0.4,0-0.6,0c0,0.2,0,0.4,0,0.6c0,1.9,0,3.9,0,5.8c0,1.2-0.5,1.7-1.8,1.7 c-2,0-4,0-6,0C516.1,313.5,515.9,313.5,515.6,313.5z" style="fill: rgb(255, 255, 255);"/>
      </g>
    </g>
    <g>
      <path d="M342.1,472.1c-1.1,0-2.1,0-3.2,0c1.2-4.2,2.4-8.4,3.6-12.6c-0.4-0.2-0.6-0.2-0.8,0.3c-0.6,2.1-1.3,4.2-1.9,6.2 c-0.1,0.4-0.3,0.8-0.5,1.1c-0.3,0.4-0.8,0.5-1.3,0.2c-0.5-0.3-0.6-0.6-0.5-1.2c0.8-2.7,1.5-5.5,2.3-8.2c0.4-1.3,1.2-2.2,2.6-2.3 c1.8-0.1,3.6-0.2,5.4,0c1.5,0.1,2.2,1.3,2.7,2.6c0.7,2.5,1.5,5,2.2,7.4c0.3,0.9,0.1,1.5-0.5,1.7c-0.7,0.2-1.4-0.2-1.7-1 c-0.6-1.9-1.2-3.9-1.8-5.8c-0.1-0.4-0.3-0.8-0.4-1.3c-0.2,0-0.3,0.1-0.5,0.1c1.2,4.2,2.5,8.4,3.7,12.6c-1.1,0-2.2,0-3.3,0 c0,0.2,0,0.4,0,0.6c0,2.9,0,5.7,0,8.6c0,0.3,0,0.6-0.1,0.9c-0.1,0.7-0.5,1-1.2,1c-0.7,0-1.2-0.3-1.3-1c-0.1-0.3-0.1-0.6-0.1-1 c0-2.9,0-5.8,0-8.7c0-0.3,0-0.6-0.5-0.4c0,0.2,0,0.4,0,0.6c0,2.9,0,5.7,0,8.6c0,0.4,0,0.8-0.2,1.1c-0.2,0.6-0.7,0.9-1.3,0.8 c-0.6-0.1-1-0.4-1.1-1.1c-0.1-0.3-0.1-0.7-0.1-1c0-2.8,0-5.6,0-8.3C342.1,472.6,342.1,472.4,342.1,472.1z"/>
      <path d="M327.3,460.2c-0.3,0-0.5,0-0.8,0c0,0.2,0,0.4,0,0.6c0.1,6.7,0.1,13.3,0.2,20c0,0.4,0,0.9-0.1,1.3c-0.1,0.7-0.5,1-1.2,1 c-0.8,0.1-1.4-0.2-1.6-0.9c-0.1-0.4-0.2-0.8-0.2-1.2c0-3.8-0.1-7.7-0.1-11.5c0-0.2,0-0.3,0-0.5c-0.2,0-0.4,0-0.6,0 c0,0.2,0,0.5,0,0.7c0,3.7,0.1,7.5,0.1,11.2c0,0.5,0,1-0.2,1.4c-0.1,0.6-0.6,0.8-1.3,0.8c-0.7,0-1.2-0.3-1.3-0.8 c-0.1-0.4-0.2-0.9-0.2-1.4c-0.1-6.7-0.1-13.5-0.1-20.2c0-0.4,0-0.8-0.6-0.5c0,0.2,0,0.3,0,0.5c0,2.1,0,4.2,0,6.3 c0,0.4,0,0.8-0.1,1.2c-0.1,0.6-0.5,0.9-1.2,0.8c-0.6,0-0.9-0.3-0.9-1c-0.1-0.6-0.1-1.2-0.1-1.8c0-2.4-0.1-4.7,0-7.1 c0.1-2.1,1.1-3.2,3.2-3.3c2.1-0.1,4.2-0.1,6.3,0.1c1.8,0.1,2.9,1.3,3,3.1c0.1,2.8,0.1,5.7,0.1,8.5c0,1.1-0.4,1.5-1.4,1.4 c-0.4,0-0.7-0.2-0.8-0.7c-0.1-0.4-0.1-0.9-0.1-1.3C327.3,464.7,327.3,462.5,327.3,460.2z"/>
      <path d="M335.3,483c-1,0-2,0-3,0c-0.1-11.1-0.1-22.1-0.2-33.2c1,0,2,0,3,0C335.2,460.9,335.3,471.9,335.3,483z"/>
      <path d="M320.6,452.3c0-1.5,1.2-2.7,2.7-2.6c1.5,0,2.7,1.2,2.6,2.7c0,1.5-1.2,2.7-2.7,2.7C321.8,455.1,320.6,453.8,320.6,452.3z"/>
      <path d="M347.8,452.2c0,1.5-1.1,2.7-2.5,2.7c-1.5,0-2.8-1.2-2.8-2.6c0-1.5,1.2-2.7,2.6-2.7C346.6,449.5,347.8,450.7,347.8,452.2z"/>
    </g>
    <g>
      <path d="M393,527.1c-0.6,0-1.2,0-1.8,0c0.7-2.4,1.4-4.8,2-7.1c-0.2-0.1-0.4-0.1-0.4,0.2c-0.4,1.2-0.7,2.4-1.1,3.5 c-0.1,0.2-0.2,0.4-0.3,0.6c-0.2,0.3-0.5,0.3-0.7,0.1c-0.3-0.1-0.4-0.3-0.3-0.7c0.4-1.5,0.9-3.1,1.3-4.6c0.2-0.7,0.7-1.2,1.5-1.3 c1-0.1,2.1-0.1,3.1,0c0.9,0.1,1.3,0.7,1.5,1.5c0.4,1.4,0.8,2.8,1.3,4.2c0.1,0.5,0,0.8-0.3,0.9c-0.4,0.1-0.8-0.1-1-0.6 c-0.3-1.1-0.7-2.2-1-3.3c-0.1-0.2-0.2-0.5-0.2-0.7c-0.1,0-0.2,0-0.3,0.1c0.7,2.4,1.4,4.7,2.1,7.1c-0.6,0-1.2,0-1.9,0 c0,0.1,0,0.3,0,0.4c0,1.6,0,3.2,0,4.9c0,0.2,0,0.3-0.1,0.5c-0.1,0.4-0.3,0.6-0.7,0.6c-0.4,0-0.7-0.1-0.8-0.5 c0-0.2-0.1-0.4-0.1-0.6c0-1.6,0-3.3,0-4.9c0-0.2,0-0.4-0.3-0.2c0,0.1,0,0.2,0,0.3c0,1.6,0,3.2,0,4.8c0,0.2,0,0.4-0.1,0.6 c-0.1,0.4-0.4,0.5-0.8,0.5c-0.4,0-0.6-0.2-0.6-0.6c0-0.2,0-0.4,0-0.6c0-1.6,0-3.2,0-4.7C393,527.4,393,527.2,393,527.1z"/>
      <path d="M384.6,520.3c-0.2,0-0.3,0-0.5,0c0,0.1,0,0.2,0,0.3c0,3.8,0.1,7.6,0.1,11.3c0,0.3,0,0.5,0,0.8c-0.1,0.4-0.3,0.6-0.7,0.6 c-0.4,0-0.8-0.1-0.9-0.5c-0.1-0.2-0.1-0.5-0.1-0.7c0-2.2,0-4.3-0.1-6.5c0-0.1,0-0.2,0-0.3c-0.1,0-0.2,0-0.4,0c0,0.1,0,0.3,0,0.4 c0,2.1,0,4.2,0.1,6.3c0,0.3,0,0.5-0.1,0.8c-0.1,0.3-0.3,0.5-0.7,0.5c-0.4,0-0.7-0.1-0.8-0.5c-0.1-0.3-0.1-0.5-0.1-0.8 c0-3.8-0.1-7.6-0.1-11.4c0-0.2,0-0.4-0.4-0.3c0,0.1,0,0.2,0,0.3c0,1.2,0,2.4,0,3.6c0,0.2,0,0.5-0.1,0.7c-0.1,0.4-0.3,0.5-0.7,0.5 c-0.3,0-0.5-0.2-0.5-0.5c0-0.3,0-0.7,0-1c0-1.3,0-2.7,0-4c0-1.2,0.6-1.8,1.8-1.9c1.2-0.1,2.4,0,3.6,0c1,0.1,1.6,0.7,1.7,1.8 c0.1,1.6,0.1,3.2,0.1,4.8c0,0.6-0.2,0.9-0.8,0.8c-0.2,0-0.4-0.1-0.5-0.4c0-0.2-0.1-0.5-0.1-0.8 C384.6,522.9,384.6,521.6,384.6,520.3z"/>
      <path d="M389.1,533.3c-0.6,0-1.1,0-1.7,0c0-6.3-0.1-12.5-0.1-18.8c0.6,0,1.1,0,1.7,0C389.1,520.7,389.1,527,389.1,533.3z"/>
      <path d="M380.8,515.9c0-0.9,0.7-1.5,1.5-1.5c0.9,0,1.5,0.7,1.5,1.6c0,0.9-0.7,1.5-1.5,1.5C381.5,517.5,380.8,516.7,380.8,515.9z"/>
      <path d="M396.2,515.8c0,0.8-0.6,1.5-1.4,1.5c-0.9,0-1.6-0.7-1.6-1.5c0-0.8,0.7-1.5,1.5-1.5C395.5,514.3,396.2,514.9,396.2,515.8z"/>
    </g>
    <rect x="348.6" y="269" class="st14" width="4.9" height="29.3" style="fill: rgb(248, 247, 247); stroke: rgb(0, 0, 0); stroke-miterlimit: 10;"/>
    <rect x="348.6" y="308.5" class="st14" width="4.9" height="29.3" style="fill: rgb(248, 247, 247); stroke: rgb(0, 0, 0); stroke-miterlimit: 10;"/>
  </g>
</svg>