<?xml version="1.0" encoding="utf-8"?>
<!-- Generator: Adobe Illustrator 25.4.1, SVG Export Plug-In . SVG Version: 6.00 Build 0)  -->
<svg version="1.1" xmlns="http://www.w3.org/2000/svg" xmlns:xlink="http://www.w3.org/1999/xlink" x="0px" y="0px"
	 viewBox="0 0 842 632.8" style="enable-background:new 0 0 842 632.8;" xml:space="preserve">
<style type="text/css">
	.st0{fill:none;stroke:#000000;stroke-miterlimit:10;}
	.st1{fill:#494949;}
	.st2{fill:#B2B2B2;}
	.st3{fill:#B2B2B2;stroke:#000000;stroke-miterlimit:10;}
	.st4{fill:#535353;stroke:#000000;stroke-miterlimit:10;}
	.st5{fill:#B1B1B1;stroke:#000000;stroke-miterlimit:10;}
	.st6{fill:#9C9B9B;stroke:#000000;stroke-miterlimit:10;}
	.st7{fill:#868686;stroke:#000000;stroke-miterlimit:10;}
	.st8{fill:#6F6F6E;stroke:#000000;stroke-miterlimit:10;}
	.st9{fill:#575756;stroke:#000000;stroke-miterlimit:10;}
	.st10{fill:#3C3C3B;stroke:#000000;stroke-miterlimit:10;}
	.st11{fill:#1D1D1B;stroke:#000000;stroke-miterlimit:10;}
	.st12{fill:none;stroke:#000000;stroke-width:2;stroke-miterlimit:10;}
	.st13{fill:#F8F7F7;stroke:#000000;stroke-miterlimit:10;}
	.st14{fill:#545454;stroke:#000000;stroke-miterlimit:10;}
	.st15{fill:#383838;stroke:#000000;stroke-miterlimit:10;}
	.st16{fill:#F8F7F7;}
	.st17{fill:#FFFFFF;}
	.st18{fill:#2E4AAD;}
</style>
<g id="VER_y_CALL">
</g>
<g id="PATIOS">
	<polygon class="st0" points="714.7,58.4 574.4,58.4 574.1,58.4 490.9,58.4 490.9,218 574.2,218 574.3,400.8 490.9,400.8 
		490.9,545.8 574.4,545.8 797.2,546.2 	"/>
	<polygon class="st1" points="797.2,546.2 571.4,545.8 571.1,58.4 714.7,58.4 	"/>
</g>
<g id="Corredor">
	<g>
		<rect x="304.9" y="212.4" class="st2" width="186" height="182"/>
	</g>
	<g>
		<rect x="490.9" y="212.4" class="st3" width="98.5" height="70.6"/>
	</g>
	<g>
		<rect x="490.9" y="282.8" class="st4" width="98.3" height="106.1"/>
	</g>
	<rect x="374.2" y="381.6" class="st2" width="30.6" height="110.6"/>
	<rect x="255.7" y="345.8" class="st2" width="52.6" height="42.8"/>
</g>
<g id="Deta_corre">
	<path class="st0" d="M490.8,245.3l0.1-13.8l-16.1,0C474.8,231.5,474.6,245.2,490.8,245.3z"/>
	<path class="st0" d="M490.8,246l0,13.8l-16.1-0.1C474.7,259.8,474.6,246.1,490.8,246z"/>
	<rect x="546.6" y="282.7" class="st5" width="42.7" height="6.1"/>
	<rect x="546.6" y="288.9" class="st6" width="42.7" height="6.1"/>
	<rect x="546.6" y="295" class="st7" width="42.7" height="6.1"/>
	<rect x="546.6" y="301.1" class="st8" width="42.7" height="6.1"/>
	<rect x="546.6" y="307.3" class="st9" width="42.7" height="6.1"/>
	<rect x="546.6" y="313.4" class="st9" width="42.7" height="6.1"/>
	<rect x="546.6" y="319.5" class="st10" width="42.7" height="6.1"/>
	<rect x="546.6" y="325.6" class="st11" width="42.7" height="6.1"/>
	<line class="st12" x1="491.4" y1="212.4" x2="491.4" y2="282.6"/>
</g>
<g id="AULAS">
	<rect x="170.4" y="131.7" class="st13" width="134.8" height="130.9"/>
	<rect x="170.4" y="389" class="st13" width="134.5" height="156.9"/>
	<rect x="304.9" y="394.3" class="st13" width="69.8" height="76.4"/>
	<rect x="304.9" y="471" class="st13" width="69.8" height="75"/>
	<rect x="375" y="492.4" class="st13" width="29.1" height="53.6"/>
	<rect x="404" y="58.4" class="st13" width="167.8" height="154"/>
	<rect x="304.9" y="258.2" class="st13" width="48.7" height="87.4"/>
</g>
<g id="Detalle_ofic">
	<path class="st0" d="M374.5,455.6l0,11.3l-13.1-0.1C361.4,466.8,361.3,455.6,374.5,455.6z"/>
	<path class="st0" d="M374.6,486.6l0-11.3l-13.1,0.1C361.5,475.4,361.4,486.6,374.6,486.6z"/>
	<path class="st0" d="M395.9,492.4l-11.3,0l0.1,13.1C384.7,505.5,395.9,505.6,395.9,492.4z"/>
	<g>
		<path class="st0" d="M305.1,236l0.1-13.8l-16.1,0C289.1,222.1,288.9,235.8,305.1,236z"/>
		<path class="st0" d="M305.1,237l0.1,13.8l-16.1,0C289.1,250.8,288.9,237.1,305.1,237z"/>
	</g>
	<g>
		<path class="st0" d="M286.8,389.1l-13.8-0.1l0,16.1C272.9,405.1,286.6,405.3,286.8,389.1z"/>
		<path class="st0" d="M287.8,389.1l13.8-0.1l0,16.1C301.6,405.1,287.9,405.3,287.8,389.1z"/>
	</g>
	<path class="st0" d="M516.3,103.7l-13.8-0.1l0,16.1C502.5,119.7,516.2,119.9,516.3,103.7z"/>
	<path class="st0" d="M492.8,187.3l-0.1,13.8l16.1,0C508.8,201.2,508.9,187.5,492.8,187.3z"/>
	<path class="st0" d="M434.9,212.2l13.8,0.1l0-16.1C448.8,196.2,435.1,196,434.9,212.2z"/>
	<path class="st0" d="M434.2,212.1l-13.8,0l0.1-16.1C420.5,196,434.2,196,434.2,212.1z"/>
	<rect x="492.8" y="103.6" class="st0" width="79" height="108.8"/>
</g>
<g id="OCULTO">
	<polygon class="st14" points="305.3,58.4 304.6,58.4 170.4,58.4 170.4,131.7 305.3,131.7 305.3,212.4 404,212.4 404,58.4 	"/>
	<rect x="305.3" y="131.7" class="st14" width="50" height="80.7"/>
	<rect x="170.4" y="304.5" class="st14" width="85.3" height="84"/>
	<rect x="404.3" y="389.6" class="st14" width="166.8" height="156.1"/>
	<polygon class="st14" points="304.9,302.5 304.9,262.6 170.4,262.6 170.4,304.4 255.7,304.4 255.7,345.6 304.9,345.6 304.9,302.5 	
		"/>
</g>
<g id="Oculto_Resu">
	<path class="st15" d="M841.6,58.4v-58H165.9H0.4v632h165.4v-0.1h675.7v-78.6l0,0L841.6,58.4z M170.5,545.9l-0.1-487.5h544.2
		l82.5,487.5H170.5z"/>
	<g>
		<path class="st0" d="M380.8,212.2l13.8,0.1l0-16.1C394.7,196.2,381,196.1,380.8,212.2z"/>
		<path class="st0" d="M379.8,212.2l-13.8,0.1l0-16.1C366,196.2,379.7,196.1,379.8,212.2z"/>
	</g>
	<g>
		<path class="st0" d="M255.6,367.6l0.1-13.8l-16.1,0C239.6,353.7,239.4,367.4,255.6,367.6z"/>
		<path class="st0" d="M255.6,368.6l0.1,13.8l-16.1,0C239.6,382.4,239.4,368.7,255.6,368.6z"/>
	</g>
	<g>
		<path class="st0" d="M428.8,389.5l-13.8-0.1l0,16.1C415,405.5,428.7,405.6,428.8,389.5z"/>
		<path class="st0" d="M429.9,389.5l13.8-0.1l0,16.1C443.7,405.5,430,405.6,429.9,389.5z"/>
	</g>
	<path class="st0" d="M323.3,212.1l13.8,0.1l0-16.1C337.1,196.1,323.4,196,323.3,212.1z"/>
	<path class="st0" d="M288.2,345.4l13.8,0.1l0-16.1C302.1,329.4,288.4,329.3,288.2,345.4z"/>
</g>
<g id="Detalle_ocul">
</g>
<g id="REF_FIJAS">
	<rect x="308.6" y="445.1" class="st16" width="49.3" height="49"/>
	<g>
		<g>
			<path d="M330.3,335.1l0,3.4l1.6,0.7l0,1.8l-7.4-3.3l0-1.7l7.4-3.3l0,1.8L330.3,335.1z M329,335.7l-2.8,1.2l2.8,1.2L329,335.7z"/>
			<path d="M331.2,332.5l-1.3-0.6c0.5-0.6,0.8-1.5,0.8-2.4c0-1-0.3-1.4-0.8-1.4c-1.4,0-0.5,4.3-3.2,4.3c-1.3,0-2.3-1-2.3-3.1
				c0-0.9,0.2-1.9,0.7-2.6l1.3,0.5c-0.4,0.7-0.6,1.4-0.6,2c0,1,0.4,1.4,0.8,1.4c1.4,0,0.4-4.3,3.2-4.3c1.2,0,2.3,1,2.3,3.2
				C332,330.7,331.7,331.9,331.2,332.5z"/>
			<path d="M328.2,325.6c-2.2,0-3.8-1.7-3.8-4c0-1.3,0.5-2.3,1.3-3l1,1.1c-0.6,0.5-0.9,1.1-0.9,1.9c0,1.4,1,2.4,2.4,2.4
				c1.4,0,2.4-1,2.4-2.4c0-0.7-0.3-1.4-0.9-1.9l1-1.1c0.9,0.7,1.3,1.8,1.3,3.1C332.1,323.9,330.5,325.6,328.2,325.6z"/>
			<path d="M330.6,311.7l1.4,0l0,5.7l-7.4,0l0-5.6l1.4,0l0,3.9l1.6,0l0-3.4l1.3,0l0,3.4l1.7,0L330.6,311.7z"/>
			<path d="M324.6,303.5l7.4,0l0,1.4l-4.5,3.7l4.5,0l0,1.7l-7.4,0l0-1.4l4.5-3.7l-4.5,0L324.6,303.5z"/>
			<path d="M331.3,302.4l-1.3-0.6c0.5-0.6,0.8-1.6,0.8-2.4c0-1-0.3-1.4-0.8-1.4c-1.4,0-0.5,4.3-3.2,4.3c-1.3,0-2.3-1-2.3-3.1
				c0-0.9,0.2-1.9,0.7-2.6l1.3,0.5c-0.4,0.7-0.6,1.4-0.6,2c0,1,0.4,1.4,0.8,1.4c1.4,0,0.4-4.3,3.2-4.3c1.2,0,2.3,1,2.3,3.2
				C332.2,300.6,331.8,301.7,331.3,302.4z"/>
			<path d="M328.4,295.5c-2.2,0-3.8-1.7-3.8-4.1c0-2.3,1.6-4,3.8-4c2.2,0,3.8,1.7,3.8,4.1C332.2,293.8,330.6,295.5,328.4,295.5z
				 M328.4,289.2c-1.4,0-2.4,1-2.4,2.3c0,1.3,1,2.3,2.4,2.3c1.4,0,2.4-1,2.4-2.3C330.8,290.2,329.8,289.2,328.4,289.2z"/>
			<path d="M332.2,281.4l-2.1,1.4l0,0.1l0,1.5l2.1,0l0,1.7l-7.4,0l0-3.2c0-2,1-3.2,2.7-3.2c1.1,0,1.9,0.6,2.3,1.5l2.4-1.6
				L332.2,281.4z M326.1,283l0,1.4l2.6,0l0-1.4c0-1-0.5-1.6-1.3-1.6C326.6,281.4,326.1,282,326.1,283z"/>
			<path d="M330.8,272.6l1.4,0l0,5.7l-7.4,0l0-5.6l1.4,0l0,3.9l1.6,0l0-3.4l1.3,0l0,3.4l1.7,0L330.8,272.6z"/>
			<path d="M331.5,271.9l-1.3-0.6c0.5-0.6,0.8-1.6,0.8-2.4c0-1-0.3-1.4-0.8-1.4c-1.4,0-0.5,4.3-3.2,4.3c-1.3,0-2.3-1-2.3-3.1
				c0-0.9,0.2-1.9,0.7-2.6l1.3,0.5c-0.4,0.7-0.6,1.4-0.6,2c0,1,0.4,1.4,0.8,1.4c1.4,0,0.4-4.3,3.2-4.3c1.2,0,2.3,1,2.3,3.2
				C332.3,270,332,271.2,331.5,271.9z"/>
		</g>
	</g>
	<g>
		<g>
			<path class="st17" d="M511.3,296.8c-0.7,0-1.4,0-2.1,0c-0.8,0-1.3-0.4-1.5-1.1c-0.2-0.6,0.1-1.3,0.6-1.6c0.3-0.1,0.6-0.2,0.9-0.3
				c1.9,0,3.9,0,5.8,0c0.9,0,1.5,0.6,1.5,1.5c0,2,0,3.9,0,5.9c0,0.9-0.7,1.5-1.5,1.5c-0.8,0-1.5-0.6-1.5-1.5c0-0.7,0-1.3,0-2
				c0,0,0,0-0.1-0.1c-0.2,0.2-0.4,0.3-0.6,0.5c-1.9,1.9-3.8,3.8-5.7,5.7c-0.4,0.4-0.8,0.6-1.4,0.5c-0.6-0.1-1-0.4-1.2-1
				c-0.2-0.6-0.1-1.1,0.3-1.6c1.4-1.4,2.9-2.9,4.3-4.3c0.7-0.7,1.3-1.3,2-2C511.3,296.9,511.3,296.8,511.3,296.8z"/>
			<path class="st17" d="M515.6,313.5c0,0.5,0,1,0,1.4c0,1.8,0,3.6,0,5.4c0,1-0.6,1.7-1.7,1.7c-2.6,0-5.2,0-7.7,0
				c-1,0-1.7-0.6-1.7-1.5c0-0.9,0.7-1.5,1.7-1.5c1.9,0,3.8,0,5.7,0c0.2,0,0.4,0,0.6,0c0-0.2,0-0.4,0-0.5c0-2,0-4.1,0-6.1
				c0-1.2,0.6-1.8,1.8-1.8c2,0,4,0,6.1,0c0.2,0,0.4,0,0.6,0c0-0.2,0-0.4,0-0.6c0-1.9,0-3.9,0-5.8c0-1.2,0.6-1.8,1.8-1.8
				c2,0,3.9,0,5.9,0c0.2,0,0.4,0,0.6,0c0-0.2,0-0.4,0-0.5c0-2.1,0-4.2,0-6.3c0-1.1,0.6-1.7,1.7-1.7c2.7,0,5.4,0,8.1,0
				c1,0,1.7,0.6,1.7,1.5c0,0.9-0.7,1.5-1.7,1.5c-2,0-4.1,0-6.1,0c-0.2,0-0.4,0-0.7,0c0,0.2,0,0.4,0,0.7c0,2.1,0,4.1,0,6.2
				c0,1.2-0.6,1.7-1.8,1.8c-2,0-3.9,0-5.9,0c-0.2,0-0.4,0-0.6,0c0,0.2,0,0.4,0,0.6c0,1.9,0,3.9,0,5.8c0,1.2-0.5,1.7-1.8,1.7
				c-2,0-4,0-6,0C516.1,313.5,515.9,313.5,515.6,313.5z"/>
		</g>
	</g>
	<g>
		<path d="M342.1,472.1c-1.1,0-2.1,0-3.2,0c1.2-4.2,2.4-8.4,3.6-12.6c-0.4-0.2-0.6-0.2-0.8,0.3c-0.6,2.1-1.3,4.2-1.9,6.2
			c-0.1,0.4-0.3,0.8-0.5,1.1c-0.3,0.4-0.8,0.5-1.3,0.2c-0.5-0.3-0.6-0.6-0.5-1.2c0.8-2.7,1.5-5.5,2.3-8.2c0.4-1.3,1.2-2.2,2.6-2.3
			c1.8-0.1,3.6-0.2,5.4,0c1.5,0.1,2.2,1.3,2.7,2.6c0.7,2.5,1.5,5,2.2,7.4c0.3,0.9,0.1,1.5-0.5,1.7c-0.7,0.2-1.4-0.2-1.7-1
			c-0.6-1.9-1.2-3.9-1.8-5.8c-0.1-0.4-0.3-0.8-0.4-1.3c-0.2,0-0.3,0.1-0.5,0.1c1.2,4.2,2.5,8.4,3.7,12.6c-1.1,0-2.2,0-3.3,0
			c0,0.2,0,0.4,0,0.6c0,2.9,0,5.7,0,8.6c0,0.3,0,0.6-0.1,0.9c-0.1,0.7-0.5,1-1.2,1c-0.7,0-1.2-0.3-1.3-1c-0.1-0.3-0.1-0.6-0.1-1
			c0-2.9,0-5.8,0-8.7c0-0.3,0-0.6-0.5-0.4c0,0.2,0,0.4,0,0.6c0,2.9,0,5.7,0,8.6c0,0.4,0,0.8-0.2,1.1c-0.2,0.6-0.7,0.9-1.3,0.8
			c-0.6-0.1-1-0.4-1.1-1.1c-0.1-0.3-0.1-0.7-0.1-1c0-2.8,0-5.6,0-8.3C342.1,472.6,342.1,472.4,342.1,472.1z"/>
		<path d="M327.3,460.2c-0.3,0-0.5,0-0.8,0c0,0.2,0,0.4,0,0.6c0.1,6.7,0.1,13.3,0.2,20c0,0.4,0,0.9-0.1,1.3c-0.1,0.7-0.5,1-1.2,1
			c-0.8,0.1-1.4-0.2-1.6-0.9c-0.1-0.4-0.2-0.8-0.2-1.2c0-3.8-0.1-7.7-0.1-11.5c0-0.2,0-0.3,0-0.5c-0.2,0-0.4,0-0.6,0
			c0,0.2,0,0.5,0,0.7c0,3.7,0.1,7.5,0.1,11.2c0,0.5,0,1-0.2,1.4c-0.1,0.6-0.6,0.8-1.3,0.8c-0.7,0-1.2-0.3-1.3-0.8
			c-0.1-0.4-0.2-0.9-0.2-1.4c-0.1-6.7-0.1-13.5-0.1-20.2c0-0.4,0-0.8-0.6-0.5c0,0.2,0,0.3,0,0.5c0,2.1,0,4.2,0,6.3
			c0,0.4,0,0.8-0.1,1.2c-0.1,0.6-0.5,0.9-1.2,0.8c-0.6,0-0.9-0.3-0.9-1c-0.1-0.6-0.1-1.2-0.1-1.8c0-2.4-0.1-4.7,0-7.1
			c0.1-2.1,1.1-3.2,3.2-3.3c2.1-0.1,4.2-0.1,6.3,0.1c1.8,0.1,2.9,1.3,3,3.1c0.1,2.8,0.1,5.7,0.1,8.5c0,1.1-0.4,1.5-1.4,1.4
			c-0.4,0-0.7-0.2-0.8-0.7c-0.1-0.4-0.1-0.9-0.1-1.3C327.3,464.7,327.3,462.5,327.3,460.2z"/>
		<path d="M335.3,483c-1,0-2,0-3,0c-0.1-11.1-0.1-22.1-0.2-33.2c1,0,2,0,3,0C335.2,460.9,335.3,471.9,335.3,483z"/>
		<path d="M320.6,452.3c0-1.5,1.2-2.7,2.7-2.6c1.5,0,2.7,1.2,2.6,2.7c0,1.5-1.2,2.7-2.7,2.7C321.8,455.1,320.6,453.8,320.6,452.3z"
			/>
		<path d="M347.8,452.2c0,1.5-1.1,2.7-2.5,2.7c-1.5,0-2.8-1.2-2.8-2.6c0-1.5,1.2-2.7,2.6-2.7C346.6,449.5,347.8,450.7,347.8,452.2z"
			/>
	</g>
	<rect x="348.6" y="269" class="st13" width="4.9" height="29.3"/>
	<rect x="348.6" y="308.5" class="st13" width="4.9" height="29.3"/>
</g>
<g id="PT_GUIA">
	<g>
		<path class="st18" d="M435.5,296.2c0,1.3-1,2.1-2.6,2.1l-1,0l0,1.5l-1.6,0l0.1-5.8l2.6,0C434.5,294,435.5,294.8,435.5,296.2z
			 M433.8,296.1c0-0.5-0.3-0.9-1-0.9l-0.9,0l0,1.7l0.9,0C433.5,297,433.8,296.7,433.8,296.1z"/>
		<path class="st18" d="M436.2,297.2l0-3.2l1.6,0l0,3.2c0,1,0.4,1.4,1.1,1.4c0.7,0,1.1-0.4,1.1-1.4l0-3.2l1.6,0l0,3.2
			c0,1.7-1,2.7-2.7,2.7S436.1,299,436.2,297.2z"/>
		<path class="st18" d="M448.2,294.1l-0.1,5.8l-1.3,0l-2.5-3.1l0,3.1l-1.6,0l0.1-5.8l1.3,0l2.5,3.1l0-3.1L448.2,294.1z"/>
		<path class="st18" d="M450.6,295.5l-1.8,0l0-1.3l5.2,0l0,1.3l-1.8,0l0,4.5l-1.6,0L450.6,295.5z"/>
		<path class="st18" d="M454.2,297.1c0-1.7,1.4-3,3.2-3c1.8,0,3.2,1.3,3.2,3s-1.4,3-3.2,3C455.6,300.1,454.2,298.8,454.2,297.1z
			 M459,297.1c0-1-0.7-1.7-1.5-1.7c-0.9,0-1.6,0.6-1.6,1.6c0,1,0.7,1.7,1.5,1.7C458.3,298.8,459,298.1,459,297.1z"/>
		<path class="st18" d="M463.9,294.3l2.7,0c1.9,0,3.2,1.1,3.2,2.9c0,1.8-1.3,2.9-3.3,2.9l-2.7,0L463.9,294.3z M466.6,298.8
			c1,0,1.6-0.6,1.7-1.6c0-1-0.6-1.6-1.6-1.6l-1,0l0,3.2L466.6,298.8z"/>
		<path class="st18" d="M475.4,298.9l0,1.3l-4.6,0l0.1-5.8l4.5,0l0,1.3l-2.9,0l0,1l2.6,0l0,1.2l-2.6,0l0,1.1L475.4,298.9z"/>
		<path class="st18" d="M429.2,305.9c0-1.8,1.4-3,3.2-3c1.1,0,1.9,0.4,2.5,1.1l-1,0.9c-0.4-0.4-0.8-0.7-1.4-0.7
			c-0.9,0-1.6,0.6-1.6,1.6c0,1,0.6,1.7,1.6,1.7c0.6,0,1-0.2,1.4-0.7l1,1c-0.6,0.7-1.4,1.1-2.5,1.1
			C430.5,308.9,429.1,307.7,429.2,305.9z"/>
		<path class="st18" d="M435.1,306c0-1.7,1.4-3,3.2-3c1.8,0,3.2,1.3,3.2,3c0,1.7-1.4,3-3.2,3C436.5,309,435.1,307.7,435.1,306z
			 M439.9,306c0-1-0.7-1.7-1.5-1.7s-1.6,0.6-1.6,1.6c0,1,0.7,1.7,1.5,1.7C439.2,307.6,439.9,307,439.9,306z"/>
		<path class="st18" d="M447.9,303.2l-0.1,5.8l-1.3,0l-2.5-3.1l0,3.1l-1.6,0l0.1-5.8l1.3,0l2.5,3.1l0-3.1L447.9,303.2z"/>
		<path class="st18" d="M453.7,307.7l0,1.3l-4.6,0l0.1-5.8l4.5,0l0,1.3l-2.9,0l0,1l2.6,0l0,1.2l-2.6,0l0,1.1L453.7,307.7z"/>
		<path class="st18" d="M458.2,309.1l-1.2-1.8l-1.2,1.8l-1.9,0l2.1-2.9l-2-2.9l1.8,0l1.1,1.7l1.2-1.7l1.8,0l-2,2.8l2.1,3
			L458.2,309.1z"/>
		<path class="st18" d="M460.5,303.3l1.6,0l-0.1,5.8l-1.6,0L460.5,303.3z"/>
		<path class="st18" d="M463,306.2c0-1.7,1.4-3,3.2-3c1.8,0,3.2,1.3,3.2,3s-1.4,3-3.2,3C464.3,309.2,463,307.9,463,306.2z
			 M467.8,306.2c0-1-0.7-1.7-1.5-1.7s-1.6,0.6-1.6,1.6c0,1,0.7,1.7,1.5,1.7S467.7,307.2,467.8,306.2z M466.5,301.6l1.6,0l-1.6,1.2
			l-1.1,0L466.5,301.6z"/>
		<path class="st18" d="M475.8,303.4l-0.1,5.8l-1.3,0l-2.5-3.1l0,3.1l-1.6,0l0.1-5.8l1.3,0l2.5,3.1l0-3.1L475.8,303.4z"/>
	</g>
	<circle class="st18" cx="418.5" cy="301.3" r="5.1"/>
</g>
</svg>
