<?xml version="1.0" encoding="utf-8"?>
<!-- Generator: Adobe Illustrator 25.4.1, SVG Export Plug-In . SVG Version: 6.00 Build 0)  -->
<svg version="1.1" xmlns="http://www.w3.org/2000/svg" xmlns:xlink="http://www.w3.org/1999/xlink" x="0px" y="0px"
	 viewBox="0 0 842 632.8" style="enable-background:new 0 0 842 632.8;" xml:space="preserve">
<style type="text/css">
	.st0{fill:#AAB9C9;}
	.st1{fill:#EAE1E1;stroke:#9FADBC;stroke-width:3;stroke-miterlimit:10;}
	.st2{fill:#8ECEB7;}
	.st3{fill:none;stroke:#000000;stroke-miterlimit:10;}
	.st4{fill:#B2B2B2;}
	.st5{fill:#B2B2B2;stroke:#000000;stroke-miterlimit:10;}
	.st6{fill:#8E8E8E;stroke:#000000;stroke-miterlimit:10;}
	.st7{fill:#B2B2B2;stroke:#595959;stroke-miterlimit:10;}
	.st8{fill:none;stroke:#000000;stroke-width:2;stroke-miterlimit:10;}
	.st9{fill:#F8F7F7;stroke:#000000;stroke-miterlimit:10;}
	.st10{fill:#545454;stroke:#000000;stroke-miterlimit:10;}
	.st11{fill:#383838;stroke:#000000;stroke-miterlimit:10;}
	.st12{fill:#F8F7F7;}
	.st13{fill:#7A8898;stroke:#7A8898;stroke-width:4;stroke-miterlimit:10;}
	.st14{fill:#FFFFFF;}
	.st15{fill:#0C7A34;}
	.st16{fill:#2E4AAD;}
	.st17{fill:#B1B1B1;stroke:#000000;stroke-miterlimit:10;}
	.st18{fill:#9C9B9B;stroke:#000000;stroke-miterlimit:10;}
	.st19{fill:#868686;stroke:#000000;stroke-miterlimit:10;}
	.st20{fill:#6F6F6E;stroke:#000000;stroke-miterlimit:10;}
	.st21{fill:#575756;stroke:#000000;stroke-miterlimit:10;}
	.st22{fill:#3C3C3B;stroke:#000000;stroke-miterlimit:10;}
	.st23{fill:#1D1D1B;stroke:#000000;stroke-miterlimit:10;}
	.st24{fill:#706F6E;stroke:#000000;stroke-miterlimit:10;}
	.st25{fill:#C6C6C5;stroke:#000000;stroke-miterlimit:10;}
	.st26{fill:#D9D9D9;stroke:#000000;stroke-miterlimit:10;}
	.st27{fill:#ECECEC;stroke:#000000;stroke-miterlimit:10;}
	.st28{fill:#F5F5F5;stroke:#000000;stroke-miterlimit:10;}
</style>
<g id="VER_y_CALL">
	<rect y="0" class="st0" width="102.3" height="632.7"/>
	<polygon class="st1" points="101.9,1.7 102.6,631.3 840.5,631.3 840.6,1.6 	"/>
	<polygon class="st1" points="1.5,631 16.2,631.2 16.3,1.5 1.5,1.5 	"/>
</g>
<g id="PATIOS">
	<rect x="490.9" y="400.8" class="st2" width="83.5" height="145"/>
	<rect x="490.9" y="58.4" class="st2" width="83.5" height="159.6"/>
	<polygon class="st2" points="797.2,546.2 574.4,545.8 574.1,58.4 714.7,58.4 	"/>
	<polygon class="st3" points="714.7,58.4 574.4,58.4 574.1,58.4 490.9,58.4 490.9,218 574.2,218 574.3,400.8 490.9,400.8 
		490.9,545.8 574.4,545.8 797.2,546.2 	"/>
</g>
<g id="Corredor">
	<g>
		<rect x="198" y="154.9" class="st4" width="292.9" height="318"/>
	</g>
	<g>
		<rect x="165.9" y="154.9" class="st4" width="32.2" height="292.7"/>
	</g>
	<g>
		<rect x="198" y="472.9" class="st4" width="108.2" height="72.9"/>
	</g>
	<g>
		<rect x="490.9" y="218.1" class="st5" width="98.5" height="64.9"/>
	</g>
	<g>
		<rect x="490.9" y="282.8" class="st6" width="98.6" height="117.7"/>
	</g>
	<g>
		<rect x="166.7" y="447.6" class="st4" width="31.3" height="98.2"/>
	</g>
</g>
<g id="Deta_corre">
	<rect x="223.1" y="472.9" class="st7" width="83" height="15.6"/>
	<polygon class="st3" points="198,154.9 198,447.6 166.3,447.6 166.4,545.8 198,545.8 198.2,545.8 306.2,545.8 306.2,472.9 
		490.9,472.9 490.9,154.9 	"/>
	<path class="st3" d="M490.8,245.3l0.1-13.8l-16.1,0C474.8,231.5,474.6,245.2,490.8,245.3z"/>
	<path class="st3" d="M490.8,246l0,13.8l-16.1-0.1C474.7,259.8,474.6,246.1,490.8,246z"/>
	<path class="st3" d="M490.8,181.3l0.1-13.8l-16.1,0C474.8,167.5,474.6,181.2,490.8,181.3z"/>
	<path class="st3" d="M490.8,182l0,13.8l-16.1-0.1C474.7,195.8,474.6,182.1,490.8,182z"/>
	<path class="st3" d="M490.8,424.4l0.1-13.8l-16.1,0C474.8,410.5,474.6,424.2,490.8,424.4z"/>
	<path class="st3" d="M490.8,425.1l0,13.8l-16.1-0.1C474.7,438.9,474.6,425.1,490.8,425.1z"/>
	<path class="st3" d="M198.2,232.3l-0.1-13.8l18.2,0C216.3,218.5,216.4,232.2,198.2,232.3z"/>
	<path class="st3" d="M198.2,233l0.1,13.8l18.2-0.1C216.4,246.8,216.5,233.1,198.2,233z"/>
	<path class="st3" d="M198.2,367.4l-0.1-13.8l18.2,0C216.3,353.5,216.4,367.2,198.2,367.4z"/>
	<path class="st3" d="M198.2,368.1l0.1,13.8l18.2-0.1C216.4,381.8,216.5,368.1,198.2,368.1z"/>
	<path class="st3" d="M197.9,188.3l0.1,13.8l18.2-0.1C216.1,202.1,216.2,188.4,197.9,188.3z"/>
	<line class="st8" x1="198.1" y1="154.9" x2="198.1" y2="447.5"/>
	<line class="st8" x1="491.4" y1="218" x2="491.4" y2="283.1"/>
</g>
<g id="AULAS">
	<rect x="306.2" y="58.4" class="st9" width="61.6" height="96.5"/>
	<rect x="304.9" y="258.2" class="st9" width="48.7" height="87.4"/>
	<rect x="306.2" y="472.9" class="st9" width="26" height="72.9"/>
	<rect x="332.3" y="472.9" class="st9" width="26.2" height="72.9"/>
	<rect x="358.5" y="472.9" class="st9" width="38.7" height="72.9"/>
	<rect x="429.3" y="58.4" class="st9" width="61.5" height="96.5"/>
</g>
<g id="Detalle_ofic">
	<path class="st3" d="M485.3,154.8l-13.8,0l0.1-16.1C471.6,138.7,485.3,138.7,485.3,154.8z"/>
	<path class="st3" d="M361.2,154.8l-13.8,0l0.1-16.1C347.5,138.7,361.2,138.7,361.2,154.8z"/>
	<path class="st3" d="M315,473.2l11.3,0l-0.1,13.1C326.2,486.3,315,486.3,315,473.2z"/>
	<path class="st3" d="M349.8,473.2l-11.3,0l0.1,13.1C338.6,486.3,349.7,486.3,349.8,473.2z"/>
	<path class="st3" d="M374.6,473.2l-11.3,0l0.1,13.1C363.4,486.3,374.6,486.3,374.6,473.2z"/>
</g>
<g id="OCULTO">
	<rect x="197.7" y="58.4" class="st10" width="108.5" height="96.5"/>
	<rect x="165.9" y="58.4" class="st10" width="31.9" height="96.5"/>
	<rect x="397.2" y="472.9" class="st10" width="93.7" height="72.9"/>
	<rect x="367.8" y="58.4" class="st10" width="61.5" height="96.5"/>
</g>
<g id="Oculto_Resu">
	<polygon class="st11" points="841.6,553.7 841.6,58.4 841.6,0.4 165.9,0.4 165.9,58.4 714.7,58.4 797.2,545.9 165.9,545.9 
		165.9,632.4 841.6,632.4 841.6,553.7 	"/>
</g>
<g id="Detalle_ocul">
</g>
<g id="REF_FIJAS">
	<rect x="328.7" y="492.7" class="st12" width="49.3" height="49"/>
	<g>
		<g>
			<path class="st13" d="M63,395.7l0,11.2l5.2,2.1l0,5.7l-24-10.7l0-5.5l24-10.8l0,5.8L63,395.7z M58.8,397.4l-9.2,3.8l9.2,3.8
				L58.8,397.4z"/>
			<path class="st13" d="M68.2,369.9l-6.7,4.6v0.3l0,4.8l6.7,0l0,5.6l-24,0l0-10.4c0-6.4,3.3-10.4,8.7-10.4c3.6,0,6.3,1.8,7.6,4.9
				l7.7-5.4L68.2,369.9z M48.7,375.1l0,4.5l8.4,0l0-4.5c0-3.4-1.6-5.1-4.2-5.1C50.2,370,48.7,371.7,48.7,375.1z"/>
			<path class="st13" d="M63.7,341.3l4.5,0l0,18.6l-24,0l0-18.2l4.5,0l0,12.6l5.2,0l0-11.2l4.3,0l0,11.2l5.6,0L63.7,341.3z"/>
			<path class="st13" d="M44.1,314.8l24,0l0,4.6l-14.6,12l14.6,0l0,5.5l-24,0l0-4.6l14.6-12l-14.6,0L44.1,314.8z"/>
			<path class="st13" d="M63,293.3l0,11.2l5.2,2.1l0,5.7l-24-10.7l0-5.5l24-10.8l0,5.8L63,293.3z M58.8,295l-9.2,3.8l9.2,3.8
				L58.8,295z"/>
			<path class="st13" d="M44.1,282.8l0-5.6l19.5,0l0-12.1l4.5,0l0,17.6L44.1,282.8z"/>
			<path class="st13" d="M63.6,243.4l4.5,0l0,18.6l-24,0l0-18.2l4.5,0l0,12.6l5.2,0l0-11.2l4.3,0l0,11.2l5.6,0L63.6,243.4z"/>
			<path class="st13" d="M65.7,240.9l-4.2-1.9c1.5-2,2.5-5,2.5-7.9c0-3.3-1.1-4.6-2.6-4.6c-4.5,0-1.4,14-10.3,14
				c-4.1,0-7.5-3.3-7.5-10.1c0-3,0.7-6.1,2.1-8.3l4.2,1.7c-1.3,2.2-1.9,4.5-1.9,6.7c0,3.3,1.2,4.6,2.8,4.6c4.4,0,1.4-14,10.2-14
				c4,0,7.5,3.3,7.5,10.2C68.5,234.9,67.4,238.8,65.7,240.9z"/>
		</g>
	</g>
	<g>
		<g>
			<path class="st14" d="M63,395.7l0,11.2l5.2,2.1l0,5.7l-24-10.7l0-5.5l24-10.8l0,5.8L63,395.7z M58.8,397.4l-9.2,3.8l9.2,3.8
				L58.8,397.4z"/>
			<path class="st14" d="M68.2,369.9l-6.7,4.6v0.3l0,4.8l6.7,0l0,5.6l-24,0l0-10.4c0-6.4,3.3-10.4,8.7-10.4c3.6,0,6.3,1.8,7.6,4.9
				l7.7-5.4L68.2,369.9z M48.7,375.1l0,4.5l8.4,0l0-4.5c0-3.4-1.6-5.1-4.2-5.1C50.2,370,48.7,371.7,48.7,375.1z"/>
			<path class="st14" d="M63.7,341.3l4.5,0l0,18.6l-24,0l0-18.2l4.5,0l0,12.6l5.2,0l0-11.2l4.3,0l0,11.2l5.6,0L63.7,341.3z"/>
			<path class="st14" d="M44.1,314.8l24,0l0,4.6l-14.6,12l14.6,0l0,5.5l-24,0l0-4.6l14.6-12l-14.6,0L44.1,314.8z"/>
			<path class="st14" d="M63,293.3l0,11.2l5.2,2.1l0,5.7l-24-10.7l0-5.5l24-10.8l0,5.8L63,293.3z M58.8,295l-9.2,3.8l9.2,3.8
				L58.8,295z"/>
			<path class="st14" d="M44.1,282.8l0-5.6l19.5,0l0-12.1l4.5,0l0,17.6L44.1,282.8z"/>
			<path class="st14" d="M63.6,243.4l4.5,0l0,18.6l-24,0l0-18.2l4.5,0l0,12.6l5.2,0l0-11.2l4.3,0l0,11.2l5.6,0L63.6,243.4z"/>
			<path class="st14" d="M65.7,240.9l-4.2-1.9c1.5-2,2.5-5,2.5-7.9c0-3.3-1.1-4.6-2.6-4.6c-4.5,0-1.4,14-10.3,14
				c-4.1,0-7.5-3.3-7.5-10.1c0-3,0.7-6.1,2.1-8.3l4.2,1.7c-1.3,2.2-1.9,4.5-1.9,6.7c0,3.3,1.2,4.6,2.8,4.6c4.4,0,1.4-14,10.2-14
				c4,0,7.5,3.3,7.5,10.2C68.5,234.9,67.4,238.8,65.7,240.9z"/>
		</g>
	</g>
	<g>
		<path class="st15" d="M185.5,239.6l2,0l0,8.3l-10.7,0l0-8.1l2,0l0,5.6l2.3,0l0-5l1.9,0l0,5l2.5,0L185.5,239.6z"/>
		<path class="st15" d="M176.8,227.7l10.7,0l0,2l-6.5,5.3l6.5,0l0,2.5l-10.7,0l0-2.1l6.5-5.3l-6.5,0L176.8,227.7z"/>
		<path class="st15" d="M178.8,223l0,3.4l-2,0l0-9.4l2,0l0,3.4l8.7,0l0,2.5L178.8,223z"/>
		<path class="st15" d="M187.5,208.9l-3,2.1v0.1l0,2.2l3,0l0,2.5l-10.7,0l0-4.6c0-2.9,1.5-4.7,3.9-4.7c1.6,0,2.8,0.8,3.4,2.2
			l3.5-2.4L187.5,208.9z M178.8,211.2l0,2l3.7,0l0-2c0-1.5-0.7-2.3-1.9-2.3C179.5,208.9,178.8,209.7,178.8,211.2z"/>
		<path class="st15" d="M185.3,197.4l0,5l2.3,1l0,2.5l-10.7-4.8l0-2.5l10.7-4.8l0,2.6L185.3,197.4z M183.4,198.2l-4.1,1.7l4.1,1.7
			L183.4,198.2z"/>
		<path class="st15" d="M176.9,192.7l0-4.9c0-3.5,2.1-5.9,5.4-5.9c3.3,0,5.4,2.4,5.4,5.9l0,4.9L176.9,192.7z M185.6,188
			c0-2.1-1.3-3.5-3.3-3.5c-2.1,0-3.3,1.4-3.3,3.5l0,2.3l6.7,0L185.6,188z"/>
		<path class="st15" d="M185.3,173.1l0,5l2.3,1l0,2.5l-10.7-4.8l0-2.5l10.7-4.8l0,2.6L185.3,173.1z M183.4,173.9l-4.1,1.7l4.1,1.7
			L183.4,173.9z"/>
	</g>
	<g>
		<g>
			<path d="M330.3,335.1l0,3.4l1.6,0.7l0,1.8l-7.4-3.3l0-1.7l7.4-3.3l0,1.8L330.3,335.1z M329,335.7l-2.8,1.2l2.8,1.2L329,335.7z"/>
			<path d="M331.2,332.5l-1.3-0.6c0.5-0.6,0.8-1.5,0.8-2.4c0-1-0.3-1.4-0.8-1.4c-1.4,0-0.5,4.3-3.2,4.3c-1.3,0-2.3-1-2.3-3.1
				c0-0.9,0.2-1.9,0.7-2.6l1.3,0.5c-0.4,0.7-0.6,1.4-0.6,2c0,1,0.4,1.4,0.8,1.4c1.4,0,0.4-4.3,3.2-4.3c1.2,0,2.3,1,2.3,3.2
				C332,330.7,331.7,331.9,331.2,332.5z"/>
			<path d="M328.2,325.6c-2.2,0-3.8-1.7-3.8-4c0-1.3,0.5-2.3,1.3-3l1,1.1c-0.6,0.5-0.9,1.1-0.9,1.9c0,1.4,1,2.4,2.4,2.4
				c1.4,0,2.4-1,2.4-2.4c0-0.7-0.3-1.4-0.9-1.9l1-1.1c0.9,0.7,1.3,1.8,1.3,3.1C332.1,323.9,330.5,325.6,328.2,325.6z"/>
			<path d="M330.6,311.7l1.4,0l0,5.7l-7.4,0l0-5.6l1.4,0l0,3.9l1.6,0l0-3.4l1.3,0l0,3.4l1.7,0L330.6,311.7z"/>
			<path d="M324.6,303.5l7.4,0l0,1.4l-4.5,3.7l4.5,0l0,1.7l-7.4,0l0-1.4l4.5-3.7l-4.5,0L324.6,303.5z"/>
			<path d="M331.3,302.4l-1.3-0.6c0.5-0.6,0.8-1.6,0.8-2.4c0-1-0.3-1.4-0.8-1.4c-1.4,0-0.5,4.3-3.2,4.3c-1.3,0-2.3-1-2.3-3.1
				c0-0.9,0.2-1.9,0.7-2.6l1.3,0.5c-0.4,0.7-0.6,1.4-0.6,2c0,1,0.4,1.4,0.8,1.4c1.4,0,0.4-4.3,3.2-4.3c1.2,0,2.3,1,2.3,3.2
				C332.2,300.6,331.8,301.7,331.3,302.4z"/>
			<path d="M328.4,295.5c-2.2,0-3.8-1.7-3.8-4.1c0-2.3,1.6-4,3.8-4c2.2,0,3.8,1.7,3.8,4.1C332.2,293.8,330.6,295.5,328.4,295.5z
				 M328.4,289.2c-1.4,0-2.4,1-2.4,2.3c0,1.3,1,2.3,2.4,2.3c1.4,0,2.4-1,2.4-2.3C330.8,290.2,329.8,289.2,328.4,289.2z"/>
			<path d="M332.2,281.4l-2.1,1.4l0,0.1l0,1.5l2.1,0l0,1.7l-7.4,0l0-3.2c0-2,1-3.2,2.7-3.2c1.1,0,1.9,0.6,2.3,1.5l2.4-1.6
				L332.2,281.4z M326.1,283l0,1.4l2.6,0l0-1.4c0-1-0.5-1.6-1.3-1.6C326.6,281.4,326.1,282,326.1,283z"/>
			<path d="M330.8,272.6l1.4,0l0,5.7l-7.4,0l0-5.6l1.4,0l0,3.9l1.6,0l0-3.4l1.3,0l0,3.4l1.7,0L330.8,272.6z"/>
			<path d="M331.5,271.9l-1.3-0.6c0.5-0.6,0.8-1.6,0.8-2.4c0-1-0.3-1.4-0.8-1.4c-1.4,0-0.5,4.3-3.2,4.3c-1.3,0-2.3-1-2.3-3.1
				c0-0.9,0.2-1.9,0.7-2.6l1.3,0.5c-0.4,0.7-0.6,1.4-0.6,2c0,1,0.4,1.4,0.8,1.4c1.4,0,0.4-4.3,3.2-4.3c1.2,0,2.3,1,2.3,3.2
				C332.3,270,332,271.2,331.5,271.9z"/>
		</g>
	</g>
	<g>
		<path d="M420.3,344.8l-0.1,10.1l-2.3,0l0-4.1l-4.6,0l0,4.1l-2.3,0l0.1-10.1l2.3,0l0,4l4.6,0l0-4L420.3,344.8z"/>
		<path d="M429.2,352.8l-4.7,0l-0.9,2.1l-2.4,0l4.6-10l2.3,0l4.4,10.1l-2.4,0L429.2,352.8z M428.5,351l-1.6-3.9l-1.6,3.8L428.5,351z
			"/>
		<path d="M433.7,344.9l2.3,0l-0.1,8.2l5,0l0,1.9l-7.4-0.1L433.7,344.9z"/>
		<path d="M442.4,345l2.3,0l-0.1,8.2l5,0l0,1.9l-7.4-0.1L442.4,345z"/>
	</g>
	<g>
		<path d="M652.2,311.6c0,2.9-2.2,4.7-5.7,4.6l-2.6,0l0,3.6l-3,0l0.1-13l5.6,0.1C650.1,306.9,652.3,308.7,652.2,311.6z M649.2,311.6
			c0-1.4-0.9-2.3-2.7-2.3l-2.4,0l0,4.5l2.4,0C648.3,313.8,649.2,313,649.2,311.6z"/>
		<path d="M662.2,317.2l-6-0.1l-1.2,2.8l-3.1,0l5.9-12.9l3,0l5.7,13l-3.1,0L662.2,317.2z M661.3,314.9l-2-5l-2.1,4.9L661.3,314.9z"
			/>
		<path d="M670,309.5l-4.1,0l0-2.4l11.3,0.1l0,2.4l-4.1,0l-0.1,10.5l-3,0L670,309.5z"/>
		<path d="M678.7,307.2l3,0l-0.1,13l-3,0L678.7,307.2z"/>
		<path d="M683.9,313.7c0-3.9,3.1-6.7,7.1-6.6c4.1,0,7.1,2.9,7,6.8c0,3.9-3.1,6.7-7.1,6.6C686.9,320.4,683.9,317.5,683.9,313.7z
			 M695.1,313.8c0-2.5-1.7-4.2-4-4.2c-2.3,0-4.1,1.6-4.1,4.1s1.7,4.2,4,4.2C693.3,317.9,695,316.2,695.1,313.8z"/>
	</g>
	<g>
		<path class="st16" d="M244.3,176.4c0,1.8-1.4,2.9-3.5,2.9l-1.4,0l0,2l-2.2,0l0.1-7.8l3.6,0C242.9,173.5,244.3,174.6,244.3,176.4z
			 M242,176.4c0-0.7-0.4-1.2-1.4-1.2l-1.2,0l0,2.3l1.2,0C241.5,177.5,242,177.1,242,176.4z"/>
		<path class="st16" d="M245.2,177.9l0-4.3l2.2,0l0,4.3c0,1.3,0.5,1.9,1.5,1.9c0.9,0,1.5-0.5,1.5-1.9l0-4.3l2.2,0l0,4.3
			c0,2.3-1.4,3.6-3.7,3.6C246.5,181.5,245.1,180.2,245.2,177.9z"/>
		<path class="st16" d="M261.5,173.7l-0.1,7.8l-1.8,0l-3.4-4.2l0,4.2l-2.2,0l0.1-7.8l1.8,0l3.4,4.2l0-4.2L261.5,173.7z"/>
		<path class="st16" d="M264.7,175.5l-2.4,0l0-1.8l7,0.1l0,1.8l-2.4,0l-0.1,6.1l-2.2,0L264.7,175.5z"/>
		<path class="st16" d="M269.6,177.7c0-2.4,1.9-4.1,4.4-4s4.3,1.8,4.3,4.1c0,2.4-1.9,4.1-4.4,4S269.6,180,269.6,177.7z M276.1,177.7
			c0-1.4-0.9-2.2-2.1-2.3c-1.2,0-2.1,0.9-2.1,2.2c0,1.4,0.9,2.2,2.1,2.3C275.2,180,276.1,179.1,276.1,177.7z"/>
		<path class="st16" d="M233.3,185.7l3.7,0c2.6,0,4.4,1.6,4.3,4c0,2.4-1.8,3.9-4.4,3.9l-3.7,0L233.3,185.7z M236.8,191.8
			c1.3,0,2.2-0.8,2.2-2.1c0-1.4-0.9-2.2-2.2-2.2l-1.4,0l0,4.3L236.8,191.8z"/>
		<path class="st16" d="M248.7,191.9l0,1.7l-6.3-0.1l0.1-7.8l6.1,0.1l0,1.7l-4,0l0,1.3l3.5,0l0,1.7l-3.5,0l0,1.4L248.7,191.9z"/>
		<path class="st16" d="M258.5,189.6l2,0l0,3.2c-0.9,0.6-2.2,1-3.3,1c-2.5,0-4.3-1.7-4.3-4.1c0-2.4,1.9-4.1,4.4-4
			c1.5,0,2.6,0.5,3.4,1.5l-1.4,1.3c-0.5-0.6-1.1-0.9-1.9-0.9c-1.3,0-2.2,0.9-2.3,2.2c0,1.3,0.9,2.2,2.2,2.3c0.4,0,0.8-0.1,1.2-0.2
			L258.5,189.6z"/>
		<path class="st16" d="M261.8,190.3l0-4.3l2.2,0l0,4.3c0,1.3,0.5,1.9,1.5,1.9c0.9,0,1.5-0.5,1.5-1.9l0-4.3l2.2,0l0,4.3
			c0,2.3-1.4,3.6-3.7,3.6C263.1,193.9,261.8,192.6,261.8,190.3z"/>
		<path class="st16" d="M270.7,186l2.2,0l-0.1,7.8l-2.2,0L270.7,186z M272.2,183.7l2.1,0l-2.1,1.7l-1.5,0L272.2,183.7z"/>
		<path class="st16" d="M279.7,192.4l-3.3,0l-0.6,1.5l-2.3,0l3.5-7.8l2.2,0l3.4,7.9l-2.3,0L279.7,192.4z M279,190.8l-1-2.5l-1,2.5
			L279,190.8z"/>
	</g>
	<g>
		<path d="M361.9,521.7c-1.1,0-2.1,0-3.2,0c1.2-4.2,2.4-8.4,3.6-12.6c-0.4-0.2-0.6-0.2-0.8,0.3c-0.6,2.1-1.3,4.2-1.9,6.2
			c-0.1,0.4-0.3,0.8-0.5,1.1c-0.3,0.4-0.8,0.5-1.3,0.2c-0.5-0.3-0.6-0.6-0.5-1.2c0.8-2.7,1.5-5.5,2.3-8.2c0.4-1.3,1.2-2.2,2.6-2.3
			c1.8-0.1,3.6-0.2,5.4,0c1.5,0.1,2.2,1.3,2.7,2.6c0.7,2.5,1.5,5,2.2,7.4c0.3,0.9,0.1,1.5-0.5,1.7c-0.7,0.2-1.4-0.2-1.7-1
			c-0.6-1.9-1.2-3.9-1.8-5.8c-0.1-0.4-0.3-0.8-0.4-1.3c-0.2,0-0.3,0.1-0.5,0.1c1.2,4.2,2.5,8.4,3.7,12.6c-1.1,0-2.2,0-3.3,0
			c0,0.2,0,0.4,0,0.6c0,2.9,0,5.7,0,8.6c0,0.3,0,0.6-0.1,0.9c-0.1,0.7-0.5,1-1.2,1c-0.7,0-1.2-0.3-1.3-1c-0.1-0.3-0.1-0.6-0.1-1
			c0-2.9,0-5.8,0-8.7c0-0.3,0-0.6-0.5-0.4c0,0.2,0,0.4,0,0.6c0,2.9,0,5.7,0,8.6c0,0.4,0,0.8-0.2,1.1c-0.2,0.6-0.7,0.9-1.3,0.8
			c-0.6-0.1-1-0.4-1.1-1.1c-0.1-0.3-0.1-0.7-0.1-1c0-2.8,0-5.6,0-8.3C361.9,522.2,361.9,522,361.9,521.7z"/>
		<path d="M347.1,509.8c-0.3,0-0.5,0-0.8,0c0,0.2,0,0.4,0,0.6c0.1,6.7,0.1,13.3,0.2,20c0,0.4,0,0.9-0.1,1.3c-0.1,0.7-0.5,1-1.2,1
			c-0.8,0.1-1.4-0.2-1.6-0.9c-0.1-0.4-0.2-0.8-0.2-1.2c0-3.8-0.1-7.7-0.1-11.5c0-0.2,0-0.3,0-0.5c-0.2,0-0.4,0-0.6,0
			c0,0.2,0,0.5,0,0.7c0,3.7,0.1,7.5,0.1,11.2c0,0.5,0,1-0.2,1.4c-0.1,0.6-0.6,0.8-1.3,0.8c-0.7,0-1.2-0.3-1.3-0.8
			c-0.1-0.4-0.2-0.9-0.2-1.4c-0.1-6.7-0.1-13.5-0.1-20.2c0-0.4,0-0.8-0.6-0.5c0,0.2,0,0.3,0,0.5c0,2.1,0,4.2,0,6.3
			c0,0.4,0,0.8-0.1,1.2c-0.1,0.6-0.5,0.9-1.2,0.8c-0.6,0-0.9-0.3-0.9-1c-0.1-0.6-0.1-1.2-0.1-1.8c0-2.4-0.1-4.7,0-7.1
			c0.1-2.1,1.1-3.2,3.2-3.3c2.1-0.1,4.2-0.1,6.3,0.1c1.8,0.1,2.9,1.3,3,3.1c0.1,2.8,0.1,5.7,0.1,8.5c0,1.1-0.4,1.5-1.4,1.4
			c-0.4,0-0.7-0.2-0.8-0.7c-0.1-0.4-0.1-0.9-0.1-1.3C347.1,514.3,347.1,512.1,347.1,509.8z"/>
		<path d="M355.1,532.6c-1,0-2,0-3,0c-0.1-11.1-0.1-22.1-0.2-33.2c1,0,2,0,3,0C355,510.5,355,521.5,355.1,532.6z"/>
		<path d="M340.4,501.9c0-1.5,1.2-2.7,2.7-2.6c1.5,0,2.7,1.2,2.6,2.7c0,1.5-1.2,2.7-2.7,2.7C341.5,504.7,340.3,503.4,340.4,501.9z"
			/>
		<path d="M367.5,501.8c0,1.5-1.1,2.7-2.5,2.7c-1.5,0-2.8-1.2-2.8-2.6c0-1.5,1.2-2.7,2.6-2.7C366.4,499.1,367.5,500.3,367.5,501.8z"
			/>
	</g>
	<g>
		<path d="M244.8,530.3C244.8,530.3,244.8,530.3,244.8,530.3c-0.2,0-0.3,0-0.3,0c0,0-0.1,0-0.1,0c-0.1,0-0.1,0-0.2,0
			c0,0-0.1,0.1-0.1,0.3c0,0.5,0.1,0.9,0.3,1.1c0.2,0.2,0.6,0.3,1.2,0.3c11.4,0,18.2,0,29.6,0c0.8,0,1.2-0.1,1.4-0.3
			c0.2-0.2,0.2-0.7,0.2-1.4L244.8,530.3z"/>
		<g>
			<path d="M261.2,511.1h-10.3v7.1l0,0v0.3l0,3.3c0.5-0.2,1-0.4,1.2-0.5c0-0.1,0.1-0.4,0.4-0.6c0.4-0.3,1.4-0.6,1.8-0.6
				c0.1,0,0.2,0,0.3,0c0.5-0.1,1.3-0.1,2.4,0c1.4,0.2,2.2,0.8,2.2,0.8l0.1,0l0,0.1c0,0,0.1,0.2,0.1,0.3c0,0,0.1,0.1,0.2,0.1
				l-0.1-0.8l0,0l0-0.9c-0.1-1.3-0.1-2.8-0.2-4c0-1,0.4-1.5,1.5-1.6h0c0.1,0,0.2,0,0.3,0V511.1z"/>
			<path d="M246.4,500.6c1.3,0.7,2.7,1.4,4.1,2.2c0.3,0.2,0.6,0.4,0.7,0.7c0.2,0.9,0.4,1.8,0.6,2.8c0.1,0.3,0.1,0.7,0.2,1.1l0.1,0.3
				l-0.3-0.1c-0.4-0.1-0.6,0-0.7,0.1c-0.2,0.1-0.2,0.5-0.1,0.9c0,0.2,0,0.3,0,0.3l0,0.1l0,0c0,0,0,0.1,0,0.3c0,0.2,0,0.3,0.1,0.4
				c0,0,0.2,0.1,0.3,0.1c2.8,0,5.9,0,9.7,0c0.2,0,0.3,0,0.3-0.1c0,0,0.1-0.1,0.1-0.3c0-0.3,0-0.4,0-0.5c0-0.1,0-0.1,0-0.3l0-0.4
				c0-0.2,0-0.4-0.1-0.5c-0.1-0.1-0.2-0.1-0.5-0.1c-1.1,0-2.1,0-3.2,0c-1.1,0-2.3,0-3.4,0c-0.7,0-1.2-0.2-1.3-1.1
				c-0.1-0.6-0.2-1.3-0.4-1.9c-0.1-0.5-0.2-1-0.3-1.5c-0.1-0.5-0.3-0.7-0.7-0.9c-1.2-0.6-2.4-1.3-3.6-1.9l-1-0.5
				c-0.3-0.1-0.5-0.3-0.7-0.2c-0.1,0-0.2,0.1-0.2,0.2C245.8,500.1,245.8,500.3,246.4,500.6z"/>
		</g>
		<g>
			<path d="M277.3,515.5c-5.5,0-10.6,0-15.6,0c-0.2,0-0.4,0-0.5,0.1c-0.1,0.1-0.1,0.2-0.1,0.5c0.1,0.9,0.1,1.8,0.2,2.7
				c0,0.7,0.1,1.5,0.1,2.2c0,0,0,0.1,0,0.1l0,0c0,0.7,0.1,1,0.1,1.1c0.3,0.2,1.1,0.8,3.7,2.8c0.3,0.3,1,0.9,1.1,1.1l0,0
				c0.1,0.2,0.3,0.7,0.3,1.2l0,0l0,0c0,0.3-0.1,0.5-0.3,0.8c0,0.1-0.1,0.1-0.1,0.2c0.6,0,1.1,0,1.7,0c1.6,0,3.1,0.1,4.5-0.1
				c2.5-0.3,4.6-2.4,4.9-4.9c0.2-1.7,0.3-3.3,0.4-5c0-0.8,0.1-1.6,0.1-2.4c0-0.2,0-0.4-0.1-0.5C277.8,515.6,277.6,515.5,277.3,515.5
				z"/>
			<path d="M283.3,518c-0.5-1.1-1.5-1.7-2.9-1.5c-0.6,0.1-0.9,0.2-1.1,0.4c-0.1,0.2-0.2,0.5-0.1,1c0,0,0.1,0,0.1-0.1
				c0.5-0.2,1-0.5,1.5-0.5c0.4,0,0.7,0.1,1.1,0.4c0.7,0.6,0.9,1.5,0.6,2.7c-0.5,1.5-1.5,2.6-3.1,3c-0.7,0.2-0.9,0.5-0.9,1.2
				c1.7-0.2,3.1-1,4.1-2.4C283.7,520.9,283.9,519.5,283.3,518z"/>
		</g>
		<path d="M266.6,510.6c0.1-0.1,0.2-0.2,0.2-0.3c0-0.1-0.1-0.3-0.3-0.5c-0.6-0.6-0.8-1.4-0.4-2.3c0.1-0.3,0.3-0.6,0.4-0.9
			c0.2-0.3,0.3-0.6,0.4-0.9c0.2-0.5,0.4-1,0.6-1.5c0.1-0.2,0.1-0.4,0.2-0.6c-0.1-1-0.5-1.9-1.2-2.8c-0.2-0.2-0.4-0.4-0.6-0.4
			c0,0,0,0,0,0c-0.1,0-0.2,0-0.3,0.1c-0.1,0.1-0.2,0.2-0.2,0.3c0,0.2,0.2,0.4,0.3,0.6c1,1.2,1.1,2.6,0.3,4c-0.4,0.7-0.8,1.4-1,2.2
			c-0.4,1.1-0.1,2,0.7,2.9C266.2,510.9,266.4,510.8,266.6,510.6z"/>
		<path d="M273.1,510.6c0.1-0.1,0.1-0.1,0.2-0.2c0-0.1-0.1-0.3-0.2-0.5c-0.7-0.7-0.8-1.5-0.4-2.5c0.1-0.3,0.3-0.5,0.4-0.8
			c0.2-0.3,0.3-0.6,0.4-0.9c0.2-0.5,0.4-1,0.6-1.5c0.1-0.2,0.1-0.4,0.2-0.6c-0.1-1-0.5-1.9-1.3-2.9c-0.2-0.3-0.4-0.3-0.5-0.3
			c-0.1,0-0.2,0.1-0.3,0.1c-0.2,0.2-0.3,0.4,0.1,0.9c1.2,1.5,1.2,2.4,0.3,4.2c-0.5,0.9-0.8,1.6-1,2.3c-0.3,1,0,1.9,0.7,2.6
			C272.5,510.6,272.9,510.7,273.1,510.6z"/>
		<g>
			<path d="M258,522.4c0-0.1-0.2-0.3-0.3-0.3c-0.6-0.2-1.2-0.3-1.9-0.3c-0.6,0-1.2,0.1-1.8,0.3c-0.2,0-0.4,0.3-0.4,0.5
				c-0.4,2-0.3,4.1,0.2,6.2c0,0,0.1,0.1,0.2,0.2c1,0,2,0,3.1,0l0.8,0C258.4,526.7,258.4,524.6,258,522.4z"/>
			<path d="M261.7,524.2c-0.7-0.5-1.5-0.9-2.4-1.2l-0.2,5.8c0.1,0,0.2,0,0.3,0c0.2,0,0.5,0,0.7,0c0.3,0,0.6,0,1,0
				c0.3,0,0.4-0.1,0.5-0.4c0.4-1.2,0.5-2.5,0.3-3.9C261.8,524.4,261.8,524.2,261.7,524.2z"/>
			<path d="M250,524.2L250,524.2c-0.1,0-0.1,0.2-0.1,0.2c-0.1,1.2-0.2,2.8,0.4,4.3c0,0.1,0.1,0.1,0.2,0.1c0.6,0,1.3,0,1.9,0l0.3,0
				l-0.3-5.8C251.4,523.3,250.6,523.7,250,524.2z"/>
			<path d="M265.1,528.2c0.1-0.3,0.1-0.6,0-0.8c-0.5-0.8-1.1-1.4-2-2l-0.4,3.4c0.1,0,0.2,0,0.4,0c0.5,0,1,0,1.5-0.1
				C264.8,528.6,265,528.4,265.1,528.2z"/>
			<path d="M248.2,525.8c-0.6,0.5-1.1,0.9-1.5,1.4c-0.2,0.2-0.2,0.5-0.1,0.8c0.1,0.3,0.4,0.6,0.7,0.6c0.5,0.1,1,0.1,1.5,0.1
				c0.1,0,0.2,0,0.3,0l-0.4-3.3C248.5,525.6,248.3,525.7,248.2,525.8z"/>
		</g>
	</g>
	<rect x="348.6" y="269" class="st9" width="4.9" height="29.3"/>
	<rect x="348.6" y="308.5" class="st9" width="4.9" height="29.3"/>
	<g>
		<g>
			<path class="st14" d="M511.1,295.9c-0.7,0-1.4,0-2.1,0c-0.8,0-1.3-0.4-1.5-1.1c-0.2-0.6,0.1-1.3,0.6-1.6c0.3-0.1,0.6-0.2,0.9-0.3
				c1.9,0,3.9,0,5.8,0c0.9,0,1.5,0.6,1.5,1.5c0,2,0,3.9,0,5.9c0,0.9-0.7,1.5-1.5,1.5c-0.8,0-1.5-0.6-1.5-1.5c0-0.7,0-1.3,0-2
				c0,0,0,0-0.1-0.1c-0.2,0.2-0.4,0.3-0.6,0.5c-1.9,1.9-3.8,3.8-5.7,5.7c-0.4,0.4-0.8,0.6-1.4,0.5c-0.6-0.1-1-0.4-1.2-1
				c-0.2-0.6-0.1-1.1,0.3-1.6c1.4-1.4,2.9-2.9,4.3-4.3c0.7-0.7,1.3-1.3,2-2C511.1,296,511.1,295.9,511.1,295.9z"/>
			<path class="st14" d="M515.5,312.6c0,0.5,0,1,0,1.4c0,1.8,0,3.6,0,5.4c0,1-0.6,1.7-1.7,1.7c-2.6,0-5.2,0-7.7,0
				c-1,0-1.7-0.6-1.7-1.5c0-0.9,0.7-1.5,1.7-1.5c1.9,0,3.8,0,5.7,0c0.2,0,0.4,0,0.6,0c0-0.2,0-0.4,0-0.5c0-2,0-4.1,0-6.1
				c0-1.2,0.6-1.8,1.8-1.8c2,0,4,0,6.1,0c0.2,0,0.4,0,0.6,0c0-0.2,0-0.4,0-0.6c0-1.9,0-3.9,0-5.8c0-1.2,0.6-1.8,1.8-1.8
				c2,0,3.9,0,5.9,0c0.2,0,0.4,0,0.6,0c0-0.2,0-0.4,0-0.5c0-2.1,0-4.2,0-6.3c0-1.1,0.6-1.7,1.7-1.7c2.7,0,5.4,0,8.1,0
				c1,0,1.7,0.6,1.7,1.5c0,0.9-0.7,1.5-1.7,1.5c-2,0-4.1,0-6.1,0c-0.2,0-0.4,0-0.7,0c0,0.2,0,0.4,0,0.7c0,2.1,0,4.1,0,6.2
				c0,1.2-0.6,1.7-1.8,1.8c-2,0-3.9,0-5.9,0c-0.2,0-0.4,0-0.6,0c0,0.2,0,0.4,0,0.6c0,1.9,0,3.9,0,5.8c0,1.2-0.5,1.7-1.8,1.7
				c-2,0-4,0-6,0C515.9,312.6,515.7,312.6,515.5,312.6z"/>
		</g>
	</g>
	<g>
		<rect x="546.7" y="282.9" class="st17" width="42.7" height="6.1"/>
		<rect x="546.7" y="289" class="st18" width="42.7" height="6.1"/>
		<rect x="546.7" y="295.1" class="st19" width="42.7" height="6.1"/>
		<rect x="546.7" y="301.3" class="st20" width="42.7" height="6.1"/>
		<rect x="546.7" y="307.4" class="st21" width="42.7" height="6.1"/>
		<rect x="546.7" y="313.5" class="st21" width="42.7" height="6.1"/>
		<rect x="546.7" y="319.6" class="st22" width="42.7" height="6.1"/>
		<rect x="546.7" y="325.8" class="st23" width="42.7" height="6.1"/>
	</g>
	<g>
		<rect x="546.6" y="283.1" class="st24" width="42.7" height="6.1"/>
		<rect x="546.6" y="289.2" class="st19" width="42.7" height="6.1"/>
		<rect x="546.6" y="295.3" class="st18" width="42.7" height="6.1"/>
		<rect x="546.6" y="301.5" class="st25" width="42.7" height="6.1"/>
		<rect x="546.6" y="307.6" class="st26" width="42.7" height="6.1"/>
		<rect x="546.6" y="313.7" class="st27" width="42.7" height="6.1"/>
		<rect x="546.6" y="319.8" class="st28" width="42.7" height="6.1"/>
		<rect x="546.6" y="326" class="st28" width="42.7" height="6.1"/>
	</g>
</g>
<g id="PT_GUIA">
	<circle class="st16" cx="256.8" cy="205.1" r="5.1"/>
</g>
</svg>
