<?xml version="1.0" encoding="utf-8"?>
<!-- Generator: Adobe Illustrator 25.4.1, SVG Export Plug-In . SVG Version: 6.00 Build 0)  -->
<svg version="1.1" xmlns="http://www.w3.org/2000/svg" xmlns:xlink="http://www.w3.org/1999/xlink" x="0px" y="0px"
	 viewBox="0 0 1153 1435" style="enable-background:new 0 0 1153 1435;" xml:space="preserve">
<style type="text/css">
	.st0{fill:#AAB9C9;}
	.st1{fill:#EAE1E1;stroke:#9FADBC;stroke-width:3;stroke-miterlimit:10;}
	.st2{fill:#CEEADF;}
	.st3{fill:#76CC82;}
	.st4{fill:#545454;stroke:#000000;stroke-miterlimit:10;}
	.st5{fill:#706F6E;stroke:#000000;stroke-miterlimit:10;}
	.st6{fill:#868686;stroke:#000000;stroke-miterlimit:10;}
	.st7{fill:#9C9B9B;stroke:#000000;stroke-miterlimit:10;}
	.st8{fill:#C6C6C5;stroke:#000000;stroke-miterlimit:10;}
	.st9{fill:#D9D9D9;stroke:#000000;stroke-miterlimit:10;}
	.st10{fill:#ECECEC;stroke:#000000;stroke-miterlimit:10;}
	.st11{fill:#F5F5F5;stroke:#000000;stroke-miterlimit:10;}
	.st12{fill:#777777;}
	.st13{fill:#19A200;}
	.st14{fill:#ED4C00;}
	.st15{fill:#7F1A00;}
	.st16{fill:#F8F7F7;stroke:#000000;stroke-miterlimit:10;}
	.st17{fill:none;stroke:#000000;stroke-miterlimit:10;}
	.st18{fill:none;stroke:#000000;stroke-width:2;stroke-miterlimit:10;}
	.st19{fill:#B2B2B2;}
	.st20{fill:#999999;}
	.st21{fill:#878787;}
	.st22{fill:#FFFFFF;}
	.st23{fill:#B2B2B2;stroke:#000000;stroke-miterlimit:10;}
	.st24{fill:#CEEADF;stroke:#000000;stroke-miterlimit:10;}
	.st25{fill:none;stroke:#262626;stroke-width:0.72;stroke-linecap:round;stroke-linejoin:round;stroke-miterlimit:10;}
	.st26{fill:#727272;stroke:#000000;stroke-miterlimit:10;}
	.st27{fill:#F8F7F7;}
	.st28{fill:#7F8A96;}
	.st29{fill:#7A8898;stroke:#7A8898;stroke-width:4;stroke-miterlimit:10;}
	.st30{fill:#0C53A2;}
	.st31{fill:#0C7A34;}
	.st32{fill:#383838;stroke:#000000;stroke-width:2;stroke-miterlimit:10;}
	.st33{opacity:0.83;fill:#58B9FF;}
	.st34{opacity:0.85;fill:#58B9FF;}
	.st35{fill:#2E4AAD;}
	.st36{fill:#234F97;}
	.st37{fill:#1C3359;}
</style>
<g id="BASE_Calle">
	<rect x="-141" y="141" transform="matrix(6.123234e-17 -1 1 6.123234e-17 -141 1294)" class="st0" width="1435" height="1153"/>
</g>
<g id="manzana">
	<path class="st1" d="M1030.8,69.7l-886.7,9c-31.6,0.3-57,26-57.1,57.5l-2.8,1171.1c-0.1,31.9,25.7,57.8,57.6,57.8l890.4,0.9
		c31.9,0,57.8-25.8,57.7-57.7l-0.9-1181C1089.1,95.3,1062.9,69.4,1030.8,69.7z"/>
</g>
<g id="Patio_PPAL">
	<polygon class="st2" points="120.7,388.8 121.7,689 370.2,687.9 370.2,695.5 586.7,695.4 586,588.7 451.9,588.4 451.6,529.8 
		363.5,529.2 363.9,388.9 	"/>
	<polygon class="st3" points="403.5,543.8 403.2,616.7 537.9,616.7 538.1,589.1 452.2,588.8 451.6,529.8 403.4,529.4 	"/>
	<polyline class="st3" points="120.7,388.8 121,558.3 165.9,558.7 165.9,632.5 324.9,632.5 325.1,605.8 324.6,588.3 331.9,589 
		331.9,424.4 299.7,424.7 299.4,389.3 120.7,388.8 	"/>
	<rect x="150.3" y="390" class="st4" width="44.6" height="57.2"/>
	<g>
		<rect x="176.3" y="418.5" class="st5" width="18.7" height="3.6"/>
		<rect x="176.3" y="422.1" class="st6" width="18.7" height="3.6"/>
		<rect x="176.3" y="425.7" class="st7" width="18.7" height="3.6"/>
		<rect x="176.3" y="429.3" class="st8" width="18.7" height="3.6"/>
		<rect x="176.3" y="433" class="st9" width="18.7" height="3.6"/>
		<rect x="176.3" y="436.6" class="st10" width="18.7" height="3.6"/>
		<rect x="176.3" y="440.2" class="st11" width="18.7" height="3.6"/>
		<rect x="176.3" y="443.8" class="st11" width="18.7" height="3.6"/>
	</g>
	<polygon class="st12" points="299.2,401.4 299.2,423.9 317.1,423.9 317.1,436.1 293.8,436.1 293.8,401.3 	"/>
	<rect x="214.4" y="446.2" class="st12" width="23.5" height="6.6"/>
	<rect x="202.6" y="485.8" class="st12" width="35.2" height="6.6"/>
	<rect x="265.4" y="509" class="st12" width="29.3" height="6.6"/>
	
		<rect x="245.2" y="533.7" transform="matrix(6.123234e-17 -1 1 6.123234e-17 -268.2019 805.7696)" class="st12" width="47.3" height="6.6"/>
	
		<rect x="273.6" y="528.1" transform="matrix(6.123234e-17 -1 1 6.123234e-17 -239.9734 822.867)" class="st12" width="35.7" height="6.6"/>
	<rect x="288.4" y="599.7" class="st12" width="36.4" height="6.6"/>
	<rect x="197.3" y="599.7" class="st12" width="78.9" height="6.6"/>
	
		<rect x="247.4" y="503.1" transform="matrix(6.123234e-17 -1 1 6.123234e-17 -177.3045 835.5864)" class="st12" width="163.5" height="6.6"/>
	
		<rect x="120.6" y="523.4" transform="matrix(6.123234e-17 -1 1 6.123234e-17 -342.1077 711.3896)" class="st12" width="128" height="6.6"/>
	
		<rect x="147.6" y="462.8" transform="matrix(-1 -1.224647e-16 1.224647e-16 -1 335.609 929.7567)" class="st12" width="40.3" height="4.3"/>
	
		<rect x="215.7" y="466.2" transform="matrix(6.123234e-17 -1 1 6.123234e-17 -234.9574 704.0425)" class="st12" width="37.7" height="6.6"/>
	
		<rect x="267.9" y="551" transform="matrix(6.123234e-17 -1 1 6.123234e-17 -280.1489 828.4681)" class="st12" width="12.5" height="6.6"/>
	<rect x="367.8" y="667.3" class="st3" width="170.6" height="27.6"/>
	<rect x="154.2" y="677.1" class="st3" width="165.8" height="10.9"/>
	<g>
		<circle class="st13" cx="311.9" cy="583.6" r="8.6"/>
		<circle class="st13" cx="314.7" cy="576.6" r="3.2"/>
		<circle class="st13" cx="305.1" cy="582.8" r="4"/>
		<circle class="st13" cx="308.4" cy="588.3" r="4.9"/>
		<circle class="st13" cx="316.9" cy="587.6" r="4.1"/>
		<circle class="st13" cx="319" cy="581.9" r="3.4"/>
		<circle class="st13" cx="307.9" cy="576.3" r="2.7"/>
	</g>
	<g>
		<circle class="st13" cx="205.6" cy="556.8" r="8.6"/>
		<circle class="st13" cx="208.4" cy="549.8" r="3.2"/>
		<circle class="st13" cx="198.8" cy="556" r="4"/>
		<circle class="st13" cx="202.2" cy="561.5" r="4.9"/>
		<circle class="st13" cx="210.6" cy="560.8" r="4.1"/>
		<circle class="st13" cx="212.7" cy="555.1" r="3.4"/>
		<circle class="st13" cx="201.6" cy="549.5" r="2.7"/>
	</g>
	<g>
		<circle class="st13" cx="272.6" cy="492.6" r="8.6"/>
		<circle class="st13" cx="275.4" cy="485.6" r="3.2"/>
		<circle class="st13" cx="265.8" cy="491.8" r="4"/>
		<circle class="st13" cx="269.1" cy="497.3" r="4.9"/>
		<circle class="st13" cx="277.6" cy="496.6" r="4.1"/>
		<circle class="st13" cx="279.7" cy="490.9" r="3.4"/>
		<circle class="st13" cx="268.6" cy="485.3" r="2.7"/>
	</g>
	<g>
		<circle class="st13" cx="307.1" cy="457.7" r="8.6"/>
		<circle class="st13" cx="309.9" cy="450.7" r="3.2"/>
		<circle class="st13" cx="300.4" cy="456.9" r="4"/>
		<circle class="st13" cx="303.7" cy="462.4" r="4.9"/>
		<circle class="st13" cx="312.1" cy="461.7" r="4.1"/>
		<circle class="st13" cx="314.3" cy="456" r="3.4"/>
		<circle class="st13" cx="303.2" cy="450.4" r="2.7"/>
	</g>
	<g>
		<circle class="st13" cx="216.3" cy="421.4" r="8.6"/>
		<circle class="st13" cx="219.1" cy="414.4" r="3.2"/>
		<circle class="st13" cx="209.5" cy="420.7" r="4"/>
		<circle class="st13" cx="212.8" cy="426.2" r="4.9"/>
		<circle class="st13" cx="221.3" cy="425.5" r="4.1"/>
		<circle class="st13" cx="223.4" cy="419.8" r="3.4"/>
		<circle class="st13" cx="212.3" cy="414.2" r="2.7"/>
	</g>
	<circle class="st14" cx="423.2" cy="564.5" r="18.6"/>
	<circle class="st15" cx="423.2" cy="564.5" r="10.1"/>
	<polygon class="st16" points="121.3,558.9 165.9,558.7 166.1,599.4 121.1,599.2 	"/>
	<rect x="362.9" y="579.1" class="st17" width="8" height="8.3"/>
	<rect x="395.1" y="579.1" class="st17" width="8" height="8.3"/>
	<rect x="363.1" y="529.6" class="st17" width="8" height="8.3"/>
</g>
<g id="Polidepor">
	<polygon class="st16" points="588.7,879.9 589.9,1332.9 835.6,1331.9 836.2,879.4 	"/>
	<g>
		
			<rect x="531.3" y="1030.7" transform="matrix(6.123234e-17 -1 1 6.123234e-17 -407.4291 1835.5763)" class="st18" width="365.6" height="181.7"/>
		
			<rect x="622.5" y="1121.9" transform="matrix(6.123234e-17 -1 1 6.123234e-17 -498.6489 1926.796)" class="st18" width="183.2" height="181.7"/>
		<circle class="st18" cx="715" cy="1218.4" r="27"/>
		<circle class="st18" cx="714.1" cy="1121.5" r="30"/>
		<circle class="st18" cx="715" cy="1024.6" r="27"/>
		<polyline class="st18" points="668.8,1304.3 688,1218.4 742,1218.4 760.4,1305.4 		"/>
		<polyline class="st18" points="668.8,938 688,1024.6 742,1024.6 760.4,938.3 		"/>
		<g>
			<path class="st18" d="M714.1,1250.6c-35.6,0-64.8,23.5-68.7,53.7h137.4C778.9,1274.1,749.6,1250.6,714.1,1250.6z"/>
		</g>
		<g>
			<path class="st18" d="M714.1,992.4c35.6,0,64.8-23.5,68.7-53.7H645.4C649.2,969,678.5,992.4,714.1,992.4z"/>
		</g>
		
			<rect x="574.3" y="1051.6" transform="matrix(6.123234e-17 -1 1 6.123234e-17 -407.7969 1833.7372)" class="st18" width="277.3" height="138.3"/>
		
			<rect x="666.1" y="1052.5" transform="matrix(6.123234e-17 -1 1 6.123234e-17 -408.7165 1834.6567)" class="st18" width="93.8" height="138.3"/>
	</g>
</g>
<g id="Corre_A">
	<polygon class="st19" points="771.5,159.8 771.5,175.5 685.4,176.3 685,200.4 539.5,200.4 539.5,274 558.5,274.2 558.5,314.7 
		539.8,314.7 539.6,294.3 510.4,294.1 478.6,293.6 479.8,387.1 452.2,387.1 451.9,448.7 510.1,448.4 510.2,530.4 586.1,531 
		586,588.6 475.1,588.4 474.9,529.9 451.6,530.1 364,529.2 364,388.8 309,388.9 309.1,296.7 259.2,297.1 259.1,308.9 244.3,308.9 
		244.2,296.6 202.9,296.8 202.9,307.7 173.3,307.7 173.7,296.4 173.7,286.6 187.5,286.8 187.4,248.2 173.6,248.1 173.8,235.9 
		187.7,236.1 187.8,194.3 202.6,194.6 201.4,243.9 244.2,240.4 244.2,225 258.8,225 258.5,239 306.2,235.4 306.7,135.1 365.8,134.5 
		366.2,238.1 501.4,238.7 501.7,146.6 580.4,145.5 580.1,176.3 628.6,176.3 629,110.4 663.9,110 664,161.2 	"/>
	<path class="st20" d="M479.6,296.9c0,0,1.2,90.4,0.2,90.2c-1-0.2-27.6,0-27.6,0l-0.4,58.4l0.1,3.2l58.2-0.3v-152L479.6,296.9z"/>
	<rect x="484.2" y="471.6" class="st21" width="2.7" height="58.6"/>
	<rect x="328.3" y="172.2" class="st20" width="2.7" height="63.4"/>
	
		<rect x="479.5" y="524.7" transform="matrix(-1.836970e-16 1 -1 -1.836970e-16 1011.5213 49.7128)" class="st21" width="2.7" height="11.8"/>
</g>
<g id="AULAS_A">
	<polygon class="st4" points="583.9,200.4 539.5,200.2 539.5,274.2 586.3,274.2 586.2,200.4 	"/>
	<polygon class="st16" points="437.3,113.3 436.8,238.4 501.4,238.9 501.7,111.9 	"/>
	<path class="st17" d="M323.4,135.3l11.1,0l-0.1,12.9C334.4,148.2,323.4,148.3,323.4,135.3z"/>
	<path class="st17" d="M322.1,135.3l-11.1,0l0.1,12.9C311.1,148.2,322,148.3,322.1,135.3z"/>
	<path class="st17" d="M350.3,135.3l11.1,0l-0.1,12.9C361.3,148.2,350.3,148.3,350.3,135.3z"/>
	<path class="st17" d="M349,135.3l-11.1,0l0.1,12.9C337.9,148.2,348.9,148.3,349,135.3z"/>
	<path class="st17" d="M348,388.6l-10,0l0.1-11.7C338,376.9,348,376.9,348,388.6z"/>
	<path class="st17" d="M349.2,388.6l10,0l-0.1-11.7C359.2,376.9,349.2,376.9,349.2,388.6z"/>
	<polygon class="st4" points="365.8,115.1 437.3,113.3 436.8,238.4 366.2,238 	"/>
	<polygon class="st16" points="580.4,110.8 580.4,145.6 501.6,146.6 501.7,111.9 	"/>
	<polygon class="st16" points="628.6,176.4 580.1,176.4 580.4,145.6 580.4,110.8 629,110 	"/>
	<polygon class="st16" points="663.8,109.7 664,161 771.5,159.8 771.2,109.7 	"/>
	<polygon class="st16" points="306.8,114.3 306.2,235.5 258.4,239 258.8,224.9 244.1,225.1 244.2,114.8 	"/>
	<polygon class="st16" points="187.6,115.5 244.2,114.8 244.1,240.4 201.4,244 202.5,194.6 187.2,194.4 	"/>
	<polygon class="st16" points="153.1,115.9 187.6,115.5 187.7,236.1 173.8,235.9 173.6,245.8 121,251.3 121.7,148 	"/>
	<polygon class="st16" points="173.6,245.8 173.6,248.2 187.4,248.2 187.5,286.9 173.6,286.7 173.5,298.5 120.9,298.5 121,251.3 	
		"/>
	<polygon class="st16" points="120.4,389 120.9,298.5 173.5,298.5 173.3,307.7 187.7,307.8 187.8,388.7 	"/>
	<polygon class="st16" points="244.2,296.7 202.9,296.9 202.9,307.8 187.7,307.8 187.8,388.7 244.5,388.3 	"/>
	<polygon class="st16" points="309.2,296.8 259.1,297 259.1,308.9 244.9,308.9 244.5,388.3 308.9,388.6 	"/>
	<polygon class="st16" points="510.3,294.1 510.1,381.3 586.9,381 586.8,294.1 558.5,294.3 558.5,314.7 539.8,314.7 539.7,294.3 	
		"/>
	<polygon class="st16" points="558.5,275 558.5,294.3 586.8,294.1 586.6,274.1 558.5,274.2 	"/>
	<polygon class="st4" points="862.8,109.3 771.2,109.7 771.5,159.8 771.5,175 771.7,208.3 739.4,208.4 739.1,175.6 685.3,176.2 
		685.1,200.5 586,200.4 586.4,339.1 586.9,381 586.7,447.7 586,540.1 686.1,540.6 686.8,485.2 776.2,485.5 776,375.9 865,375.2 	"/>
	<polyline class="st4" points="739.1,175.6 771.6,175.3 771.7,208.3 739.4,208.4 739.1,175.9 	"/>
	<polygon class="st16" points="451.6,530.2 474.9,530 475.3,588.6 452.1,588.1 	"/>
	
		<rect x="539.6" y="200.2" transform="matrix(-1 -1.224647e-16 1.224647e-16 -1 1108.0638 435.7118)" class="st16" width="28.9" height="35.3"/>
	
		<rect x="540.1" y="211.4" transform="matrix(-1 -1.224647e-16 1.224647e-16 -1 1082.4695 436.0768)" class="st16" width="2.2" height="13.3"/>
	<g>
		
			<rect x="557.3" y="243.5" transform="matrix(-1.836970e-16 1 -1 -1.836970e-16 812.0027 -321.375)" class="st5" width="18.7" height="3.6"/>
		
			<rect x="553.7" y="243.5" transform="matrix(-1.836970e-16 1 -1 -1.836970e-16 808.3807 -317.753)" class="st6" width="18.7" height="3.6"/>
		
			<rect x="550.1" y="243.5" transform="matrix(-1.836970e-16 1 -1 -1.836970e-16 804.7587 -314.131)" class="st7" width="18.7" height="3.6"/>
		
			<rect x="546.5" y="243.5" transform="matrix(-1.836970e-16 1 -1 -1.836970e-16 801.1366 -310.5089)" class="st8" width="18.7" height="3.6"/>
		
			<rect x="542.9" y="243.5" transform="matrix(-1.836970e-16 1 -1 -1.836970e-16 797.5146 -306.8868)" class="st9" width="18.7" height="3.6"/>
		
			<rect x="539.2" y="243.5" transform="matrix(-1.836970e-16 1 -1 -1.836970e-16 793.8925 -303.2648)" class="st10" width="18.7" height="3.6"/>
		
			<rect x="535.6" y="243.5" transform="matrix(-1.836970e-16 1 -1 -1.836970e-16 790.2704 -299.6428)" class="st11" width="18.7" height="3.6"/>
		
			<rect x="532" y="243.5" transform="matrix(-1.836970e-16 1 -1 -1.836970e-16 786.6484 -296.0207)" class="st11" width="18.7" height="3.6"/>
	</g>
	<polygon class="st4" points="509.9,381.5 510.2,530.5 585.9,531 587,381 	"/>
	<g>
		
			<rect x="629" y="158.2" transform="matrix(-1 1.447065e-04 -1.447065e-04 -1 1270.1821 320.4631)" class="st5" width="12.2" height="4.3"/>
		
			<rect x="629" y="162.4" transform="matrix(-1 1.447065e-04 -1.447065e-04 -1 1270.1862 338.589)" class="st4" width="12.2" height="13.9"/>
		
			<rect x="629" y="153.9" transform="matrix(-1 1.447065e-04 -1.447065e-04 -1 1270.1803 311.9561)" class="st6" width="12.2" height="4.3"/>
		
			<rect x="629" y="149.6" transform="matrix(-1 1.447065e-04 -1.447065e-04 -1 1270.1785 303.4492)" class="st7" width="12.2" height="4.3"/>
		
			<rect x="629" y="145.4" transform="matrix(-1 1.447065e-04 -1.447065e-04 -1 1270.1766 294.9422)" class="st8" width="12.2" height="4.3"/>
		
			<rect x="629" y="141.1" transform="matrix(-1 1.447065e-04 -1.447065e-04 -1 1270.1748 286.4352)" class="st9" width="12.2" height="4.3"/>
		
			<rect x="629" y="136.9" transform="matrix(-1 1.447065e-04 -1.447065e-04 -1 1270.173 277.9283)" class="st10" width="12.2" height="4.3"/>
		
			<rect x="629" y="132.6" transform="matrix(-1 1.447065e-04 -1.447065e-04 -1 1270.1711 269.4213)" class="st11" width="12.2" height="4.3"/>
		
			<rect x="629" y="128.4" transform="matrix(-1 1.447065e-04 -1.447065e-04 -1 1270.1693 260.9143)" class="st11" width="12.2" height="4.3"/>
	</g>
</g>
<g id="Detalle_A">
	<path class="st16" d="M501.5,160.9l-0.1,11.1l-12.9-0.1C488.6,171.9,488.6,160.9,501.5,160.9z"/>
	<path class="st4" d="M381.1,238.1l-11.1-0.1l0.1-12.9C370.1,225.2,381.1,225.2,381.1,238.1z"/>
	<path class="st4" d="M670.6,200.5l11.1,0.1l-0.1,12.9C681.5,213.4,670.6,213.4,670.6,200.5z"/>
	<path class="st4" d="M669.7,200.6l-11.1,0.1l0.1,12.9C658.8,213.5,669.7,213.5,669.7,200.6z"/>
	<path class="st4" d="M509.9,429.1l0.1,11.1l12.9-0.1C522.8,440.1,522.8,429.1,509.9,429.1z"/>
	<path class="st4" d="M509.9,410.2l0.1,11.1l12.9-0.1C522.8,421.2,522.8,410.2,509.9,410.2z"/>
	<path class="st4" d="M692.8,484.5l11.1-0.1l-0.1-12.9C703.7,471.6,692.8,471.6,692.8,484.5z"/>
	<path class="st4" d="M771.5,161.7l0.1,11.1l12.9-0.1C784.4,172.7,784.4,161.7,771.5,161.7z"/>
	<path class="st4" d="M752.5,175.5l-11.1,0.1l0.1,12.9C741.6,188.4,752.6,188.4,752.5,175.5z"/>
	<path class="st16" d="M558.5,289.8l0.1-11.1l12.9,0.1C571.5,278.9,571.5,289.8,558.5,289.8z"/>
	<path class="st16" d="M558.7,308.9l0.1-11.1l12.9,0.1C571.6,297.9,571.6,308.9,558.7,308.9z"/>
	<path class="st16" d="M539.7,309l-0.1-11.1l-12.9,0.1C526.8,298,526.8,309,539.7,309z"/>
	<polygon class="st16" points="535.2,141.5 535.2,146.1 508.9,146.2 508.9,141.6 	"/>
	<polygon class="st16" points="580.4,151.2 585.3,151.2 585.4,169.6 580.5,169.5 	"/>
	<polygon class="st16" points="496.1,197.8 501,197.9 501,216.2 496,216.1 	"/>
	<polygon class="st16" points="182.6,252.4 187.5,252.5 187.4,283.2 182.4,283.2 	"/>
	<path class="st16" d="M629,125.3l-0.1-11.1l-12.9,0.1C616,114.3,616,125.3,629,125.3z"/>
	<polygon class="st16" points="663.9,142.6 668.8,142.6 668.9,158.1 664,158.1 	"/>
	<path class="st16" d="M663.7,135.8l0.1-11.1l12.9,0.1C676.7,124.9,676.7,135.8,663.7,135.8z"/>
	<path class="st16" d="M173.8,287.8l0,9l-10.4,0C163.3,296.7,163.3,287.8,173.8,287.8z"/>
	<path class="st16" d="M176,307.7l9,0l0,10.4C185,318.1,176.1,318.1,176,307.7z"/>
	<path class="st16" d="M199.4,307.8l-9,0l0,10.4C190.5,318.2,199.4,318.2,199.4,307.8z"/>
	<path class="st16" d="M256.5,308.9l-9,0l0,10.4C247.5,319.3,256.4,319.4,256.5,308.9z"/>
	<path class="st16" d="M474.9,542.7l0-9l-10.4,0C464.5,533.7,464.4,542.6,474.9,542.7z"/>
	<path class="st16" d="M257.4,224.7l-9.9,0l0-11.5C247.5,213.3,257.3,213.2,257.4,224.7z"/>
	<path class="st16" d="M199.1,194.7l-9.4-0.2l0.2-11C189.9,183.6,199.2,183.7,199.1,194.7z"/>
	<path class="st16" d="M202.5,207.3l0.2-9.4l11,0.2C213.6,198.1,213.5,207.4,202.5,207.3z"/>
	<path class="st16" d="M174.1,236l10.2,0l0-11.8C184.2,224.3,174.2,224.1,174.1,236z"/>
	<path class="st16" d="M200.1,157.1l-9.8,0l0-11.4C190.3,145.7,200.1,145.7,200.1,157.1z"/>
	<line class="st16" x1="202.5" y1="194.6" x2="243.9" y2="194.5"/>
	<line class="st16" x1="187.7" y1="157.2" x2="244.4" y2="157"/>
	<line class="st16" x1="548.8" y1="314.9" x2="548.8" y2="381.6"/>
	<rect x="452.1" y="445.5" class="st4" width="57.8" height="5.1"/>
	
		<rect x="433.2" y="338.8" transform="matrix(6.123234e-17 -1 1 6.123234e-17 133.9681 820.9681)" class="st12" width="88.5" height="9.5"/>
	<rect x="365.2" y="294.1" class="st4" width="145" height="5.1"/>
	<rect x="451.7" y="378.3" class="st12" width="27.6" height="9.5"/>
	
		<rect x="432.5" y="405.6" transform="matrix(6.123234e-17 -1 1 6.123234e-17 46.0359 866.7141)" class="st12" width="47.8" height="9.5"/>
</g>
<g id="Corre_B">
	<polygon class="st19" points="586.8,695.4 370.2,695.4 370.4,688.1 319.1,688.3 319.1,787.5 283.8,788 283.9,778.3 255.2,778.1 
		255.4,788 221.1,787.7 221.3,776 174.6,776.4 174.7,804.8 195.4,804.3 195.3,834.3 185.6,834.5 185.6,848.6 195.7,848.7 195.4,904 
		195.3,926.2 185.4,926.1 185.1,963.1 196.2,963.2 195.9,1048.5 196.1,1113.1 196.1,1157.1 196,1157.4 186.4,1157.6 186.3,1200.7 
		195.5,1200.8 195.6,1267.1 241.4,1267.3 241.4,1213.4 312.6,1212.8 312.5,1222.6 326.8,1222.6 326.8,1267 345.6,1266.7 345.4,1222 
		391.4,1222 391.7,1234.7 432.8,1234.9 432.6,1222.2 469.4,1221.8 469.5,1235.6 484.9,1235.5 484.8,1222.1 530.3,1221.9 589.4,1222 
		589.4,1193.4 570.7,1193.3 570.7,1174.4 543.6,1174.2 543.5,1193.2 521.4,1192.8 521.1,1146.8 502.9,1146.9 502.6,1193.9 
		477.8,1193.7 465.8,1193.7 465.9,1148.9 465.9,1140.3 453.2,1140.6 453.1,1193.6 404.5,1193.4 404.4,1160.9 345.4,1161.4 
		229.2,1161.2 229.3,1121.7 241.3,1121.6 241.5,1106.3 229.2,1106.3 229.2,1068.2 241.7,1068.4 241.7,1035 229,1035.2 229.1,959.5 
		241.1,959.5 241.3,926.3 229.3,926.2 229,878.2 239.5,878.1 239.6,842.6 271.6,842.5 271.4,836.7 287.7,836.8 287.7,861.2 
		302.1,861.2 301.9,831.1 319.8,831.1 319.9,858.4 346.5,858.3 346.6,874.3 368.4,874.3 368.8,788.7 369,738.5 405.2,738.6 
		405.3,748.9 423.9,748.9 439.4,748.7 439.5,738 510.2,738.6 510.5,749.3 528.2,748.9 544.5,748.7 544.5,738.1 587.1,738.2 	"/>
	<polygon class="st2" points="346.6,885.6 346.6,874.3 368.4,874.3 368.5,1072.2 588.9,1071.7 587,1106.8 404.4,1106.8 404.1,1161 
		345.7,1161.3 346.1,1105.9 346,1051.3 346.6,996.8 	"/>
</g>
<g id="PATIO_B">
	<polygon class="st3" points="368.5,873.5 368.5,1072.2 588.9,1071.7 588.4,873.3 	"/>
	<g>
		<circle class="st13" cx="389.5" cy="897.2" r="8.6"/>
		<circle class="st13" cx="392.3" cy="890.2" r="3.2"/>
		<circle class="st13" cx="382.7" cy="896.5" r="4"/>
		<circle class="st13" cx="386" cy="901.9" r="4.9"/>
		<circle class="st13" cx="394.5" cy="901.2" r="4.1"/>
		<circle class="st13" cx="396.6" cy="895.6" r="3.4"/>
		<circle class="st13" cx="385.5" cy="890" r="2.7"/>
	</g>
	<g>
		<circle class="st13" cx="455.9" cy="973" r="8.6"/>
		<circle class="st13" cx="458.7" cy="966" r="3.2"/>
		<circle class="st13" cx="449.1" cy="972.2" r="4"/>
		<circle class="st13" cx="452.5" cy="977.7" r="4.9"/>
		<circle class="st13" cx="460.9" cy="977" r="4.1"/>
		<circle class="st13" cx="463" cy="971.3" r="3.4"/>
		<circle class="st13" cx="451.9" cy="965.7" r="2.7"/>
	</g>
	<g>
		<circle class="st13" cx="411.3" cy="1019.9" r="8.6"/>
		<circle class="st13" cx="414.1" cy="1012.9" r="3.2"/>
		<circle class="st13" cx="404.6" cy="1019.2" r="4"/>
		<circle class="st13" cx="407.9" cy="1024.6" r="4.9"/>
		<circle class="st13" cx="416.3" cy="1023.9" r="4.1"/>
		<circle class="st13" cx="418.5" cy="1018.3" r="3.4"/>
		<circle class="st13" cx="407.4" cy="1012.7" r="2.7"/>
	</g>
	<g>
		<circle class="st13" cx="398.2" cy="1051.7" r="8.6"/>
		<circle class="st13" cx="401" cy="1044.7" r="3.2"/>
		<circle class="st13" cx="391.5" cy="1051" r="4"/>
		<circle class="st13" cx="394.8" cy="1056.4" r="4.9"/>
		<circle class="st13" cx="403.3" cy="1055.7" r="4.1"/>
		<circle class="st13" cx="405.4" cy="1050.1" r="3.4"/>
		<circle class="st13" cx="394.3" cy="1044.5" r="2.7"/>
	</g>
	<g>
		<circle class="st13" cx="545.8" cy="1047.6" r="8.6"/>
		<circle class="st13" cx="548.7" cy="1040.6" r="3.2"/>
		<circle class="st13" cx="539.1" cy="1046.9" r="4"/>
		<circle class="st13" cx="542.4" cy="1052.3" r="4.9"/>
		<circle class="st13" cx="550.9" cy="1051.6" r="4.1"/>
		<circle class="st13" cx="553" cy="1046" r="3.4"/>
		<circle class="st13" cx="541.9" cy="1040.4" r="2.7"/>
	</g>
	<g>
		<circle class="st13" cx="531.6" cy="953.4" r="8.6"/>
		<circle class="st13" cx="534.4" cy="946.4" r="3.2"/>
		<circle class="st13" cx="524.8" cy="952.6" r="4"/>
		<circle class="st13" cx="528.1" cy="958.1" r="4.9"/>
		<circle class="st13" cx="536.6" cy="957.4" r="4.1"/>
		<circle class="st13" cx="538.7" cy="951.7" r="3.4"/>
		<circle class="st13" cx="527.6" cy="946.1" r="2.7"/>
	</g>
</g>
<g id="Aulas_B">
	<polygon class="st4" points="465.9,1193.7 465.9,1151 502.9,1150.8 502.8,1165.9 502.7,1193.7 	"/>
	<polygon class="st16" points="587.4,738.1 544.4,738.2 544.3,749 528.2,749 528.3,873.7 588.6,873.4 	"/>
	<polygon class="st16" points="478.8,738.6 510.3,738.7 510.5,749.3 528.2,749 528.3,873.7 478.3,873.2 	"/>
	<polygon class="st16" points="423.6,748.6 439.3,748.6 439.5,738.1 478.8,738.6 478.3,873.2 423.7,873.3 	"/>
	<polygon class="st16" points="368.8,738.4 405.1,738.4 405.1,748.8 423.6,748.6 423.7,873.3 368.5,873.4 	"/>
	<polygon class="st16" points="405.4,788.4 405.1,738.4 368.8,738.4 369.2,788.3 	"/>
	<polygon class="st4" points="320,861.2 317.6,861.2 287.6,861.2 287.6,836.7 271.3,836.8 271.3,838.8 271.3,861.2 271.3,861.2 
		271.3,877.5 271.3,877.5 271.3,877.5 271.3,877.5 320.1,877.5 	"/>
	
		<rect x="239.6" y="842.6" transform="matrix(-1 -1.224647e-16 1.224647e-16 -1 511.056 1720.1293)" class="st16" width="31.9" height="35"/>
	
		<rect x="254.1" y="836.7" transform="matrix(-1.836970e-16 1 -1 -1.836970e-16 1099.174 588.7655)" class="st16" width="2.2" height="14.6"/>
	<g>
		
			<rect x="301.9" y="863.5" transform="matrix(-1 -1.224647e-16 1.224647e-16 -1 621.7374 1731.5483)" class="st5" width="17.8" height="4.6"/>
		
			<rect x="301.9" y="858.8" transform="matrix(-1 -1.224647e-16 1.224647e-16 -1 621.7374 1722.3053)" class="st6" width="17.8" height="4.6"/>
		
			<rect x="301.9" y="854.2" transform="matrix(-1 -1.224647e-16 1.224647e-16 -1 621.7374 1713.0623)" class="st7" width="17.8" height="4.6"/>
		
			<rect x="301.9" y="849.6" transform="matrix(-1 -1.224647e-16 1.224647e-16 -1 621.7374 1703.8192)" class="st8" width="17.8" height="4.6"/>
		
			<rect x="301.9" y="845" transform="matrix(-1 -1.224647e-16 1.224647e-16 -1 621.7374 1694.5762)" class="st9" width="17.8" height="4.6"/>
		
			<rect x="301.9" y="840.4" transform="matrix(-1 -1.224647e-16 1.224647e-16 -1 621.7374 1685.3331)" class="st10" width="17.8" height="4.6"/>
		
			<rect x="301.9" y="835.7" transform="matrix(-1 -1.224647e-16 1.224647e-16 -1 621.7374 1676.0901)" class="st11" width="17.8" height="4.6"/>
		
			<rect x="301.9" y="831.1" transform="matrix(-1 -1.224647e-16 1.224647e-16 -1 621.7374 1666.847)" class="st11" width="17.8" height="4.6"/>
	</g>
	<g>
		<g>
			<path class="st22" d="M276.6,864.8c-0.3,0-0.6,0-0.9,0c-0.3,0-0.6-0.2-0.6-0.5c-0.1-0.3,0-0.6,0.3-0.7c0.1-0.1,0.3-0.1,0.4-0.1
				c0.8,0,1.7,0,2.5,0c0.4,0,0.7,0.3,0.7,0.7c0,0.8,0,1.7,0,2.5c0,0.4-0.3,0.7-0.7,0.7c-0.4,0-0.6-0.3-0.6-0.7c0-0.3,0-0.6,0-0.9
				c0,0,0,0,0,0c-0.1,0.1-0.2,0.1-0.2,0.2c-0.8,0.8-1.6,1.6-2.5,2.5c-0.2,0.2-0.4,0.3-0.6,0.2c-0.2,0-0.4-0.2-0.5-0.4
				c-0.1-0.2,0-0.5,0.1-0.7c0.6-0.6,1.2-1.2,1.9-1.9C276.1,865.4,276.3,865.1,276.6,864.8C276.6,864.8,276.6,864.8,276.6,864.8z"/>
			<path class="st22" d="M278.5,872c0,0.2,0,0.4,0,0.6c0,0.8,0,1.5,0,2.3c0,0.4-0.3,0.7-0.7,0.7c-1.1,0-2.2,0-3.3,0
				c-0.4,0-0.7-0.3-0.7-0.6c0-0.4,0.3-0.7,0.7-0.7c0.8,0,1.6,0,2.5,0c0.1,0,0.2,0,0.3,0c0-0.1,0-0.2,0-0.2c0-0.9,0-1.8,0-2.6
				c0-0.5,0.2-0.8,0.8-0.8c0.9,0,1.7,0,2.6,0c0.1,0,0.2,0,0.3,0c0-0.1,0-0.2,0-0.2c0-0.8,0-1.7,0-2.5c0-0.5,0.2-0.8,0.8-0.8
				c0.9,0,1.7,0,2.6,0c0.1,0,0.2,0,0.3,0c0-0.1,0-0.2,0-0.2c0-0.9,0-1.8,0-2.7c0-0.5,0.3-0.7,0.7-0.7c1.2,0,2.3,0,3.5,0
				c0.4,0,0.7,0.3,0.7,0.6c0,0.4-0.3,0.7-0.7,0.7c-0.9,0-1.8,0-2.6,0c-0.1,0-0.2,0-0.3,0c0,0.1,0,0.2,0,0.3c0,0.9,0,1.8,0,2.7
				c0,0.5-0.2,0.8-0.8,0.8c-0.9,0-1.7,0-2.6,0c-0.1,0-0.2,0-0.3,0c0,0.1,0,0.2,0,0.3c0,0.8,0,1.7,0,2.5c0,0.5-0.2,0.8-0.8,0.8
				c-0.9,0-1.7,0-2.6,0C278.7,872,278.6,872,278.5,872z"/>
		</g>
	</g>
	
		<rect x="477.9" y="1166.7" transform="matrix(-1 -1.224647e-16 1.224647e-16 -1 980.4894 2360.4441)" class="st16" width="24.8" height="27.1"/>
	
		<rect x="489.9" y="1186.5" transform="matrix(-1.836970e-16 1 -1 -1.836970e-16 1683.5118 700.7162)" class="st16" width="3" height="11.3"/>
	<g>
		<rect x="503" y="1115.3" class="st5" width="17.8" height="4"/>
		<rect x="503" y="1119.3" class="st6" width="17.8" height="4"/>
		<rect x="503" y="1123.2" class="st7" width="17.8" height="4"/>
		<rect x="503" y="1127.2" class="st8" width="17.8" height="4"/>
		<rect x="503" y="1131.1" class="st9" width="17.8" height="4"/>
		<rect x="503" y="1135.1" class="st10" width="17.8" height="4"/>
		<rect x="503" y="1139" class="st11" width="17.8" height="4"/>
		<rect x="503" y="1143" class="st11" width="17.8" height="4"/>
	</g>
	<polygon class="st4" points="346.6,858.4 346.5,877.7 320,877.5 319.9,858.2 	"/>
	<polygon class="st16" points="346.6,883.3 346.5,877.7 229.1,878.2 229.3,926.2 241.3,926.3 241.3,942.3 346.6,942.6 	"/>
	<polygon class="st16" points="229.1,959.5 241,959.5 241.3,942.3 346.6,942.6 346.6,996.8 229.1,996.8 	"/>
	<polygon class="st16" points="319.1,688.1 319.1,787.7 283.9,787.9 283.9,778.1 269.8,778.1 269.9,688.5 	"/>
	<polygon class="st16" points="255.2,787.9 255.2,778 269.8,778.1 269.9,688.5 221.1,688.9 221.2,788 	"/>
	<polygon class="st16" points="195.2,776.2 195.5,689 221.1,688.5 221.1,776.1 	"/>
	<polygon class="st16" points="150.9,736.7 120.8,736.7 121.2,688.8 195.2,688.8 195.5,736.8 	"/>
	<polygon class="st16" points="121,834.6 120.8,736.7 195.2,737.4 195.2,776.2 174.6,776.2 174.7,804.6 195.2,804.4 195.4,834.4 	
		"/>
	<polygon class="st16" points="185.4,848.7 195.7,848.7 195.7,878 121,878 121,834.6 185.5,834.6 	"/>
	<polygon class="st16" points="185.3,947.5 161.8,947.4 161.4,878 195.7,878 195.2,926.1 185.4,926.1 	"/>
	<polygon class="st16" points="121,947.4 161.8,947.4 161.4,878 121,878 	"/>
	<polygon class="st16" points="121.4,1112.8 196,1113.4 196,963.3 185.3,963.3 185.3,947.5 121,947.4 	"/>
	<polygon class="st16" points="186.4,1180.3 186.4,1157.5 195.9,1157.4 196,1113.4 121.2,1113.4 121.2,1179.6 	"/>
	<polygon class="st16" points="195.5,1200.8 186.2,1200.7 186.4,1180.3 121.2,1179.6 121.9,1266.9 195.6,1266.7 	"/>
	<polygon class="st16" points="225.2,1267.3 195.7,1267.1 121.9,1267.3 122.1,1306.3 144.9,1330.8 225.1,1331.9 	"/>
	<polygon class="st16" points="285.1,1267.1 285.1,1331.3 225.1,1331.3 225.6,1267.3 	"/>
	<polygon class="st16" points="241.4,1213.3 241.4,1267.1 326.8,1267.1 326.8,1222.7 312.5,1222.7 312.5,1212.8 	"/>
	<polygon class="st16" points="345.6,1267 285.1,1267.1 285.1,1331.3 345.5,1331.8 	"/>
	<polygon class="st4" points="465.7,1107.3 465.9,1151 502.9,1150.8 503,1115.3 520.9,1115.3 521,1107.1 	"/>
	<polygon class="st16" points="345.4,1222 345.6,1267 345.5,1331.8 469.4,1332.6 469.4,1221.8 432.7,1222.1 432.8,1235 
		391.6,1234.7 391.4,1222 	"/>
	<polygon class="st16" points="530.3,1221.9 484.9,1222.3 484.8,1235.4 469.3,1235.4 469.4,1332.6 530.5,1333.2 	"/>
	<polygon class="st16" points="484.6,1253.3 484.8,1235.4 484.9,1222.3 530.3,1221.9 530.4,1253.1 	"/>
	<polygon class="st16" points="566.3,1333 530.5,1333.2 530.3,1221.9 589.6,1222.1 589.9,1332.8 	"/>
	<polygon class="st16" points="404.5,1107.4 465.7,1107.3 465.5,1140.6 404.3,1140.3 	"/>
	<polygon class="st16" points="404.6,1193.4 404.3,1140.3 453.2,1140.6 453.1,1193.6 	"/>
	<polygon class="st16" points="521.4,1192.9 543.5,1193 543.6,1174.1 570.5,1174.4 570.8,1193.4 589.4,1193.3 589.1,1106.8 
		521,1107.1 	"/>
	<polygon class="st16" points="241.7,1051.4 241.7,1034.9 229.1,1035.1 229.1,996.8 346.6,996.8 346,1051.3 	"/>
	<polygon class="st16" points="229.2,1068.3 241.6,1068.4 241.7,1051.4 346,1051.3 346.1,1105.9 229.4,1106.4 	"/>
	<polygon class="st16" points="229.2,1121.7 229.3,1161.1 345.7,1161.3 346.1,1105.9 241.4,1106.5 241.3,1121.7 	"/>
</g>
<g id="Detalles_B">
	<path class="st16" d="M541,749l-9,0l0,10.4C532.1,759.5,541,759.5,541,749z"/>
	<path class="st16" d="M514.8,749.2l9-0.1l0,10.4C523.8,759.5,514.9,759.7,514.8,749.2z"/>
	<path class="st16" d="M410.5,748.5l9,0l0,10.4C419.5,758.9,410.6,759,410.5,748.5z"/>
	<path class="st16" d="M436.7,748.5l-9,0l0,10.4C427.7,758.9,436.6,759,436.7,748.5z"/>
	<path class="st16" d="M368.9,818.1l0-9l10.4,0C379.3,809.1,379.4,818,368.9,818.1z"/>
	<path class="st16" d="M241.3,955.3l0-9.5l11,0C252.2,945.8,252.3,955.2,241.3,955.3z"/>
	<path class="st16" d="M241.5,929.2l0,9.5l11,0C252.5,938.7,252.6,929.3,241.5,929.2z"/>
	<path class="st16" d="M241.8,1064.6l0-9.5l11,0C252.7,1055.1,252.8,1064.5,241.8,1064.6z"/>
	<path class="st16" d="M241.5,1119.6l0-9.5l11,0C252.5,1110.1,252.6,1119.5,241.5,1119.6z"/>
	<path class="st16" d="M241.8,1038.6l0,9.5l11-0.1C252.8,1048,252.9,1038.6,241.8,1038.6z"/>
	<path class="st4" d="M331.3,858.4l-9,0l0,10.4C322.3,868.7,331.2,868.8,331.3,858.4z"/>
	<path class="st16" d="M393.6,788.2l9,0l0-10.4C402.6,777.8,393.7,777.7,393.6,788.2z"/>
	<path class="st16" d="M282.3,777.9l-9,0l0-10.4C273.3,767.5,282.2,767.4,282.3,777.9z"/>
	<path class="st16" d="M257.5,777.9l9,0l0-10.4C266.5,767.5,257.6,767.4,257.5,777.9z"/>
	<path class="st16" d="M209,776.1l9,0l0-10.4C218,765.7,209.1,765.6,209,776.1z"/>
	<path class="st16" d="M182.7,776.3l9,0l0-10.4C191.7,765.9,182.9,765.8,182.7,776.3z"/>
	<path class="st16" d="M183.2,804.7l9,0l0,10.4C192.2,815,183.3,815.1,183.2,804.7z"/>
	<path class="st16" d="M185.3,846.5l0-9l-10.4,0C174.9,837.5,174.8,846.4,185.3,846.5z"/>
	<path class="st16" d="M174.7,786.8l0,7.9l-9.1,0C165.6,794.7,165.5,786.9,174.7,786.8z"/>
	<path class="st16" d="M195.4,723.3l0,9l-10.4,0C185,732.3,184.9,723.4,195.4,723.3z"/>
	<path class="st16" d="M149.8,947.3l9,0l0-10.4C158.8,936.9,149.9,936.8,149.8,947.3z"/>
	<path class="st16" d="M185,960.9l0-9l-10.4,0C174.7,951.9,174.6,960.8,185,960.9z"/>
	<path class="st16" d="M174.1,947.3l-9,0l0-10.4C165.1,936.9,174,936.8,174.1,947.3z"/>
	<path class="st16" d="M186.2,1163.6l0,9l-10.4,0C175.9,1172.6,175.8,1163.7,186.2,1163.6z"/>
	<path class="st16" d="M186.1,1197.6l0-9l-10.4,0C175.8,1188.6,175.7,1197.5,186.1,1197.6z"/>
	<path class="st16" d="M238.2,1267.5l-9,0l0,10.4C229.2,1277.9,238.1,1278,238.2,1267.5z"/>
	<path class="st16" d="M212.8,1267.3l9,0l0,10.4C221.8,1277.7,212.9,1277.8,212.8,1267.3z"/>
	<path class="st16" d="M332.2,1267.3l9,0l0,10.4C341.2,1277.7,332.3,1277.8,332.2,1267.3z"/>
	<path class="st16" d="M420.2,1235.2l9,0l0,10.4C429.2,1245.5,420.3,1245.6,420.2,1235.2z"/>
	<path class="st16" d="M453.2,1181.9l0,9l-10.4,0C442.8,1190.9,442.7,1182,453.2,1181.9z"/>
	<path class="st16" d="M454.2,1140.3l9,0l0-10.4C463.2,1129.9,454.3,1129.8,454.2,1140.3z"/>
	<path class="st16" d="M570.8,1180.8l0,9l10.4,0C581.2,1189.8,581.3,1180.9,570.8,1180.8z"/>
	<path class="st16" d="M543.2,1181.4l0,9l-10.4,0C532.9,1190.4,532.8,1181.5,543.2,1181.4z"/>
	<path class="st16" d="M556.9,1174.2l-9,0l0-10.4C547.9,1163.8,556.8,1163.7,556.9,1174.2z"/>
	<path class="st16" d="M393.3,1235.2l9,0l0,10.4C402.3,1245.5,393.4,1245.6,393.3,1235.2z"/>
	<path class="st16" d="M418.2,1235.2l-9,0l0,10.4C409.2,1245.5,418.1,1245.6,418.2,1235.2z"/>
	<path class="st16" d="M481.8,1235.5l-9,0l0,10.4C472.8,1245.9,481.7,1246,481.8,1235.5z"/>
	<path class="st16" d="M542.5,1222.1l-9,0l0,10.4C533.5,1232.5,542.3,1232.6,542.5,1222.1z"/>
	<path class="st16" d="M484.8,1241.4l0,9l10.4,0C495.2,1250.4,495.3,1241.5,484.8,1241.4z"/>
	<path class="st16" d="M315.3,1222.7l9,0l0,10.4C324.3,1233.1,315.4,1233.2,315.3,1222.7z"/>
	<polygon class="st16" points="191.2,1014.9 195.8,1014.9 195.9,1041.2 191.3,1041.2 	"/>
	<line class="st16" x1="404.7" y1="1331.4" x2="404.7" y2="1235.3"/>
	<path class="st23" d="M361.8,1161.5l-11.1,0.1l0.1,12.9C350.8,1174.5,361.8,1174.5,361.8,1161.5z"/>
	<path class="st23" d="M363.2,1161.5l11.1,0.1l-0.1,12.9C374.1,1174.5,363.1,1174.5,363.2,1161.5z"/>
	<path class="st24" d="M588.5,1081.4l-0.1,11.1l-12.9-0.1C575.5,1092.4,575.5,1081.4,588.5,1081.4z"/>
	<path class="st23" d="M344.9,1204.7l0-9.5l-11,0C333.9,1195.2,333.9,1204.6,344.9,1204.7z"/>
	<path class="st23" d="M344.9,1205.8l-0.1,9.5l-11-0.2C333.8,1215.1,333.9,1205.7,344.9,1205.8z"/>
	<polyline class="st25" points="345.2,1221.8 345.4,1161.4 403.7,1161 	"/>
</g>
<g id="Corre_C">
	<polyline class="st19" points="750.7,485.7 750.5,660.3 913.2,661 912.9,682.3 749.9,682.9 749.6,784.4 626.3,784.8 626.2,816.8 
		656.7,816.7 656.8,879 587.6,880.3 586.1,539.8 686.2,540.4 687.1,485.6 750.7,485.7 	"/>
	<line class="st17" x1="750.5" y1="683.1" x2="750.5" y2="660.3"/>
	<g>
		<rect x="663.8" y="591.7" class="st21" width="5.3" height="17.9"/>
		
			<rect x="671.7" y="597.9" transform="matrix(6.123234e-17 -1 1 6.123234e-17 67.5 1281.1595)" class="st21" width="5.3" height="17.9"/>
	</g>
</g>
<g id="Aulas_C">
	<polygon class="st26" points="750.6,486.3 750.6,587.3 860.9,587.3 860.6,558.3 854.1,558.4 854,543.1 861.1,542.9 861,486.3 
		750.9,486 750.6,486 	"/>
	<polygon class="st16" points="885.6,660.4 750.6,660.3 750.6,587.3 860.8,587.6 860.6,558.3 854.1,558.4 854,543.1 861.1,542.9 
		861.1,486 1051.6,487.3 1051.2,678.3 1004.1,678 1004.2,690.1 912.8,689.9 912.8,682.4 913,660.6 	"/>
	<polygon class="st4" points="750.3,682.9 912.8,682.4 912.8,689.9 1004.2,690.1 1004.1,678 1051.2,678.3 1050.5,783.5 749.3,784.3 
			"/>
	<rect x="626.2" y="784.6" class="st4" width="30.4" height="32.2"/>
	<polyline class="st4" points="1050.5,783.5 836.6,784.3 836.5,879.3 1050.5,879.8 1050.5,783.5 	"/>
	<polygon class="st4" points="664.3,694.3 617.4,694.2 617.4,754.3 666.7,754.3 666.7,694.3 	"/>
	
		<rect x="616.8" y="565.4" transform="matrix(-1 -1.224647e-16 1.224647e-16 -1 1259.611 1156.4362)" class="st16" width="26" height="25.6"/>
	
		<rect x="629" y="583.1" transform="matrix(-1.836970e-16 1 -1 -1.836970e-16 1219.7979 -40.3511)" class="st16" width="2.2" height="13.3"/>
	<g>
		
			<rect x="644.6" y="727.1" transform="matrix(-1 -1.224647e-16 1.224647e-16 -1 1311.1812 1458.74)" class="st5" width="21.9" height="4.6"/>
		
			<rect x="644.6" y="722.4" transform="matrix(-1 -1.224647e-16 1.224647e-16 -1 1311.1812 1449.4969)" class="st6" width="21.9" height="4.6"/>
		
			<rect x="644.6" y="717.8" transform="matrix(-1 -1.224647e-16 1.224647e-16 -1 1311.1812 1440.2539)" class="st7" width="21.9" height="4.6"/>
		
			<rect x="644.6" y="713.2" transform="matrix(-1 -1.224647e-16 1.224647e-16 -1 1311.1812 1431.0109)" class="st8" width="21.9" height="4.6"/>
		
			<rect x="644.6" y="708.6" transform="matrix(-1 -1.224647e-16 1.224647e-16 -1 1311.1812 1421.7678)" class="st9" width="21.9" height="4.6"/>
		
			<rect x="644.6" y="704" transform="matrix(-1 -1.224647e-16 1.224647e-16 -1 1311.1812 1412.5248)" class="st10" width="21.9" height="4.6"/>
		
			<rect x="644.6" y="699.3" transform="matrix(-1 -1.224647e-16 1.224647e-16 -1 1311.1812 1403.2817)" class="st11" width="21.9" height="4.6"/>
		
			<rect x="644.6" y="694.7" transform="matrix(-1 -1.224647e-16 1.224647e-16 -1 1311.1812 1394.0387)" class="st11" width="21.9" height="4.6"/>
	</g>
	<polygon class="st4" points="655.3,838.8 624.9,838.7 624.9,879.5 656.9,879.5 656.9,838.8 	"/>
	<g>
		
			<rect x="639.4" y="862.4" transform="matrix(-1 -1.224647e-16 1.224647e-16 -1 1296.068 1728.126)" class="st5" width="17.4" height="3.3"/>
		
			<rect x="639.4" y="859.1" transform="matrix(-1 -1.224647e-16 1.224647e-16 -1 1296.068 1721.4845)" class="st6" width="17.4" height="3.3"/>
		
			<rect x="639.4" y="855.8" transform="matrix(-1 -1.224647e-16 1.224647e-16 -1 1296.068 1714.843)" class="st7" width="17.4" height="3.3"/>
		
			<rect x="639.4" y="852.4" transform="matrix(-1 -1.224647e-16 1.224647e-16 -1 1296.068 1708.2015)" class="st8" width="17.4" height="3.3"/>
		
			<rect x="639.4" y="849.1" transform="matrix(-1 -1.224647e-16 1.224647e-16 -1 1296.068 1701.5601)" class="st9" width="17.4" height="3.3"/>
		
			<rect x="639.4" y="845.8" transform="matrix(-1 -1.224647e-16 1.224647e-16 -1 1296.068 1694.9186)" class="st10" width="17.4" height="3.3"/>
		
			<rect x="639.4" y="842.5" transform="matrix(-1 -1.224647e-16 1.224647e-16 -1 1296.068 1688.277)" class="st11" width="17.4" height="3.3"/>
		
			<rect x="639.4" y="839.2" transform="matrix(-1 -1.224647e-16 1.224647e-16 -1 1296.068 1681.6355)" class="st11" width="17.4" height="3.3"/>
	</g>
	<g>
		<g>
			<path class="st22" d="M626.2,704.9c-0.3,0-0.7,0-1,0c-0.4,0-0.7-0.2-0.7-0.6c-0.1-0.3,0-0.6,0.3-0.8c0.1-0.1,0.3-0.1,0.4-0.1
				c1,0,1.9,0,2.9,0c0.4,0,0.8,0.3,0.8,0.8c0,1,0,1.9,0,2.9c0,0.4-0.3,0.8-0.8,0.8c-0.4,0-0.7-0.3-0.7-0.8c0-0.3,0-0.7,0-1
				c0,0,0,0,0-0.1c-0.1,0.1-0.2,0.2-0.3,0.3c-0.9,0.9-1.9,1.9-2.8,2.8c-0.2,0.2-0.4,0.3-0.7,0.3c-0.3,0-0.5-0.2-0.6-0.5
				c-0.1-0.3-0.1-0.6,0.2-0.8c0.7-0.7,1.4-1.4,2.2-2.2C625.5,705.6,625.9,705.2,626.2,704.9C626.2,704.9,626.2,704.9,626.2,704.9z"
				/>
			<path class="st22" d="M628.4,713.2c0,0.3,0,0.5,0,0.7c0,0.9,0,1.8,0,2.7c0,0.5-0.3,0.8-0.8,0.8c-1.3,0-2.6,0-3.9,0
				c-0.5,0-0.8-0.3-0.8-0.7c0-0.5,0.3-0.8,0.8-0.8c1,0,1.9,0,2.9,0c0.1,0,0.2,0,0.3,0c0-0.1,0-0.2,0-0.3c0-1,0-2,0-3
				c0-0.6,0.3-0.9,0.9-0.9c1,0,2,0,3,0c0.1,0,0.2,0,0.3,0c0-0.1,0-0.2,0-0.3c0-1,0-1.9,0-2.9c0-0.6,0.3-0.9,0.9-0.9c1,0,2,0,2.9,0
				c0.1,0,0.2,0,0.3,0c0-0.1,0-0.2,0-0.3c0-1,0-2.1,0-3.1c0-0.6,0.3-0.9,0.9-0.9c1.4,0,2.7,0,4.1,0c0.5,0,0.8,0.3,0.9,0.7
				c0,0.5-0.3,0.8-0.9,0.8c-1,0-2,0-3,0c-0.1,0-0.2,0-0.4,0c0,0.1,0,0.2,0,0.3c0,1,0,2,0,3.1c0,0.6-0.3,0.9-0.9,0.9c-1,0-2,0-2.9,0
				c-0.1,0-0.2,0-0.3,0c0,0.1,0,0.2,0,0.3c0,1,0,1.9,0,2.9c0,0.6-0.3,0.9-0.9,0.9c-1,0-2,0-3,0C628.6,713.2,628.5,713.2,628.4,713.2
				z"/>
		</g>
	</g>
	<g>
		<g>
			<path class="st22" d="M629.3,849c-0.2,0-0.4,0-0.6,0c-0.2,0-0.4-0.1-0.4-0.3c0-0.2,0-0.4,0.2-0.5c0.1,0,0.2-0.1,0.2-0.1
				c0.5,0,1.1,0,1.6,0c0.3,0,0.4,0.2,0.4,0.4c0,0.5,0,1.1,0,1.6c0,0.3-0.2,0.4-0.4,0.4c-0.2,0-0.4-0.2-0.4-0.4c0-0.2,0-0.4,0-0.6
				c0,0,0,0,0,0c-0.1,0.1-0.1,0.1-0.2,0.1c-0.5,0.5-1.1,1.1-1.6,1.6c-0.1,0.1-0.2,0.2-0.4,0.1c-0.2,0-0.3-0.1-0.3-0.3
				c-0.1-0.2,0-0.3,0.1-0.4c0.4-0.4,0.8-0.8,1.2-1.2C629,849.4,629.2,849.2,629.3,849C629.3,849,629.3,849,629.3,849z"/>
			<path class="st22" d="M630.6,853.6c0,0.1,0,0.3,0,0.4c0,0.5,0,1,0,1.5c0,0.3-0.2,0.5-0.5,0.5c-0.7,0-1.4,0-2.2,0
				c-0.3,0-0.5-0.2-0.5-0.4c0-0.3,0.2-0.4,0.5-0.4c0.5,0,1.1,0,1.6,0c0.1,0,0.1,0,0.2,0c0-0.1,0-0.1,0-0.2c0-0.6,0-1.1,0-1.7
				c0-0.3,0.2-0.5,0.5-0.5c0.6,0,1.1,0,1.7,0c0,0,0.1,0,0.2,0c0-0.1,0-0.1,0-0.2c0-0.5,0-1.1,0-1.6c0-0.3,0.2-0.5,0.5-0.5
				c0.5,0,1.1,0,1.6,0c0.1,0,0.1,0,0.2,0c0-0.1,0-0.1,0-0.2c0-0.6,0-1.2,0-1.8c0-0.3,0.2-0.5,0.5-0.5c0.8,0,1.5,0,2.3,0
				c0.3,0,0.5,0.2,0.5,0.4c0,0.3-0.2,0.4-0.5,0.4c-0.6,0-1.1,0-1.7,0c-0.1,0-0.1,0-0.2,0c0,0.1,0,0.1,0,0.2c0,0.6,0,1.1,0,1.7
				c0,0.3-0.2,0.5-0.5,0.5c-0.5,0-1.1,0-1.6,0c-0.1,0-0.1,0-0.2,0c0,0.1,0,0.1,0,0.2c0,0.5,0,1.1,0,1.6c0,0.3-0.2,0.5-0.5,0.5
				c-0.6,0-1.1,0-1.7,0C630.7,853.6,630.6,853.6,630.6,853.6z"/>
		</g>
	</g>
	<polyline class="st4" points="616.9,539.9 616.8,565.4 642.8,565.4 642.8,591 668.5,590.9 668.6,540.4 616.9,539.9 	"/>
	<path class="st4" d="M639.7,816.8l-11.1-0.1l0.1-12.9C628.8,803.9,639.8,803.9,639.7,816.8z"/>
	<polygon class="st24" points="893.6,616.3 893.3,587.8 860.9,587.3 750.6,587.3 750.6,660.3 885.6,660.4 885.6,616.1 	"/>
	<polygon class="st16" points="730.6,879.8 713,880 713,856.8 765.6,856.8 765.6,879.5 	"/>
	<polygon class="st16" points="739.7,784.4 656.6,784.6 656.8,879 713,880 713,856.8 740.1,857 	"/>
	<polygon class="st16" points="745.4,784.5 739.7,784.4 740.1,857 765.7,857.1 765.6,879.5 836.8,879.4 836.6,784.3 	"/>
</g>
<g id="Detalles_C">
	<path class="st26" d="M751,506.7l-0.1-11.1l12.9-0.1C763.7,495.5,763.9,506.4,751,506.7z"/>
	<path class="st16" d="M913.2,678l0.1-12.3l14.3,0.1C927.6,665.8,927.6,678,913.2,678z"/>
	<path class="st16" d="M893.5,607.7l0.1-10.9l12.7,0.1C906.3,596.9,906.3,607.8,893.5,607.7z"/>
	<path class="st26" d="M750.7,582.3l0.1-12.3l14.3,0.1C765.1,570.1,765.1,582.3,750.7,582.3z"/>
	<path class="st23" d="M750.5,679l0.1-12.3l14.3,0.1C764.9,666.8,764.9,679,750.5,679z"/>
	<path class="st23" d="M586.4,656.5l0.1-12.3l14.3,0.1C600.8,644.3,600.8,656.5,586.4,656.5z"/>
	<path class="st23" d="M586.6,658l0.1,12.3l14.3-0.1C601,670.1,601,657.9,586.6,658z"/>
	<path class="st23" d="M586.4,625.2l0.1-12.3l14.3,0.1C600.8,613,600.8,625.2,586.4,625.2z"/>
	<path class="st23" d="M586.6,626.6l0.1,12.3l14.3-0.1C601,638.8,601,626.6,586.6,626.6z"/>
	<polygon class="st4" points="696.4,581.9 686.5,581.9 686.5,541.3 681.4,541.3 681.4,587 686.5,587 686.5,587 696.4,587 	"/>
	<path class="st16" d="M739.5,879l-8.4-0.1l0.1-9.7C731.3,869.2,739.6,869.2,739.5,879z"/>
	<path class="st16" d="M712.8,863.6l-0.1,8.4l-9.7-0.1C703.1,871.9,703.1,863.6,712.8,863.6z"/>
	<path class="st16" d="M765.9,863.6l0.1,8.4l9.7-0.1C775.6,871.9,775.6,863.6,765.9,863.6z"/>
	<path class="st16" d="M740.6,879l8.4-0.1l-0.1-9.7C748.9,869.2,740.6,869.2,740.6,879z"/>
	<path class="st23" d="M605.7,879.9l-13.3-0.1l0.1-15.5C592.5,864.3,605.7,864.3,605.7,879.9z"/>
	<path class="st23" d="M607.4,879.9l13.3-0.1l-0.1-15.5C620.6,864.3,607.4,864.3,607.4,879.9z"/>
</g>
<g id="REF_FIJA">
	<rect x="526.6" y="324.4" class="st27" width="44.8" height="45.6"/>
	<g>
		<g>
			<polygon class="st28" points="312,43.5 323.7,50.3 323.7,36.7 			"/>
			<rect x="322.6" y="42.2" class="st28" width="14.2" height="2.8"/>
		</g>
	</g>
	<g>
		<g>
			<polygon class="st28" points="41.8,295.3 35,307.1 48.6,307.1 			"/>
			<rect x="40.4" y="305.9" class="st28" width="2.8" height="14.2"/>
		</g>
	</g>
	<g>
		<g>
			<polygon class="st28" points="41.8,877.5 35,889.2 48.6,889.2 			"/>
			<rect x="40.4" y="888.1" class="st28" width="2.8" height="14.2"/>
		</g>
	</g>
	<g>
		<g>
			<polygon class="st28" points="879.8,37.9 891.6,44.7 891.6,31.1 			"/>
			<rect x="890.4" y="36.5" class="st28" width="14.2" height="2.8"/>
		</g>
	</g>
	<g>
		<path class="st29" d="M517.3,50.4l-0.1-10.5l-5.1,8.7l-1.8,0l-5.2-8.4l0.1,10.3l-3.8,0l-0.2-17.5l3.4,0l6.7,10.8l6.3-11l3.3,0
			l0.2,17.5L517.3,50.4z"/>
		<path class="st29" d="M536.8,46.5l-8.1,0.1l-1.5,3.8l-4.2,0l7.6-17.6l4,0l8,17.4l-4.3,0L536.8,46.5z M535.4,43.4l-2.8-6.7
			l-2.7,6.7L535.4,43.4z"/>
		<path class="st29" d="M555.6,50l-3.4-4.8l-0.2,0l-3.5,0l0.1,4.9l-4.1,0l-0.2-17.5l7.6-0.1c4.7-0.1,7.6,2.3,7.7,6.3
			c0,2.6-1.3,4.6-3.5,5.6l4,5.6L555.6,50z M551.6,35.9l-3.3,0l0.1,6.1l3.3,0c2.5,0,3.7-1.2,3.7-3.1
			C555.4,36.9,554.1,35.8,551.6,35.9z"/>
		<path class="st29" d="M562.6,32.4l4.1,0l0.2,17.5l-4.1,0L562.6,32.4z"/>
		<path class="st29" d="M569.8,41.1c-0.1-5.2,3.9-9.1,9.5-9.2c5.5-0.1,9.6,3.7,9.7,8.9s-4,9.1-9.5,9.2
			C574,50.1,569.9,46.3,569.8,41.1z M584.9,40.9c0-3.3-2.4-5.6-5.5-5.5c-3.1,0-5.5,2.3-5.4,5.7c0,3.3,2.4,5.6,5.5,5.5
			C582.6,46.6,584.9,44.3,584.9,40.9z"/>
		<path class="st29" d="M615.2,44.6c0,3-2.3,4.8-7,4.9l-9.1,0.1L599,32l8.6-0.1c4.4,0,6.6,1.8,6.7,4.5c0,1.8-0.9,3.1-2.3,3.9
			C613.9,40.9,615.2,42.4,615.2,44.6z M603.1,35l0,4.1l4,0c2,0,3-0.7,3-2.1c0-1.4-1.1-2-3.1-2L603.1,35z M611.1,44.2
			c0-1.5-1.1-2.2-3.2-2.1l-4.7,0.1l0,4.3l4.7-0.1C610,46.4,611.1,45.7,611.1,44.2z"/>
		<path class="st29" d="M629.5,49.2l-3.4-4.8l-0.2,0l-3.5,0l0.1,4.9l-4.1,0l-0.2-17.5l7.6-0.1c4.7-0.1,7.6,2.3,7.7,6.3
			c0,2.6-1.3,4.6-3.5,5.6l4,5.6L629.5,49.2z M625.5,35l-3.3,0l0.1,6.1l3.3,0c2.5,0,3.7-1.2,3.7-3.1C629.3,36.1,628,35,625.5,35z"/>
		<path class="st29" d="M648.2,45.2l-8.1,0.1l-1.5,3.8l-4.2,0l7.6-17.6l4,0l8,17.4l-4.3,0L648.2,45.2z M646.9,42.2l-2.8-6.7
			l-2.7,6.7L646.9,42.2z"/>
		<path class="st29" d="M671.6,31.2l-7.4,17.6l-4,0l-7.7-17.4l4.4,0l5.5,12.4l5.3-12.6L671.6,31.2z"/>
		<path class="st29" d="M671.8,40c-0.1-5.2,4-9.1,9.5-9.2c5.5-0.1,9.6,3.7,9.7,8.9c0.1,5.2-4,9.1-9.5,9.2
			C676,49,671.9,45.2,671.8,40z M686.9,39.8c0-3.3-2.4-5.6-5.5-5.5c-3.1,0-5.5,2.3-5.4,5.7c0,3.3,2.4,5.6,5.5,5.5
			C684.6,45.4,686.9,43.1,686.9,39.8z"/>
	</g>
	<g>
		<path class="st29" d="M541.9,1399.4c0-5.3,4.1-9,9.5-9c3,0,5.5,1.1,7.2,3.1l-2.6,2.4c-1.2-1.4-2.6-2.1-4.4-2.1
			c-3.3,0-5.6,2.3-5.6,5.6c0,3.3,2.3,5.6,5.6,5.6c1.8,0,3.2-0.7,4.4-2.1l2.6,2.4c-1.7,2-4.2,3.1-7.2,3.1
			C545.9,1408.5,541.9,1404.7,541.9,1399.4z"/>
		<path class="st29" d="M577.4,1390.8l0,17.5l-4.1,0l0-7.2l-8,0l0,7.2l-4.1,0l0-17.5l4.1,0l0,6.9l8,0l0-6.9L577.4,1390.8z"/>
		<path class="st29" d="M581.6,1390.8l4.1,0l0,17.5l-4.1,0L581.6,1390.8z"/>
		<path class="st29" d="M589.8,1390.8l4.1,0l0,14.2l8.8,0l0,3.3l-12.8,0L589.8,1390.8z"/>
		<path class="st29" d="M618.4,1405.1l0,3.3l-13.6,0l0-17.5l13.2,0l0,3.3l-9.2,0l0,3.8l8.1,0l0,3.2l-8.1,0l0,4.1L618.4,1405.1z"/>
	</g>
	<g>
		<path class="st29" d="M35.6,611.8l0-4.9l21.2,0.2l0,4.9L35.6,611.8z"/>
		<path class="st29" d="M54.8,603.7l-3.7-1.7c1.3-1.8,2.2-4.4,2.3-7c0-2.9-0.9-4.1-2.2-4.1c-4,0-1.4,12.3-9.2,12.2
			c-3.6,0-6.6-3-6.5-9c0-2.7,0.7-5.4,1.9-7.3l3.7,1.5c-1.1,2-1.7,4-1.7,5.9c0,2.9,1.1,4,2.4,4c3.9,0,1.3-12.3,9.1-12.2
			c3.5,0,6.5,3,6.5,9C57.3,598.5,56.2,601.9,54.8,603.7z"/>
		<path class="st29" d="M35.8,582.6l0-4.9l17.2,0.2l0.1-10.6l4,0L57,582.8L35.8,582.6z"/>
		<path class="st29" d="M53.4,548l3.9,0l-0.1,16.4L36,564.3l0.1-16l3.9,0L40,559.5l4.6,0l0.1-9.8l3.8,0l-0.1,9.8l4.9,0L53.4,548z"/>
		<path class="st29" d="M40.2,539.6l-0.1,6.8l-4,0l0.2-18.5l4,0l-0.1,6.8l17.2,0.2l0,4.9L40.2,539.6z"/>
		<path class="st29" d="M53.1,512.5l-0.1,9.8l4.5,1.9l0,5l-21.1-9.6l0-4.8l21.3-9.3l0,5.1L53.1,512.5z M49.4,514l-8.1,3.3l8.1,3.4
			L49.4,514z"/>
	</g>
	<g>
		<path class="st29" d="M1119.6,750.5c3.9,0,6.3,2.9,6.3,7.6l0,3.5l4.8,0l0,4.1l-17.5,0l0-7.6
			C1113.3,753.5,1115.7,750.5,1119.6,750.5z M1119.6,754.6c-1.9,0-3,1.3-3,3.7l0,3.3l6.1,0l0-3.3
			C1122.7,755.9,1121.5,754.6,1119.6,754.6z"/>
		<path class="st29" d="M1127,737l0,8.1l3.8,1.5l0,4.2l-17.5-7.8l0-4l17.5-7.8l0,4.3L1127,737z M1123.9,738.3l-6.7,2.8l6.7,2.8
			L1123.9,738.3z"/>
		<path class="st29" d="M1129,730.7l-3.1-1.4c1.1-1.5,1.8-3.7,1.8-5.8c0-2.4-0.8-3.4-1.9-3.4c-3.3,0-1,10.2-7.5,10.2
			c-3,0-5.5-2.4-5.5-7.4c0-2.2,0.5-4.5,1.5-6.1l3.1,1.2c-0.9,1.6-1.4,3.3-1.4,4.9c0,2.4,0.9,3.3,2,3.3c3.2,0,1-10.2,7.4-10.2
			c2.9,0,5.4,2.4,5.4,7.4C1131.1,726.4,1130.2,729.2,1129,730.7z"/>
		<path class="st29" d="M1122,714.5c-5.2,0-9.1-4-9.1-9.6c0-5.5,3.8-9.6,9-9.6c5.2,0,9.1,4.1,9.1,9.6
			C1131,710.5,1127.2,714.5,1122,714.5z M1122,699.5c-3.3,0-5.6,2.4-5.6,5.5c0,3.1,2.3,5.5,5.6,5.5c3.3,0,5.6-2.4,5.6-5.5
			C1127.6,701.8,1125.3,699.5,1122,699.5z"/>
		<path class="st29" d="M1113.2,685.2l0-8c0-5.7,3.4-9.7,8.7-9.7c5.3,0,8.8,3.9,8.8,9.6l0,8L1113.2,685.2z M1127.4,677.5
			c0-3.5-2.1-5.7-5.4-5.7c-3.4,0-5.4,2.3-5.4,5.8l0,3.7l10.9,0L1127.4,677.5z"/>
		<path class="st29" d="M1127.4,651l3.3,0l0,13.6l-17.5,0l0-13.2l3.3,0l0,9.2l3.8,0l0-8.1l3.2,0l0,8.1l4.1,0L1127.4,651z"/>
		<path class="st29" d="M1113.2,640.7l0-4.1l14.2,0l0-8.8l3.3,0l0,12.8L1113.2,640.7z"/>
		<path class="st29" d="M1126.9,613.9l0,8.1l3.8,1.5l0,4.2l-17.5-7.8l0-4l17.5-7.8l0,4.3L1126.9,613.9z M1123.8,615.2l-6.7,2.8
			l6.7,2.8L1123.8,615.2z"/>
		<path class="st29" d="M1119.5,584c3.9,0,6.3,2.9,6.3,7.6l0,3.5l4.8,0l0,4.1l-17.5,0l0-7.6C1113.1,587,1115.5,584,1119.5,584z
			 M1119.5,588.1c-1.9,0-3,1.3-3,3.7l0,3.3l6.1,0l0-3.3C1122.5,589.4,1121.4,588.1,1119.5,588.1z"/>
		<path class="st29" d="M1126.8,570.5l0,8.1l3.8,1.5l0,4.2l-17.5-7.8l0-4l17.5-7.8l0,4.3L1126.8,570.5z M1123.8,571.8l-6.7,2.8
			l6.7,2.8L1123.8,571.8z"/>
		<path class="st29" d="M1116.4,560.1l0,5.6l-3.3,0l0-15.3l3.3,0l0,5.6l14.2,0l0,4.1L1116.4,560.1z"/>
		<path class="st29" d="M1130.6,537.1l-4.9,3.4v0.2l0,3.5l4.9,0l0,4.1l-17.5,0l0-7.6c0-4.7,2.4-7.6,6.3-7.6c2.6,0,4.6,1.3,5.5,3.6
			l5.6-3.9L1130.6,537.1z M1116.4,540.9l0,3.3l6.1,0l0-3.3c0-2.5-1.2-3.7-3.1-3.7C1117.5,537.2,1116.4,538.4,1116.4,540.9z"/>
		<path class="st29" d="M1113.1,529.9l0-4.1l17.5,0l0,4.1L1113.1,529.9z"/>
		<path class="st29" d="M1126.8,510.1l0,8.1l3.8,1.5l0,4.2l-17.5-7.8l0-4l17.5-7.8l0,4.3L1126.8,510.1z M1123.7,511.4l-6.7,2.8
			l6.7,2.8L1123.7,511.4z"/>
	</g>
	<g>
		<path d="M557.1,352.9c-1.1,0-2.1,0-3.2,0c1.2-4.2,2.4-8.4,3.6-12.6c-0.4-0.2-0.6-0.2-0.8,0.3c-0.6,2.1-1.3,4.2-1.9,6.2
			c-0.1,0.4-0.3,0.8-0.5,1.1c-0.3,0.4-0.8,0.5-1.3,0.2c-0.5-0.3-0.6-0.6-0.5-1.2c0.8-2.7,1.5-5.5,2.3-8.2c0.4-1.3,1.2-2.2,2.6-2.3
			c1.8-0.1,3.6-0.2,5.4,0c1.5,0.1,2.2,1.3,2.7,2.6c0.7,2.5,1.5,5,2.2,7.4c0.3,0.9,0.1,1.5-0.5,1.7c-0.7,0.2-1.4-0.2-1.7-1
			c-0.6-1.9-1.2-3.9-1.8-5.8c-0.1-0.4-0.3-0.8-0.4-1.3c-0.2,0-0.3,0.1-0.5,0.1c1.2,4.2,2.5,8.4,3.7,12.6c-1.1,0-2.2,0-3.3,0
			c0,0.2,0,0.4,0,0.6c0,2.9,0,5.7,0,8.6c0,0.3,0,0.6-0.1,0.9c-0.1,0.7-0.5,1-1.2,1c-0.7,0-1.2-0.3-1.3-1c-0.1-0.3-0.1-0.6-0.1-1
			c0-2.9,0-5.8,0-8.7c0-0.3,0-0.6-0.5-0.4c0,0.2,0,0.4,0,0.6c0,2.9,0,5.7,0,8.6c0,0.4,0,0.8-0.2,1.1c-0.2,0.6-0.7,0.9-1.3,0.8
			c-0.6-0.1-1-0.4-1.1-1.1c-0.1-0.3-0.1-0.7-0.1-1c0-2.8,0-5.6,0-8.3C557.1,353.3,557.1,353.1,557.1,352.9z"/>
		<path d="M542.3,340.9c-0.3,0-0.5,0-0.8,0c0,0.2,0,0.4,0,0.6c0.1,6.7,0.1,13.3,0.2,20c0,0.4,0,0.9-0.1,1.3c-0.1,0.7-0.5,1-1.2,1
			c-0.8,0.1-1.4-0.2-1.6-0.9c-0.1-0.4-0.2-0.8-0.2-1.2c0-3.8-0.1-7.7-0.1-11.5c0-0.2,0-0.3,0-0.5c-0.2,0-0.4,0-0.6,0
			c0,0.2,0,0.5,0,0.7c0,3.7,0.1,7.5,0.1,11.2c0,0.5,0,1-0.2,1.4c-0.1,0.6-0.6,0.8-1.3,0.8c-0.7,0-1.2-0.3-1.3-0.8
			c-0.1-0.4-0.2-0.9-0.2-1.4c-0.1-6.7-0.1-13.5-0.1-20.2c0-0.4,0-0.8-0.6-0.5c0,0.2,0,0.3,0,0.5c0,2.1,0,4.2,0,6.3
			c0,0.4,0,0.8-0.1,1.2c-0.1,0.6-0.5,0.9-1.2,0.8c-0.6,0-0.9-0.3-0.9-1c-0.1-0.6-0.1-1.2-0.1-1.8c0-2.4-0.1-4.7,0-7.1
			c0.1-2.1,1.1-3.2,3.2-3.3c2.1-0.1,4.2-0.1,6.3,0.1c1.8,0.1,2.9,1.3,3,3.1c0.1,2.8,0.1,5.7,0.1,8.5c0,1.1-0.4,1.5-1.4,1.4
			c-0.4,0-0.7-0.2-0.8-0.7c-0.1-0.4-0.1-0.9-0.1-1.3C542.4,345.5,542.3,343.2,542.3,340.9z"/>
		<path d="M550.3,363.8c-1,0-2,0-3,0c-0.1-11.1-0.1-22.1-0.2-33.2c1,0,2,0,3,0C550.2,341.6,550.3,352.7,550.3,363.8z"/>
		<path d="M535.6,333.1c0-1.5,1.2-2.7,2.7-2.6c1.5,0,2.7,1.2,2.6,2.7c0,1.5-1.2,2.7-2.7,2.7C536.8,335.9,535.6,334.6,535.6,333.1z"
			/>
		<path d="M562.8,332.9c0,1.5-1.1,2.7-2.5,2.7c-1.5,0-2.8-1.2-2.8-2.6c0-1.5,1.2-2.7,2.6-2.7C561.6,330.3,562.8,331.4,562.8,332.9z"
			/>
	</g>
	<g>
		<path d="M469.1,426.5C469.1,426.5,469,426.5,469.1,426.5c-0.1,0-0.2,0-0.3,0c0,0,0,0-0.1,0c-0.1,0-0.1,0-0.1,0
			c0,0-0.1,0.1-0.1,0.2c0,0.4,0,0.7,0.2,0.9c0.2,0.2,0.5,0.3,1,0.3c9.6,0,15.4,0,25,0c0.7,0,1-0.1,1.2-0.3c0.2-0.2,0.2-0.6,0.1-1.2
			L469.1,426.5z"/>
		<g>
			<path d="M482.8,410.2h-8.6v6l0,0v0.2l0,2.8c0.4-0.2,0.8-0.3,1-0.4c0-0.1,0.1-0.3,0.3-0.5c0.3-0.3,1.2-0.5,1.5-0.5
				c0.1,0,0.1,0,0.2,0c0.4,0,1.1-0.1,2,0c1.2,0.2,1.9,0.6,1.9,0.7l0.1,0l0,0.1c0,0,0.1,0.1,0.1,0.3c0,0,0.1,0.1,0.1,0.1l0-0.7l0,0
				l0-0.7c-0.1-1.1-0.1-2.3-0.1-3.4c0-0.9,0.4-1.3,1.3-1.4h0c0.1,0,0.2,0,0.3,0V410.2z"/>
			<path d="M470.4,401.5c1.1,0.6,2.3,1.2,3.5,1.8c0.2,0.1,0.5,0.3,0.6,0.6c0.2,0.8,0.3,1.5,0.5,2.4c0.1,0.3,0.1,0.6,0.2,0.9l0.1,0.3
				l-0.3,0c-0.3,0-0.5,0-0.6,0.1c-0.1,0.1-0.1,0.4-0.1,0.7c0,0.2,0,0.2,0,0.3l0,0.1l0,0c0,0,0,0.1,0,0.2c0,0.2,0,0.3,0.1,0.3
				c0,0,0.1,0.1,0.3,0.1c2.3,0,4.9,0,8.1,0c0.2,0,0.2,0,0.2,0c0,0,0-0.1,0-0.2c0-0.3,0-0.4,0-0.4c0-0.1,0-0.1,0-0.2l0-0.3
				c0-0.2,0-0.3-0.1-0.4c-0.1-0.1-0.2-0.1-0.4-0.1c-0.9,0-1.8,0-2.7,0c-0.9,0-1.9,0-2.9,0c-0.6,0-1-0.1-1.1-0.9
				c-0.1-0.5-0.2-1.1-0.3-1.6c-0.1-0.4-0.2-0.9-0.3-1.3c-0.1-0.4-0.2-0.6-0.6-0.8c-1-0.5-2-1.1-3-1.6l-0.9-0.5
				c-0.2-0.1-0.4-0.2-0.6-0.2c-0.1,0-0.1,0.1-0.2,0.2C469.9,401,469.9,401.2,470.4,401.5z"/>
		</g>
		<g>
			<path d="M496.5,414c-4.6,0-8.9,0-13.2,0c-0.2,0-0.3,0-0.4,0.1c-0.1,0.1-0.1,0.2-0.1,0.4c0.1,0.8,0.1,1.5,0.1,2.3
				c0,0.6,0.1,1.2,0.1,1.9c0,0,0,0.1,0,0.1l0,0c0,0.6,0.1,0.8,0.1,0.9c0.3,0.2,1,0.7,3.1,2.4c0.3,0.2,0.8,0.7,0.9,0.9l0,0
				c0.1,0.2,0.2,0.6,0.2,1l0,0l0,0c0,0.2-0.1,0.4-0.2,0.7c0,0.1-0.1,0.1-0.1,0.2c0.5,0,1,0,1.4,0c1.3,0,2.6,0.1,3.8-0.1
				c2.1-0.2,3.9-2,4.1-4.2c0.1-1.4,0.2-2.8,0.3-4.2c0-0.7,0.1-1.3,0.1-2c0-0.2,0-0.3-0.1-0.4C496.9,414.1,496.7,414,496.5,414z"/>
			<path d="M501.5,416.1c-0.4-1-1.3-1.4-2.5-1.3c-0.5,0.1-0.8,0.2-0.9,0.4c-0.1,0.2-0.1,0.4,0,0.8c0,0,0.1,0,0.1-0.1
				c0.4-0.2,0.8-0.4,1.3-0.4c0.3,0,0.6,0.1,0.9,0.3c0.6,0.5,0.8,1.3,0.5,2.3c-0.4,1.3-1.3,2.2-2.6,2.6c-0.6,0.2-0.7,0.4-0.8,1
				c1.5-0.2,2.6-0.9,3.5-2C501.8,418.6,502,417.3,501.5,416.1z"/>
		</g>
		<path d="M487.4,409.9c0.1-0.1,0.1-0.2,0.1-0.3c0-0.1-0.1-0.3-0.2-0.4c-0.5-0.5-0.6-1.2-0.3-2c0.1-0.3,0.2-0.5,0.4-0.8
			c0.1-0.2,0.3-0.5,0.4-0.8c0.2-0.4,0.3-0.9,0.5-1.3c0.1-0.2,0.1-0.4,0.2-0.5c-0.1-0.9-0.4-1.6-1-2.3c-0.1-0.2-0.3-0.4-0.5-0.4
			c0,0,0,0,0,0c-0.1,0-0.2,0-0.2,0.1c-0.1,0.1-0.2,0.2-0.2,0.2c0,0.2,0.1,0.4,0.3,0.5c0.9,1,1,2.2,0.2,3.4c-0.3,0.6-0.6,1.2-0.9,1.8
			c-0.3,0.9-0.1,1.7,0.5,2.4C487.1,410.1,487.2,410,487.4,409.9z"/>
		<path d="M492.9,409.9c0.1,0,0.1-0.1,0.1-0.2c0-0.1-0.1-0.3-0.2-0.4c-0.6-0.6-0.7-1.3-0.3-2.1c0.1-0.2,0.2-0.5,0.3-0.7
			c0.1-0.2,0.3-0.5,0.4-0.7c0.2-0.4,0.3-0.9,0.5-1.3c0.1-0.2,0.1-0.4,0.2-0.5c-0.1-0.9-0.4-1.6-1.1-2.4c-0.2-0.2-0.3-0.3-0.4-0.3
			c-0.1,0-0.2,0-0.2,0.1c-0.2,0.2-0.3,0.3,0.1,0.7c1,1.2,1,2.1,0.3,3.5c-0.4,0.7-0.7,1.4-0.9,2c-0.2,0.8,0,1.6,0.6,2.2
			C492.4,409.9,492.8,409.9,492.9,409.9z"/>
		<g>
			<path d="M480.2,419.8c0-0.1-0.2-0.2-0.3-0.3c-0.5-0.2-1.1-0.3-1.6-0.3c-0.5,0-1,0.1-1.5,0.2c-0.1,0-0.3,0.3-0.3,0.4
				c-0.3,1.7-0.3,3.5,0.1,5.2c0,0,0.1,0.1,0.2,0.1c0.9,0,1.7,0,2.6,0l0.6,0C480.5,423.4,480.5,421.6,480.2,419.8z"/>
			<path d="M483.3,421.3c-0.6-0.4-1.3-0.8-2-1l-0.2,4.9c0.1,0,0.2,0,0.3,0c0.2,0,0.4,0,0.6,0c0.3,0,0.5,0,0.8,0c0.2,0,0.3,0,0.4-0.3
				c0.3-1,0.4-2.1,0.3-3.3C483.4,421.5,483.3,421.3,483.3,421.3z"/>
			<path d="M473.4,421.3L473.4,421.3c-0.1,0-0.1,0.1-0.1,0.2c-0.1,1-0.2,2.3,0.3,3.6c0,0,0.1,0.1,0.1,0.1c0.5,0,1.1,0,1.6,0l0.2,0
				l-0.2-4.8C474.6,420.6,473.9,420.9,473.4,421.3z"/>
			<path d="M486.2,424.7c0.1-0.2,0.1-0.5,0-0.7c-0.4-0.6-1-1.2-1.7-1.7l-0.3,2.8c0.1,0,0.2,0,0.3,0c0.4,0,0.9,0,1.3-0.1
				C485.9,425,486.1,424.9,486.2,424.7z"/>
			<path d="M471.9,422.7c-0.5,0.4-0.9,0.8-1.3,1.2c-0.2,0.2-0.2,0.4-0.1,0.7c0.1,0.3,0.3,0.5,0.6,0.5c0.4,0.1,0.8,0.1,1.2,0.1
				c0.1,0,0.2,0,0.3,0l-0.3-2.8C472.1,422.5,472,422.6,471.9,422.7z"/>
		</g>
	</g>
	<g>
		<g>
			<path d="M551.7,228.7l0,1.5l0.7,0.3l0,0.7l-3.1-1.4l0-0.7l3.2-1.4l0,0.8L551.7,228.7z M551.2,228.9l-1.2,0.5l1.2,0.5L551.2,228.9
				z"/>
			<path d="M552.1,227.5l-0.5-0.2c0.2-0.3,0.3-0.7,0.3-1c0-0.4-0.1-0.6-0.3-0.6c-0.6,0-0.2,1.8-1.4,1.8c-0.5,0-1-0.4-1-1.3
				c0-0.4,0.1-0.8,0.3-1.1l0.6,0.2c-0.2,0.3-0.3,0.6-0.3,0.9c0,0.4,0.2,0.6,0.4,0.6c0.6,0,0.2-1.8,1.3-1.8c0.5,0,1,0.4,1,1.3
				C552.5,226.7,552.3,227.2,552.1,227.5z"/>
			<path d="M550.8,224.6c-1,0-1.6-0.7-1.6-1.7c0-0.5,0.2-1,0.6-1.3l0.4,0.5c-0.2,0.2-0.4,0.5-0.4,0.8c0,0.6,0.4,1,1,1
				c0.6,0,1-0.4,1-1c0-0.3-0.1-0.6-0.4-0.8l0.4-0.5c0.4,0.3,0.6,0.8,0.6,1.3C552.5,223.9,551.8,224.6,550.8,224.6z"/>
			<path d="M551.9,218.7l0.6,0l0,2.4l-3.2,0l0-2.4l0.6,0l0,1.7l0.7,0l0-1.5l0.6,0l0,1.5l0.7,0L551.9,218.7z"/>
			<path d="M549.3,215.2l3.2,0l0,0.6l-1.9,1.6l1.9,0l0,0.7l-3.2,0l0-0.6l1.9-1.6l-1.9,0L549.3,215.2z"/>
			<path d="M552.2,214.7l-0.5-0.2c0.2-0.3,0.3-0.7,0.3-1c0-0.4-0.1-0.6-0.3-0.6c-0.6,0-0.2,1.8-1.4,1.8c-0.5,0-1-0.4-1-1.3
				c0-0.4,0.1-0.8,0.3-1.1l0.6,0.2c-0.2,0.3-0.3,0.6-0.3,0.9c0,0.4,0.2,0.6,0.4,0.6c0.6,0,0.2-1.8,1.3-1.8c0.5,0,1,0.4,1,1.3
				C552.5,213.9,552.4,214.4,552.2,214.7z"/>
			<path d="M550.9,211.8c-0.9,0-1.6-0.7-1.6-1.7c0-1,0.7-1.7,1.6-1.7c0.9,0,1.6,0.7,1.6,1.7C552.5,211,551.8,211.8,550.9,211.8z
				 M550.9,209c-0.6,0-1,0.4-1,1c0,0.6,0.4,1,1,1s1-0.4,1-1C551.9,209.5,551.5,209,550.9,209z"/>
			<path d="M552.5,205.8l-0.9,0.6v0l0,0.6l0.9,0l0,0.7l-3.2,0l0-1.4c0-0.8,0.4-1.4,1.2-1.4c0.5,0,0.8,0.2,1,0.7l1-0.7L552.5,205.8z
				 M550,206.4l0,0.6l1.1,0l0-0.6c0-0.4-0.2-0.7-0.5-0.7C550.2,205.8,550,206,550,206.4z"/>
		</g>
	</g>
	<g>
		<g>
			<path d="M560.3,216.4l0,3.1l1.4,0.6l0,1.6l-6.6-3l0-1.5l6.6-2.9l0,1.6L560.3,216.4z M559.2,216.8l-2.5,1l2.5,1.1L559.2,216.8z"/>
		</g>
	</g>
	<g>
		<g>
			<path class="st22" d="M547.1,260.2c-0.3,0-0.6,0-0.9,0c-0.3,0-0.6-0.2-0.6-0.5c-0.1-0.3,0-0.6,0.3-0.7c0.1-0.1,0.2-0.1,0.4-0.1
				c0.8,0,1.6,0,2.5,0c0.4,0,0.6,0.3,0.6,0.6c0,0.8,0,1.7,0,2.5c0,0.4-0.3,0.6-0.6,0.6c-0.4,0-0.6-0.3-0.6-0.6c0-0.3,0-0.6,0-0.9
				c0,0,0,0,0,0c-0.1,0.1-0.2,0.1-0.2,0.2c-0.8,0.8-1.6,1.6-2.4,2.4c-0.2,0.2-0.4,0.3-0.6,0.2c-0.2,0-0.4-0.2-0.5-0.4
				c-0.1-0.2,0-0.5,0.1-0.7c0.6-0.6,1.2-1.2,1.8-1.8C546.5,260.8,546.8,260.5,547.1,260.2C547.1,260.2,547.1,260.2,547.1,260.2z"/>
			<path class="st22" d="M548.9,267.3c0,0.2,0,0.4,0,0.6c0,0.8,0,1.5,0,2.3c0,0.4-0.3,0.7-0.7,0.7c-1.1,0-2.2,0-3.3,0
				c-0.4,0-0.7-0.3-0.7-0.6c0-0.4,0.3-0.6,0.7-0.6c0.8,0,1.6,0,2.4,0c0.1,0,0.2,0,0.3,0c0-0.1,0-0.2,0-0.2c0-0.9,0-1.7,0-2.6
				c0-0.5,0.2-0.7,0.8-0.7c0.9,0,1.7,0,2.6,0c0.1,0,0.1,0,0.3,0c0-0.1,0-0.2,0-0.2c0-0.8,0-1.6,0-2.5c0-0.5,0.2-0.8,0.7-0.8
				c0.8,0,1.7,0,2.5,0c0.1,0,0.2,0,0.3,0c0-0.1,0-0.2,0-0.2c0-0.9,0-1.8,0-2.7c0-0.5,0.2-0.7,0.7-0.7c1.1,0,2.3,0,3.4,0
				c0.4,0,0.7,0.2,0.7,0.6c0,0.4-0.3,0.6-0.7,0.6c-0.9,0-1.7,0-2.6,0c-0.1,0-0.2,0-0.3,0c0,0.1,0,0.2,0,0.3c0,0.9,0,1.7,0,2.6
				c0,0.5-0.2,0.7-0.7,0.7c-0.8,0-1.7,0-2.5,0c-0.1,0-0.2,0-0.3,0c0,0.1,0,0.2,0,0.3c0,0.8,0,1.6,0,2.5c0,0.5-0.2,0.7-0.7,0.7
				c-0.8,0-1.7,0-2.5,0C549.1,267.3,549.1,267.3,548.9,267.3z"/>
		</g>
	</g>
	<g>
		<g>
			<path class="st22" d="M158.4,431.6c-0.3,0-0.6,0-0.9,0c-0.3,0-0.6-0.2-0.6-0.5c-0.1-0.3,0-0.6,0.3-0.7c0.1-0.1,0.2-0.1,0.4-0.1
				c0.8,0,1.6,0,2.5,0c0.4,0,0.6,0.3,0.6,0.6c0,0.8,0,1.7,0,2.5c0,0.4-0.3,0.6-0.6,0.6c-0.4,0-0.6-0.3-0.6-0.6c0-0.3,0-0.6,0-0.9
				c0,0,0,0,0,0c-0.1,0.1-0.2,0.1-0.2,0.2c-0.8,0.8-1.6,1.6-2.4,2.4c-0.2,0.2-0.4,0.3-0.6,0.2c-0.2,0-0.4-0.2-0.5-0.4
				c-0.1-0.2,0-0.5,0.1-0.7c0.6-0.6,1.2-1.2,1.8-1.8C157.8,432.2,158.1,432,158.4,431.6C158.4,431.7,158.4,431.6,158.4,431.6z"/>
			<path class="st22" d="M160.2,438.7c0,0.2,0,0.4,0,0.6c0,0.8,0,1.5,0,2.3c0,0.4-0.3,0.7-0.7,0.7c-1.1,0-2.2,0-3.3,0
				c-0.4,0-0.7-0.3-0.7-0.6c0-0.4,0.3-0.6,0.7-0.6c0.8,0,1.6,0,2.4,0c0.1,0,0.2,0,0.3,0c0-0.1,0-0.2,0-0.2c0-0.9,0-1.7,0-2.6
				c0-0.5,0.2-0.7,0.8-0.7c0.9,0,1.7,0,2.6,0c0.1,0,0.1,0,0.3,0c0-0.1,0-0.2,0-0.2c0-0.8,0-1.6,0-2.5c0-0.5,0.2-0.8,0.7-0.8
				c0.8,0,1.7,0,2.5,0c0.1,0,0.2,0,0.3,0c0-0.1,0-0.2,0-0.2c0-0.9,0-1.8,0-2.7c0-0.5,0.2-0.7,0.7-0.7c1.1,0,2.3,0,3.4,0
				c0.4,0,0.7,0.2,0.7,0.6c0,0.4-0.3,0.6-0.7,0.6c-0.9,0-1.7,0-2.6,0c-0.1,0-0.2,0-0.3,0c0,0.1,0,0.2,0,0.3c0,0.9,0,1.7,0,2.6
				c0,0.5-0.2,0.7-0.7,0.7c-0.8,0-1.7,0-2.5,0c-0.1,0-0.2,0-0.3,0c0,0.1,0,0.2,0,0.3c0,0.8,0,1.6,0,2.5c0,0.5-0.2,0.7-0.7,0.7
				c-0.8,0-1.7,0-2.5,0C160.4,438.7,160.4,438.7,160.2,438.7z"/>
		</g>
	</g>
	<g>
		<g>
			<path class="st22" d="M156.8,403v0.7H154V400h2.8v0.7h-1.9v0.8h1.7v0.7h-1.7v0.9H156.8z"/>
			<path class="st22" d="M157.2,403.3l0.3-0.6c0.3,0.2,0.8,0.4,1.2,0.4c0.5,0,0.7-0.2,0.7-0.4c0-0.7-2.1-0.2-2.1-1.6
				c0-0.6,0.5-1.2,1.6-1.2c0.5,0,0.9,0.1,1.3,0.3l-0.3,0.6c-0.3-0.2-0.7-0.3-1-0.3c-0.5,0-0.7,0.2-0.7,0.4c0,0.7,2.1,0.2,2.1,1.6
				c0,0.6-0.5,1.1-1.6,1.1C158.1,403.7,157.5,403.5,157.2,403.3z"/>
			<path class="st22" d="M160.6,401.8c0-1.1,0.9-1.9,2-1.9c0.6,0,1.2,0.2,1.5,0.7l-0.5,0.5c-0.2-0.3-0.6-0.4-0.9-0.4
				c-0.7,0-1.2,0.5-1.2,1.2c0,0.7,0.5,1.2,1.2,1.2c0.4,0,0.7-0.1,0.9-0.4l0.5,0.5c-0.3,0.4-0.9,0.7-1.5,0.7
				C161.5,403.7,160.6,402.9,160.6,401.8z"/>
			<path class="st22" d="M167.1,402.9h-1.7l-0.3,0.8h-0.9l1.6-3.7h0.8l1.7,3.7h-0.9L167.1,402.9z M166.8,402.2l-0.6-1.4l-0.6,1.4
				H166.8z"/>
			<path class="st22" d="M168.7,400h0.9v3h1.9v0.7h-2.7V400z"/>
			<path class="st22" d="M174.7,403v0.7h-2.9V400h2.8v0.7h-1.9v0.8h1.7v0.7h-1.7v0.9H174.7z"/>
			<path class="st22" d="M177.8,403.7l-0.7-1h0h-0.7v1h-0.9V400h1.6c1,0,1.6,0.5,1.6,1.3c0,0.6-0.3,1-0.8,1.2l0.8,1.2H177.8z
				 M177,400.7h-0.7v1.3h0.7c0.5,0,0.8-0.2,0.8-0.6C177.8,400.9,177.5,400.7,177,400.7z"/>
			<path class="st22" d="M181.7,402.9H180l-0.3,0.8h-0.9l1.6-3.7h0.8l1.7,3.7h-0.9L181.7,402.9z M181.5,402.2l-0.6-1.4l-0.6,1.4
				H181.5z"/>
			<path class="st22" d="M184.8,400h1.7c1.2,0,2,0.7,2,1.8c0,1.1-0.8,1.8-2,1.8h-1.7V400z M186.5,403c0.7,0,1.2-0.4,1.2-1.1
				s-0.5-1.1-1.2-1.1h-0.8v2.3H186.5z"/>
			<path class="st22" d="M192.1,403v0.7h-2.9V400h2.8v0.7H190v0.8h1.7v0.7H190v0.9H192.1z"/>
			<path class="st22" d="M157.5,409.3v0.7h-2.9v-3.7h2.8v0.7h-1.9v0.8h1.7v0.7h-1.7v0.9H157.5z"/>
			<path class="st22" d="M161.5,410l0-2.2l-1.1,1.8H160l-1.1-1.8v2.2h-0.8v-3.7h0.7l1.4,2.3l1.4-2.3h0.7l0,3.7H161.5z"/>
			<path class="st22" d="M166,409.3v0.7h-2.9v-3.7h2.8v0.7H164v0.8h1.7v0.7H164v0.9H166z"/>
			<path class="st22" d="M169.1,410l-0.7-1h0h-0.7v1h-0.9v-3.7h1.6c1,0,1.6,0.5,1.6,1.3c0,0.6-0.3,1-0.8,1.2l0.8,1.2H169.1z
				 M168.3,407h-0.7v1.3h0.7c0.5,0,0.8-0.2,0.8-0.6C169.1,407.2,168.8,407,168.3,407z"/>
			<path class="st22" d="M173.1,408.1h0.8v1.5c-0.4,0.3-1,0.5-1.5,0.5c-1.2,0-2-0.8-2-1.9c0-1.1,0.9-1.9,2-1.9
				c0.6,0,1.2,0.2,1.5,0.6l-0.5,0.5c-0.3-0.3-0.6-0.4-1-0.4c-0.7,0-1.2,0.5-1.2,1.2c0,0.7,0.5,1.2,1.2,1.2c0.2,0,0.4,0,0.7-0.2
				V408.1z"/>
			<path class="st22" d="M177.5,409.3v0.7h-2.9v-3.7h2.8v0.7h-1.9v0.8h1.7v0.7h-1.7v0.9H177.5z"/>
			<path class="st22" d="M181.6,406.3v3.7h-0.7l-1.8-2.2v2.2h-0.8v-3.7h0.7l1.8,2.2v-2.2H181.6z"/>
			<path class="st22" d="M182.2,408.1c0-1.1,0.9-1.9,2-1.9c0.6,0,1.2,0.2,1.5,0.7l-0.5,0.5c-0.2-0.3-0.6-0.4-0.9-0.4
				c-0.7,0-1.2,0.5-1.2,1.2c0,0.7,0.5,1.2,1.2,1.2c0.4,0,0.7-0.1,0.9-0.4l0.5,0.5c-0.3,0.4-0.9,0.7-1.5,0.7
				C183.1,410,182.2,409.3,182.2,408.1z"/>
			<path class="st22" d="M186.3,406.3h0.9v3.7h-0.9V406.3z"/>
			<path class="st22" d="M190.5,409.2h-1.7l-0.3,0.8h-0.9l1.6-3.7h0.8l1.7,3.7h-0.9L190.5,409.2z M190.2,408.5l-0.6-1.4l-0.6,1.4
				H190.2z"/>
		</g>
	</g>
	<g>
		<g>
			<path d="M621.5,574.4l-1.1,0l-0.2,0.5l-0.6,0l1.1-2.4l0.6,0l1.1,2.5l-0.6,0L621.5,574.4z M621.3,574l-0.4-0.9l-0.4,0.9L621.3,574
				z"/>
			<path d="M622.3,574.7l0.2-0.4c0.2,0.2,0.5,0.3,0.8,0.3c0.3,0,0.5-0.1,0.5-0.3c0-0.5-1.4-0.1-1.4-1.1c0-0.4,0.3-0.8,1-0.8
				c0.3,0,0.6,0.1,0.8,0.2l-0.2,0.4c-0.2-0.1-0.5-0.2-0.7-0.2c-0.3,0-0.5,0.1-0.5,0.3c0,0.5,1.4,0.1,1.4,1c0,0.4-0.3,0.8-1,0.8
				C623,575,622.6,574.8,622.3,574.7z"/>
			<path d="M624.6,573.7c0-0.7,0.6-1.3,1.3-1.3c0.4,0,0.8,0.2,1,0.4l-0.4,0.3c-0.2-0.2-0.4-0.3-0.6-0.3c-0.5,0-0.8,0.3-0.8,0.8
				c0,0.5,0.3,0.8,0.8,0.8c0.2,0,0.5-0.1,0.6-0.3l0.4,0.3c-0.2,0.3-0.6,0.4-1,0.4C625.2,575,624.6,574.4,624.6,573.7z"/>
			<path d="M629.2,574.5l0,0.5l-1.9,0l0-2.4l1.8,0l0,0.5l-1.3,0l0,0.5l1.1,0l0,0.4l-1.1,0l0,0.6L629.2,574.5z"/>
			<path d="M631.9,572.5l0,2.4l-0.5,0l-1.2-1.5l0,1.5l-0.6,0l0-2.4l0.5,0l1.2,1.5l0-1.5L631.9,572.5z"/>
			<path d="M632.3,574.7l0.2-0.4c0.2,0.2,0.5,0.3,0.8,0.3c0.3,0,0.5-0.1,0.5-0.3c0-0.5-1.4-0.1-1.4-1.1c0-0.4,0.3-0.8,1-0.8
				c0.3,0,0.6,0.1,0.8,0.2l-0.2,0.4c-0.2-0.1-0.5-0.2-0.7-0.2c-0.3,0-0.5,0.1-0.5,0.3c0,0.5,1.4,0.1,1.4,1c0,0.4-0.3,0.8-1,0.8
				C632.9,575,632.5,574.9,632.3,574.7z"/>
			<path d="M634.6,573.8c0-0.7,0.6-1.3,1.3-1.3c0.8,0,1.3,0.5,1.3,1.3c0,0.7-0.6,1.3-1.3,1.3C635.2,575,634.6,574.5,634.6,573.8z
				 M636.7,573.8c0-0.5-0.3-0.8-0.8-0.8c-0.4,0-0.8,0.3-0.8,0.8c0,0.5,0.3,0.8,0.8,0.8C636.4,574.5,636.7,574.2,636.7,573.8z"/>
			<path d="M639.3,575l-0.5-0.7h0l-0.5,0l0,0.7l-0.6,0l0-2.4l1.1,0c0.7,0,1.1,0.3,1.1,0.9c0,0.4-0.2,0.6-0.5,0.8l0.5,0.8L639.3,575z
				 M638.7,573l-0.5,0l0,0.9l0.5,0c0.3,0,0.5-0.2,0.5-0.4C639.3,573.2,639.1,573,638.7,573z"/>
		</g>
	</g>
	<g>
		<g>
			<path d="M627.5,579.6c0-1.7,1.3-2.9,3.1-2.9c1,0,1.8,0.4,2.3,1l-0.8,0.8c-0.4-0.4-0.8-0.7-1.4-0.7c-1,0-1.8,0.7-1.8,1.8
				c0,1.1,0.7,1.8,1.8,1.8c0.6,0,1-0.2,1.4-0.7l0.8,0.8c-0.5,0.6-1.3,1-2.3,1C628.8,582.5,627.5,581.2,627.5,579.6z"/>
		</g>
	</g>
	<g>
		<g>
			<path d="M246.3,854.1l-1.3,0l-0.3,0.6l-0.7,0l1.3-2.8l0.6,0l1.2,2.8l-0.7,0L246.3,854.1z M246.1,853.6l-0.4-1.1l-0.4,1.1
				L246.1,853.6z"/>
			<path d="M247.3,854.4l0.2-0.5c0.2,0.2,0.6,0.3,0.9,0.3c0.4,0,0.5-0.1,0.5-0.3c0-0.5-1.6-0.2-1.6-1.2c0-0.5,0.4-0.9,1.2-0.9
				c0.4,0,0.7,0.1,1,0.3l-0.2,0.5c-0.3-0.2-0.5-0.2-0.8-0.2c-0.4,0-0.5,0.1-0.5,0.3c0,0.5,1.6,0.2,1.6,1.2c0,0.5-0.4,0.9-1.2,0.9
				C248,854.8,247.5,854.6,247.3,854.4z"/>
			<path d="M249.9,853.3c0-0.8,0.7-1.4,1.5-1.4c0.5,0,0.9,0.2,1.1,0.5l-0.4,0.4c-0.2-0.2-0.4-0.3-0.7-0.3c-0.5,0-0.9,0.4-0.9,0.9
				c0,0.5,0.4,0.9,0.9,0.9c0.3,0,0.5-0.1,0.7-0.3l0.4,0.4c-0.3,0.3-0.7,0.5-1.2,0.5C250.5,854.8,249.9,854.2,249.9,853.3z"/>
			<path d="M255.1,854.2l0,0.5l-2.2,0l0-2.8l2.1,0l0,0.5l-1.5,0l0,0.6l1.3,0l0,0.5l-1.3,0l0,0.6L255.1,854.2z"/>
			<path d="M258.2,852l0,2.8l-0.5,0l-1.4-1.7l0,1.7l-0.6,0l0-2.8l0.5,0l1.4,1.7l0-1.7L258.2,852z"/>
			<path d="M258.7,854.5l0.2-0.5c0.2,0.2,0.6,0.3,0.9,0.3c0.4,0,0.5-0.1,0.5-0.3c0-0.5-1.6-0.2-1.6-1.2c0-0.5,0.4-0.9,1.2-0.9
				c0.4,0,0.7,0.1,1,0.3l-0.2,0.5c-0.3-0.2-0.5-0.2-0.8-0.2c-0.4,0-0.5,0.1-0.5,0.3c0,0.5,1.6,0.2,1.6,1.2c0,0.5-0.4,0.9-1.2,0.9
				C259.4,854.8,258.9,854.7,258.7,854.5z"/>
			<path d="M261.3,853.4c0-0.8,0.7-1.4,1.5-1.4c0.9,0,1.5,0.6,1.5,1.5c0,0.8-0.7,1.4-1.5,1.4C261.9,854.8,261.3,854.2,261.3,853.4z
				 M263.7,853.4c0-0.5-0.4-0.9-0.9-0.9c-0.5,0-0.9,0.4-0.9,0.9c0,0.5,0.4,0.9,0.9,0.9C263.3,854.3,263.7,853.9,263.7,853.4z"/>
			<path d="M266.6,854.8l-0.5-0.8h0l-0.6,0l0,0.8l-0.6,0l0-2.8l1.2,0c0.7,0,1.2,0.4,1.2,1c0,0.4-0.2,0.7-0.6,0.9l0.6,0.9
				L266.6,854.8z M266,852.5l-0.5,0l0,1l0.5,0c0.4,0,0.6-0.2,0.6-0.5C266.6,852.7,266.4,852.5,266,852.5z"/>
		</g>
	</g>
	<g>
		<g>
			<path d="M257.3,860.8c0,1-0.8,1.5-2.2,1.5l-2.9,0l0-5.6l2.7,0c1.4,0,2.1,0.6,2.1,1.5c0,0.6-0.3,1-0.7,1.2
				C256.9,859.6,257.3,860.1,257.3,860.8z M256,860.7c0-0.5-0.4-0.7-1-0.7l-1.5,0l0,1.4l1.5,0C255.6,861.3,256,861.1,256,860.7z
				 M253.5,857.7l0,1.3l1.3,0c0.6,0,1-0.2,1-0.7c0-0.4-0.3-0.7-1-0.7L253.5,857.7z"/>
			<path d="M260.1,856.7l0,5.6l-1.3,0l0-4.6l-1.1,0l0-1L260.1,856.7z"/>
		</g>
	</g>
	<g>
		<g>
			<path d="M481.3,1176.4l-1.2,0l-0.2,0.6l-0.6,0l1.2-2.6l0.6,0l1.1,2.6l-0.6,0L481.3,1176.4z M481.1,1176l-0.4-1l-0.4,1L481.1,1176
				z"/>
			<path d="M482.3,1176.7l0.2-0.4c0.2,0.2,0.5,0.3,0.9,0.3c0.4,0,0.5-0.1,0.5-0.3c0-0.5-1.5-0.2-1.5-1.1c0-0.4,0.4-0.8,1.1-0.8
				c0.3,0,0.7,0.1,0.9,0.2l-0.2,0.5c-0.2-0.1-0.5-0.2-0.7-0.2c-0.4,0-0.5,0.1-0.5,0.3c0,0.5,1.5,0.2,1.5,1.1c0,0.4-0.4,0.8-1.1,0.8
				C482.9,1177,482.5,1176.9,482.3,1176.7z"/>
			<path d="M484.7,1175.7c0-0.8,0.6-1.3,1.4-1.3c0.4,0,0.8,0.2,1.1,0.5l-0.4,0.4c-0.2-0.2-0.4-0.3-0.6-0.3c-0.5,0-0.8,0.3-0.8,0.8
				c0,0.5,0.3,0.8,0.8,0.8c0.3,0,0.5-0.1,0.7-0.3l0.4,0.4c-0.2,0.3-0.6,0.5-1.1,0.5C485.3,1177,484.7,1176.5,484.7,1175.7z"/>
			<path d="M489.5,1176.5l0,0.5l-2,0l0-2.6l2,0l0,0.5l-1.4,0l0,0.6l1.2,0l0,0.5l-1.2,0l0,0.6L489.5,1176.5z"/>
			<path d="M492.4,1174.4l0,2.6l-0.5,0l-1.3-1.6l0,1.6l-0.6,0l0-2.6l0.5,0l1.3,1.6l0-1.6L492.4,1174.4z"/>
			<path d="M492.8,1176.8l0.2-0.4c0.2,0.2,0.5,0.3,0.9,0.3c0.4,0,0.5-0.1,0.5-0.3c0-0.5-1.5-0.2-1.5-1.1c0-0.4,0.4-0.8,1.1-0.8
				c0.3,0,0.7,0.1,0.9,0.2l-0.2,0.5c-0.2-0.1-0.5-0.2-0.7-0.2c-0.4,0-0.5,0.1-0.5,0.3c0,0.5,1.5,0.2,1.5,1.1c0,0.4-0.4,0.8-1.1,0.8
				C493.4,1177.1,493,1177,492.8,1176.8z"/>
			<path d="M495.2,1175.8c0-0.8,0.6-1.3,1.4-1.3c0.8,0,1.4,0.6,1.4,1.3c0,0.8-0.6,1.3-1.4,1.3
				C495.8,1177.1,495.2,1176.5,495.2,1175.8z M497.4,1175.8c0-0.5-0.3-0.8-0.8-0.8c-0.5,0-0.8,0.3-0.8,0.8c0,0.5,0.3,0.8,0.8,0.8
				C497.1,1176.6,497.4,1176.3,497.4,1175.8z"/>
			<path d="M500.1,1177.1l-0.5-0.7h0l-0.5,0l0,0.7l-0.6,0l0-2.6l1.1,0c0.7,0,1.1,0.4,1.1,0.9c0,0.4-0.2,0.7-0.5,0.8l0.6,0.8
				L500.1,1177.1z M499.6,1175l-0.5,0l0,0.9l0.5,0c0.4,0,0.6-0.2,0.6-0.4C500.1,1175.1,499.9,1175,499.6,1175z"/>
		</g>
	</g>
	<g>
		<g>
			<path d="M490.7,1182.4c0,1-0.8,1.5-2.2,1.5l-2.9,0l0-5.6l2.7,0c1.4,0,2.1,0.6,2.1,1.5c0,0.6-0.3,1-0.7,1.2
				C490.3,1181.2,490.7,1181.7,490.7,1182.4z M489.4,1182.3c0-0.5-0.4-0.7-1-0.7l-1.5,0l0,1.4l1.5,0
				C489,1182.9,489.4,1182.7,489.4,1182.3z M486.9,1179.3l0,1.3l1.3,0c0.6,0,1-0.2,1-0.7c0-0.4-0.3-0.7-1-0.7L486.9,1179.3z"/>
			<path d="M495.5,1182.9l0,1.1l-4.2,0l0-0.8l2.2-2c0.5-0.5,0.6-0.8,0.6-1c0-0.4-0.3-0.7-0.9-0.7c-0.5,0-0.9,0.2-1.2,0.6l-0.9-0.6
				c0.4-0.6,1.2-1,2.2-1c1.2,0,2.1,0.7,2.1,1.7c0,0.5-0.2,1-0.9,1.8l-1.3,1.2L495.5,1182.9z"/>
		</g>
	</g>
	<g>
		<path d="M148.3,793.8c-1,0-1.8,0-2.8,0c1-3.6,2.1-7.2,3.1-10.8c-0.3-0.2-0.5-0.2-0.7,0.2c-0.5,1.8-1.1,3.5-1.6,5.3
			c-0.1,0.3-0.3,0.7-0.5,0.9c-0.3,0.4-0.7,0.4-1.1,0.2c-0.4-0.2-0.5-0.5-0.4-1c0.6-2.3,1.3-4.7,2-7c0.3-1.1,1.1-1.9,2.2-2
			c1.5-0.1,3.1-0.1,4.6,0c1.3,0.1,1.9,1.1,2.3,2.3c0.6,2.1,1.3,4.2,1.9,6.3c0.2,0.7,0.1,1.3-0.4,1.4c-0.6,0.2-1.2-0.2-1.4-0.9
			c-0.5-1.6-1-3.3-1.5-4.9c-0.1-0.4-0.2-0.7-0.4-1.1c-0.2,0-0.3,0.1-0.4,0.1c1.1,3.6,2.1,7.1,3.2,10.7c-1,0-1.9,0-2.8,0
			c0,0.2,0,0.4,0,0.5c0,2.4,0,4.9,0,7.3c0,0.2,0,0.5-0.1,0.7c-0.1,0.6-0.5,0.9-1,0.9c-0.6,0-1-0.2-1.1-0.8c-0.1-0.3-0.1-0.6-0.1-0.8
			c0-2.5,0-5,0-7.4c0-0.3,0-0.5-0.5-0.4c0,0.2,0,0.3,0,0.5c0,2.4,0,4.9,0,7.3c0,0.3,0,0.7-0.1,1c-0.2,0.5-0.6,0.8-1.1,0.7
			c-0.5-0.1-0.9-0.4-1-0.9c0-0.3-0.1-0.6-0.1-0.9c0-2.4,0-4.7,0-7.1C148.3,794.2,148.3,794,148.3,793.8z"/>
		<path d="M135.6,783.6c-0.3,0-0.5,0-0.7,0c0,0.2,0,0.3,0,0.5c0.1,5.7,0.1,11.4,0.2,17.1c0,0.4,0,0.8-0.1,1.1
			c-0.1,0.6-0.4,0.8-1,0.9c-0.7,0.1-1.2-0.2-1.4-0.7c-0.1-0.3-0.2-0.7-0.2-1c0-3.3-0.1-6.5-0.1-9.8c0-0.1,0-0.3,0-0.5
			c-0.2,0-0.3,0-0.6,0c0,0.2,0,0.4,0,0.6c0,3.2,0.1,6.4,0.1,9.6c0,0.4,0,0.8-0.1,1.2c-0.1,0.5-0.5,0.7-1.1,0.7c-0.6,0-1-0.2-1.1-0.7
			c-0.1-0.4-0.1-0.8-0.2-1.2c0-5.8-0.1-11.5-0.1-17.3c0-0.3,0-0.7-0.5-0.5c0,0.1,0,0.3,0,0.5c0,1.8,0,3.6,0,5.4c0,0.3,0,0.7-0.1,1
			c-0.1,0.5-0.4,0.7-1,0.7c-0.5,0-0.8-0.3-0.8-0.8c-0.1-0.5-0.1-1-0.1-1.5c0-2-0.1-4,0-6.1c0.1-1.8,0.9-2.7,2.7-2.8
			c1.8-0.1,3.6-0.1,5.4,0c1.6,0.1,2.5,1.1,2.5,2.7c0.1,2.4,0.1,4.8,0.1,7.3c0,1-0.4,1.3-1.2,1.2c-0.4,0-0.6-0.2-0.7-0.6
			c-0.1-0.4-0.1-0.8-0.1-1.1C135.7,787.4,135.7,785.5,135.6,783.6z"/>
		<path d="M142.5,803c-0.9,0-1.7,0-2.6,0c0-9.5-0.1-18.9-0.1-28.3c0.9,0,1.7,0,2.6,0C142.4,784.2,142.4,793.6,142.5,803z"/>
		<path d="M129.9,776.9c0-1.3,1-2.3,2.3-2.2c1.3,0,2.3,1.1,2.3,2.3c0,1.3-1,2.3-2.3,2.3C130.9,779.2,129.9,778.1,129.9,776.9z"/>
		<path d="M153.1,776.7c0,1.3-0.9,2.3-2.1,2.3c-1.3,0-2.4-1-2.4-2.3c0-1.3,1-2.3,2.2-2.3C152.1,774.5,153.1,775.4,153.1,776.7z"/>
	</g>
	<g>
		<path d="M563.8,1144.2c-1,0-1.8,0-2.8,0c1-3.6,2.1-7.2,3.1-10.8c-0.3-0.2-0.5-0.2-0.7,0.2c-0.5,1.8-1.1,3.5-1.6,5.3
			c-0.1,0.3-0.3,0.7-0.5,0.9c-0.3,0.4-0.7,0.4-1.1,0.2c-0.4-0.2-0.5-0.5-0.4-1c0.6-2.3,1.3-4.7,2-7c0.3-1.1,1.1-1.9,2.2-2
			c1.5-0.1,3.1-0.1,4.6,0c1.3,0.1,1.9,1.1,2.3,2.3c0.6,2.1,1.3,4.2,1.9,6.3c0.2,0.7,0.1,1.3-0.4,1.4c-0.6,0.2-1.2-0.2-1.4-0.9
			c-0.5-1.6-1-3.3-1.5-4.9c-0.1-0.4-0.2-0.7-0.4-1.1c-0.2,0-0.3,0.1-0.4,0.1c1.1,3.6,2.1,7.1,3.2,10.7c-1,0-1.9,0-2.8,0
			c0,0.2,0,0.4,0,0.5c0,2.4,0,4.9,0,7.3c0,0.2,0,0.5-0.1,0.7c-0.1,0.6-0.5,0.9-1,0.9c-0.6,0-1-0.2-1.1-0.8c-0.1-0.3-0.1-0.6-0.1-0.8
			c0-2.5,0-5,0-7.4c0-0.3,0-0.5-0.5-0.4c0,0.2,0,0.3,0,0.5c0,2.4,0,4.9,0,7.3c0,0.3,0,0.7-0.1,1c-0.2,0.5-0.6,0.8-1.1,0.7
			c-0.5-0.1-0.9-0.4-1-0.9c0-0.3-0.1-0.6-0.1-0.9c0-2.4,0-4.7,0-7.1C563.8,1144.5,563.8,1144.4,563.8,1144.2z"/>
		<path d="M551.1,1133.9c-0.3,0-0.5,0-0.7,0c0,0.2,0,0.3,0,0.5c0.1,5.7,0.1,11.4,0.2,17.1c0,0.4,0,0.8-0.1,1.1
			c-0.1,0.6-0.4,0.8-1,0.9c-0.7,0.1-1.2-0.2-1.4-0.7c-0.1-0.3-0.2-0.7-0.2-1c0-3.3-0.1-6.5-0.1-9.8c0-0.1,0-0.3,0-0.5
			c-0.2,0-0.3,0-0.6,0c0,0.2,0,0.4,0,0.6c0,3.2,0.1,6.4,0.1,9.6c0,0.4,0,0.8-0.1,1.2c-0.1,0.5-0.5,0.7-1.1,0.7c-0.6,0-1-0.2-1.1-0.7
			c-0.1-0.4-0.1-0.8-0.2-1.2c0-5.8-0.1-11.5-0.1-17.3c0-0.3,0-0.7-0.5-0.5c0,0.1,0,0.3,0,0.5c0,1.8,0,3.6,0,5.4c0,0.3,0,0.7-0.1,1
			c-0.1,0.5-0.4,0.7-1,0.7c-0.5,0-0.8-0.3-0.8-0.8c-0.1-0.5-0.1-1-0.1-1.5c0-2-0.1-4,0-6.1c0.1-1.8,0.9-2.7,2.7-2.8
			c1.8-0.1,3.6-0.1,5.4,0c1.6,0.1,2.5,1.1,2.5,2.7c0.1,2.4,0.1,4.8,0.1,7.3c0,1-0.4,1.3-1.2,1.2c-0.4,0-0.6-0.2-0.7-0.6
			c-0.1-0.4-0.1-0.8-0.1-1.1C551.1,1137.8,551.1,1135.9,551.1,1133.9z"/>
		<path d="M558,1153.4c-0.9,0-1.7,0-2.6,0c0-9.5-0.1-18.9-0.1-28.3c0.9,0,1.7,0,2.6,0C557.9,1134.5,557.9,1144,558,1153.4z"/>
		<path d="M545.4,1127.2c0-1.3,1-2.3,2.3-2.2c1.3,0,2.3,1.1,2.3,2.3c0,1.3-1,2.3-2.3,2.3C546.4,1129.6,545.4,1128.5,545.4,1127.2z"
			/>
		<path d="M568.6,1127.1c0,1.3-0.9,2.3-2.1,2.3c-1.3,0-2.4-1-2.4-2.3c0-1.3,1-2.3,2.2-2.3C567.6,1124.8,568.6,1125.8,568.6,1127.1z"
			/>
	</g>
	<g>
		<g>
			<path class="st22" d="M481.1,1127.7c-0.3,0-0.6,0-0.9,0c-0.3,0-0.6-0.2-0.6-0.5c-0.1-0.3,0-0.6,0.3-0.7c0.1-0.1,0.3-0.1,0.4-0.1
				c0.8,0,1.7,0,2.5,0c0.4,0,0.7,0.3,0.7,0.7c0,0.8,0,1.7,0,2.5c0,0.4-0.3,0.7-0.7,0.7c-0.4,0-0.6-0.3-0.6-0.7c0-0.3,0-0.6,0-0.9
				c0,0,0,0,0,0c-0.1,0.1-0.2,0.1-0.2,0.2c-0.8,0.8-1.6,1.6-2.5,2.5c-0.2,0.2-0.4,0.3-0.6,0.2c-0.2,0-0.4-0.2-0.5-0.4
				c-0.1-0.2,0-0.5,0.1-0.7c0.6-0.6,1.2-1.2,1.9-1.9C480.6,1128.3,480.9,1128,481.1,1127.7C481.2,1127.7,481.1,1127.7,481.1,1127.7z
				"/>
			<path class="st22" d="M483,1134.9c0,0.2,0,0.4,0,0.6c0,0.8,0,1.5,0,2.3c0,0.4-0.3,0.7-0.7,0.7c-1.1,0-2.2,0-3.3,0
				c-0.4,0-0.7-0.3-0.7-0.6c0-0.4,0.3-0.7,0.7-0.7c0.8,0,1.6,0,2.5,0c0.1,0,0.2,0,0.3,0c0-0.1,0-0.2,0-0.2c0-0.9,0-1.8,0-2.6
				c0-0.5,0.2-0.8,0.8-0.8c0.9,0,1.7,0,2.6,0c0.1,0,0.2,0,0.3,0c0-0.1,0-0.2,0-0.2c0-0.8,0-1.7,0-2.5c0-0.5,0.2-0.8,0.8-0.8
				c0.9,0,1.7,0,2.6,0c0.1,0,0.2,0,0.3,0c0-0.1,0-0.2,0-0.2c0-0.9,0-1.8,0-2.7c0-0.5,0.3-0.7,0.7-0.7c1.2,0,2.3,0,3.5,0
				c0.4,0,0.7,0.3,0.7,0.6c0,0.4-0.3,0.7-0.7,0.7c-0.9,0-1.8,0-2.6,0c-0.1,0-0.2,0-0.3,0c0,0.1,0,0.2,0,0.3c0,0.9,0,1.8,0,2.7
				c0,0.5-0.2,0.8-0.8,0.8c-0.9,0-1.7,0-2.6,0c-0.1,0-0.2,0-0.3,0c0,0.1,0,0.2,0,0.3c0,0.8,0,1.7,0,2.5c0,0.5-0.2,0.8-0.8,0.8
				c-0.9,0-1.7,0-2.6,0C483.2,1134.9,483.2,1134.9,483,1134.9z"/>
		</g>
	</g>
	<rect x="718" y="800.2" class="st27" width="44.8" height="45.6"/>
	<g>
		<path d="M748.5,828.6c-1.1,0-2.1,0-3.2,0c1.2-4.2,2.4-8.4,3.6-12.6c-0.4-0.2-0.6-0.2-0.8,0.3c-0.6,2.1-1.3,4.2-1.9,6.2
			c-0.1,0.4-0.3,0.8-0.5,1.1c-0.3,0.4-0.8,0.5-1.3,0.2c-0.5-0.3-0.6-0.6-0.5-1.2c0.8-2.7,1.5-5.5,2.3-8.2c0.4-1.3,1.2-2.2,2.6-2.3
			c1.8-0.1,3.6-0.2,5.4,0c1.5,0.1,2.2,1.3,2.7,2.6c0.7,2.5,1.5,5,2.2,7.4c0.3,0.9,0.1,1.5-0.5,1.7c-0.7,0.2-1.4-0.2-1.7-1
			c-0.6-1.9-1.2-3.9-1.8-5.8c-0.1-0.4-0.3-0.8-0.4-1.3c-0.2,0-0.3,0.1-0.5,0.1c1.2,4.2,2.5,8.4,3.7,12.6c-1.1,0-2.2,0-3.3,0
			c0,0.2,0,0.4,0,0.6c0,2.9,0,5.7,0,8.6c0,0.3,0,0.6-0.1,0.9c-0.1,0.7-0.5,1-1.2,1c-0.7,0-1.2-0.3-1.3-1c-0.1-0.3-0.1-0.6-0.1-1
			c0-2.9,0-5.8,0-8.7c0-0.3,0-0.6-0.5-0.4c0,0.2,0,0.4,0,0.6c0,2.9,0,5.7,0,8.6c0,0.4,0,0.8-0.2,1.1c-0.2,0.6-0.7,0.9-1.3,0.8
			c-0.6-0.1-1-0.4-1.1-1.1c-0.1-0.3-0.1-0.7-0.1-1c0-2.8,0-5.6,0-8.3C748.6,829.1,748.6,828.9,748.5,828.6z"/>
		<path d="M733.7,816.7c-0.3,0-0.5,0-0.8,0c0,0.2,0,0.4,0,0.6c0.1,6.7,0.1,13.3,0.2,20c0,0.4,0,0.9-0.1,1.3c-0.1,0.7-0.5,1-1.2,1
			c-0.8,0.1-1.4-0.2-1.6-0.9c-0.1-0.4-0.2-0.8-0.2-1.2c0-3.8-0.1-7.7-0.1-11.5c0-0.2,0-0.3,0-0.5c-0.2,0-0.4,0-0.6,0
			c0,0.2,0,0.5,0,0.7c0,3.7,0.1,7.5,0.1,11.2c0,0.5,0,1-0.2,1.4c-0.1,0.6-0.6,0.8-1.3,0.8c-0.7,0-1.2-0.3-1.3-0.8
			c-0.1-0.4-0.2-0.9-0.2-1.4c-0.1-6.7-0.1-13.5-0.1-20.2c0-0.4,0-0.8-0.6-0.5c0,0.2,0,0.3,0,0.5c0,2.1,0,4.2,0,6.3
			c0,0.4,0,0.8-0.1,1.2c-0.1,0.6-0.5,0.9-1.2,0.8c-0.6,0-0.9-0.3-0.9-1c-0.1-0.6-0.1-1.2-0.1-1.8c0-2.4-0.1-4.7,0-7.1
			c0.1-2.1,1.1-3.2,3.2-3.3c2.1-0.1,4.2-0.1,6.3,0.1c1.8,0.1,2.9,1.3,3,3.1c0.1,2.8,0.1,5.7,0.1,8.5c0,1.1-0.4,1.5-1.4,1.4
			c-0.4,0-0.7-0.2-0.8-0.7c-0.1-0.4-0.1-0.9-0.1-1.3C733.8,821.2,733.8,819,733.7,816.7z"/>
		<path d="M741.7,839.5c-1,0-2,0-3,0c-0.1-11.1-0.1-22.1-0.2-33.2c1,0,2,0,3,0C741.6,817.4,741.7,828.4,741.7,839.5z"/>
		<path d="M727,808.8c0-1.5,1.2-2.7,2.7-2.6c1.5,0,2.7,1.2,2.6,2.7c0,1.5-1.2,2.7-2.7,2.7C728.2,811.6,727,810.3,727,808.8z"/>
		<path d="M754.2,808.7c0,1.5-1.1,2.7-2.5,2.7c-1.5,0-2.8-1.2-2.8-2.6c0-1.5,1.2-2.7,2.6-2.7C753,806,754.2,807.1,754.2,808.7z"/>
	</g>
	<g>
		<path d="M918.8,556h2.8v10h6.2v2.3h-9V556z"/>
		<path d="M929.2,562.9V556h2.8v6.8c0,2.3,1,3.3,2.7,3.3c1.7,0,2.7-1,2.7-3.3V556h2.8v6.9c0,3.6-2.1,5.6-5.6,5.6
			S929.2,566.5,929.2,562.9z"/>
		<path d="M943.1,556h5.6c4,0,6.8,2.4,6.8,6.1s-2.8,6.1-6.8,6.1h-5.6V556z M948.6,566c2.4,0,4-1.5,4-3.8s-1.6-3.8-4-3.8H946v7.6
			H948.6z"/>
		<path d="M956.8,562.2c0-3.7,2.8-6.4,6.7-6.4c3.9,0,6.7,2.7,6.7,6.4c0,3.7-2.9,6.4-6.7,6.4C959.7,568.5,956.8,565.8,956.8,562.2z
			 M967.4,562.2c0-2.3-1.7-3.9-3.8-3.9s-3.8,1.6-3.8,3.9s1.7,3.9,3.8,3.9S967.4,564.5,967.4,562.2z"/>
		<path d="M974.8,558.3h-3.9V556h10.7v2.3h-3.9v10h-2.8V558.3z"/>
		<path d="M992.6,566v2.3h-9.5V556h9.3v2.3h-6.5v2.7h5.7v2.2h-5.7v2.8H992.6z"/>
		<path d="M994.1,562.2c0-3.7,2.8-6.4,6.7-6.4c2.1,0,3.9,0.8,5.1,2.2l-1.8,1.7c-0.8-0.9-1.9-1.4-3.1-1.4c-2.3,0-3.9,1.6-3.9,3.9
			s1.6,3.9,3.9,3.9c1.2,0,2.3-0.5,3.1-1.5l1.8,1.7c-1.2,1.4-2.9,2.2-5.1,2.2C996.9,568.5,994.1,565.9,994.1,562.2z"/>
		<path d="M1015.6,565.7h-5.7l-1.1,2.6h-2.9l5.5-12.3h2.8l5.5,12.3h-3L1015.6,565.7z M1014.7,563.5l-1.9-4.7l-1.9,4.7H1014.7z"/>
	</g>
	<g>
		<path d="M639.9,911.9c0,3.2-2.4,5.1-6.2,5.1h-2.9v3.9h-3.3v-14.2h6.2C637.5,906.8,639.9,908.7,639.9,911.9z M636.5,911.9
			c0-1.6-1-2.5-3-2.5h-2.7v4.9h2.7C635.5,914.4,636.5,913.5,636.5,911.9z"/>
		<path d="M641.5,913.9c0-4.2,3.3-7.4,7.8-7.4c4.5,0,7.8,3.1,7.8,7.4c0,4.2-3.3,7.4-7.8,7.4C644.8,921.2,641.5,918.1,641.5,913.9z
			 M653.7,913.9c0-2.7-1.9-4.5-4.4-4.5c-2.5,0-4.4,1.8-4.4,4.5s1.9,4.5,4.4,4.5C651.8,918.4,653.7,916.6,653.7,913.9z"/>
		<path d="M659.6,906.8h3.3v11.5h7.1v2.7h-10.4V906.8z"/>
		<path d="M671.8,906.8h3.3V921h-3.3V906.8z"/>
		<path d="M678.5,906.8h6.5c4.7,0,7.8,2.8,7.8,7.1s-3.2,7.1-7.8,7.1h-6.5V906.8z M684.8,918.3c2.8,0,4.7-1.7,4.7-4.4
			s-1.8-4.4-4.7-4.4h-3v8.8H684.8z"/>
		<path d="M706.3,918.3v2.6h-11v-14.2H706v2.6h-7.5v3.1h6.6v2.6h-6.6v3.3H706.3z"/>
		<path d="M721.2,911.9c0,3.2-2.4,5.1-6.2,5.1h-2.9v3.9h-3.3v-14.2h6.2C718.9,906.8,721.2,908.7,721.2,911.9z M717.9,911.9
			c0-1.6-1-2.5-3-2.5h-2.7v4.9h2.7C716.9,914.4,717.9,913.5,717.9,911.9z"/>
		<path d="M722.9,913.9c0-4.2,3.3-7.4,7.8-7.4c4.5,0,7.8,3.1,7.8,7.4c0,4.2-3.3,7.4-7.8,7.4C726.2,921.2,722.9,918.1,722.9,913.9z
			 M735.1,913.9c0-2.7-1.9-4.5-4.4-4.5c-2.5,0-4.4,1.8-4.4,4.5s1.9,4.5,4.4,4.5C733.2,918.4,735.1,916.6,735.1,913.9z"/>
		<path d="M750,921l-2.7-4h-0.2h-2.9v4h-3.3v-14.2h6.2c3.8,0,6.2,2,6.2,5.2c0,2.1-1.1,3.7-2.9,4.5l3.2,4.6H750z M746.9,909.5h-2.7v5
			h2.7c2,0,3-0.9,3-2.5C749.9,910.4,748.9,909.5,746.9,909.5z"/>
		<path d="M758.6,909.5H754v-2.7h12.4v2.7h-4.5V921h-3.3V909.5z"/>
		<path d="M768.2,906.8h3.3V921h-3.3V906.8z"/>
		<path d="M788.4,906.8l-6.2,14.2H779l-6.1-14.2h3.6l4.3,10.2l4.4-10.2H788.4z"/>
		<path d="M788.6,913.9c0-4.2,3.3-7.4,7.8-7.4c4.5,0,7.8,3.1,7.8,7.4c0,4.2-3.3,7.4-7.8,7.4C791.9,921.2,788.6,918.1,788.6,913.9z
			 M800.8,913.9c0-2.7-1.9-4.5-4.4-4.5c-2.5,0-4.4,1.8-4.4,4.5s1.9,4.5,4.4,4.5C798.9,918.4,800.8,916.6,800.8,913.9z"/>
	</g>
	<g>
		<g>
			<path class="st22" d="M517.3,50.4l-0.1-10.5l-5.1,8.7l-1.8,0l-5.2-8.4l0.1,10.3l-3.8,0l-0.2-17.5l3.4,0l6.7,10.8l6.3-11l3.3,0
				l0.2,17.5L517.3,50.4z"/>
			<path class="st22" d="M536.8,46.5l-8.1,0.1l-1.5,3.8l-4.2,0l7.6-17.6l4,0l8,17.4l-4.3,0L536.8,46.5z M535.4,43.4l-2.8-6.7
				l-2.7,6.7L535.4,43.4z"/>
			<path class="st22" d="M555.6,50l-3.4-4.8l-0.2,0l-3.5,0l0.1,4.9l-4.1,0l-0.2-17.5l7.6-0.1c4.7-0.1,7.6,2.3,7.7,6.3
				c0,2.6-1.3,4.6-3.5,5.6l4,5.6L555.6,50z M551.6,35.9l-3.3,0l0.1,6.1l3.3,0c2.5,0,3.7-1.2,3.7-3.1
				C555.4,36.9,554.1,35.8,551.6,35.9z"/>
			<path class="st22" d="M562.6,32.4l4.1,0l0.2,17.5l-4.1,0L562.6,32.4z"/>
			<path class="st22" d="M569.8,41.1c-0.1-5.2,3.9-9.1,9.5-9.2c5.5-0.1,9.6,3.7,9.7,8.9s-4,9.1-9.5,9.2
				C574,50.1,569.9,46.3,569.8,41.1z M584.9,40.9c0-3.3-2.4-5.6-5.5-5.5c-3.1,0-5.5,2.3-5.4,5.7c0,3.3,2.4,5.6,5.5,5.5
				C582.6,46.6,584.9,44.3,584.9,40.9z"/>
			<path class="st22" d="M615.2,44.6c0,3-2.3,4.8-7,4.9l-9.1,0.1L599,32l8.6-0.1c4.4,0,6.6,1.8,6.7,4.5c0,1.8-0.9,3.1-2.3,3.9
				C613.9,40.9,615.2,42.4,615.2,44.6z M603.1,35l0,4.1l4,0c2,0,3-0.7,3-2.1c0-1.4-1.1-2-3.1-2L603.1,35z M611.1,44.2
				c0-1.5-1.1-2.2-3.2-2.1l-4.7,0.1l0,4.3l4.7-0.1C610,46.4,611.1,45.7,611.1,44.2z"/>
			<path class="st22" d="M629.5,49.2l-3.4-4.8l-0.2,0l-3.5,0l0.1,4.9l-4.1,0l-0.2-17.5l7.6-0.1c4.7-0.1,7.6,2.3,7.7,6.3
				c0,2.6-1.3,4.6-3.5,5.6l4,5.6L629.5,49.2z M625.5,35l-3.3,0l0.1,6.1l3.3,0c2.5,0,3.7-1.2,3.7-3.1C629.3,36.1,628,35,625.5,35z"/>
			<path class="st22" d="M648.2,45.2l-8.1,0.1l-1.5,3.8l-4.2,0l7.6-17.6l4,0l8,17.4l-4.3,0L648.2,45.2z M646.9,42.2l-2.8-6.7
				l-2.7,6.7L646.9,42.2z"/>
			<path class="st22" d="M671.6,31.2l-7.4,17.6l-4,0l-7.7-17.4l4.4,0l5.5,12.4l5.3-12.6L671.6,31.2z"/>
			<path class="st22" d="M671.8,40c-0.1-5.2,4-9.1,9.5-9.2c5.5-0.1,9.6,3.7,9.7,8.9c0.1,5.2-4,9.1-9.5,9.2
				C676,49,671.9,45.2,671.8,40z M686.9,39.8c0-3.3-2.4-5.6-5.5-5.5c-3.1,0-5.5,2.3-5.4,5.7c0,3.3,2.4,5.6,5.5,5.5
				C684.6,45.4,686.9,43.1,686.9,39.8z"/>
		</g>
	</g>
	<g>
		<g>
			<path class="st22" d="M541.9,1399.4c0-5.3,4.1-9,9.5-9c3,0,5.5,1.1,7.2,3.1l-2.6,2.4c-1.2-1.4-2.6-2.1-4.4-2.1
				c-3.3,0-5.6,2.3-5.6,5.6c0,3.3,2.3,5.6,5.6,5.6c1.8,0,3.2-0.7,4.4-2.1l2.6,2.4c-1.7,2-4.2,3.1-7.2,3.1
				C545.9,1408.5,541.9,1404.7,541.9,1399.4z"/>
			<path class="st22" d="M577.4,1390.8l0,17.5l-4.1,0l0-7.2l-8,0l0,7.2l-4.1,0l0-17.5l4.1,0l0,6.9l8,0l0-6.9L577.4,1390.8z"/>
			<path class="st22" d="M581.6,1390.8l4.1,0l0,17.5l-4.1,0L581.6,1390.8z"/>
			<path class="st22" d="M589.8,1390.8l4.1,0l0,14.2l8.8,0l0,3.3l-12.8,0L589.8,1390.8z"/>
			<path class="st22" d="M618.4,1405.1l0,3.3l-13.6,0l0-17.5l13.2,0l0,3.3l-9.2,0l0,3.8l8.1,0l0,3.2l-8.1,0l0,4.1L618.4,1405.1z"/>
		</g>
	</g>
	<g>
		<g>
			<path class="st22" d="M35.6,611.8l0-4.9l21.2,0.2l0,4.9L35.6,611.8z"/>
			<path class="st22" d="M54.8,603.7l-3.7-1.7c1.3-1.8,2.2-4.4,2.3-7c0-2.9-0.9-4.1-2.2-4.1c-4,0-1.4,12.3-9.2,12.2
				c-3.6,0-6.6-3-6.5-9c0-2.7,0.7-5.4,1.9-7.3l3.7,1.5c-1.1,2-1.7,4-1.7,5.9c0,2.9,1.1,4,2.4,4c3.9,0,1.3-12.3,9.1-12.2
				c3.5,0,6.5,3,6.5,9C57.3,598.5,56.2,601.9,54.8,603.7z"/>
			<path class="st22" d="M35.8,582.6l0-4.9l17.2,0.2l0.1-10.6l4,0L57,582.8L35.8,582.6z"/>
			<path class="st22" d="M53.4,548l3.9,0l-0.1,16.4L36,564.3l0.1-16l3.9,0L40,559.5l4.6,0l0.1-9.8l3.8,0l-0.1,9.8l4.9,0L53.4,548z"
				/>
			<path class="st22" d="M40.2,539.6l-0.1,6.8l-4,0l0.2-18.5l4,0l-0.1,6.8l17.2,0.2l0,4.9L40.2,539.6z"/>
			<path class="st22" d="M53.1,512.5l-0.1,9.8l4.5,1.9l0,5l-21.1-9.6l0-4.8l21.3-9.3l0,5.1L53.1,512.5z M49.4,514l-8.1,3.3l8.1,3.4
				L49.4,514z"/>
		</g>
	</g>
	<g>
		<g>
			<path class="st22" d="M1119.6,750.5c3.9,0,6.3,2.9,6.3,7.6l0,3.5l4.8,0l0,4.1l-17.5,0l0-7.6
				C1113.3,753.5,1115.7,750.5,1119.6,750.5z M1119.6,754.6c-1.9,0-3,1.3-3,3.7l0,3.3l6.1,0l0-3.3
				C1122.7,755.9,1121.5,754.6,1119.6,754.6z"/>
			<path class="st22" d="M1127,737l0,8.1l3.8,1.5l0,4.2l-17.5-7.8l0-4l17.5-7.8l0,4.3L1127,737z M1123.9,738.3l-6.7,2.8l6.7,2.8
				L1123.9,738.3z"/>
			<path class="st22" d="M1129,730.7l-3.1-1.4c1.1-1.5,1.8-3.7,1.8-5.8c0-2.4-0.8-3.4-1.9-3.4c-3.3,0-1,10.2-7.5,10.2
				c-3,0-5.5-2.4-5.5-7.4c0-2.2,0.5-4.5,1.5-6.1l3.1,1.2c-0.9,1.6-1.4,3.3-1.4,4.9c0,2.4,0.9,3.3,2,3.3c3.2,0,1-10.2,7.4-10.2
				c2.9,0,5.4,2.4,5.4,7.4C1131.1,726.4,1130.2,729.2,1129,730.7z"/>
			<path class="st22" d="M1122,714.5c-5.2,0-9.1-4-9.1-9.6c0-5.5,3.8-9.6,9-9.6c5.2,0,9.1,4.1,9.1,9.6
				C1131,710.5,1127.2,714.5,1122,714.5z M1122,699.5c-3.3,0-5.6,2.4-5.6,5.5c0,3.1,2.3,5.5,5.6,5.5c3.3,0,5.6-2.4,5.6-5.5
				C1127.6,701.8,1125.3,699.5,1122,699.5z"/>
			<path class="st22" d="M1113.2,685.2l0-8c0-5.7,3.4-9.7,8.7-9.7c5.3,0,8.8,3.9,8.8,9.6l0,8L1113.2,685.2z M1127.4,677.5
				c0-3.5-2.1-5.7-5.4-5.7c-3.4,0-5.4,2.3-5.4,5.8l0,3.7l10.9,0L1127.4,677.5z"/>
			<path class="st22" d="M1127.4,651l3.3,0l0,13.6l-17.5,0l0-13.2l3.3,0l0,9.2l3.8,0l0-8.1l3.2,0l0,8.1l4.1,0L1127.4,651z"/>
			<path class="st22" d="M1113.2,640.7l0-4.1l14.2,0l0-8.8l3.3,0l0,12.8L1113.2,640.7z"/>
			<path class="st22" d="M1126.9,613.9l0,8.1l3.8,1.5l0,4.2l-17.5-7.8l0-4l17.5-7.8l0,4.3L1126.9,613.9z M1123.8,615.2l-6.7,2.8
				l6.7,2.8L1123.8,615.2z"/>
			<path class="st22" d="M1119.5,584c3.9,0,6.3,2.9,6.3,7.6l0,3.5l4.8,0l0,4.1l-17.5,0l0-7.6C1113.1,587,1115.5,584,1119.5,584z
				 M1119.5,588.1c-1.9,0-3,1.3-3,3.7l0,3.3l6.1,0l0-3.3C1122.5,589.4,1121.4,588.1,1119.5,588.1z"/>
			<path class="st22" d="M1126.8,570.5l0,8.1l3.8,1.5l0,4.2l-17.5-7.8l0-4l17.5-7.8l0,4.3L1126.8,570.5z M1123.8,571.8l-6.7,2.8
				l6.7,2.8L1123.8,571.8z"/>
			<path class="st22" d="M1116.4,560.1l0,5.6l-3.3,0l0-15.3l3.3,0l0,5.6l14.2,0l0,4.1L1116.4,560.1z"/>
			<path class="st22" d="M1130.6,537.1l-4.9,3.4v0.2l0,3.5l4.9,0l0,4.1l-17.5,0l0-7.6c0-4.7,2.4-7.6,6.3-7.6c2.6,0,4.6,1.3,5.5,3.6
				l5.6-3.9L1130.6,537.1z M1116.4,540.9l0,3.3l6.1,0l0-3.3c0-2.5-1.2-3.7-3.1-3.7C1117.5,537.2,1116.4,538.4,1116.4,540.9z"/>
			<path class="st22" d="M1113.1,529.9l0-4.1l17.5,0l0,4.1L1113.1,529.9z"/>
			<path class="st22" d="M1126.8,510.1l0,8.1l3.8,1.5l0,4.2l-17.5-7.8l0-4l17.5-7.8l0,4.3L1126.8,510.1z M1123.7,511.4l-6.7,2.8
				l6.7,2.8L1123.7,511.4z"/>
		</g>
	</g>
	<g>
		<circle class="st30" cx="688.3" cy="603.6" r="11.1"/>
		<g>
			<polygon class="st22" points="689.9,608.8 689.9,603.4 689.9,602.6 689.9,601.3 685.5,601.3 685.5,603.4 686.7,603.4 
				686.7,608.8 685.6,608.8 685.6,611.1 691,611.1 691,608.8 			"/>
			<ellipse transform="matrix(0.9239 -0.3827 0.3827 0.9239 -176.5518 308.8365)" class="st22" cx="688" cy="598.2" rx="2" ry="2"/>
		</g>
	</g>
	<path d="M135.4,583.4c-0.8,0-1.5,0-2.2,0c-1.5,0-2.8-0.9-3.3-2.3c-0.1-0.4-0.2-0.8-0.2-1.2c0-1.5,0-3,0-4.6c0-2,1.5-3.5,3.5-3.5
		c6.9,0,13.7,0,20.6,0c1.6,0,2.8,0.9,3.4,2.3c0.1,0.4,0.2,0.8,0.2,1.2c0,1.5,0,3,0,4.5c0,2-1.5,3.5-3.6,3.5c-0.7,0-1.4,0-2.2,0
		c0,0.2,0,0.4,0,0.5c0,3.2,0,6.4,0,9.6c0,0.8-0.2,1.1-0.8,1.3c-0.1,0-0.3,0.1-0.5,0.1c-4.5,0-9,0-13.4,0c-0.9,0-1.4-0.4-1.4-1.4
		c0-3.2,0-6.5,0-9.7C135.4,583.7,135.4,583.6,135.4,583.4z M137.8,578.8c0,4.6,0,9.2,0,13.8c3.8,0,7.6,0,11.5,0c0-4.6,0-9.2,0-13.8
		C145.4,578.8,141.6,578.8,137.8,578.8z M135.4,578.8c-0.4,0-0.8,0-1.2,0c-0.4,0-0.7-0.2-0.9-0.5c-0.2-0.4-0.3-0.8,0-1.2
		c0.2-0.4,0.6-0.6,1.1-0.6c1.7,0,3.4,0,5.1,0c4.4,0,8.8,0,13.2,0c0.8,0,1.3,0.5,1.3,1.2c0,0.7-0.5,1.1-1.3,1.1c-0.3,0-0.6,0-1,0
		c0,0.8,0,1.5,0,2.3c0.1,0,0.1,0,0.1,0c0.7,0,1.3,0,2,0c0.8,0,1.3-0.5,1.3-1.3c0-1.4,0-2.8,0-4.2c0-1-0.4-1.4-1.4-1.4
		c-5.9,0-11.7,0-17.6,0c-0.9,0-1.9,0-2.8,0c-0.7,0-1.2,0.5-1.2,1.1c0,1.6,0,3.1,0,4.7c0,0.5,0.4,1.1,0.9,1.1c0.8,0.1,1.6,0,2.5,0
		C135.4,580.3,135.4,579.6,135.4,578.8z"/>
	<rect x="137" y="578.4" width="13.3" height="15.1"/>
	<g>
		<path class="st27" d="M144.3,590.7v1.6h-1.4v-1.5c-1.4-0.1-2.7-0.5-3.5-1.1l0.8-1.7c0.7,0.5,1.7,0.9,2.7,1v-2.4
			c-1.6-0.4-3.3-0.9-3.3-2.9c0-1.5,1.1-2.8,3.3-3V579h1.4v1.5c1.1,0.1,2.1,0.4,2.9,0.9l-0.7,1.7c-0.7-0.4-1.5-0.6-2.2-0.7v2.4
			c1.6,0.4,3.3,0.9,3.3,2.9C147.6,589.2,146.6,590.4,144.3,590.7z M142.9,584.5v-2c-0.7,0.2-1,0.6-1,1
			C141.9,584,142.3,584.3,142.9,584.5z M145.4,587.9c0-0.5-0.4-0.8-1-1v1.9C145.1,588.7,145.4,588.3,145.4,587.9z"/>
	</g>
	<path d="M135.4,583.4c-0.8,0-1.5,0-2.2,0c-1.5,0-2.8-0.9-3.3-2.3c-0.1-0.4-0.2-0.8-0.2-1.2c0-1.5,0-3,0-4.6c0-2,1.5-3.5,3.5-3.5
		c6.9,0,13.7,0,20.6,0c1.6,0,2.8,0.9,3.4,2.3c0.1,0.4,0.2,0.8,0.2,1.2c0,1.5,0,3,0,4.5c0,2-1.5,3.5-3.6,3.5c-0.7,0-1.4,0-2.2,0
		c0,0.2,0,0.4,0,0.5c0,3.2,0,6.4,0,9.6c0,0.8-0.2,1.1-0.8,1.3c-0.1,0-0.3,0.1-0.5,0.1c-4.5,0-9,0-13.4,0c-0.9,0-1.4-0.4-1.4-1.4
		c0-3.2,0-6.5,0-9.7C135.4,583.7,135.4,583.6,135.4,583.4z M137.8,578.8c0,4.6,0,9.2,0,13.8c3.8,0,7.6,0,11.5,0c0-4.6,0-9.2,0-13.8
		C145.4,578.8,141.6,578.8,137.8,578.8z M135.4,578.8c-0.4,0-0.8,0-1.2,0c-0.4,0-0.7-0.2-0.9-0.5c-0.2-0.4-0.3-0.8,0-1.2
		c0.2-0.4,0.6-0.6,1.1-0.6c1.7,0,3.4,0,5.1,0c4.4,0,8.8,0,13.2,0c0.8,0,1.3,0.5,1.3,1.2c0,0.7-0.5,1.1-1.3,1.1c-0.3,0-0.6,0-1,0
		c0,0.8,0,1.5,0,2.3c0.1,0,0.1,0,0.1,0c0.7,0,1.3,0,2,0c0.8,0,1.3-0.5,1.3-1.3c0-1.4,0-2.8,0-4.2c0-1-0.4-1.4-1.4-1.4
		c-5.9,0-11.7,0-17.6,0c-0.9,0-1.9,0-2.8,0c-0.7,0-1.2,0.5-1.2,1.1c0,1.6,0,3.1,0,4.7c0,0.5,0.4,1.1,0.9,1.1c0.8,0.1,1.6,0,2.5,0
		C135.4,580.3,135.4,579.6,135.4,578.8z"/>
	<rect x="137" y="578.4" width="13.3" height="15.1"/>
	<g>
		<path class="st27" d="M144.3,590.7v1.6h-1.4v-1.5c-1.4-0.1-2.7-0.5-3.5-1.1l0.8-1.7c0.7,0.5,1.7,0.9,2.7,1v-2.4
			c-1.6-0.4-3.3-0.9-3.3-2.9c0-1.5,1.1-2.8,3.3-3V579h1.4v1.5c1.1,0.1,2.1,0.4,2.9,0.9l-0.7,1.7c-0.7-0.4-1.5-0.6-2.2-0.7v2.4
			c1.6,0.4,3.3,0.9,3.3,2.9C147.6,589.2,146.6,590.4,144.3,590.7z M142.9,584.5v-2c-0.7,0.2-1,0.6-1,1
			C141.9,584,142.3,584.3,142.9,584.5z M145.4,587.9c0-0.5-0.4-0.8-1-1v1.9C145.1,588.7,145.4,588.3,145.4,587.9z"/>
	</g>
	<g>
		<path d="M128.2,566.2c0-1.5,1.2-2.6,2.7-2.6c0.9,0,1.7,0.3,2.1,0.9l-0.9,0.8c-0.3-0.4-0.7-0.6-1.2-0.6c-0.8,0-1.4,0.6-1.4,1.4
			c0,0.9,0.6,1.4,1.4,1.4c0.5,0,0.9-0.2,1.2-0.6l0.9,0.8c-0.5,0.6-1.2,0.9-2.1,0.9C129.3,568.8,128.2,567.7,128.2,566.2z"/>
		<path d="M136.9,567.7h-2.1l-0.4,1H133l2.2-5h1.4l2.2,5h-1.5L136.9,567.7z M136.5,566.7l-0.6-1.6l-0.6,1.6H136.5z"/>
		<path d="M138.7,568l0.8-0.9c0.3,0.3,0.5,0.5,0.9,0.5c0.4,0,0.6-0.2,0.6-0.7v-2.1h-1.7v-1.1h3.1v3.1c0,1.3-0.7,1.9-1.9,1.9
			C139.7,568.8,139.1,568.5,138.7,568z"/>
		<path d="M147.3,567.6v1.1h-4v-5h3.9v1.1h-2.5v0.8h2.2v1.1h-2.2v0.9H147.3z"/>
		<path d="M150.2,567.3h-0.8v1.3h-1.4v-5h2.3c1.4,0,2.2,0.7,2.2,1.8c0,0.7-0.4,1.3-1,1.6l1.1,1.6h-1.5L150.2,567.3z M150.2,564.8
			h-0.8v1.5h0.8c0.6,0,0.9-0.3,0.9-0.7C151.1,565.1,150.8,564.8,150.2,564.8z"/>
		<path d="M153.1,566.2c0-1.5,1.2-2.6,2.8-2.6s2.8,1.1,2.8,2.6s-1.2,2.6-2.8,2.6S153.1,567.7,153.1,566.2z M157.2,566.2
			c0-0.9-0.6-1.4-1.3-1.4s-1.3,0.6-1.3,1.4s0.6,1.4,1.3,1.4S157.2,567,157.2,566.2z"/>
	</g>
	<g>
		<path class="st31" d="M159.1,659.5l0,2.3l-8.4,0l0-10.5l8.2,0l0,2.3l-5.3,0l0,1.8l4.7,0l0,2.2l-4.7,0l0,1.9L159.1,659.5z"/>
		<path class="st31" d="M170.8,651.4l0,10.5l-2.4,0l-4.6-5.6l0,5.6l-2.9,0l0-10.5l2.4,0l4.6,5.6l0-5.6L170.8,651.4z"/>
		<path class="st31" d="M175.1,653.7l-3.2,0l0-2.4l9.4,0l0,2.4l-3.2,0l0,8.1l-3,0L175.1,653.7z"/>
		<path class="st31" d="M187,659.1l-1.6,0l0,2.8l-3,0l0-10.5l4.8,0c2.9,0,4.7,1.5,4.7,3.9c0,1.5-0.8,2.7-2.1,3.3l2.3,3.3l-3.2,0
			L187,659.1z M187,653.8l-1.6,0l0,3.1l1.6,0c1.2,0,1.8-0.6,1.8-1.5C188.9,654.3,188.3,653.8,187,653.8z"/>
		<path class="st31" d="M200.5,659.9l-4.4,0l-0.8,2l-3,0l4.7-10.5l2.9,0l4.6,10.5l-3.1,0L200.5,659.9z M199.7,657.7l-1.3-3.4
			l-1.4,3.4L199.7,657.7z"/>
		<path class="st31" d="M205.3,651.5l5,0c3.5,0,5.9,2,5.9,5.3c0,3.2-2.4,5.2-5.9,5.2l-5,0L205.3,651.5z M210.1,659.6
			c1.8,0,3-1.1,3-2.9s-1.2-2.9-3-2.9l-1.9,0l0,5.8L210.1,659.6z"/>
		<path class="st31" d="M224.6,660l-4.4,0l-0.8,2l-3,0l4.7-10.5l2.9,0l4.6,10.5l-3.1,0L224.6,660z M223.7,657.8l-1.3-3.4l-1.4,3.4
			L223.7,657.8z"/>
	</g>
</g>
<g id="VECINOS">
	<polygon class="st32" points="862.8,109.3 1027.6,107.9 1051.1,130.7 1051.4,487.7 776.2,485.5 776,375.9 864.6,374.6 	"/>
	<polygon class="st32" points="836.1,879.3 1050.8,879.6 1052.7,1312.5 1032.9,1334.1 835.2,1332.1 	"/>
</g>
<g id="EXTRA_CUERPOS">
	<polygon class="st18" points="120.7,388.8 121.7,689 370.2,687.9 370.2,695.5 586.7,695.4 586,588.7 451.9,588.4 451.6,529.8 
		363.5,529.2 363.9,388.9 	"/>
	<polygon class="st18" points="589.7,1332.4 836.1,1331.9 836.1,879 588.2,880 	"/>
</g>
<g id="CUERPO_A">
	<polygon class="st33" points="862.8,109.3 865,375.2 776,375.9 776.2,485.5 686.8,487.2 686.1,540.6 585.7,539.6 586,588.6 
		451.9,588.4 451.6,529.9 364,529.2 364,388.8 120.4,389 121.7,148 153.1,115.9 306.8,114.3 306.5,135 365.8,134.5 365.8,115.1 
		498.9,112.7 663,110 	"/>
</g>
<g id="CUERPO_B">
	<polygon class="st34" points="121.2,688.8 370.4,687.8 370.1,694.7 586.9,695.2 588.4,879.3 589.2,1106 589.9,1333 144.8,1330.4 
		122,1305.9 	"/>
</g>
<g id="BORDES_CUERPOS">
	<polygon class="st18" points="862.8,109.3 865,375.2 776,375.9 776.2,485.5 686.8,485.2 686.1,540.6 585.7,539.6 586,588.6 
		451.9,588.4 451.6,529.9 364,529.2 364,388.8 120.4,389 121.7,148 153.1,115.9 306.8,114.3 306.5,135 365.8,134.5 365.8,115.1 
		498.9,112.7 663,110 	"/>
	<polygon class="st18" points="121.2,688.8 370.4,687.8 370.1,694.7 586.9,695.2 588.4,879.3 589.2,1106 589.9,1333 144.8,1330.4 
		122,1305.9 	"/>
	<polygon class="st18" points="1051.6,487.3 1050.5,783.5 1050.5,879.8 835.8,879.5 588.4,879.7 585.7,539.6 686.2,540.4 
		686.8,485.1 776.1,485.2 	"/>
</g>
<g id="PT_GUIA">
	<circle class="st35" cx="338.2" cy="356" r="5.1"/>
	<circle class="st35" cx="628.3" cy="635.5" r="5.1"/>
	<circle class="st35" cx="345" cy="710.8" r="5.1"/>
	<g>
		<path class="st35" d="M355.7,721.2c0,1.1-0.9,1.8-2.2,1.8l-0.9,0l0,1.3l-1.4,0l0-5l2.3,0C354.9,719.3,355.7,720,355.7,721.2z
			 M354.3,721.2c0-0.5-0.3-0.7-0.9-0.7l-0.8,0l0,1.5l0.8,0C354,721.9,354.3,721.6,354.3,721.2z"/>
		<path class="st35" d="M356.3,722.1l0-2.8l1.4,0l0,2.7c0,0.9,0.3,1.2,0.9,1.2c0.6,0,0.9-0.3,0.9-1.2l0-2.7l1.4,0l0,2.8
			c0,1.5-0.9,2.3-2.4,2.3C357.2,724.4,356.3,723.6,356.3,722.1z"/>
		<path class="st35" d="M366.7,719.4l0,5l-1.2,0l-2.2-2.7l0,2.7l-1.4,0l0-5l1.2,0l2.2,2.7l0-2.7L366.7,719.4z"/>
		<path class="st35" d="M368.8,720.6l-1.5,0l0-1.1l4.5,0l0,1.1l-1.5,0l0,3.9l-1.4,0L368.8,720.6z"/>
		<path class="st35" d="M371.9,722c0-1.5,1.2-2.6,2.8-2.6c1.6,0,2.8,1.1,2.7,2.6s-1.2,2.6-2.8,2.6C373,724.6,371.9,723.5,371.9,722z
			 M376,722c0-0.9-0.6-1.4-1.3-1.4s-1.3,0.5-1.4,1.4s0.6,1.4,1.3,1.4S376,722.9,376,722z"/>
		<path class="st35" d="M380.3,719.6l2.4,0c1.6,0,2.8,1,2.8,2.5c0,1.5-1.2,2.5-2.8,2.5l-2.4,0L380.3,719.6z M382.5,723.4
			c0.8,0,1.4-0.5,1.4-1.4s-0.6-1.4-1.4-1.4l-0.9,0l0,2.7L382.5,723.4z"/>
		<path class="st35" d="M390.1,723.5l0,1.1l-4,0l0-5l3.9,0l0,1.1l-2.5,0l0,0.8l2.2,0l0,1.1l-2.2,0l0,0.9L390.1,723.5z"/>
		<path class="st35" d="M361,729.6l1.2,0l0,2.1c-0.6,0.4-1.4,0.6-2.1,0.6c-1.6,0-2.7-1.1-2.7-2.6c0-1.5,1.2-2.6,2.8-2.6
			c0.9,0,1.7,0.3,2.2,0.9l-0.9,0.8c-0.3-0.4-0.7-0.6-1.2-0.6c-0.9,0-1.4,0.5-1.4,1.4c0,0.8,0.6,1.4,1.4,1.4c0.3,0,0.5,0,0.8-0.2
			L361,729.6z"/>
		<path class="st35" d="M363.1,730l0-2.8l1.4,0l0,2.7c0,0.9,0.3,1.2,0.9,1.2c0.6,0,0.9-0.3,0.9-1.2l0-2.7l1.4,0l0,2.8
			c0,1.5-0.9,2.3-2.4,2.3C364,732.3,363.1,731.4,363.1,730z"/>
		<path class="st35" d="M368.8,727.3l1.4,0l0,5l-1.4,0L368.8,727.3z M369.8,725.8l1.4,0l-1.3,1.1l-1,0L369.8,725.8z"/>
		<path class="st35" d="M374.5,731.3l-2.1,0l-0.4,1l-1.4,0l2.2-5l1.4,0l2.2,5l-1.5,0L374.5,731.3z M374.1,730.3l-0.6-1.6l-0.7,1.6
			L374.1,730.3z"/>
		<path class="st35" d="M383.6,731c0,0.9-0.7,1.4-2.1,1.3l-2.7,0l0-5l2.5,0c1.3,0,1.9,0.6,1.9,1.3c0,0.5-0.2,0.9-0.7,1.1
			C383.2,730,383.6,730.4,383.6,731z M382.1,730.8c0-0.3-0.3-0.5-0.7-0.5l-1.2,0l0,1l1.2,0C381.9,731.3,382.1,731.2,382.1,730.8z
			 M380.2,728.4l0,1l1,0c0.5,0,0.7-0.2,0.7-0.5c0-0.3-0.2-0.5-0.7-0.5L380.2,728.4z"/>
	</g>
	<g>
		<path class="st35" d="M636,620.6c0,1.1-0.9,1.8-2.2,1.8l-0.9,0l0,1.3l-1.4,0l0-5l2.3,0C635.1,618.8,636,619.5,636,620.6z
			 M634.5,620.6c0-0.5-0.3-0.7-0.9-0.7l-0.8,0l0,1.5l0.8,0C634.2,621.3,634.5,621.1,634.5,620.6z"/>
		<path class="st35" d="M636.5,621.5l0-2.8l1.4,0l0,2.7c0,0.9,0.3,1.2,0.9,1.2c0.6,0,0.9-0.3,0.9-1.2l0-2.7l1.4,0l0,2.8
			c0,1.5-0.9,2.3-2.4,2.3S636.5,623,636.5,621.5z"/>
		<path class="st35" d="M646.9,618.9l0,5l-1.2,0l-2.2-2.7l0,2.7l-1.4,0l0-5l1.2,0l2.2,2.7l0-2.7L646.9,618.9z"/>
		<path class="st35" d="M649,620l-1.5,0l0-1.1l4.5,0l0,1.1l-1.5,0l0,3.9l-1.4,0L649,620z"/>
		<path class="st35" d="M652.1,621.4c0-1.5,1.2-2.6,2.8-2.6c1.6,0,2.8,1.1,2.7,2.6s-1.2,2.6-2.8,2.6
			C653.3,624,652.1,622.9,652.1,621.4z M656.2,621.5c0-0.9-0.6-1.4-1.3-1.4s-1.3,0.5-1.4,1.4s0.6,1.4,1.3,1.4
			S656.2,622.3,656.2,621.5z"/>
		<path class="st35" d="M660.5,619l2.4,0c1.6,0,2.8,1,2.8,2.5c0,1.5-1.2,2.5-2.8,2.5l-2.4,0L660.5,619z M662.7,622.9
			c0.8,0,1.4-0.5,1.4-1.4s-0.6-1.4-1.4-1.4l-0.9,0l0,2.7L662.7,622.9z"/>
		<path class="st35" d="M670.3,623l0,1.1l-4,0l0-5l3.9,0l0,1.1l-2.5,0l0,0.8l2.2,0l0,1.1l-2.2,0l0,0.9L670.3,623z"/>
		<path class="st35" d="M641.4,629l1.2,0l0,2.1c-0.6,0.4-1.4,0.6-2.1,0.6c-1.6,0-2.7-1.1-2.7-2.6c0-1.5,1.2-2.6,2.8-2.6
			c0.9,0,1.7,0.3,2.2,0.9l-0.9,0.8c-0.3-0.4-0.7-0.6-1.2-0.6c-0.9,0-1.4,0.5-1.4,1.4c0,0.8,0.6,1.4,1.4,1.4c0.3,0,0.5,0,0.8-0.2
			L641.4,629z"/>
		<path class="st35" d="M643.5,629.4l0-2.8l1.4,0l0,2.7c0,0.9,0.3,1.2,0.9,1.2c0.6,0,0.9-0.3,0.9-1.2l0-2.7l1.4,0l0,2.8
			c0,1.5-0.9,2.3-2.4,2.3C644.3,631.7,643.4,630.9,643.5,629.4z"/>
		<path class="st35" d="M649.1,626.7l1.4,0l0,5l-1.4,0L649.1,626.7z M650.1,625.2l1.4,0l-1.3,1.1l-1,0L650.1,625.2z"/>
		<path class="st35" d="M654.8,630.8l-2.1,0l-0.4,1l-1.4,0l2.2-5l1.4,0l2.2,5l-1.5,0L654.8,630.8z M654.4,629.7l-0.6-1.6l-0.7,1.6
			L654.4,629.7z"/>
		<path class="st35" d="M658.9,629.3c0-1.5,1.2-2.6,2.8-2.6c0.9,0,1.7,0.3,2.1,1l-0.9,0.8c-0.3-0.4-0.7-0.6-1.2-0.6
			c-0.8,0-1.4,0.6-1.4,1.4c0,0.9,0.6,1.4,1.4,1.4c0.5,0,0.9-0.2,1.2-0.6l0.9,0.8c-0.5,0.6-1.2,0.9-2.1,0.9
			C660.1,631.9,658.9,630.8,658.9,629.3z"/>
	</g>
	<g>
		<path class="st35" d="M350.5,342.9c0,1.1-0.9,1.8-2.2,1.8l-0.9,0l0,1.3l-1.4,0l0-5l2.3,0C349.6,341.1,350.5,341.8,350.5,342.9z
			 M349,342.9c0-0.5-0.3-0.7-0.9-0.7l-0.8,0l0,1.5l0.8,0C348.7,343.6,349,343.3,349,342.9z"/>
		<path class="st35" d="M351,343.8l0-2.8l1.4,0l0,2.7c0,0.9,0.3,1.2,0.9,1.2c0.6,0,0.9-0.3,0.9-1.2l0-2.7l1.4,0l0,2.8
			c0,1.5-0.9,2.3-2.4,2.3C351.9,346.1,351,345.3,351,343.8z"/>
		<path class="st35" d="M361.4,341.2l0,5l-1.2,0l-2.2-2.7l0,2.7l-1.4,0l0-5l1.2,0l2.2,2.7l0-2.7L361.4,341.2z"/>
		<path class="st35" d="M363.5,342.3l-1.5,0l0-1.1l4.5,0l0,1.1l-1.5,0l0,3.9l-1.4,0L363.5,342.3z"/>
		<path class="st35" d="M366.6,343.7c0-1.5,1.2-2.6,2.8-2.6c1.6,0,2.8,1.1,2.7,2.6s-1.2,2.6-2.8,2.6
			C367.8,346.3,366.6,345.2,366.6,343.7z M370.7,343.7c0-0.9-0.6-1.4-1.3-1.4s-1.3,0.5-1.4,1.4s0.6,1.4,1.3,1.4
			S370.7,344.6,370.7,343.7z"/>
		<path class="st35" d="M375,341.3l2.4,0c1.6,0,2.8,1,2.8,2.5c0,1.5-1.2,2.5-2.8,2.5l-2.4,0L375,341.3z M377.2,345.2
			c0.8,0,1.4-0.5,1.4-1.4s-0.6-1.4-1.4-1.4l-0.9,0l0,2.7L377.2,345.2z"/>
		<path class="st35" d="M384.8,345.3l0,1.1l-4,0l0-5l3.9,0l0,1.1l-2.5,0l0,0.8l2.2,0l0,1.1l-2.2,0l0,0.9L384.8,345.3z"/>
		<path class="st35" d="M355.7,351.3l1.2,0l0,2.1c-0.6,0.4-1.4,0.6-2.1,0.6c-1.6,0-2.7-1.1-2.7-2.6c0-1.5,1.2-2.6,2.8-2.6
			c0.9,0,1.7,0.3,2.2,0.9l-0.9,0.8c-0.3-0.4-0.7-0.6-1.2-0.6c-0.9,0-1.4,0.5-1.4,1.4c0,0.8,0.6,1.4,1.4,1.4c0.3,0,0.5,0,0.8-0.2
			L355.7,351.3z"/>
		<path class="st35" d="M357.8,351.7l0-2.8l1.4,0l0,2.7c0,0.9,0.3,1.2,0.9,1.2c0.6,0,0.9-0.3,0.9-1.2l0-2.7l1.4,0l0,2.8
			c0,1.5-0.9,2.3-2.4,2.3C358.6,354,357.8,353.2,357.8,351.7z"/>
		<path class="st35" d="M363.4,349l1.4,0l0,5l-1.4,0L363.4,349z M364.4,347.5l1.4,0l-1.3,1.1l-1,0L364.4,347.5z"/>
		<path class="st35" d="M369.2,353l-2.1,0l-0.4,1l-1.4,0l2.2-5l1.4,0l2.2,5l-1.5,0L369.2,353z M368.8,352l-0.6-1.6l-0.7,1.6
			L368.8,352z"/>
		<path class="st35" d="M376.8,353.1l-2.1,0l-0.4,1l-1.4,0l2.2-5l1.4,0l2.2,5l-1.5,0L376.8,353.1z M376.4,352.1l-0.6-1.6l-0.7,1.6
			L376.4,352.1z"/>
	</g>
</g>
<g id="REF_SUP_B">
	<circle class="st22" cx="403.4" cy="947.2" r="44.5"/>
	<g>
		<path class="st36" d="M428.5,959.2c-0.1,8.9-7.5,14.1-21.4,14l-27.9-0.3l0.5-51.7l26.4,0.2c13.6,0.1,20.2,5.7,20.1,13.7
			c0,4.9-2.6,8.9-7,11.2C425,948.5,428.5,953,428.5,959.2z M413.7,957.5c0-3.5-2.6-5.3-7.6-5.3l-12.3-0.1l-0.1,10.5l12.3,0.1
			C411,962.7,413.7,961,413.7,957.5z M394,932l-0.1,10l10,0.1c4.9,0,7.4-1.6,7.4-5c0-3.2-2.5-5-7.3-5L394,932z"/>
	</g>
</g>
<g id="REF_SUP_A">
	<circle class="st22" cx="666" cy="303" r="42.5"/>
	<g>
		<path class="st37" d="M676.6,315.8l-20.9-0.2l-4,9.6l-14.2-0.1l22.2-49.2l13.8,0.1l21.4,49.6l-14.5-0.1L676.6,315.8z M672.6,305.5
			l-6.2-15.9l-6.5,15.7L672.6,305.5z"/>
	</g>
</g>
</svg>
