<?xml version="1.0" encoding="utf-8"?>
<!-- Generator: Adobe Illustrator 25.4.1, SVG Export Plug-In . SVG Version: 6.00 Build 0)  -->
<svg version="1.1" xmlns="http://www.w3.org/2000/svg" xmlns:xlink="http://www.w3.org/1999/xlink" x="0px" y="0px"
	 viewBox="0 0 1153 1435" style="enable-background:new 0 0 1153 1435;" xml:space="preserve">
<style type="text/css">
	.st0{fill:#383838;stroke:#000000;stroke-miterlimit:10;}
	.st1{fill:#383838;}
	.st2{stroke:#000000;stroke-miterlimit:10;}
	.st3{fill:#999999;}
	.st4{fill:#878787;}
	.st5{fill:#B2B2B2;}
	.st6{fill:#545454;stroke:#000000;stroke-miterlimit:10;}
	.st7{fill:#F8F7F7;stroke:#000000;stroke-miterlimit:10;}
	.st8{fill:none;stroke:#000000;stroke-miterlimit:10;}
	.st9{fill:#706F6E;stroke:#000000;stroke-miterlimit:10;}
	.st10{fill:#868686;stroke:#000000;stroke-miterlimit:10;}
	.st11{fill:#9C9B9B;stroke:#000000;stroke-miterlimit:10;}
	.st12{fill:#C6C6C5;stroke:#000000;stroke-miterlimit:10;}
	.st13{fill:#D9D9D9;stroke:#000000;stroke-miterlimit:10;}
	.st14{fill:#ECECEC;stroke:#000000;stroke-miterlimit:10;}
	.st15{fill:#F5F5F5;stroke:#000000;stroke-miterlimit:10;}
	.st16{fill:#CEEADF;stroke:#000000;stroke-miterlimit:10;}
	.st17{fill:#B2B2B2;stroke:#000000;stroke-miterlimit:10;}
	.st18{fill:#B2B2B2;stroke:#000000;stroke-width:0.5;stroke-miterlimit:10;}
	.st19{fill:#FFFFFF;}
	.st20{fill:url(#SVGID_1_);stroke:#000000;stroke-width:0.5;stroke-miterlimit:10;}
	
		.st21{fill:url(#SVGID_00000067198087302608284130000005963247304128707461_);stroke:#000000;stroke-width:0.5;stroke-miterlimit:10;}
	
		.st22{fill:url(#SVGID_00000039115445684213281070000013725031093238850970_);stroke:#000000;stroke-width:0.5;stroke-miterlimit:10;}
	
		.st23{fill:url(#SVGID_00000004505204914803569790000012450682739903331714_);stroke:#000000;stroke-width:0.5;stroke-miterlimit:10;}
	
		.st24{fill:url(#SVGID_00000042015496763517927370000017002356323541176205_);stroke:#000000;stroke-width:0.5;stroke-miterlimit:10;}
	
		.st25{fill:url(#SVGID_00000123402891712699498990000002119673749070604931_);stroke:#000000;stroke-width:0.5;stroke-miterlimit:10;}
	
		.st26{fill:url(#SVGID_00000179633396251335786930000001538746634368628875_);stroke:#000000;stroke-width:0.5;stroke-miterlimit:10;}
	
		.st27{fill:url(#SVGID_00000083048630898491400610000015536296874412548798_);stroke:#000000;stroke-width:0.5;stroke-miterlimit:10;}
	.st28{fill:#F8F7F7;}
	.st29{fill:#545454;}
	.st30{fill:#494949;stroke:#494949;stroke-width:3;stroke-miterlimit:10;}
	.st31{font-family:'Montserrat-Bold';}
	.st32{font-size:25.0161px;}
	.st33{font-size:30.2677px;}
	.st34{font-size:4.5062px;}
	.st35{font-size:9.4144px;}
	.st36{fill:#7F7F7F;}
	.st37{font-size:5.2757px;}
	.st38{font-size:3.5px;}
	.st39{font-size:8px;}
	.st40{font-size:4.7188px;}
	.st41{font-size:9.4376px;}
	.st42{font-size:3.7px;}
	.st43{font-size:14.1195px;}
	.st44{font-family:'Montserrat-ExtraBold';}
	.st45{font-size:7.1177px;}
	.st46{fill:#383838;stroke:#000000;stroke-width:2;stroke-miterlimit:10;}
	.st47{opacity:0.83;fill:#58B9FF;}
	.st48{opacity:0.85;fill:#58B9FF;}
	.st49{fill:none;stroke:#000000;stroke-width:2;stroke-miterlimit:10;}
	.st50{fill:#2E4AAD;}
	.st51{font-size:6.0198px;}
	.st52{fill:#234F97;}
	.st53{font-size:73.8171px;}
	.st54{fill:#1C3359;}
	.st55{font-size:70.532px;}
</style>
<g id="BASE_Calle">
	<rect x="-141" y="141" transform="matrix(6.123234e-17 -1 1 6.123234e-17 -141 1294)" class="st0" width="1435" height="1153"/>
</g>
<g id="manzana">
	<path class="st1" d="M1030.8,69.7l-886.7,9c-31.6,0.3-57,26-57.1,57.5l-2.8,1171.1c-0.1,31.9,25.7,57.8,57.6,57.8l890.4,0.9
		c31.9,0,57.8-25.8,57.7-57.7l-0.9-1181C1089.1,95.3,1062.9,69.4,1030.8,69.7z"/>
</g>
<g id="Patio_PPAL">
	<polygon class="st2" points="587.2,694.9 587.5,585 439.2,585.7 438.5,545.8 398.2,545.8 397.8,579.1 395.1,579.1 395.1,587.1 
		370.9,587.2 370.9,579.1 366,579.1 365.3,390.1 299.4,389.8 299.4,389.3 120.7,388.8 120.7,389.7 121,558.3 121.2,558.3 121.3,568 
		121.1,599.2 121.4,599.2 121.7,689 370.2,687.9 370.2,695.5 	"/>
	<polyline class="st2" points="370.2,695.5 587.2,694.4 587.5,585 	"/>
</g>
<g id="Polidepor">
	<rect x="588.2" y="873.4" class="st2" width="244.6" height="459"/>
</g>
<g id="Corre_A">
	<path class="st3" d="M479.6,296.9c0,0,1.2,90.4,0.2,90.2c-1-0.2-27.6,0-27.6,0l-0.4,58.4l0.1,3.2l58.2-0.3v-152L479.6,296.9z"/>
	<rect x="484.2" y="471.6" class="st4" width="2.7" height="58.6"/>
	<rect x="328.3" y="172.2" class="st3" width="2.7" height="63.4"/>
	
		<rect x="479.5" y="524.7" transform="matrix(-1.836970e-16 1 -1 -1.836970e-16 1011.5213 49.7128)" class="st4" width="2.7" height="11.8"/>
	<polygon class="st5" points="771.9,156.7 771.8,166.1 679.6,166.8 679.6,179.2 631.1,179.2 631.5,150.5 580.7,150.7 503.8,150.3 
		503.5,164.1 494.1,164.4 494.5,178.1 504,178.4 503.8,242.3 455.5,242.3 455.1,233.1 436.8,233.1 436.8,242.7 384.9,242.4 
		384.8,233.5 365.9,233.2 366,231 306.5,230.7 306.4,235.7 258.5,239.3 258.4,228.2 225.6,228.6 225.4,241.9 171.1,241.9 171.7,352 
		170.7,390.1 190.9,390.2 190.8,288.5 225.9,288.5 225.9,298.6 259.2,298.6 259.2,288.4 310.1,288.4 350.4,288 350.4,297.5 
		365.2,297.5 365.2,287.9 365.3,287.9 365.4,288.4 438.9,288.4 438.4,372.6 438.9,413.9 439,439.9 509.6,440.2 538.6,440.2 
		538.6,414.8 538.6,414.2 510.2,414.1 510.4,391.8 467,392.1 467.3,294.6 510.5,294.4 540,294.3 539.9,314.9 558.6,314.9 
		558.6,274.4 539.5,274.5 539.6,200.5 586.2,200.6 586.3,274.1 586.8,294 587.9,391.9 587,512.9 587.6,512.5 587.8,539.8 
		686.9,540.2 686.8,483.9 631.3,483.9 631.7,483.6 632.1,483.1 609.1,477.1 612.1,435 619,413.7 613.5,411.9 620.4,386.1 
		614.8,383.8 623.3,350.7 616.5,347.7 624.2,321 618.5,318.8 619.4,306.5 629.1,307 631.6,259.1 631.4,196.7 727.5,196.5 
		727.1,180.1 778,179.8 777.6,209.5 792.9,209.6 792.7,179.9 813.1,179.9 813.1,192.8 826.7,192.5 826.8,156.9 	"/>
</g>
<g id="AULAS_A">
	<polygon class="st6" points="583.9,200.4 539.5,200.2 539.5,274.2 586.3,274.2 586.2,200.4 	"/>
	<polygon class="st7" points="436.8,178.1 436.7,233 455.6,232.9 455.5,242.1 503.9,242.2 504,178.4 	"/>
	<path class="st8" d="M323.4,135.3l11.1,0l-0.1,12.9C334.4,148.2,323.4,148.3,323.4,135.3z"/>
	<path class="st8" d="M322.1,135.3l-11.1,0l0.1,12.9C311.1,148.2,322,148.3,322.1,135.3z"/>
	<path class="st8" d="M350.3,135.3l11.1,0l-0.1,12.9C361.3,148.2,350.3,148.3,350.3,135.3z"/>
	<path class="st8" d="M349,135.3l-11.1,0l0.1,12.9C337.9,148.2,348.9,148.3,349,135.3z"/>
	<path class="st8" d="M348,388.6l-10,0l0.1-11.7C338,376.9,348,376.9,348,388.6z"/>
	<path class="st8" d="M349.2,388.6l10,0l-0.1-11.7C359.2,376.9,349.2,376.9,349.2,388.6z"/>
	<polygon class="st7" points="365.5,114.3 437.3,113.3 436.8,242.4 384.8,242.2 384.8,233 366.2,233 	"/>
	<polygon class="st6" points="580.4,110.8 580.6,150.1 503.4,150.1 503.5,111.6 	"/>
	<polygon class="st6" points="631.7,150.1 580.7,150.3 580.6,129.7 580.6,110.4 632.1,110 	"/>
	<polygon class="st7" points="306.8,114.3 306.2,235.5 258.4,239 258.5,228.3 243.9,228.3 244.2,114.8 	"/>
	<polygon class="st7" points="510.3,294.1 510.3,391.5 587.9,392 586.8,294.1 558.5,294.3 558.5,314.7 539.8,314.7 539.7,294.3 	"/>
	<polygon class="st7" points="558.5,275 558.5,294.3 586.8,294.1 586.4,274.1 558.3,274.2 	"/>
	
		<rect x="539.6" y="200.2" transform="matrix(-1 -1.224647e-16 1.224647e-16 -1 1108.0638 435.7118)" class="st7" width="28.9" height="35.3"/>
	
		<rect x="540.1" y="211.4" transform="matrix(-1 -1.224647e-16 1.224647e-16 -1 1082.4695 436.0768)" class="st7" width="2.2" height="13.3"/>
	<g>
		
			<rect x="557.3" y="263.2" transform="matrix(-1.836970e-16 1 -1 -1.836970e-16 831.6623 -301.7155)" class="st9" width="18.7" height="3.6"/>
		
			<rect x="553.7" y="263.2" transform="matrix(-1.836970e-16 1 -1 -1.836970e-16 828.0403 -298.0934)" class="st10" width="18.7" height="3.6"/>
		
			<rect x="550.1" y="263.2" transform="matrix(-1.836970e-16 1 -1 -1.836970e-16 824.4182 -294.4714)" class="st11" width="18.7" height="3.6"/>
		
			<rect x="546.5" y="263.2" transform="matrix(-1.836970e-16 1 -1 -1.836970e-16 820.7962 -290.8493)" class="st12" width="18.7" height="3.6"/>
		
			<rect x="542.9" y="263.2" transform="matrix(-1.836970e-16 1 -1 -1.836970e-16 817.1741 -287.2273)" class="st13" width="18.7" height="3.6"/>
		
			<rect x="539.2" y="263.2" transform="matrix(-1.836970e-16 1 -1 -1.836970e-16 813.5521 -283.6052)" class="st14" width="18.7" height="3.6"/>
		
			<rect x="535.6" y="263.2" transform="matrix(-1.836970e-16 1 -1 -1.836970e-16 809.9301 -279.9832)" class="st15" width="18.7" height="3.6"/>
		
			<rect x="532" y="263.2" transform="matrix(-1.836970e-16 1 -1 -1.836970e-16 806.308 -276.3611)" class="st15" width="18.7" height="3.6"/>
	</g>
	<g>
		
			<rect x="557.3" y="243.6" transform="matrix(-1.836970e-16 1 -1 -1.836970e-16 812.0878 -321.2899)" class="st9" width="18.7" height="3.6"/>
		
			<rect x="553.7" y="243.6" transform="matrix(-1.836970e-16 1 -1 -1.836970e-16 808.4658 -317.6679)" class="st10" width="18.7" height="3.6"/>
		
			<rect x="550.1" y="243.6" transform="matrix(-1.836970e-16 1 -1 -1.836970e-16 804.8438 -314.0458)" class="st11" width="18.7" height="3.6"/>
		
			<rect x="546.5" y="243.6" transform="matrix(-1.836970e-16 1 -1 -1.836970e-16 801.2217 -310.4238)" class="st12" width="18.7" height="3.6"/>
		
			<rect x="542.9" y="243.6" transform="matrix(-1.836970e-16 1 -1 -1.836970e-16 797.5997 -306.8018)" class="st13" width="18.7" height="3.6"/>
		
			<rect x="539.2" y="243.6" transform="matrix(-1.836970e-16 1 -1 -1.836970e-16 793.9776 -303.1797)" class="st14" width="18.7" height="3.6"/>
		
			<rect x="535.6" y="243.6" transform="matrix(-1.836970e-16 1 -1 -1.836970e-16 790.3556 -299.5576)" class="st15" width="18.7" height="3.6"/>
		
			<rect x="532" y="243.6" transform="matrix(-1.836970e-16 1 -1 -1.836970e-16 786.7335 -295.9356)" class="st15" width="18.7" height="3.6"/>
	</g>
	<g>
		
			<rect x="641.5" y="170.6" transform="matrix(-1.447065e-04 -1 1 -1.447065e-04 474.8934 820.331)" class="st9" width="12.2" height="4.3"/>
		
			<rect x="632.4" y="165.8" transform="matrix(-1.447065e-04 -1 1 -1.447065e-04 465.8279 811.2693)" class="st6" width="12.2" height="13.9"/>
		
			<rect x="645.7" y="170.6" transform="matrix(-1.447065e-04 -1 1 -1.447065e-04 479.1481 824.5839)" class="st10" width="12.2" height="4.3"/>
		
			<rect x="650" y="170.6" transform="matrix(-1.447065e-04 -1 1 -1.447065e-04 483.4028 828.8367)" class="st11" width="12.2" height="4.3"/>
		
			<rect x="654.2" y="170.6" transform="matrix(-1.447065e-04 -1 1 -1.447065e-04 487.6575 833.0896)" class="st12" width="12.2" height="4.3"/>
		
			<rect x="658.5" y="170.6" transform="matrix(-1.447065e-04 -1 1 -1.447065e-04 491.9123 837.3425)" class="st13" width="12.2" height="4.3"/>
		
			<rect x="662.7" y="170.6" transform="matrix(-1.447065e-04 -1 1 -1.447065e-04 496.167 841.5953)" class="st14" width="12.2" height="4.3"/>
		
			<rect x="667" y="170.6" transform="matrix(-1.447065e-04 -1 1 -1.447065e-04 500.4217 845.8482)" class="st15" width="12.2" height="4.3"/>
		
			<rect x="671.2" y="170.6" transform="matrix(-1.447065e-04 -1 1 -1.447065e-04 504.6764 850.1011)" class="st15" width="12.2" height="4.3"/>
	</g>
	<rect x="306.5" y="136.5" class="st2" width="59.2" height="93.8"/>
	<polygon class="st16" points="727.4,259 777.7,259.1 777.9,179.9 727.1,180.3 	"/>
	<polygon class="st6" points="503.7,164.2 503.5,111.6 437.3,113.3 436.8,178.1 494.5,178.3 494.3,164.4 	"/>
	<polygon class="st7" points="685.1,109 632,109.5 631.7,150.1 631.6,166.7 684.7,166.5 	"/>
	<polygon class="st7" points="724.8,166 684.7,166.5 685.1,109 725.1,108.4 	"/>
	<polygon class="st7" points="771.6,166.1 724.8,166 725.1,108.4 772.2,107.6 	"/>
	<polygon class="st7" points="225.6,228.3 243.9,228.3 244.2,114.8 151.7,116 121.7,147.3 121.3,241.3 225.5,241.7 	"/>
	<polygon class="st6" points="170.8,263.9 170.9,241.9 121.3,241.3 121.2,263.5 	"/>
	<polygon class="st7" points="121.4,351.7 121.2,263.5 170.8,263.9 171.4,313.6 171.4,352 	"/>
	<polygon class="st6" points="121.4,389.6 121.4,351.7 171.4,352 171.1,390.1 	"/>
	<polygon class="st7" points="190.7,288.4 190.8,389.8 309.3,389.8 309.9,288.2 259.2,287.9 259.2,298.3 226,298.4 226,287.9 	"/>
	<polygon class="st6" points="364.8,390 309.3,389.8 309.9,288.2 350.5,287.8 350.5,297.7 365.4,297.7 	"/>
	<polygon class="st7" points="438.8,288.3 365.3,288.3 365.3,330.7 438.8,330.6 	"/>
	<polygon class="st7" points="438.4,372.4 438.8,330.6 365.3,330.7 365.5,372.6 	"/>
	<polygon class="st7" points="365.3,414.3 365.5,372.6 438.4,372.4 438.9,413.8 	"/>
	<polygon class="st7" points="365.5,545.8 365.3,414.3 438.9,413.8 438.5,545.8 	"/>
	<polygon class="st7" points="509.5,439.8 439,439.8 438.5,545.8 509.9,545.7 	"/>
	<polygon class="st7" points="509.5,439.8 538.3,439.8 538.5,445.5 584,445.6 587.8,445.7 587.2,585.4 509.8,585.6 509.9,545.7 	"/>
	<polygon class="st7" points="510.3,294.1 467.2,294.5 467.4,343 510.5,343 	"/>
	<polygon class="st7" points="510.3,391.5 467.1,391.9 467.4,343 510.5,343 	"/>
	<rect x="510.3" y="392" class="st7" width="77.6" height="22"/>
	<rect x="538.5" y="414.2" class="st6" width="49.3" height="31.3"/>
	<polygon class="st6" points="631.4,196.7 631.6,259.1 655.9,258.5 655.9,196.7 	"/>
	<polygon class="st6" points="727.8,196.7 727.2,259.1 655.9,258.5 655.9,196.7 	"/>
	<polygon class="st7" points="629,307.1 631.6,259.1 655.9,258.5 777.5,259.3 776.3,483.4 632.3,483.1 609.2,477 612.2,434.7 
		619.1,413.6 613.6,411.9 620.4,386.1 614.8,383.9 623.3,350.6 616.6,347.6 624.2,321 618.5,318.8 619.4,306.3 	"/>
	<polygon class="st6" points="801,107.8 772.2,107.6 771.9,156.6 862.8,156.8 862.6,107.3 	"/>
	<polygon class="st6" points="826.5,174.8 826.6,156.6 862.8,156.8 862.8,175.1 	"/>
	<polygon class="st6" points="792.6,179.7 792.7,209 862.7,209.6 863,175.1 826.5,174.8 826.6,186.3 826.6,192.4 813,192.4 
		813.1,179.7 	"/>
	<polygon class="st6" points="863.1,373 862.7,209.6 778.4,209.3 776.8,373.5 	"/>
	<polyline class="st7" points="494.5,242.6 494.6,269.3 494.8,294.3 	"/>
	<rect x="150.3" y="390" class="st6" width="44.6" height="57.2"/>
	<g>
		
			<rect x="150.8" y="443.8" transform="matrix(-1 -1.224647e-16 1.224647e-16 -1 320.3192 891.2692)" class="st9" width="18.7" height="3.6"/>
		
			<rect x="150.8" y="440.2" transform="matrix(-1 -1.224647e-16 1.224647e-16 -1 320.3192 884.0251)" class="st10" width="18.7" height="3.6"/>
		
			<rect x="150.8" y="436.6" transform="matrix(-1 -1.224647e-16 1.224647e-16 -1 320.3192 876.781)" class="st11" width="18.7" height="3.6"/>
		
			<rect x="150.8" y="433" transform="matrix(-1 -1.224647e-16 1.224647e-16 -1 320.3192 869.5369)" class="st12" width="18.7" height="3.6"/>
		
			<rect x="150.8" y="429.3" transform="matrix(-1 -1.224647e-16 1.224647e-16 -1 320.3192 862.2928)" class="st13" width="18.7" height="3.6"/>
		
			<rect x="150.8" y="425.7" transform="matrix(-1 -1.224647e-16 1.224647e-16 -1 320.3192 855.0488)" class="st14" width="18.7" height="3.6"/>
		
			<rect x="150.8" y="422.1" transform="matrix(-1 -1.224647e-16 1.224647e-16 -1 320.3192 847.8047)" class="st15" width="18.7" height="3.6"/>
		
			<rect x="150.8" y="418.5" transform="matrix(-1 -1.224647e-16 1.224647e-16 -1 320.3192 840.5606)" class="st15" width="18.7" height="3.6"/>
	</g>
	<rect x="364.5" y="545.8" class="st16" width="33.7" height="41.4"/>
	<rect x="439.1" y="545.8" class="st16" width="70.7" height="41.4"/>
</g>
<g id="Detalle_A">
	<path class="st6" d="M826.6,161.3l-0.1,10.2l11.8,0.1C838.4,171.6,838.5,161.5,826.6,161.3z"/>
	<path class="st6" d="M813,190.7l0-8.9l-10.3,0C802.7,181.8,802.6,190.7,813,190.7z"/>
	<path class="st6" d="M789.9,209.3l-8.9,0l0,10.3C781.1,219.6,789.9,219.7,789.9,209.3z"/>
	<path class="st6" d="M708.4,196.7l8.9,0l0,10.3C717.2,207.1,708.4,207.1,708.4,196.7z"/>
	<path class="st16" d="M726.9,193.6l0-8.9l10.3,0C737.2,184.7,737.3,193.6,726.9,193.6z"/>
	<path class="st6" d="M651.6,196.7l-8.9,0l0,10.3C642.7,207.1,651.5,207.1,651.6,196.7z"/>
	<path class="st6" d="M618.7,150.2l8.9,0l0-10.3C627.6,139.9,618.8,139.8,618.7,150.2z"/>
	<path class="st6" d="M506.7,150.1l8.9,0l0-10.3C515.5,139.7,506.7,139.7,506.7,150.1z"/>
	<path class="st6" d="M494.1,166.7l0,8.9l-10.3,0C483.8,175.6,483.7,166.8,494.1,166.7z"/>
	<path class="st6" d="M170.6,253.2l0-8.1l-9.4,0C161.2,245.1,161.2,253.1,170.6,253.2z"/>
	<path class="st6" d="M170.6,253.4l0,8.1l-9.4,0C161.2,261.5,161.2,253.4,170.6,253.4z"/>
	<path class="st6" d="M170.6,365.1l0,8.9l-10.4,0C160.2,374,160.2,365.1,170.6,365.1z"/>
	<path class="st6" d="M353.5,297.8l8.9,0l0,10.4C362.5,308.2,353.6,308.2,353.5,297.8z"/>
	<path class="st6" d="M656.2,212.3l-0.1-8.9l10.3-0.1C666.4,203.3,666.6,212.1,656.2,212.3z"/>
	<path class="st6" d="M538.5,425.8l-0.1-8.9l10.3-0.1C548.8,416.8,548.9,425.6,538.5,425.8z"/>
	<path class="st7" d="M510.5,407.1l-0.1-8.9l10.3-0.1C520.7,398.2,520.9,407,510.5,407.1z"/>
	<path class="st6" d="M826.7,190.6l0.1-8.9l10.3,0.1C837.1,181.8,837.1,190.6,826.7,190.6z"/>
	<path class="st7" d="M757.4,166.1l9.7,0l0-11.3C767.2,154.9,757.5,154.8,757.4,166.1z"/>
	<path class="st7" d="M711.8,166.1l9.7,0l0-11.3C721.5,154.9,711.9,154.8,711.8,166.1z"/>
	<path class="st7" d="M685.1,124.1l0-9.5l11,0C696.1,114.6,696.2,124,685.1,124.1z"/>
	<path class="st7" d="M631.8,163.6l0-9.5l11,0C642.7,154.1,642.8,163.5,631.8,163.6z"/>
	<path class="st7" d="M452.5,233.1l-9.5,0l0-11C443,222.1,452.4,222,452.5,233.1z"/>
	<path class="st17" d="M494.4,256.3l0,10.4l-12.1,0C482.4,266.7,482.3,256.4,494.4,256.3z"/>
	<path class="st17" d="M494.4,255.5l0-10.4l-12.1,0C482.4,245.1,482.3,255.4,494.4,255.5z"/>
	<path class="st7" d="M630,294.1l0.5-9.7l11.3,0.6C641.8,285.1,641.3,294.7,630,294.1z"/>
	<path class="st7" d="M558.6,289.2l-0.1-9.7l11.3-0.1C569.8,279.4,570,289,558.6,289.2z"/>
	<path class="st7" d="M558.6,308.3l-0.1-9.7l11.3-0.1C569.8,298.4,570,308.1,558.6,308.3z"/>
	<path class="st7" d="M479.5,391.9l-9.7,0l0-11.3C469.8,380.6,479.4,380.5,479.5,391.9z"/>
	<path class="st7" d="M479.8,294.5l-9.7,0l0,11.3C470,305.7,479.7,305.8,479.8,294.5z"/>
	<path class="st7" d="M539.4,308.6l0-9.7l-11.3,0C528.2,298.9,528.1,308.5,539.4,308.6z"/>
	<path class="st7" d="M763.9,259.7l9.7,0l0,11.3C773.6,270.9,764,271,763.9,259.7z"/>
	<path class="st7" d="M625.1,481.1l-9.4-2.4l2.8-10.9C618.5,467.8,627.8,470.1,625.1,481.1z"/>
	<path class="st7" d="M630,294.8l-0.6,9.7l11.3,0.6C640.7,305.1,641.3,295.5,630,294.8z"/>
	<path class="st17" d="M494.4,280.7l0,10.4l-12.1,0C482.4,291.1,482.3,280.8,494.4,280.7z"/>
	<path class="st17" d="M494.4,280l0-10.4l-12.1,0C482.4,269.6,482.3,279.9,494.4,280z"/>
	
		<rect x="575.9" y="172.4" transform="matrix(6.123234e-17 -1 1 6.123234e-17 408.234 758.1489)" class="st6" width="14.6" height="5.1"/>
	<path class="st7" d="M382.2,233l-9.5,0l0-11C372.7,222,382.1,221.9,382.2,233z"/>
	<path class="st7" d="M257.4,228.3l-9.5,0l0-11C248,217.3,257.4,217.2,257.4,228.3z"/>
	<path class="st7" d="M171.2,325.3l0,9.5l-11,0C160.2,334.8,160.2,325.4,171.2,325.3z"/>
	<path class="st7" d="M229.9,228.3l9.5,0l0-11C239.4,217.3,230,217.2,229.9,228.3z"/>
	<path class="st7" d="M171.4,324.6l0-9.5l-11,0C160.4,315.1,160.3,324.5,171.4,324.6z"/>
	<path class="st7" d="M190.7,325.1l0-9.5l11,0C201.7,315.6,201.8,325,190.7,325.1z"/>
	<path class="st7" d="M190.6,325.9l0,9.5l11,0C201.5,335.3,201.6,325.9,190.6,325.9z"/>
	<path class="st7" d="M438.8,318.6l0,9.5l-11,0C427.8,328,427.7,318.6,438.8,318.6z"/>
	<path class="st7" d="M438.4,360.8l0,9.5l-11,0C427.4,370.3,427.3,360.9,438.4,360.8z"/>
	<path class="st7" d="M439,402.3l0,9.5l-11,0C428.1,411.8,428,402.4,439,402.3z"/>
	<path class="st7" d="M438.8,427.8l0,9.5l-11,0C427.9,437.3,427.8,427.9,438.8,427.8z"/>
	<path class="st7" d="M438.8,426.9l0-9.5l-11,0C427.9,417.5,427.8,426.9,438.8,426.9z"/>
	<path class="st7" d="M496.5,440l9.5,0l0,11C505.9,451,496.5,451.1,496.5,440z"/>
	<path class="st7" d="M495.6,440l-9.5,0l0,11C486.1,451,495.5,451.1,495.6,440z"/>
	<path class="st7" d="M524.9,440l9.5,0l0,11C534.4,451,525,451.1,524.9,440z"/>
	<path class="st7" d="M524.1,440l-9.5,0l0,11C514.6,451,524,451.1,524.1,440z"/>
	<path class="st7" d="M238.8,298.6l-9.5,0l0,11C229.3,309.6,238.7,309.6,238.8,298.6z"/>
	<g>
		
			<rect x="660.8" y="531.6" transform="matrix(-1.836970e-16 1 -1 -1.836970e-16 1200.3629 -132.1075)" class="st9" width="10.9" height="5.1"/>
		
			<rect x="655.7" y="531.6" transform="matrix(-1.836970e-16 1 -1 -1.836970e-16 1195.2961 -127.0407)" class="st10" width="10.9" height="5.1"/>
		
			<rect x="650.7" y="531.6" transform="matrix(-1.836970e-16 1 -1 -1.836970e-16 1190.2294 -121.974)" class="st11" width="10.9" height="5.1"/>
		
			<rect x="645.6" y="531.6" transform="matrix(-1.836970e-16 1 -1 -1.836970e-16 1185.1626 -116.9072)" class="st12" width="10.9" height="5.1"/>
		
			<rect x="640.5" y="531.6" transform="matrix(-1.836970e-16 1 -1 -1.836970e-16 1180.0958 -111.8404)" class="st13" width="10.9" height="5.1"/>
		
			<rect x="635.5" y="531.6" transform="matrix(-1.836970e-16 1 -1 -1.836970e-16 1175.0291 -106.7736)" class="st14" width="10.9" height="5.1"/>
		
			<rect x="630.4" y="531.6" transform="matrix(-1.836970e-16 1 -1 -1.836970e-16 1169.9623 -101.7068)" class="st15" width="10.9" height="5.1"/>
		
			<rect x="625.3" y="531.6" transform="matrix(-1.836970e-16 1 -1 -1.836970e-16 1164.8955 -96.6401)" class="st15" width="10.9" height="5.1"/>
	</g>
	<g>
		<rect x="593.4" y="528.6" class="st18" width="16.6" height="3.7"/>
		<rect x="593.4" y="532.3" class="st18" width="16.6" height="3.7"/>
		<rect x="593.4" y="536" class="st18" width="16.6" height="3.7"/>
	</g>
	<line class="st8" x1="686.5" y1="539.9" x2="587.3" y2="539.9"/>
</g>
<g id="Corre_B">
	<polygon class="st5" points="587.8,695.3 369.8,695.9 369.9,688.4 319.1,688.5 318.9,787.7 284.1,787.8 284,778.1 255.3,777.9 
		255.3,787.8 221.5,787.8 221.5,755.4 195.1,755.3 195.3,776 174.4,775.7 174.2,805 195.2,804.4 195.4,834.6 185.5,834.6 
		185.4,848.6 195.9,848.9 195.4,884.9 194.9,926 185.4,926 185.3,947.8 216.9,947.8 216.2,987.2 206.2,987.3 205.8,1020.6 
		216.1,1020.5 216.2,1103.2 206.5,1103.2 206.3,1136.5 216.7,1136.6 216.6,1177.7 217.2,1218.6 206.6,1219 206.6,1252.5 
		216.4,1252.7 216.5,1268.2 275.6,1268 275.5,1253 285.9,1252.7 285.6,1235.9 344.8,1235.9 344.9,1221.6 391.6,1221.6 391.8,1234 
		420.8,1233.8 420.5,1221.7 514.3,1221.8 514.8,1233.3 543.2,1233.4 543.1,1221.4 588.3,1221 588.8,1221 588.6,1193.2 570.7,1193.3 
		570.5,1174.4 543.7,1174.2 543.6,1193.1 521.4,1192.7 521.2,1134.3 503,1134.2 502.7,1193.9 420.6,1193.2 420.6,1179 391.7,1178.9 
		391.6,1192.9 275,1193.3 275.4,1161.3 240.5,1161.2 240.4,1121.8 251.3,1121.6 251.4,1106 251.4,1089.3 240.4,1089.5 240.4,1051.2 
		251.6,1051.2 251.5,1035 240.2,1035.2 240.3,996.8 251.4,996.8 251,979.7 240.3,979.5 240.2,942.3 251.4,942.3 251.2,926.4 
		240.4,926.2 240.2,877.8 239.6,877.4 239.6,842.6 271.4,842.5 271.3,837 287.6,836.8 287.6,861.4 301.9,861.2 302,831.2 
		319.8,831.2 319.8,845.7 345.8,845.7 345.9,845.5 368.6,845.8 368.5,818.6 379,818.4 378.9,805.5 368.8,805.4 368.9,727.3 
		405.1,727.4 405,737.8 439.4,737.6 439.5,727.1 478.9,727.7 510.4,727.8 510.3,737.9 544.2,737.9 544.3,727.2 587,727.1 
		587.6,727.1 	"/>
</g>
<g id="PATIO_B">
	<polygon class="st2" points="588.9,1071.7 588.4,873.3 368.5,873.5 368.4,874.3 346.6,874.3 346.6,885.6 346.6,996.8 346,1051.3 
		346.1,1105.9 345.7,1107.3 404.1,1107 404.4,1106.8 587,1106.8 588.9,1071.7 	"/>
</g>
<g id="Aulas_B">
	<polygon class="st6" points="465.9,1193.7 465.9,1151 502.9,1150.8 502.8,1165.9 502.7,1193.7 	"/>
	<polygon class="st7" points="587.4,727.1 544.4,727.2 544.3,738 528.2,738 528.3,873.7 588.6,873.4 	"/>
	<polygon class="st7" points="478.8,727.6 510.3,727.7 510.3,738 528.2,738 528.3,873.7 478.3,873.2 	"/>
	<polygon class="st7" points="423.6,737.6 439.3,737.6 439.5,727.1 478.8,727.6 478.3,873.2 423.7,873.3 	"/>
	<polygon class="st6" points="320,861.2 317.6,861.2 287.6,861.2 287.6,836.7 271.3,836.8 271.3,838.8 271.3,861.2 271.3,861.2 
		271.3,877.5 271.3,877.5 271.3,877.5 271.3,877.5 320.1,877.5 	"/>
	
		<rect x="239.6" y="842.6" transform="matrix(-1 -1.224647e-16 1.224647e-16 -1 511.056 1720.1293)" class="st7" width="31.9" height="35"/>
	
		<rect x="254.1" y="836.7" transform="matrix(-1.836970e-16 1 -1 -1.836970e-16 1099.174 588.7655)" class="st7" width="2.2" height="14.6"/>
	<g>
		
			<rect x="301.9" y="863.5" transform="matrix(-1 -1.224647e-16 1.224647e-16 -1 621.7374 1731.5483)" class="st9" width="17.8" height="4.6"/>
		
			<rect x="301.9" y="858.8" transform="matrix(-1 -1.224647e-16 1.224647e-16 -1 621.7374 1722.3053)" class="st10" width="17.8" height="4.6"/>
		
			<rect x="301.9" y="854.2" transform="matrix(-1 -1.224647e-16 1.224647e-16 -1 621.7374 1713.0623)" class="st11" width="17.8" height="4.6"/>
		
			<rect x="301.9" y="849.6" transform="matrix(-1 -1.224647e-16 1.224647e-16 -1 621.7374 1703.8192)" class="st12" width="17.8" height="4.6"/>
		
			<rect x="301.9" y="845" transform="matrix(-1 -1.224647e-16 1.224647e-16 -1 621.7374 1694.5762)" class="st13" width="17.8" height="4.6"/>
		
			<rect x="301.9" y="840.4" transform="matrix(-1 -1.224647e-16 1.224647e-16 -1 621.7374 1685.3331)" class="st14" width="17.8" height="4.6"/>
		
			<rect x="301.9" y="835.7" transform="matrix(-1 -1.224647e-16 1.224647e-16 -1 621.7374 1676.0901)" class="st15" width="17.8" height="4.6"/>
		
			<rect x="301.9" y="831.1" transform="matrix(-1 -1.224647e-16 1.224647e-16 -1 621.7374 1666.847)" class="st15" width="17.8" height="4.6"/>
	</g>
	<g>
		<g>
			<path class="st19" d="M276.6,864.8c-0.3,0-0.6,0-0.9,0c-0.3,0-0.6-0.2-0.6-0.5c-0.1-0.3,0-0.6,0.3-0.7c0.1-0.1,0.3-0.1,0.4-0.1
				c0.8,0,1.7,0,2.5,0c0.4,0,0.7,0.3,0.7,0.7c0,0.8,0,1.7,0,2.5c0,0.4-0.3,0.7-0.7,0.7c-0.4,0-0.6-0.3-0.6-0.7c0-0.3,0-0.6,0-0.9
				c0,0,0,0,0,0c-0.1,0.1-0.2,0.1-0.2,0.2c-0.8,0.8-1.6,1.6-2.5,2.5c-0.2,0.2-0.4,0.3-0.6,0.2c-0.2,0-0.4-0.2-0.5-0.4
				c-0.1-0.2,0-0.5,0.1-0.7c0.6-0.6,1.2-1.2,1.9-1.9C276.1,865.4,276.3,865.1,276.6,864.8C276.6,864.8,276.6,864.8,276.6,864.8z"/>
			<path class="st19" d="M278.5,872c0,0.2,0,0.4,0,0.6c0,0.8,0,1.5,0,2.3c0,0.4-0.3,0.7-0.7,0.7c-1.1,0-2.2,0-3.3,0
				c-0.4,0-0.7-0.3-0.7-0.6c0-0.4,0.3-0.7,0.7-0.7c0.8,0,1.6,0,2.5,0c0.1,0,0.2,0,0.3,0c0-0.1,0-0.2,0-0.2c0-0.9,0-1.8,0-2.6
				c0-0.5,0.2-0.8,0.8-0.8c0.9,0,1.7,0,2.6,0c0.1,0,0.2,0,0.3,0c0-0.1,0-0.2,0-0.2c0-0.8,0-1.7,0-2.5c0-0.5,0.2-0.8,0.8-0.8
				c0.9,0,1.7,0,2.6,0c0.1,0,0.2,0,0.3,0c0-0.1,0-0.2,0-0.2c0-0.9,0-1.8,0-2.7c0-0.5,0.3-0.7,0.7-0.7c1.2,0,2.3,0,3.5,0
				c0.4,0,0.7,0.3,0.7,0.6c0,0.4-0.3,0.7-0.7,0.7c-0.9,0-1.8,0-2.6,0c-0.1,0-0.2,0-0.3,0c0,0.1,0,0.2,0,0.3c0,0.9,0,1.8,0,2.7
				c0,0.5-0.2,0.8-0.8,0.8c-0.9,0-1.7,0-2.6,0c-0.1,0-0.2,0-0.3,0c0,0.1,0,0.2,0,0.3c0,0.8,0,1.7,0,2.5c0,0.5-0.2,0.8-0.8,0.8
				c-0.9,0-1.7,0-2.6,0C278.7,872,278.6,872,278.5,872z"/>
		</g>
	</g>
	
		<rect x="477.9" y="1166.7" transform="matrix(-1 -1.224647e-16 1.224647e-16 -1 980.4894 2360.4441)" class="st7" width="24.8" height="27.1"/>
	
		<rect x="489.9" y="1186.5" transform="matrix(-1.836970e-16 1 -1 -1.836970e-16 1683.5118 700.7162)" class="st7" width="3" height="11.3"/>
	<polygon class="st6" points="346.1,845.8 346,877.7 320,877.4 319.9,845.6 	"/>
	<polygon class="st6" points="368.7,845.8 368.6,873.5 345.9,873.3 345.8,845.6 	"/>
	<polygon class="st7" points="346.6,883.3 346.6,877.7 240.2,878.2 240.4,926.2 251.2,926.3 251.3,942.3 346.6,942.6 	"/>
	<polygon class="st7" points="240.2,979.6 251,979.6 251.3,996.8 346.6,996.5 346.6,942.3 240.2,942.3 	"/>
	<polygon class="st7" points="319.1,688.1 319.1,787.7 283.9,787.9 283.9,778.1 269.8,778.1 269.9,688.5 	"/>
	<polygon class="st7" points="255.2,787.9 255.2,778 269.8,778.1 269.9,688.5 221.1,688.9 221.2,788 	"/>
	<polygon class="st7" points="197.5,688.8 197.5,688.8 121.2,688.8 120.8,736.7 150.9,736.7 195.3,736.8 195.2,755.6 221.1,755.5 
		221.1,688.4 	"/>
	<polygon class="st7" points="121,834.6 120.8,736.7 195.2,737.4 195.2,776.2 174.6,776.2 174.7,804.6 195.2,804.4 195.4,834.4 	"/>
	<polygon class="st7" points="185.4,848.7 195.7,848.7 195.7,878 121,878 121,834.6 185.5,834.6 	"/>
	<polygon class="st7" points="161.4,878 121,878 121,947.4 161.8,947.4 185.3,947.5 185.4,926.1 195.2,926.1 195.7,878 	"/>
	<polygon class="st6" points="465.7,1107.3 465.9,1151 502.9,1150.8 503,1115.3 520.9,1115.3 521,1107.1 	"/>
	<polygon class="st7" points="521.4,1192.9 543.5,1193 543.6,1174.1 570.5,1174.4 570.8,1193.4 589.4,1193.3 589.1,1106.8 
		521,1107.1 	"/>
	<polygon class="st7" points="251.6,1051.4 251.6,1034.9 240.2,1035.1 240.2,996.8 346.6,996.8 346.1,1051.3 	"/>
	<polygon class="st7" points="346.2,1051.8 240.4,1051.3 240.3,1089.3 251.5,1089.2 251.6,1105 251.2,1105 251.3,1121.7 
		240.3,1121.7 240.4,1161.1 345.8,1161.3 346.2,1104.6 346.1,1104.6 	"/>
	<polygon class="st7" points="120.7,1004.2 121,947.4 216.8,947.8 216.3,987.3 206.2,987.3 206,1004 	"/>
	<polygon class="st7" points="216.2,1061.6 216.2,1020.4 205.8,1020.6 206,1004 120.7,1004.2 120,1061.6 	"/>
	<polygon class="st7" points="120,1061.6 216.2,1061.6 216.4,1103.3 206.4,1103.4 206.3,1119.7 120.5,1119.8 	"/>
	<polygon class="st7" points="216.6,1136.5 206.2,1136.5 206.3,1119.7 120.5,1119.8 120.4,1177.7 216.3,1177.9 	"/>
	<polygon class="st7" points="120.3,1235.8 206.6,1235.6 206.6,1218.9 217.2,1218.9 216.3,1177.9 120.4,1177.7 	"/>
	<polygon class="st7" points="120,1293.6 120.3,1235.8 206.6,1235.6 206.6,1252.6 216.5,1252.7 216.5,1293 	"/>
	<polygon class="st7" points="275.3,1268.1 216.8,1268.1 216.5,1293 120,1293.6 120.3,1307.7 143.6,1333.6 275.6,1333.6 	"/>
	<polygon class="st7" points="285.4,1235.9 285.5,1252.5 275.4,1252.7 275.6,1268.4 275.6,1333.6 344.2,1334 344.5,1235.8 	"/>
	<polygon class="st7" points="406.4,1333.6 344.2,1334 344.5,1235.8 344.8,1221.5 391.7,1221.8 391.8,1233.9 406.4,1234 	"/>
	<polygon class="st7" points="420.7,1221.6 420.7,1233.8 406.4,1234 406.4,1333.6 467.6,1333 467.2,1221.5 	"/>
	<polygon class="st7" points="529.4,1332.8 467.6,1333 467.2,1221.5 514.4,1221.6 514.6,1233.3 529.1,1233.4 	"/>
	<polygon class="st7" points="590,1221 543,1221.3 543.1,1233.5 529.1,1233.4 529.4,1332.8 589.2,1332.3 	"/>
	<g>
		
			<rect x="465.2" y="1140.6" transform="matrix(6.123234e-17 -1 1 6.123234e-17 -669.3583 1615.7339)" class="st9" width="15.9" height="4"/>
		
			<rect x="469.2" y="1140.6" transform="matrix(6.123234e-17 -1 1 6.123234e-17 -665.4009 1619.6913)" class="st10" width="15.9" height="4"/>
		
			<rect x="473.1" y="1140.6" transform="matrix(6.123234e-17 -1 1 6.123234e-17 -661.4434 1623.6488)" class="st11" width="15.9" height="4"/>
		
			<rect x="477.1" y="1140.6" transform="matrix(6.123234e-17 -1 1 6.123234e-17 -657.486 1627.6062)" class="st12" width="15.9" height="4"/>
		
			<rect x="481" y="1140.6" transform="matrix(6.123234e-17 -1 1 6.123234e-17 -653.5286 1631.5636)" class="st13" width="15.9" height="4"/>
		
			<rect x="485" y="1140.6" transform="matrix(6.123234e-17 -1 1 6.123234e-17 -649.5711 1635.5211)" class="st14" width="15.9" height="4"/>
		
			<rect x="489" y="1140.6" transform="matrix(6.123234e-17 -1 1 6.123234e-17 -645.6136 1639.4785)" class="st15" width="15.9" height="4"/>
		
			<rect x="492.9" y="1140.6" transform="matrix(6.123234e-17 -1 1 6.123234e-17 -641.6562 1643.436)" class="st15" width="15.9" height="4"/>
	</g>
	<g>
		<rect x="503.4" y="1115.3" class="st9" width="17.4" height="3.8"/>
		<rect x="503.4" y="1119.1" class="st10" width="17.4" height="3.8"/>
		<rect x="503.4" y="1122.9" class="st11" width="17.4" height="3.8"/>
		<rect x="503.4" y="1126.7" class="st12" width="17.4" height="3.8"/>
		<rect x="503.4" y="1130.5" class="st13" width="17.4" height="3.8"/>
	</g>
	<polygon class="st7" points="275,1193.2 275.2,1162.1 345.5,1161.9 345.4,1193.2 	"/>
	<polygon class="st7" points="407,1106.6 346.1,1106.4 345.2,1193.1 391.6,1193 391.6,1178.7 406.6,1178.9 	"/>
	<polygon class="st7" points="420.8,1193.3 420.5,1179.1 406.6,1178.9 407,1106.6 465.7,1107.3 465.9,1193.7 	"/>
	<polygon class="st7" points="423.6,737.6 405.1,737.8 405.1,727.4 368.8,727.4 368.7,805.5 423.7,805.5 	"/>
	<polygon class="st7" points="368.6,873.1 368.5,818.6 379,818.6 378.9,805.5 423.7,805.5 423.7,873.3 	"/>
</g>
<g id="Detalles_B">
	<path class="st7" d="M541,738l-9,0l0,10.4C532.1,748.5,541,748.5,541,738z"/>
	<path class="st7" d="M515.1,738.1l9-0.1l0,10.4C524.1,748.5,515.2,748.6,515.1,738.1z"/>
	<path class="st7" d="M436.4,737.6l-9,0l0,10.4C427.5,748,436.4,748.1,436.4,737.6z"/>
	<path class="st6" d="M331.8,845.6l-9,0l0,10.4C322.8,856,331.7,856,331.8,845.6z"/>
	<path class="st6" d="M356.1,845.6l9,0l0,10.4C365,856,356.1,856.1,356.1,845.6z"/>
	<path class="st7" d="M410.5,737.7l9-0.1l0,10.4C419.5,748.1,410.6,748.2,410.5,737.7z"/>
	<path class="st7" d="M257.5,778l9,0l0-10.4C266.4,767.6,257.5,767.5,257.5,778z"/>
	<path class="st7" d="M282.4,777.9l-9,0.1l0-10.4C273.4,767.5,282.2,767.4,282.4,777.9z"/>
	<path class="st7" d="M207.6,755.3l-9,0.1l0-10.4C198.6,744.9,207.5,744.8,207.6,755.3z"/>
	<path class="st7" d="M208.9,755.2l9,0.1l0-10.4C217.9,744.8,209,744.7,208.9,755.2z"/>
	<path class="st7" d="M185.3,932.1l0.1,9l-10.4,0C175,941.1,174.9,932.2,185.3,932.1z"/>
	<path class="st7" d="M174.7,785.9l0.1,9l-10.4,0C164.4,794.9,164.3,786,174.7,785.9z"/>
	<path class="st7" d="M182.4,776l9,0.1l0-10.4C191.4,765.6,182.6,765.5,182.4,776z"/>
	<path class="st7" d="M185.4,846.7l0.1-9l-10.4,0C175,837.7,174.9,846.6,185.4,846.7z"/>
	<path class="st7" d="M251.3,929.6l0.1,9l10.4-0.1C261.7,938.4,261.7,929.6,251.3,929.6z"/>
	<path class="st7" d="M251.1,983.8l0.1,9l10.4-0.1C261.6,992.7,261.6,983.8,251.1,983.8z"/>
	<path class="st7" d="M251.6,1038.4l0.1,9l10.4-0.1C262,1047.2,262,1038.4,251.6,1038.4z"/>
	<path class="st7" d="M251.5,1106.1l0.1,9l10.4-0.1C262,1115,262,1106.1,251.5,1106.1z"/>
	<path class="st7" d="M205.9,1016.9l0-9l-10.4,0C195.5,1007.9,195.4,1016.8,205.9,1016.9z"/>
	<path class="st7" d="M205.9,991.3l0,9l-10.4,0C195.5,1000.3,195.4,991.4,205.9,991.3z"/>
	<path class="st7" d="M206.3,1132.8l0-9l-10.4,0C195.9,1123.8,195.9,1132.7,206.3,1132.8z"/>
	<path class="st7" d="M206.3,1107.2l0,9l-10.4,0C195.9,1116.2,195.9,1107.3,206.3,1107.2z"/>
	<path class="st7" d="M206.3,1248.4l0-9l-10.4,0C195.9,1239.5,195.9,1248.4,206.3,1248.4z"/>
	<path class="st7" d="M206.3,1222.9l0,9l-10.4,0C195.9,1231.8,195.9,1223,206.3,1222.9z"/>
	<path class="st7" d="M419.2,1234l-9,0l0,10.4C410.2,1244.4,419.1,1244.5,419.2,1234z"/>
	<path class="st7" d="M393.6,1234l9,0l0,10.4C402.6,1244.4,393.7,1244.5,393.6,1234z"/>
	<path class="st7" d="M541.7,1233.4l-9,0l0,10.4C532.7,1243.8,541.6,1243.9,541.7,1233.4z"/>
	<path class="st7" d="M516.1,1233.4l9,0l0,10.4C525.1,1243.8,516.2,1243.9,516.1,1233.4z"/>
	<path class="st7" d="M393.6,1178.9l9,0l0-10.4C402.5,1168.5,393.7,1168.4,393.6,1178.9z"/>
	<path class="st7" d="M418.9,1179l-9-0.2l0.2-10.4C410.1,1168.4,419,1168.5,418.9,1179z"/>
	<path class="st7" d="M285.8,1249.2l0-9l10.4,0C296.2,1240.2,296.3,1249.1,285.8,1249.2z"/>
	<path class="st7" d="M275.1,1181.1l0,9l10.4,0C285.5,1190,285.5,1181.1,275.1,1181.1z"/>
	<path class="st7" d="M229.3,1268.1l-9,0l0,10.4C220.3,1278.5,229.2,1278.5,229.3,1268.1z"/>
	<path class="st7" d="M251.5,1104.8l0-9l10.4,0C261.9,1095.8,262,1104.7,251.5,1104.8z"/>
	<path class="st7" d="M379,817l-0.1-9l10.4,0C389.4,808,389.5,816.9,379,817z"/>
	<g>
		
			<rect x="561.2" y="716.7" transform="matrix(-1.836970e-16 1 -1 -1.836970e-16 1288.1626 149.1564)" class="st18" width="16.7" height="3.9"/>
		
			<rect x="557.3" y="716.7" transform="matrix(-1.836970e-16 1 -1 -1.836970e-16 1284.2659 153.0532)" class="st18" width="16.7" height="3.9"/>
		
			<rect x="553.4" y="716.7" transform="matrix(-1.836970e-16 1 -1 -1.836970e-16 1280.369 156.95)" class="st18" width="16.7" height="3.9"/>
	</g>
	<g>
		<rect x="196.6" y="864.7" class="st18" width="24.8" height="3.9"/>
		<rect x="196.6" y="868.6" class="st18" width="24.8" height="3.9"/>
		<rect x="196.6" y="872.5" class="st18" width="24.8" height="3.9"/>
	</g>
	
		<linearGradient id="SVGID_1_" gradientUnits="userSpaceOnUse" x1="714.4846" y1="834.4894" x2="788.9255" y2="834.4894" gradientTransform="matrix(-1 0 0 -1 1285.9362 1537.5745)">
		<stop  offset="0" style="stop-color:#C4C4C3"/>
		<stop  offset="1" style="stop-color:#6B6B6A"/>
	</linearGradient>
	<polygon class="st20" points="571.5,695.9 497,695.9 497,710.2 571.5,710.2 	"/>
	
		<linearGradient id="SVGID_00000181799150649313864820000010105548276328449921_" gradientUnits="userSpaceOnUse" x1="1030.442" y1="665.3481" x2="1071.2369" y2="665.3481" gradientTransform="matrix(0 1 -1 0 897.6566 -194.9178)">
		<stop  offset="0" style="stop-color:#C4C4C3"/>
		<stop  offset="1" style="stop-color:#6B6B6A"/>
	</linearGradient>
	
		<polygon style="fill:url(#SVGID_00000181799150649313864820000010105548276328449921_);stroke:#000000;stroke-width:0.5;stroke-miterlimit:10;" points="
		224.8,835.5 224.8,876.3 239.8,876.3 239.8,835.5 	"/>
	
		<linearGradient id="SVGID_00000056414587262344061110000000887873989267755921_" gradientUnits="userSpaceOnUse" x1="812.0165" y1="834.4894" x2="904.5851" y2="834.4894" gradientTransform="matrix(-1 0 0 -1 1285.9362 1537.5745)">
		<stop  offset="0" style="stop-color:#6B6B6A"/>
		<stop  offset="1" style="stop-color:#353535"/>
	</linearGradient>
	
		<polygon style="fill:url(#SVGID_00000056414587262344061110000000887873989267755921_);stroke:#000000;stroke-width:0.5;stroke-miterlimit:10;" points="
		473.9,695.9 381.4,695.9 381.4,710.2 473.9,710.2 	"/>
	
		<linearGradient id="SVGID_00000098909372222781230470000003818908168320435854_" gradientUnits="userSpaceOnUse" x1="789.0378" y1="834.4894" x2="811.6489" y2="834.4894" gradientTransform="matrix(-1 0 0 -1 1285.9362 1537.5745)">
		<stop  offset="0" style="stop-color:#70706F"/>
		<stop  offset="1" style="stop-color:#6A6A69"/>
	</linearGradient>
	
		<polygon style="fill:url(#SVGID_00000098909372222781230470000003818908168320435854_);stroke:#000000;stroke-width:0.5;stroke-miterlimit:10;" points="
		496.9,695.9 474.3,695.9 474.3,710.2 496.9,710.2 	"/>
	
		<rect x="200.5" y="852.2" transform="matrix(6.123234e-17 -1 1 6.123234e-17 -630.617 1076.8298)" class="st6" width="45.2" height="3.1"/>
	
		<rect x="230.6" y="797.5" transform="matrix(6.123234e-17 -1 1 6.123234e-17 -557.3511 1039.6063)" class="st6" width="21.1" height="2"/>
	
		<rect x="232.2" y="832.7" transform="matrix(6.123234e-17 -1 1 6.123234e-17 -592.5851 1074.8405)" class="st6" width="17.9" height="2"/>
	<path class="st17" d="M240,819.5l-0.1,9l10.4,0C250.4,828.5,250.5,819.6,240,819.5z"/>
	<path class="st17" d="M240.2,818.7l-0.1-9l10.4,0C250.5,809.7,250.6,818.6,240.2,818.7z"/>
</g>
<g id="Corre_C">
	<polygon class="st5" points="616.8,540.3 587.2,540 587.2,585 588,610 587.6,695 587.4,727 587.8,760.7 587.9,824 632.7,823.7 
		632.6,833.6 658,833.3 657.9,806.7 720.9,807 720.7,818.2 749.4,818.7 749.6,806.6 784.4,806.9 784.6,777.4 833.3,777.3 
		884.8,777.1 885.1,742.3 897.6,742.1 898,716.9 885.6,716.9 885.9,684.3 924.2,684.7 924.2,778 999.1,778.1 999.7,699.6 
		1012.5,699.5 1012.4,684.9 999.2,685 1000,535.2 993.4,535.3 970.3,535.3 970.2,555.9 970.2,580.5 970.2,597.6 970.5,646.3 
		970.5,659.9 923.8,659.8 923.3,660.2 869.2,660.1 868.9,695.6 868.9,753.4 827.5,753.1 827.6,742.5 801.8,742.4 801.7,753.7 
		760.2,753.3 760.2,742.2 747.8,742.3 747.8,753.4 698.5,753.4 698.6,659.2 698.2,582 686.8,582 686.8,539.9 668.8,539.7 
		668.5,590.9 642.7,591 616.7,591 	"/>
</g>
<g id="Aulas_C">
	
		<rect x="616.8" y="565.4" transform="matrix(-1 -1.224647e-16 1.224647e-16 -1 1259.611 1156.4362)" class="st7" width="26" height="25.6"/>
	
		<rect x="629" y="583.1" transform="matrix(-1.836970e-16 1 -1 -1.836970e-16 1219.7979 -40.3511)" class="st7" width="2.2" height="13.3"/>
	<g>
		<g>
			<path class="st19" d="M646.3,864.1c-0.2,0-0.4,0-0.6,0c-0.2,0-0.4-0.1-0.4-0.3c0-0.2,0-0.4,0.2-0.5c0.1,0,0.2-0.1,0.2-0.1
				c0.5,0,1.1,0,1.6,0c0.3,0,0.4,0.2,0.4,0.4c0,0.5,0,1.1,0,1.6c0,0.3-0.2,0.4-0.4,0.4c-0.2,0-0.4-0.2-0.4-0.4c0-0.2,0-0.4,0-0.6
				c0,0,0,0,0,0c-0.1,0.1-0.1,0.1-0.2,0.1c-0.5,0.5-1.1,1.1-1.6,1.6c-0.1,0.1-0.2,0.2-0.4,0.1c-0.2,0-0.3-0.1-0.3-0.3
				c-0.1-0.2,0-0.3,0.1-0.4c0.4-0.4,0.8-0.8,1.2-1.2C645.9,864.5,646.1,864.3,646.3,864.1C646.3,864.1,646.3,864.1,646.3,864.1z"/>
			<path class="st19" d="M647.5,868.8c0,0.1,0,0.3,0,0.4c0,0.5,0,1,0,1.5c0,0.3-0.2,0.5-0.5,0.5c-0.7,0-1.4,0-2.2,0
				c-0.3,0-0.5-0.2-0.5-0.4c0-0.3,0.2-0.4,0.5-0.4c0.5,0,1.1,0,1.6,0c0.1,0,0.1,0,0.2,0c0-0.1,0-0.1,0-0.2c0-0.6,0-1.1,0-1.7
				c0-0.3,0.2-0.5,0.5-0.5c0.6,0,1.1,0,1.7,0c0,0,0.1,0,0.2,0c0-0.1,0-0.1,0-0.2c0-0.5,0-1.1,0-1.6c0-0.3,0.2-0.5,0.5-0.5
				c0.5,0,1.1,0,1.6,0c0,0,0.1,0,0.2,0c0-0.1,0-0.1,0-0.2c0-0.6,0-1.2,0-1.8c0-0.3,0.2-0.5,0.5-0.5c0.8,0,1.5,0,2.3,0
				c0.3,0,0.5,0.2,0.5,0.4c0,0.3-0.2,0.4-0.5,0.4c-0.6,0-1.1,0-1.7,0c-0.1,0-0.1,0-0.2,0c0,0.1,0,0.1,0,0.2c0,0.6,0,1.1,0,1.7
				c0,0.3-0.2,0.5-0.5,0.5c-0.5,0-1.1,0-1.6,0c-0.1,0-0.1,0-0.2,0c0,0.1,0,0.1,0,0.2c0,0.5,0,1.1,0,1.6c0,0.3-0.2,0.5-0.5,0.5
				c-0.6,0-1.1,0-1.7,0C647.6,868.8,647.6,868.8,647.5,868.8z"/>
		</g>
	</g>
	<polyline class="st6" points="616.9,539.9 616.8,565.4 642.8,565.4 642.8,591 668.5,590.9 668.7,539.7 616.9,539.9 	"/>
	<polygon class="st7" points="588.2,873.7 588.2,820.3 632.5,820.6 632.5,873.9 	"/>
	<polygon class="st2" points="618.2,613.8 669.6,613.6 669.6,666.4 617.4,666.2 	"/>
	<rect x="760.3" y="581.8" class="st2" width="108.6" height="78.3"/>
	<polygon class="st7" points="686.8,483.9 686.8,582 970,581.1 970.4,483.1 	"/>
	<polygon class="st7" points="1059,482.7 970.4,483.1 970.4,535.3 1000,535.3 1000,544.4 1058.8,544.8 	"/>
	<polygon class="st7" points="1059,660.2 999.5,660.2 999.6,641 1000,544.4 1058.8,544.8 	"/>
	<polygon class="st7" points="1058.7,777.1 998.8,777 999.6,699.6 1012.4,699.6 1012.4,685 999.2,685 999.5,660.2 1059,660.2 	"/>
	<polygon class="st7" points="868.9,660.1 868.9,753.1 827.5,753.1 827.6,742.5 814.8,742.4 814.6,660 	"/>
	<polygon class="st7" points="760.3,660.1 814.6,660 814.8,742.4 801.8,742.4 801.7,753.7 760.2,753.3 	"/>
	<polygon class="st7" points="698.5,660.2 760.3,660.1 760.2,742.2 747.8,742.3 747.8,753.4 698.5,753.4 	"/>
	<polygon class="st7" points="970,581.1 970.5,659.8 923.6,659.6 923.7,581.1 	"/>
	<polygon class="st7" points="657.5,833.1 657.4,806.5 720.4,806.5 720.2,818 735,818.2 734.7,873.6 657.5,873.9 	"/>
	<polygon class="st7" points="749.5,806.5 749.3,818.4 735,818.2 734.7,873.6 832.9,873.6 832.8,807.3 	"/>
	<polygon class="st6" points="833.1,777.1 832.8,807.3 784.2,807 784.6,776.9 	"/>
	<path class="st16" d="M698,621.8v-40h62.3v78.3l-61.9,0.1C698.5,660.2,698,621.7,698,621.8z"/>
	<path class="st16" d="M868.8,621.5v-40.3h54.7V660l-54.3,0.1C869.1,660.1,868.8,621.3,868.8,621.5z"/>
	<polygon class="st7" points="924.2,684.7 886.1,684.2 885.9,716.6 897.9,716.6 897.9,742 885.1,742 885.4,777.1 924.2,777.1 	"/>
	<rect x="832.9" y="777.2" class="st6" width="220.4" height="96.4"/>
</g>
<g id="Detalles_C">
	<path class="st16" d="M882.1,659.9l-8.9,0l0-10.3C873.2,649.6,882,649.5,882.1,659.9z"/>
	<path class="st16" d="M698.1,600.9l0-8.9l10.3,0C708.4,592,708.4,600.8,698.1,600.9z"/>
	<path class="st7" d="M687.1,506.3l0-9.5l11,0C698.1,496.8,698.2,506.2,687.1,506.3z"/>
	<path class="st7" d="M687.1,507.2l0,9.5l11,0C698.1,516.7,698.2,507.3,687.1,507.2z"/>
	<path class="st7" d="M970.1,566.6l0,9.5l-11,0C959.1,576.1,959,566.7,970.1,566.6z"/>
	<path class="st7" d="M970.1,565.7l0-9.5l-11,0C959.1,556.2,959,565.6,970.1,565.7z"/>
	<path class="st7" d="M984.9,535.3l-9.5,0l0-11C975.4,524.3,984.8,524.2,984.9,535.3z"/>
	<path class="st7" d="M985.7,535.3l9.5,0l0-11C995.2,524.3,985.8,524.2,985.7,535.3z"/>
	<path class="st7" d="M999.7,643.9l0-9.5l11,0C1010.7,634.4,1010.8,643.8,999.7,643.9z"/>
	<path class="st7" d="M970,645.9l0,9.5l-11,0C959,655.4,959,646,970,645.9z"/>
	<path class="st7" d="M825.9,742.4l-8.7,0l0-10.1C817.1,732.3,825.8,732.2,825.9,742.4z"/>
	<path class="st7" d="M723.7,818.1l8.7,0.1l-0.2,10.1C732.3,828.3,723.7,828.3,723.7,818.1z"/>
	<path class="st7" d="M632.3,830.1l0.1-7.1l-8.2-0.1C624.2,822.9,624.1,830,632.3,830.1z"/>
	<path class="st7" d="M746.5,818.4l-8.7-0.2l-0.2,10.1C737.6,828.4,746.2,828.6,746.5,818.4z"/>
	<path class="st6" d="M784.1,799.7l0-10.5l12.2,0C796.3,789.2,796.4,799.6,784.1,799.7z"/>
	<path class="st7" d="M803.5,742.2l8.7,0l0-10.1C812.3,732.1,803.6,732,803.5,742.2z"/>
	<path class="st7" d="M749.2,742.2l8.7,0l0-10.1C758,732.1,749.3,732,749.2,742.2z"/>
	<path class="st7" d="M895.8,716.5l-7.5,0l0-8.7C888.3,707.8,895.8,707.7,895.8,716.5z"/>
	<path class="st7" d="M897.9,733.1l0-7.5l8.7,0C906.6,725.6,906.7,733,897.9,733.1z"/>
	<path class="st7" d="M887.9,742.2l7.5,0l0,8.7C895.4,750.9,888,751,887.9,742.2z"/>
	<path class="st7" d="M999.7,644.7l0,9.5l11,0C1010.7,654.2,1010.8,644.8,999.7,644.7z"/>
	<path class="st7" d="M999.7,672l0-9.5l11,0C1010.7,662.6,1010.8,672,999.7,672z"/>
	<path class="st7" d="M999.7,672.9l0,9.5l11,0C1010.7,682.4,1010.8,673,999.7,672.9z"/>
	<g>
		<rect x="591.9" y="749.1" class="st18" width="21.2" height="3.9"/>
		<rect x="591.9" y="753" class="st18" width="21.2" height="3.9"/>
		<rect x="591.9" y="756.9" class="st18" width="21.2" height="3.9"/>
	</g>
	<g>
		
			<rect x="946.3" y="670.3" transform="matrix(6.123234e-17 -1 1 6.123234e-17 285.3144 1630.2388)" class="st18" width="23" height="4.3"/>
		
			<rect x="950.5" y="670.3" transform="matrix(6.123234e-17 -1 1 6.123234e-17 289.5697 1634.4941)" class="st18" width="23" height="4.3"/>
		
			<rect x="954.8" y="670.3" transform="matrix(6.123234e-17 -1 1 6.123234e-17 293.825 1638.7495)" class="st18" width="23" height="4.3"/>
	</g>
	
		<linearGradient id="SVGID_00000051342442086670502250000004870200826034076067_" gradientUnits="userSpaceOnUse" x1="615.3085" y1="768.7872" x2="670.6277" y2="768.7872" gradientTransform="matrix(-1 0 0 -1 1285.9362 1537.5745)">
		<stop  offset="0" style="stop-color:#C4C4C3"/>
		<stop  offset="1" style="stop-color:#4D4D4C"/>
	</linearGradient>
	
		<polygon style="fill:url(#SVGID_00000051342442086670502250000004870200826034076067_);stroke:#000000;stroke-width:0.5;stroke-miterlimit:10;" points="
		670.6,761.4 615.3,761.4 615.3,776.2 670.6,776.2 	"/>
	
		<linearGradient id="SVGID_00000168805194948459726450000010357911892850571670_" gradientUnits="userSpaceOnUse" x1="306.3723" y1="799.8192" x2="361.6915" y2="799.8192" gradientTransform="matrix(0 1 -1 0 1735.5 397.4787)">
		<stop  offset="0" style="stop-color:#C4C4C3"/>
		<stop  offset="1" style="stop-color:#686867"/>
	</linearGradient>
	
		<polygon style="fill:url(#SVGID_00000168805194948459726450000010357911892850571670_);stroke:#000000;stroke-width:0.5;stroke-miterlimit:10;" points="
		924.6,703.9 924.6,759.2 946.8,759.2 946.8,703.9 	"/>
	
		<linearGradient id="SVGID_00000090269726716465174040000002736084699866437552_" gradientUnits="userSpaceOnUse" x1="306.3723" y1="779.1277" x2="361.6915" y2="779.1277" gradientTransform="matrix(0 -1 1 0 178.3511 1065.5426)">
		<stop  offset="0" style="stop-color:#717170"/>
		<stop  offset="0.376" style="stop-color:#535352"/>
		<stop  offset="1" style="stop-color:#4D4D4C"/>
	</linearGradient>
	
		<polygon style="fill:url(#SVGID_00000090269726716465174040000002736084699866437552_);stroke:#000000;stroke-width:0.5;stroke-miterlimit:10;" points="
		967.1,759.2 967.1,703.9 947.9,703.9 947.9,759.2 	"/>
	
		<linearGradient id="SVGID_00000102504318046133779840000007921705612258553513_" gradientUnits="userSpaceOnUse" x1="321.5638" y1="781.2128" x2="363.6915" y2="781.2128" gradientTransform="matrix(-1 0 0 -1 1288.7446 1549.0638)">
		<stop  offset="0" style="stop-color:#7C7C7B"/>
		<stop  offset="0.957" style="stop-color:#626261"/>
	</linearGradient>
	
		<polygon style="fill:url(#SVGID_00000102504318046133779840000007921705612258553513_);stroke:#000000;stroke-width:0.5;stroke-miterlimit:10;" points="
		967.2,759.3 925.1,759.3 925.1,776.4 967.2,776.4 	"/>
	
		<rect x="615" y="777.1" transform="matrix(-1 -1.224647e-16 1.224647e-16 -1 1398.1915 1556.9788)" class="st6" width="168.3" height="2.7"/>
	<polyline class="st8" points="587.3,760.8 615.3,760.7 615.4,777.1 	"/>
	<polyline class="st8" points="967.8,685.1 947.3,685.1 947.3,759.2 	"/>
	<line class="st8" x1="967.8" y1="704" x2="967.8" y2="776.9"/>
	<polygon class="st6" points="665.8,691 618.9,690.8 618.9,751 668.3,751 668.2,691 	"/>
	<g>
		
			<rect x="619.9" y="723.7" transform="matrix(-1 -1.224647e-16 1.224647e-16 -1 1261.6493 1452.1018)" class="st9" width="21.9" height="4.6"/>
		
			<rect x="619.9" y="719.1" transform="matrix(-1 -1.224647e-16 1.224647e-16 -1 1261.6493 1442.8588)" class="st10" width="21.9" height="4.6"/>
		
			<rect x="619.9" y="714.5" transform="matrix(-1 -1.224647e-16 1.224647e-16 -1 1261.6493 1433.6157)" class="st11" width="21.9" height="4.6"/>
		
			<rect x="619.9" y="709.9" transform="matrix(-1 -1.224647e-16 1.224647e-16 -1 1261.6493 1424.3727)" class="st12" width="21.9" height="4.6"/>
		
			<rect x="619.9" y="705.3" transform="matrix(-1 -1.224647e-16 1.224647e-16 -1 1261.6493 1415.1295)" class="st13" width="21.9" height="4.6"/>
		
			<rect x="619.9" y="700.6" transform="matrix(-1 -1.224647e-16 1.224647e-16 -1 1261.6493 1405.8865)" class="st14" width="21.9" height="4.6"/>
		
			<rect x="619.9" y="696" transform="matrix(-1 -1.224647e-16 1.224647e-16 -1 1261.6493 1396.6434)" class="st15" width="21.9" height="4.6"/>
		
			<rect x="619.9" y="691.4" transform="matrix(-1 -1.224647e-16 1.224647e-16 -1 1261.6493 1387.4004)" class="st15" width="21.9" height="4.6"/>
	</g>
	<g>
		
			<rect x="983.3" y="769.5" transform="matrix(-1 -1.224647e-16 1.224647e-16 -1 1981.8514 1545.8499)" class="st9" width="15.2" height="6.9"/>
		
			<rect x="983.3" y="762.6" transform="matrix(-1 -1.224647e-16 1.224647e-16 -1 1981.8514 1532.1053)" class="st10" width="15.2" height="6.9"/>
		
			<rect x="983.3" y="755.7" transform="matrix(-1 -1.224647e-16 1.224647e-16 -1 1981.8514 1518.3608)" class="st11" width="15.2" height="6.9"/>
		
			<rect x="983.3" y="748.9" transform="matrix(-1 -1.224647e-16 1.224647e-16 -1 1981.8514 1504.6163)" class="st12" width="15.2" height="6.9"/>
		
			<rect x="983.3" y="742" transform="matrix(-1 -1.224647e-16 1.224647e-16 -1 1981.8514 1490.8718)" class="st13" width="15.2" height="6.9"/>
		
			<rect x="983.3" y="735.1" transform="matrix(-1 -1.224647e-16 1.224647e-16 -1 1981.8514 1477.1273)" class="st14" width="15.2" height="6.9"/>
		
			<rect x="983.3" y="728.3" transform="matrix(-1 -1.224647e-16 1.224647e-16 -1 1981.8514 1463.3828)" class="st15" width="15.2" height="6.9"/>
		
			<rect x="983.3" y="721.4" transform="matrix(-1 -1.224647e-16 1.224647e-16 -1 1981.8514 1449.6383)" class="st15" width="15.2" height="6.9"/>
	</g>
	<polygon class="st6" points="656.3,833.1 632.5,833.1 632.5,873.9 657.5,873.9 657.5,833.1 	"/>
	<g>
		
			<rect x="632.9" y="856.8" transform="matrix(-1 -1.224647e-16 1.224647e-16 -1 1277.3021 1716.8916)" class="st9" width="11.5" height="3.3"/>
		
			<rect x="632.9" y="853.5" transform="matrix(-1 -1.224647e-16 1.224647e-16 -1 1277.3021 1710.2501)" class="st10" width="11.5" height="3.3"/>
		
			<rect x="632.9" y="850.1" transform="matrix(-1 -1.224647e-16 1.224647e-16 -1 1277.3021 1703.6085)" class="st11" width="11.5" height="3.3"/>
		
			<rect x="632.9" y="846.8" transform="matrix(-1 -1.224647e-16 1.224647e-16 -1 1277.3021 1696.967)" class="st12" width="11.5" height="3.3"/>
		
			<rect x="632.9" y="843.5" transform="matrix(-1 -1.224647e-16 1.224647e-16 -1 1277.3021 1690.3256)" class="st13" width="11.5" height="3.3"/>
		
			<rect x="632.9" y="840.2" transform="matrix(-1 -1.224647e-16 1.224647e-16 -1 1277.3021 1683.6841)" class="st14" width="11.5" height="3.3"/>
		
			<rect x="632.9" y="836.9" transform="matrix(-1 -1.224647e-16 1.224647e-16 -1 1277.3021 1677.0426)" class="st15" width="11.5" height="3.3"/>
		
			<rect x="632.9" y="833.5" transform="matrix(-1 -1.224647e-16 1.224647e-16 -1 1277.3021 1670.4011)" class="st15" width="11.5" height="3.3"/>
	</g>
</g>
<g id="REF_FIJA">
	<rect x="526.6" y="324.4" class="st28" width="44.8" height="45.6"/>
	<g>
		<polygon class="st29" points="312,53.5 323.7,60.3 323.7,46.7 		"/>
		
			<rect x="328.3" y="46.4" transform="matrix(6.123234e-17 -1 1 6.123234e-17 276.1864 383.2397)" class="st29" width="2.8" height="14.2"/>
	</g>
	<g>
		<polygon class="st29" points="51.8,295.3 45,307.1 58.6,307.1 		"/>
		<rect x="50.4" y="305.9" class="st29" width="2.8" height="14.2"/>
	</g>
	<g>
		<polygon class="st29" points="51.8,877.5 45,889.2 58.6,889.2 		"/>
		<rect x="50.4" y="888.1" class="st29" width="2.8" height="14.2"/>
	</g>
	<g>
		<polygon class="st29" points="879.8,47.9 891.6,54.7 891.6,41.1 		"/>
		
			<rect x="896.2" y="40.8" transform="matrix(6.123234e-17 -1 1 6.123234e-17 849.6332 945.4525)" class="st29" width="2.8" height="14.2"/>
	</g>
	<g>
		<text transform="matrix(0.9999 -1.108000e-02 1.108000e-02 0.9999 499.3037 60.643)" class="st30 st31 st32">MARIO BRAVO</text>
	</g>
	<g>
		<text transform="matrix(1 2.690000e-03 -2.690000e-03 1 540.9133 1398.1743)" class="st30 st31 st32">CHILE</text>
	</g>
	<g>
		<text transform="matrix(8.890000e-03 -1 1 8.890000e-03 66.7469 614.5089)" class="st30 st31 st33">ISLETA</text>
	</g>
	<g>
		<text transform="matrix(-1.040000e-03 -1 1 -1.040000e-03 1120.8053 767.79)" class="st30 st31 st32">PASO DE LA PATRIA</text>
	</g>
	<g>
		<path d="M557.1,352.9c-1.1,0-2.1,0-3.2,0c1.2-4.2,2.4-8.4,3.6-12.6c-0.4-0.2-0.6-0.2-0.8,0.3c-0.6,2.1-1.3,4.2-1.9,6.2
			c-0.1,0.4-0.3,0.8-0.5,1.1c-0.3,0.4-0.8,0.5-1.3,0.2c-0.5-0.3-0.6-0.6-0.5-1.2c0.8-2.7,1.5-5.5,2.3-8.2c0.4-1.3,1.2-2.2,2.6-2.3
			c1.8-0.1,3.6-0.2,5.4,0c1.5,0.1,2.2,1.3,2.7,2.6c0.7,2.5,1.5,5,2.2,7.4c0.3,0.9,0.1,1.5-0.5,1.7c-0.7,0.2-1.4-0.2-1.7-1
			c-0.6-1.9-1.2-3.9-1.8-5.8c-0.1-0.4-0.3-0.8-0.4-1.3c-0.2,0-0.3,0.1-0.5,0.1c1.2,4.2,2.5,8.4,3.7,12.6c-1.1,0-2.2,0-3.3,0
			c0,0.2,0,0.4,0,0.6c0,2.9,0,5.7,0,8.6c0,0.3,0,0.6-0.1,0.9c-0.1,0.7-0.5,1-1.2,1c-0.7,0-1.2-0.3-1.3-1c-0.1-0.3-0.1-0.6-0.1-1
			c0-2.9,0-5.8,0-8.7c0-0.3,0-0.6-0.5-0.4c0,0.2,0,0.4,0,0.6c0,2.9,0,5.7,0,8.6c0,0.4,0,0.8-0.2,1.1c-0.2,0.6-0.7,0.9-1.3,0.8
			c-0.6-0.1-1-0.4-1.1-1.1c-0.1-0.3-0.1-0.7-0.1-1c0-2.8,0-5.6,0-8.3C557.1,353.3,557.1,353.1,557.1,352.9z"/>
		<path d="M542.3,340.9c-0.3,0-0.5,0-0.8,0c0,0.2,0,0.4,0,0.6c0.1,6.7,0.1,13.3,0.2,20c0,0.4,0,0.9-0.1,1.3c-0.1,0.7-0.5,1-1.2,1
			c-0.8,0.1-1.4-0.2-1.6-0.9c-0.1-0.4-0.2-0.8-0.2-1.2c0-3.8-0.1-7.7-0.1-11.5c0-0.2,0-0.3,0-0.5c-0.2,0-0.4,0-0.6,0
			c0,0.2,0,0.5,0,0.7c0,3.7,0.1,7.5,0.1,11.2c0,0.5,0,1-0.2,1.4c-0.1,0.6-0.6,0.8-1.3,0.8c-0.7,0-1.2-0.3-1.3-0.8
			c-0.1-0.4-0.2-0.9-0.2-1.4c-0.1-6.7-0.1-13.5-0.1-20.2c0-0.4,0-0.8-0.6-0.5c0,0.2,0,0.3,0,0.5c0,2.1,0,4.2,0,6.3
			c0,0.4,0,0.8-0.1,1.2c-0.1,0.6-0.5,0.9-1.2,0.8c-0.6,0-0.9-0.3-0.9-1c-0.1-0.6-0.1-1.2-0.1-1.8c0-2.4-0.1-4.7,0-7.1
			c0.1-2.1,1.1-3.2,3.2-3.3c2.1-0.1,4.2-0.1,6.3,0.1c1.8,0.1,2.9,1.3,3,3.1c0.1,2.8,0.1,5.7,0.1,8.5c0,1.1-0.4,1.5-1.4,1.4
			c-0.4,0-0.7-0.2-0.8-0.7c-0.1-0.4-0.1-0.9-0.1-1.3C542.4,345.5,542.3,343.2,542.3,340.9z"/>
		<path d="M550.3,363.8c-1,0-2,0-3,0c-0.1-11.1-0.1-22.1-0.2-33.2c1,0,2,0,3,0C550.2,341.6,550.3,352.7,550.3,363.8z"/>
		<path d="M535.6,333.1c0-1.5,1.2-2.7,2.7-2.6c1.5,0,2.7,1.2,2.6,2.7c0,1.5-1.2,2.7-2.7,2.7C536.8,335.9,535.6,334.6,535.6,333.1z"
			/>
		<path d="M562.8,332.9c0,1.5-1.1,2.7-2.5,2.7c-1.5,0-2.8-1.2-2.8-2.6c0-1.5,1.2-2.7,2.6-2.7C561.6,330.3,562.8,331.4,562.8,332.9z"
			/>
	</g>
	<g>
		<path d="M914.3,703.1c-0.7,0-1.4,0-2.2,0c0.8-2.8,1.6-5.7,2.4-8.5c-0.3-0.2-0.4-0.1-0.5,0.2c-0.4,1.4-0.9,2.8-1.3,4.2
			c-0.1,0.3-0.2,0.5-0.4,0.7c-0.2,0.3-0.6,0.3-0.9,0.2c-0.3-0.2-0.4-0.4-0.3-0.8c0.5-1.8,1-3.7,1.5-5.5c0.2-0.9,0.8-1.5,1.7-1.6
			c1.2-0.1,2.4-0.1,3.6,0c1,0.1,1.5,0.9,1.8,1.8c0.5,1.7,1,3.3,1.5,5c0.2,0.6,0.1,1-0.4,1.1c-0.5,0.1-1-0.2-1.1-0.7
			c-0.4-1.3-0.8-2.6-1.2-3.9c-0.1-0.3-0.2-0.6-0.3-0.9c-0.1,0-0.2,0.1-0.3,0.1c0.8,2.8,1.7,5.6,2.5,8.5c-0.8,0-1.5,0-2.2,0
			c0,0.2,0,0.3,0,0.4c0,1.9,0,3.9,0,5.8c0,0.2,0,0.4-0.1,0.6c-0.1,0.5-0.4,0.7-0.8,0.7c-0.5,0-0.8-0.2-0.9-0.6
			c-0.1-0.2-0.1-0.4-0.1-0.7c0-2,0-3.9,0-5.9c0-0.2,0-0.4-0.4-0.3c0,0.1,0,0.3,0,0.4c0,1.9,0,3.8,0,5.7c0,0.3,0,0.5-0.1,0.7
			c-0.1,0.4-0.5,0.6-0.9,0.6c-0.4,0-0.7-0.3-0.8-0.7c0-0.2,0-0.5,0-0.7c0-1.9,0-3.7,0-5.6C914.3,703.4,914.3,703.3,914.3,703.1z"/>
		<path d="M904.3,695.1c-0.2,0-0.4,0-0.5,0c0,0.1,0,0.3,0,0.4c0,4.5,0.1,9,0.1,13.4c0,0.3,0,0.6-0.1,0.9c-0.1,0.5-0.3,0.7-0.8,0.7
			c-0.5,0-0.9-0.2-1.1-0.6c-0.1-0.3-0.1-0.5-0.1-0.8c0-2.6-0.1-5.2-0.1-7.7c0-0.1,0-0.2,0-0.4c-0.2,0-0.3,0-0.4,0c0,0.2,0,0.3,0,0.5
			c0,2.5,0.1,5,0.1,7.5c0,0.3,0,0.7-0.1,1c-0.1,0.4-0.4,0.6-0.9,0.6c-0.5,0-0.8-0.2-0.9-0.6c-0.1-0.3-0.1-0.6-0.1-0.9
			c0-4.5-0.1-9.1-0.1-13.6c0-0.3,0-0.5-0.4-0.4c0,0.1,0,0.2,0,0.4c0,1.4,0,2.8,0,4.2c0,0.3,0,0.5-0.1,0.8c-0.1,0.4-0.3,0.6-0.8,0.6
			c-0.4,0-0.6-0.2-0.6-0.6c0-0.4,0-0.8,0-1.2c0-1.6,0-3.2,0-4.8c0.1-1.4,0.7-2.1,2.1-2.2c1.4-0.1,2.8,0,4.2,0c1.2,0.1,2,0.9,2,2.1
			c0.1,1.9,0.1,3.8,0.1,5.7c0,0.8-0.3,1-0.9,1c-0.3,0-0.5-0.2-0.5-0.5c0-0.3-0.1-0.6-0.1-0.9C904.3,698.2,904.3,696.6,904.3,695.1z"
			/>
		<path d="M909.7,710.4c-0.7,0-1.3,0-2,0c0-7.4-0.1-14.9-0.1-22.3c0.7,0,1.3,0,2,0C909.6,695.6,909.7,703,909.7,710.4z"/>
		<path d="M899.8,689.8c0-1,0.8-1.8,1.8-1.8c1,0,1.8,0.8,1.8,1.8c0,1-0.8,1.8-1.8,1.8C900.6,691.7,899.8,690.8,899.8,689.8z"/>
		<path d="M918.1,689.7c0,1-0.7,1.8-1.7,1.8c-1,0-1.9-0.8-1.9-1.8c0-1,0.8-1.8,1.8-1.8C917.3,687.9,918.1,688.7,918.1,689.7z"/>
	</g>
	<g>
		<text transform="matrix(5.000000e-03 -1 1 5.000000e-03 552.3871 231.1056)" class="st31 st34">ASCENSOR</text>
	</g>
	<g>
		<text transform="matrix(5.000000e-03 -1 1 5.000000e-03 561.706 221.502)" class="st31 st35">A</text>
	</g>
	<g>
		<g>
			<path class="st36" d="M572.6,249.9c-0.3,0-0.6,0-0.8,0c-0.3,0-0.5-0.2-0.6-0.5c-0.1-0.3,0-0.5,0.3-0.7c0.1-0.1,0.2-0.1,0.4-0.1
				c0.8,0,1.6,0,2.4,0c0.4,0,0.6,0.3,0.6,0.6c0,0.8,0,1.6,0,2.4c0,0.4-0.3,0.6-0.6,0.6c-0.3,0-0.6-0.3-0.6-0.6c0-0.3,0-0.5,0-0.8
				c0,0,0,0,0,0c-0.1,0.1-0.2,0.1-0.2,0.2c-0.8,0.8-1.5,1.5-2.3,2.3c-0.2,0.2-0.3,0.3-0.6,0.2c-0.2,0-0.4-0.2-0.5-0.4
				c-0.1-0.2,0-0.5,0.1-0.6c0.6-0.6,1.2-1.2,1.8-1.8C572.1,250.5,572.4,250.3,572.6,249.9C572.6,250,572.6,249.9,572.6,249.9z"/>
			<path class="st36" d="M574.4,256.8c0,0.2,0,0.4,0,0.6c0,0.7,0,1.5,0,2.2c0,0.4-0.3,0.7-0.7,0.7c-1.1,0-2.1,0-3.2,0
				c-0.4,0-0.7-0.3-0.7-0.6c0-0.4,0.3-0.6,0.7-0.6c0.8,0,1.6,0,2.3,0c0.1,0,0.1,0,0.3,0c0-0.1,0-0.1,0-0.2c0-0.8,0-1.7,0-2.5
				c0-0.5,0.2-0.7,0.7-0.7c0.8,0,1.6,0,2.5,0c0.1,0,0.1,0,0.2,0c0-0.1,0-0.2,0-0.2c0-0.8,0-1.6,0-2.4c0-0.5,0.2-0.7,0.7-0.7
				c0.8,0,1.6,0,2.4,0c0.1,0,0.1,0,0.3,0c0-0.1,0-0.2,0-0.2c0-0.9,0-1.7,0-2.6c0-0.5,0.2-0.7,0.7-0.7c1.1,0,2.2,0,3.3,0
				c0.4,0,0.7,0.2,0.7,0.6c0,0.4-0.3,0.6-0.7,0.6c-0.8,0-1.7,0-2.5,0c-0.1,0-0.2,0-0.3,0c0,0.1,0,0.2,0,0.3c0,0.8,0,1.7,0,2.5
				c0,0.5-0.2,0.7-0.7,0.7c-0.8,0-1.6,0-2.4,0c-0.1,0-0.2,0-0.3,0c0,0.1,0,0.2,0,0.2c0,0.8,0,1.6,0,2.4c0,0.5-0.2,0.7-0.7,0.7
				c-0.8,0-1.6,0-2.4,0C574.6,256.8,574.5,256.8,574.4,256.8z"/>
		</g>
	</g>
	<g>
		<g>
			<path class="st36" d="M177.8,428.3c-0.3,0-0.6,0-0.9,0c-0.3,0-0.6-0.2-0.6-0.5c-0.1-0.3,0-0.6,0.3-0.7c0.1-0.1,0.2-0.1,0.4-0.1
				c0.8,0,1.6,0,2.5,0c0.4,0,0.6,0.3,0.6,0.6c0,0.8,0,1.7,0,2.5c0,0.4-0.3,0.6-0.6,0.6c-0.4,0-0.6-0.3-0.6-0.6c0-0.3,0-0.6,0-0.9
				c0,0,0,0,0,0c-0.1,0.1-0.2,0.1-0.2,0.2c-0.8,0.8-1.6,1.6-2.4,2.4c-0.2,0.2-0.4,0.3-0.6,0.2c-0.2,0-0.4-0.2-0.5-0.4
				c-0.1-0.2,0-0.5,0.1-0.7c0.6-0.6,1.2-1.2,1.8-1.8C177.2,429,177.5,428.7,177.8,428.3C177.8,428.4,177.8,428.4,177.8,428.3z"/>
			<path class="st36" d="M179.6,435.4c0,0.2,0,0.4,0,0.6c0,0.8,0,1.5,0,2.3c0,0.4-0.3,0.7-0.7,0.7c-1.1,0-2.2,0-3.3,0
				c-0.4,0-0.7-0.3-0.7-0.6c0-0.4,0.3-0.6,0.7-0.6c0.8,0,1.6,0,2.4,0c0.1,0,0.2,0,0.3,0c0-0.1,0-0.2,0-0.2c0-0.9,0-1.7,0-2.6
				c0-0.5,0.2-0.7,0.8-0.7c0.9,0,1.7,0,2.6,0c0.1,0,0.1,0,0.3,0c0-0.1,0-0.2,0-0.2c0-0.8,0-1.6,0-2.5c0-0.5,0.2-0.8,0.7-0.8
				c0.8,0,1.7,0,2.5,0c0.1,0,0.2,0,0.3,0c0-0.1,0-0.2,0-0.2c0-0.9,0-1.8,0-2.7c0-0.5,0.2-0.7,0.7-0.7c1.1,0,2.3,0,3.4,0
				c0.4,0,0.7,0.2,0.7,0.6c0,0.4-0.3,0.6-0.7,0.6c-0.9,0-1.7,0-2.6,0c-0.1,0-0.2,0-0.3,0c0,0.1,0,0.2,0,0.3c0,0.9,0,1.7,0,2.6
				c0,0.5-0.2,0.7-0.7,0.7c-0.8,0-1.7,0-2.5,0c-0.1,0-0.2,0-0.3,0c0,0.1,0,0.2,0,0.3c0,0.8,0,1.6,0,2.5c0,0.5-0.2,0.7-0.7,0.7
				c-0.8,0-1.7,0-2.5,0C179.8,435.4,179.7,435.4,179.6,435.4z"/>
		</g>
	</g>
	<g>
		<text transform="matrix(1 0 0 1 153.4854 403.6548)"><tspan x="0" y="0" class="st36 st31 st37">ESCALERA DE</tspan><tspan x="0.7" y="6.3" class="st36 st31 st37">EMERGENCIA</tspan></text>
	</g>
	<g>
		<text transform="matrix(1 5.000000e-03 -5.000000e-03 1 619.569 574.9066)" class="st31 st38">ASCENSOR</text>
	</g>
	<g>
		<text transform="matrix(1 5.000000e-03 -5.000000e-03 1 627.2159 582.3534)" class="st31 st39">C</text>
	</g>
	<g>
		<text transform="matrix(1 5.000000e-03 -5.000000e-03 1 241.9448 855.3049)" class="st31 st40">ASCENSOR</text>
	</g>
	<g>
		<text transform="matrix(1 5.000000e-03 -5.000000e-03 1 250.6657 864.2911)" class="st31 st41">B1</text>
	</g>
	<g>
		<text transform="matrix(1 5.000000e-03 -5.000000e-03 1 479.3137 1176.9642)" class="st31 st42">ASCENSOR</text>
	</g>
	<g>
		<text transform="matrix(1 5.000000e-03 -5.000000e-03 1 484.8878 1183.8977)" class="st31 st39">B2</text>
	</g>
	<g>
		<path d="M152.9,794.1c-1,0-1.8,0-2.8,0c1-3.6,2.1-7.2,3.1-10.8c-0.3-0.2-0.5-0.2-0.7,0.2c-0.5,1.8-1.1,3.5-1.6,5.3
			c-0.1,0.3-0.3,0.7-0.5,0.9c-0.3,0.4-0.7,0.4-1.1,0.2c-0.4-0.2-0.5-0.5-0.4-1c0.6-2.3,1.3-4.7,2-7c0.3-1.1,1.1-1.9,2.2-2
			c1.5-0.1,3.1-0.1,4.6,0c1.3,0.1,1.9,1.1,2.3,2.3c0.6,2.1,1.3,4.2,1.9,6.3c0.2,0.7,0.1,1.3-0.4,1.4c-0.6,0.2-1.2-0.2-1.4-0.9
			c-0.5-1.6-1-3.3-1.5-4.9c-0.1-0.4-0.2-0.7-0.4-1.1c-0.2,0-0.3,0.1-0.4,0.1c1.1,3.6,2.1,7.1,3.2,10.7c-1,0-1.9,0-2.8,0
			c0,0.2,0,0.4,0,0.5c0,2.4,0,4.9,0,7.3c0,0.2,0,0.5-0.1,0.7c-0.1,0.6-0.5,0.9-1,0.9c-0.6,0-1-0.2-1.1-0.8c-0.1-0.3-0.1-0.6-0.1-0.8
			c0-2.5,0-5,0-7.4c0-0.3,0-0.5-0.5-0.4c0,0.2,0,0.3,0,0.5c0,2.4,0,4.9,0,7.3c0,0.3,0,0.7-0.1,1c-0.2,0.5-0.6,0.8-1.1,0.7
			c-0.5-0.1-0.9-0.4-1-0.9c0-0.3-0.1-0.6-0.1-0.9c0-2.4,0-4.7,0-7.1C152.9,794.5,152.9,794.3,152.9,794.1z"/>
		<path d="M140.2,783.9c-0.3,0-0.5,0-0.7,0c0,0.2,0,0.3,0,0.5c0.1,5.7,0.1,11.4,0.2,17.1c0,0.4,0,0.8-0.1,1.1
			c-0.1,0.6-0.4,0.8-1,0.9c-0.7,0.1-1.2-0.2-1.4-0.7c-0.1-0.3-0.2-0.7-0.2-1c0-3.3-0.1-6.5-0.1-9.8c0-0.1,0-0.3,0-0.5
			c-0.2,0-0.3,0-0.6,0c0,0.2,0,0.4,0,0.6c0,3.2,0.1,6.4,0.1,9.6c0,0.4,0,0.8-0.1,1.2c-0.1,0.5-0.5,0.7-1.1,0.7c-0.6,0-1-0.2-1.1-0.7
			c-0.1-0.4-0.1-0.8-0.2-1.2c0-5.8-0.1-11.5-0.1-17.3c0-0.3,0-0.7-0.5-0.5c0,0.1,0,0.3,0,0.5c0,1.8,0,3.6,0,5.4c0,0.3,0,0.7-0.1,1
			c-0.1,0.5-0.4,0.7-1,0.7c-0.5,0-0.8-0.3-0.8-0.8c-0.1-0.5-0.1-1-0.1-1.5c0-2-0.1-4,0-6.1c0.1-1.8,0.9-2.7,2.7-2.8
			c1.8-0.1,3.6-0.1,5.4,0c1.6,0.1,2.5,1.1,2.5,2.7c0.1,2.4,0.1,4.8,0.1,7.3c0,1-0.4,1.3-1.2,1.2c-0.4,0-0.6-0.2-0.7-0.6
			c-0.1-0.4-0.1-0.8-0.1-1.1C140.3,787.8,140.2,785.8,140.2,783.9z"/>
		<path d="M147.1,803.3c-0.9,0-1.7,0-2.6,0c0-9.5-0.1-18.9-0.1-28.3c0.9,0,1.7,0,2.6,0C147,784.5,147,793.9,147.1,803.3z"/>
		<path d="M134.5,777.2c0-1.3,1-2.3,2.3-2.2c1.3,0,2.3,1.1,2.3,2.3c0,1.3-1,2.3-2.3,2.3C135.5,779.5,134.5,778.5,134.5,777.2z"/>
		<path d="M157.7,777c0,1.3-0.9,2.3-2.1,2.3c-1.3,0-2.4-1-2.4-2.3c0-1.3,1-2.3,2.2-2.3C156.7,774.8,157.7,775.7,157.7,777z"/>
	</g>
	<g>
		<path d="M563.8,1144.2c-1,0-1.8,0-2.8,0c1-3.6,2.1-7.2,3.1-10.8c-0.3-0.2-0.5-0.2-0.7,0.2c-0.5,1.8-1.1,3.5-1.6,5.3
			c-0.1,0.3-0.3,0.7-0.5,0.9c-0.3,0.4-0.7,0.4-1.1,0.2c-0.4-0.2-0.5-0.5-0.4-1c0.6-2.3,1.3-4.7,2-7c0.3-1.1,1.1-1.9,2.2-2
			c1.5-0.1,3.1-0.1,4.6,0c1.3,0.1,1.9,1.1,2.3,2.3c0.6,2.1,1.3,4.2,1.9,6.3c0.2,0.7,0.1,1.3-0.4,1.4c-0.6,0.2-1.2-0.2-1.4-0.9
			c-0.5-1.6-1-3.3-1.5-4.9c-0.1-0.4-0.2-0.7-0.4-1.1c-0.2,0-0.3,0.1-0.4,0.1c1.1,3.6,2.1,7.1,3.2,10.7c-1,0-1.9,0-2.8,0
			c0,0.2,0,0.4,0,0.5c0,2.4,0,4.9,0,7.3c0,0.2,0,0.5-0.1,0.7c-0.1,0.6-0.5,0.9-1,0.9c-0.6,0-1-0.2-1.1-0.8c-0.1-0.3-0.1-0.6-0.1-0.8
			c0-2.5,0-5,0-7.4c0-0.3,0-0.5-0.5-0.4c0,0.2,0,0.3,0,0.5c0,2.4,0,4.9,0,7.3c0,0.3,0,0.7-0.1,1c-0.2,0.5-0.6,0.8-1.1,0.7
			c-0.5-0.1-0.9-0.4-1-0.9c0-0.3-0.1-0.6-0.1-0.9c0-2.4,0-4.7,0-7.1C563.8,1144.5,563.8,1144.4,563.8,1144.2z"/>
		<path d="M551.1,1133.9c-0.3,0-0.5,0-0.7,0c0,0.2,0,0.3,0,0.5c0.1,5.7,0.1,11.4,0.2,17.1c0,0.4,0,0.8-0.1,1.1
			c-0.1,0.6-0.4,0.8-1,0.9c-0.7,0.1-1.2-0.2-1.4-0.7c-0.1-0.3-0.2-0.7-0.2-1c0-3.3-0.1-6.5-0.1-9.8c0-0.1,0-0.3,0-0.5
			c-0.2,0-0.3,0-0.6,0c0,0.2,0,0.4,0,0.6c0,3.2,0.1,6.4,0.1,9.6c0,0.4,0,0.8-0.1,1.2c-0.1,0.5-0.5,0.7-1.1,0.7c-0.6,0-1-0.2-1.1-0.7
			c-0.1-0.4-0.1-0.8-0.2-1.2c0-5.8-0.1-11.5-0.1-17.3c0-0.3,0-0.7-0.5-0.5c0,0.1,0,0.3,0,0.5c0,1.8,0,3.6,0,5.4c0,0.3,0,0.7-0.1,1
			c-0.1,0.5-0.4,0.7-1,0.7c-0.5,0-0.8-0.3-0.8-0.8c-0.1-0.5-0.1-1-0.1-1.5c0-2-0.1-4,0-6.1c0.1-1.8,0.9-2.7,2.7-2.8
			c1.8-0.1,3.6-0.1,5.4,0c1.6,0.1,2.5,1.1,2.5,2.7c0.1,2.4,0.1,4.8,0.1,7.3c0,1-0.4,1.3-1.2,1.2c-0.4,0-0.6-0.2-0.7-0.6
			c-0.1-0.4-0.1-0.8-0.1-1.1C551.1,1137.8,551.1,1135.9,551.1,1133.9z"/>
		<path d="M558,1153.4c-0.9,0-1.7,0-2.6,0c0-9.5-0.1-18.9-0.1-28.3c0.9,0,1.7,0,2.6,0C557.9,1134.5,557.9,1144,558,1153.4z"/>
		<path d="M545.4,1127.2c0-1.3,1-2.3,2.3-2.2c1.3,0,2.3,1.1,2.3,2.3c0,1.3-1,2.3-2.3,2.3C546.4,1129.6,545.4,1128.5,545.4,1127.2z"
			/>
		<path d="M568.6,1127.1c0,1.3-0.9,2.3-2.1,2.3c-1.3,0-2.4-1-2.4-2.3c0-1.3,1-2.3,2.2-2.3C567.6,1124.8,568.6,1125.8,568.6,1127.1z"
			/>
	</g>
	<g>
		<g>
			<path class="st36" d="M479.3,1115.1c-0.4,0-0.8,0-1.2,0c-0.4,0-0.7-0.3-0.9-0.6c-0.1-0.4,0-0.7,0.4-0.9c0.1-0.1,0.3-0.1,0.5-0.1
				c1.1,0,2.2,0,3.3,0c0.5,0,0.9,0.4,0.9,0.9c0,1.1,0,2.2,0,3.4c0,0.5-0.4,0.9-0.9,0.9c-0.5,0-0.8-0.4-0.8-0.9c0-0.4,0-0.8,0-1.2
				c0,0,0,0,0-0.1c-0.1,0.1-0.2,0.2-0.3,0.3c-1.1,1.1-2.2,2.2-3.2,3.2c-0.2,0.2-0.5,0.4-0.8,0.3c-0.3-0.1-0.6-0.2-0.7-0.6
				c-0.1-0.3-0.1-0.6,0.2-0.9c0.8-0.8,1.6-1.6,2.5-2.5C478.6,1116,479,1115.6,479.3,1115.1C479.3,1115.2,479.3,1115.2,479.3,1115.1z
				"/>
			<path class="st36" d="M481.8,1124.7c0,0.3,0,0.6,0,0.8c0,1,0,2,0,3.1c0,0.6-0.4,0.9-0.9,1c-1.5,0-2.9,0-4.4,0
				c-0.6,0-0.9-0.4-0.9-0.9c0-0.5,0.4-0.9,1-0.9c1.1,0,2.2,0,3.3,0c0.1,0,0.2,0,0.4,0c0-0.1,0-0.2,0-0.3c0-1.2,0-2.3,0-3.5
				c0-0.7,0.3-1,1-1c1.2,0,2.3,0,3.5,0c0.1,0,0.2,0,0.3,0c0-0.1,0-0.2,0-0.3c0-1.1,0-2.2,0-3.3c0-0.7,0.3-1,1-1c1.1,0,2.3,0,3.4,0
				c0.1,0,0.2,0,0.4,0c0-0.1,0-0.2,0-0.3c0-1.2,0-2.4,0-3.6c0-0.7,0.3-1,1-1c1.6,0,3.1,0,4.7,0c0.6,0,1,0.3,1,0.9
				c0,0.5-0.4,0.9-1,0.9c-1.2,0-2.3,0-3.5,0c-0.1,0-0.2,0-0.4,0c0,0.1,0,0.3,0,0.4c0,1.2,0,2.3,0,3.5c0,0.7-0.3,1-1,1
				c-1.1,0-2.3,0-3.4,0c-0.1,0-0.2,0-0.4,0c0,0.1,0,0.2,0,0.3c0,1.1,0,2.2,0,3.3c0,0.7-0.3,1-1,1c-1.1,0-2.3,0-3.4,0
				C482.1,1124.7,482,1124.7,481.8,1124.7z"/>
		</g>
	</g>
	<g>
		<text transform="matrix(0.9999 -1.108000e-02 1.108000e-02 0.9999 499.3037 60.643)" class="st36 st31 st32">MARIO BRAVO</text>
	</g>
	<g>
		<text transform="matrix(1 2.690000e-03 -2.690000e-03 1 540.9133 1398.1743)" class="st36 st31 st32">CHILE</text>
	</g>
	<g>
		<text transform="matrix(8.890000e-03 -1 1 8.890000e-03 66.7469 614.5089)" class="st36 st31 st33">ISLETA</text>
	</g>
	<g>
		<text transform="matrix(-1.040000e-03 -1 1 -1.040000e-03 1120.8053 767.79)" class="st36 st31 st32">PASO DE LA PATRIA</text>
	</g>
	<path d="M135.4,583.4c-0.8,0-1.5,0-2.2,0c-1.5,0-2.8-0.9-3.3-2.3c-0.1-0.4-0.2-0.8-0.2-1.2c0-1.5,0-3,0-4.6c0-2,1.5-3.5,3.5-3.5
		c6.9,0,13.7,0,20.6,0c1.6,0,2.8,0.9,3.4,2.3c0.1,0.4,0.2,0.8,0.2,1.2c0,1.5,0,3,0,4.5c0,2-1.5,3.5-3.6,3.5c-0.7,0-1.4,0-2.2,0
		c0,0.2,0,0.4,0,0.5c0,3.2,0,6.4,0,9.6c0,0.8-0.2,1.1-0.8,1.3c-0.1,0-0.3,0.1-0.5,0.1c-4.5,0-9,0-13.4,0c-0.9,0-1.4-0.4-1.4-1.4
		c0-3.2,0-6.5,0-9.7C135.4,583.7,135.4,583.6,135.4,583.4z M137.8,578.8c0,4.6,0,9.2,0,13.8c3.8,0,7.6,0,11.5,0c0-4.6,0-9.2,0-13.8
		C145.4,578.8,141.6,578.8,137.8,578.8z M135.4,578.8c-0.4,0-0.8,0-1.2,0c-0.4,0-0.7-0.2-0.9-0.5c-0.2-0.4-0.3-0.8,0-1.2
		c0.2-0.4,0.6-0.6,1.1-0.6c1.7,0,3.4,0,5.1,0c4.4,0,8.8,0,13.2,0c0.8,0,1.3,0.5,1.3,1.2c0,0.7-0.5,1.1-1.3,1.1c-0.3,0-0.6,0-1,0
		c0,0.8,0,1.5,0,2.3c0.1,0,0.1,0,0.1,0c0.7,0,1.3,0,2,0c0.8,0,1.3-0.5,1.3-1.3c0-1.4,0-2.8,0-4.2c0-1-0.4-1.4-1.4-1.4
		c-5.9,0-11.7,0-17.6,0c-0.9,0-1.9,0-2.8,0c-0.7,0-1.2,0.5-1.2,1.1c0,1.6,0,3.1,0,4.7c0,0.5,0.4,1.1,0.9,1.1c0.8,0.1,1.6,0,2.5,0
		C135.4,580.3,135.4,579.6,135.4,578.8z"/>
	<rect x="137" y="578.4" width="13.3" height="15.1"/>
	<text transform="matrix(1 0 0 1 139.0253 590.5977)" class="st28 st31 st43">$</text>
	<path d="M135.4,583.4c-0.8,0-1.5,0-2.2,0c-1.5,0-2.8-0.9-3.3-2.3c-0.1-0.4-0.2-0.8-0.2-1.2c0-1.5,0-3,0-4.6c0-2,1.5-3.5,3.5-3.5
		c6.9,0,13.7,0,20.6,0c1.6,0,2.8,0.9,3.4,2.3c0.1,0.4,0.2,0.8,0.2,1.2c0,1.5,0,3,0,4.5c0,2-1.5,3.5-3.6,3.5c-0.7,0-1.4,0-2.2,0
		c0,0.2,0,0.4,0,0.5c0,3.2,0,6.4,0,9.6c0,0.8-0.2,1.1-0.8,1.3c-0.1,0-0.3,0.1-0.5,0.1c-4.5,0-9,0-13.4,0c-0.9,0-1.4-0.4-1.4-1.4
		c0-3.2,0-6.5,0-9.7C135.4,583.7,135.4,583.6,135.4,583.4z M137.8,578.8c0,4.6,0,9.2,0,13.8c3.8,0,7.6,0,11.5,0c0-4.6,0-9.2,0-13.8
		C145.4,578.8,141.6,578.8,137.8,578.8z M135.4,578.8c-0.4,0-0.8,0-1.2,0c-0.4,0-0.7-0.2-0.9-0.5c-0.2-0.4-0.3-0.8,0-1.2
		c0.2-0.4,0.6-0.6,1.1-0.6c1.7,0,3.4,0,5.1,0c4.4,0,8.8,0,13.2,0c0.8,0,1.3,0.5,1.3,1.2c0,0.7-0.5,1.1-1.3,1.1c-0.3,0-0.6,0-1,0
		c0,0.8,0,1.5,0,2.3c0.1,0,0.1,0,0.1,0c0.7,0,1.3,0,2,0c0.8,0,1.3-0.5,1.3-1.3c0-1.4,0-2.8,0-4.2c0-1-0.4-1.4-1.4-1.4
		c-5.9,0-11.7,0-17.6,0c-0.9,0-1.9,0-2.8,0c-0.7,0-1.2,0.5-1.2,1.1c0,1.6,0,3.1,0,4.7c0,0.5,0.4,1.1,0.9,1.1c0.8,0.1,1.6,0,2.5,0
		C135.4,580.3,135.4,579.6,135.4,578.8z"/>
	<rect x="137" y="578.4" width="13.3" height="15.1"/>
	<text transform="matrix(1 0 0 1 127.9521 568.6594)" class="st44 st45">CAJERO</text>
	<g>
		<g>
			<path class="st36" d="M649.1,731.7c-0.3,0-0.7,0-1,0c-0.4,0-0.7-0.2-0.7-0.6c-0.1-0.3,0-0.6,0.3-0.8c0.1-0.1,0.3-0.1,0.4-0.1
				c1,0,1.9,0,2.9,0c0.4,0,0.8,0.3,0.8,0.8c0,1,0,1.9,0,2.9c0,0.4-0.3,0.8-0.8,0.8c-0.4,0-0.7-0.3-0.7-0.8c0-0.3,0-0.7,0-1
				c0,0,0,0,0-0.1c-0.1,0.1-0.2,0.2-0.3,0.3c-0.9,0.9-1.9,1.9-2.8,2.8c-0.2,0.2-0.4,0.3-0.7,0.3c-0.3,0-0.5-0.2-0.6-0.5
				c-0.1-0.3-0.1-0.6,0.2-0.8c0.7-0.7,1.4-1.4,2.2-2.2C648.5,732.5,648.8,732.1,649.1,731.7C649.1,731.8,649.1,731.8,649.1,731.7z"
				/>
			<path class="st36" d="M651.3,740.1c0,0.3,0,0.5,0,0.7c0,0.9,0,1.8,0,2.7c0,0.5-0.3,0.8-0.8,0.8c-1.3,0-2.6,0-3.9,0
				c-0.5,0-0.8-0.3-0.8-0.7c0-0.5,0.3-0.8,0.8-0.8c1,0,1.9,0,2.9,0c0.1,0,0.2,0,0.3,0c0-0.1,0-0.2,0-0.3c0-1,0-2,0-3
				c0-0.6,0.3-0.9,0.9-0.9c1,0,2,0,3,0c0.1,0,0.2,0,0.3,0c0-0.1,0-0.2,0-0.3c0-1,0-1.9,0-2.9c0-0.6,0.3-0.9,0.9-0.9c1,0,2,0,2.9,0
				c0.1,0,0.2,0,0.3,0c0-0.1,0-0.2,0-0.3c0-1,0-2.1,0-3.1c0-0.6,0.3-0.9,0.9-0.9c1.4,0,2.7,0,4.1,0c0.5,0,0.8,0.3,0.9,0.7
				c0,0.5-0.3,0.8-0.9,0.8c-1,0-2,0-3,0c-0.1,0-0.2,0-0.4,0c0,0.1,0,0.2,0,0.3c0,1,0,2,0,3.1c0,0.6-0.3,0.9-0.9,0.9c-1,0-2,0-2.9,0
				c-0.1,0-0.2,0-0.3,0c0,0.1,0,0.2,0,0.3c0,1,0,1.9,0,2.9c0,0.6-0.3,0.9-0.9,0.9c-1,0-2,0-3,0C651.6,740.1,651.4,740.1,651.3,740.1
				z"/>
		</g>
	</g>
</g>
<g id="VECINOS">
	<polygon class="st46" points="862.8,107.6 1026.5,106.1 1051.1,130.7 1053.6,481.9 776.8,483.1 777.5,373.9 864.2,373.2 	"/>
	<polygon class="st46" points="833.4,873.9 1050.8,874.3 1052.7,1312.3 1032.7,1334.1 832.5,1332 	"/>
</g>
<g id="EXTRA_CUERPOS">
</g>
<g id="CUERPO_A">
	
		<image style="overflow:visible;" width="890" height="892" xlink:href="478D3C46.jpg"  transform="matrix(1 0 0 1 2230.9043 -115.4255)">
	</image>
	<path class="st47" d="M725.1,108.4l-40,0.5l-53.1,0.6l0,0.4l-51.4,0.4l-0.2,0.4l-76.9,0.8l-66.2,1.7l-71.7,1l0.1,20.7h-58.9
		l0.1-20.7l-62.6,0.5l-92.6,1.1l-30,31.3l-0.4,94.1l0,0l-0.1,22.2l0.2,88.2v38l28.9,0.3v57.2h0.5v0.3h18.7v-0.3h6.2v0.3h18.7v-0.3
		h0.5V390l114.4-0.2l45,0.1l11.1,0.1l-0.1,24.2l0.3,131.5h-1v41.4h33.7v-41.4h40.3l0-0.3h0l0,0.3h0.5v41.4h70.7v-0.5H569v-0.3h19.9
		v-46.6l98,0.4l-0.1-41.8h0.3v-15.2l89.2,0.2l0.6-110l86.2-0.5l-0.4-163.4l0,0l0.3-34.5l-0.3-18.3l-0.1-49.5l-61.7,0.5l-28.7-0.2
		L725.1,108.4z"/>
</g>
<g id="CUERPO_B">
	<polygon class="st48" points="121.2,688.8 370.4,687.8 370.3,695.3 587.5,695.3 588.4,879.3 589.2,1106 589.9,1333 406.6,1333.7 
		336.1,1334 143.6,1333.6 120.3,1307.7 120,1060.7 121,896.4 	"/>
</g>
<g id="BORDES_CUERPOS">
	<path class="st49" d="M725.1,108.4l-40,0.5l-53.1,0.6l0,0.4l-51.4,0.4l-0.2,0.4l-76.9,0.8l-66.2,1.7l-71.7,1l0.1,20.7h-58.9
		l0.1-20.7l-62.6,0.5l-92.6,1.1l-30,31.3l-0.4,94.1l0,0l-0.1,22.2l0.2,88.2v38l28.9,0.3v57.2h0.5v0.3h18.7v-0.3h6.2v0.3h18.7v-0.3
		h0.5V390l114.4-0.2l45,0.1l11.1,0.1l-0.1,24.2l0.3,131.5h-1v41.4h33.7v-41.4h40.3l0-0.3h0l0,0.3h0.5v41.4h70.7v-0.5H569v-0.3h19.9
		v-46.6l98,0.4l-0.1-41.8h0.3v-15.2l89.2,0.2l0.6-110l86.2-0.5l-0.4-163.4l0,0l0.3-34.5l-0.3-18.3l-0.1-49.5l-61.7,0.5l-28.7-0.2
		L725.1,108.4z"/>
	<polygon class="st49" points="121.2,688.8 370.4,687.8 370.3,695.3 587.5,695.3 588.4,879.3 589.2,1106 589.9,1333 406.6,1333.7 
		336.1,1334 143.6,1333.6 120.3,1307.7 120,1060.7 121,896.4 	"/>
	<polygon class="st49" points="1059,482.7 1058.4,776.8 1053.2,776.9 1053,783.8 1053.1,873.6 833.2,873.1 588.7,873 587.9,820.1 
		587.6,728.3 587.7,690.8 587.8,657.2 587.9,620.1 587.8,605 587.2,585.2 587.2,539.9 687,539.9 686.8,485.1 776.1,485.2 	"/>
</g>
<g id="PT_GUIA">
	<text transform="matrix(1 9.140000e-03 -9.140000e-03 1 641.0477 674.2541)"><tspan x="0" y="0" class="st50 st44 st51">PUNTO DE</tspan><tspan x="-0.6" y="6.6" class="st50 st44 st51">CONEXIÓN</tspan><tspan x="1.5" y="13.2" class="st50 st44 st51">1°PISO - C</tspan></text>
	<circle class="st50" cx="632.2" cy="679.2" r="5.1"/>
	<text transform="matrix(1 9.140000e-03 -9.140000e-03 1 501.2477 271.4812)"><tspan x="0" y="0" class="st50 st44 st51">PUNTO DE</tspan><tspan x="-0.6" y="6.6" class="st50 st44 st51">CONEXIÓN</tspan><tspan x="1.4" y="13.2" class="st50 st44 st51">1°PISO - A</tspan></text>
	<circle class="st50" cx="518.8" cy="257.8" r="5.1"/>
	<text transform="matrix(1 9.140000e-03 -9.140000e-03 1 291.7498 795.6335)"><tspan x="0" y="0" class="st50 st44 st51">PUNTO DE</tspan><tspan x="-0.6" y="6.6" class="st50 st44 st51">CONEXIÓN</tspan><tspan x="0.2" y="13.2" class="st50 st44 st51">1°PISO - B1</tspan></text>
	<circle class="st50" cx="309.4" cy="817.1" r="5.1"/>
	<text transform="matrix(1 9.140000e-03 -9.140000e-03 1 520.6726 1203.7839)"><tspan x="0" y="0" class="st50 st44 st51">PUNTO DE</tspan><tspan x="-0.6" y="6.6" class="st50 st44 st51">CONEXIÓN</tspan><tspan x="-0.4" y="13.2" class="st50 st44 st51">1°PISO - B2</tspan></text>
	<circle class="st50" cx="511.7" cy="1207.4" r="5.1"/>
</g>
<g id="REF_SUP_B">
	<circle class="st19" cx="403.4" cy="947.2" r="44.5"/>
	<text transform="matrix(1 9.140000e-03 -9.140000e-03 1 374.0143 972.9263)" class="st52 st44 st53">B</text>
</g>
<g id="REF_SUP_A">
	<circle class="st19" cx="666" cy="303" r="42.5"/>
	<text transform="matrix(1 9.140000e-03 -9.140000e-03 1 638.4533 325.0447)" class="st54 st44 st55">A</text>
</g>
</svg>
