<?xml version="1.0" encoding="utf-8"?>
<!-- Generator: Adobe Illustrator 25.4.1, SVG Export Plug-In . SVG Version: 6.00 Build 0)  -->
<svg version="1.1" xmlns="http://www.w3.org/2000/svg" xmlns:xlink="http://www.w3.org/1999/xlink" x="0px" y="0px"
	 viewBox="0 0 1153 1435" style="enable-background:new 0 0 1153 1435;" xml:space="preserve">
<style type="text/css">
	.st0{fill:#FF00C3;}
</style>
<g id="DE_C_a_B">
</g>
<g id="DE_A_a_C">
	<path class="st0" d="M628.3,635.5L628.3,635.5l3.1-3.3L609,611l-0.5-54.4H502.8l-0.5-99.8l-67.6,0.3l-25.9-78.6l-69.1-26.6
		l-1.6,4.2l-3.9,2.3l9.8,16.6v252.2l-3.4,83.4l4.5,0.2l0,4.5l259.1-1.1l4-30.9l24.1-45.6L628.3,635.5z M428.1,466.1l65.2-0.3
		l0.5,99.8h105.7l0.5,49.3l14.1,13.4l-27.3-5.6H352.9V372.5l-4.5-7.5l53.1,20.4L428.1,466.1z M599.4,680.5l-3.2,24.7l-246.5,1
		l3-74.5h233.2l35.4,7.2L599.4,680.5z"/>
</g>
</svg>
