<?xml version="1.0" encoding="utf-8"?>
<!-- Generator: Adobe Illustrator 25.4.1, SVG Export Plug-In . SVG Version: 6.00 Build 0)  -->
<svg version="1.1" fill="currentColor" id="Capa_1" xmlns="http://www.w3.org/2000/svg" xmlns:xlink="http://www.w3.org/1999/xlink" x="0px" y="0px"
	 viewBox="5 5 90 90" style="enable-background:new 0 0 100 100;" xml:space="preserve">
<style type="text/css">
	.st0{}
</style>
<g>
	<path class="st0" d="M66.4,35.4c-0.4,0.2-0.8,0.3-1.2,0.3C65.6,35.7,66,35.6,66.4,35.4z"/>
	<path class="st0" d="M65.1,35.7c0,0,0.1,0,0.1,0c-0.1,0-0.3,0-0.4,0C64.9,35.7,65,35.7,65.1,35.7z"/>
	<path class="st0" d="M68.2,23.5c-0.2-0.8-0.7-1.5-1.3-1.9C67.5,22,68,22.7,68.2,23.5z"/>
	<path class="st0" d="M35,35.7c0.1,0,0.1,0,0.2,0c-0.2,0-0.3,0-0.5,0C34.8,35.7,34.9,35.7,35,35.7z"/>
	<path class="st0" d="M34.9,21.1c-0.1,0-0.2,0-0.3,0c0.2,0,0.3,0,0.5,0C35.1,21.1,35,21.1,34.9,21.1z"/>
	<path class="st0" d="M61.9,26.2c0,2.2,0,4.3,0,6.5C61.8,30.5,61.8,28.4,61.9,26.2z"/>
	<path class="st0" d="M65.1,21.1c-0.1,0-0.2,0-0.3,0C64.9,21.1,65,21.1,65.1,21.1C65.1,21.1,65.1,21.1,65.1,21.1z"/>
	<path class="st0" d="M31.7,24.4c0-0.7,0.2-1.3,0.5-1.8C31.9,23.1,31.7,23.7,31.7,24.4z"/>
	<path class="st0" d="M33,21.7c-0.3,0.2-0.6,0.5-0.8,0.9C32.4,22.2,32.7,21.9,33,21.7z"/>
	<path class="st0" d="M78.6,35.5c0-3.6-2.8-6.9-6.9-7.1v0c0,0.4,0,0.8,0,1.3c0,1,0,2,0,3c-0.1,3.5-2.9,6.4-6.4,6.5
		c-0.1,0-0.2,0-0.2,0c-3.6,0-6.5-2.8-6.6-6.3c0-1.5-0.1-2.9-0.1-4.4c-5.6,0-11.2,0-16.8,0c0,1.5,0,3-0.1,4.5c-0.2,3.5-3,6.1-6.6,6.1
		c-0.2,0-0.3,0-0.5,0c-3.5-0.2-6.2-3.1-6.2-6.6c0-0.9,0-1.9,0-2.8l0-1.3c-4.4,0.3-7,4-6.9,7.5c0.1,11.8,0.1,23.7,0,35.6
		c0,4.5,3,7.5,7.4,7.5c14.1,0,28.2,0,42.3,0c4.5,0,7.4-3,7.4-7.4c0-6.9,0-13.8,0-20.7C78.6,45.6,78.6,40.6,78.6,35.5z M72.2,74.5
		c-0.3,0.1-0.7,0.1-1.1,0.1c-14.1,0-28.1,0-42.2,0c-0.3,0-0.6,0-0.9-0.1c-1.4-0.2-2.2-1.1-2.3-2.6c0-2.6,0-5.2,0-7.8
		c0-6.1,0-12.3,0-18.4c0-0.4,0-0.8,0-1.2c16.2,0,32.3,0,48.4,0c0,0.3,0.1,0.6,0.1,0.8c0,8.9,0,17.7,0,26.6
		C74.3,73.3,73.5,74.2,72.2,74.5z"/>
	<path class="st0" d="M31.7,32.4c0,0.8,0.3,1.6,0.8,2.1c0,0,0.1,0.1,0.1,0.1c0.2,0.2,0.4,0.4,0.6,0.5c0.4,0.3,0.9,0.5,1.5,0.5
		c0,0,0,0,0,0c0.2,0,0.3,0,0.5,0c0.1,0,0.2,0,0.3,0c0.1,0,0.2,0,0.3-0.1c0.1,0,0.2,0,0.3-0.1c0.1,0,0.2-0.1,0.3-0.1
		c0.1,0,0.2-0.1,0.2-0.1c0.1-0.1,0.2-0.1,0.3-0.2c0.1,0,0.1-0.1,0.2-0.2c0.1-0.1,0.2-0.2,0.2-0.2c0.1-0.1,0.1-0.1,0.2-0.2
		c0.1-0.1,0.1-0.2,0.2-0.3c0-0.1,0.1-0.1,0.1-0.2c0.1-0.1,0.1-0.2,0.1-0.4c0-0.1,0.1-0.1,0.1-0.2c0.1-0.2,0.1-0.4,0.1-0.6
		c0.1-1.5,0.1-3,0.1-4.4c0-1.5,0-3-0.1-4.4c0,0,0,0,0,0c0-0.2,0-0.4-0.1-0.6c0-0.1,0-0.1-0.1-0.2c0-0.1-0.1-0.3-0.1-0.4
		c0-0.1-0.1-0.1-0.1-0.2c-0.1-0.1-0.1-0.2-0.2-0.3c-0.1-0.1-0.1-0.1-0.2-0.2c-0.1-0.1-0.2-0.2-0.2-0.2c-0.1-0.1-0.1-0.1-0.2-0.1
		c-0.1-0.1-0.2-0.1-0.3-0.2c-0.1,0-0.2-0.1-0.2-0.1c-0.1,0-0.2-0.1-0.3-0.1c-0.1,0-0.2,0-0.3-0.1c-0.1,0-0.2-0.1-0.3-0.1
		c-0.1,0-0.2,0-0.3,0c-0.2,0-0.3,0-0.5,0c-0.4,0-0.8,0.1-1.2,0.3c-0.2,0.1-0.3,0.2-0.5,0.3c-0.3,0.2-0.6,0.5-0.8,0.9
		c-0.3,0.5-0.5,1.1-0.5,1.8c0,0.9,0,1.8,0,2.7c0,0.4,0,0.9,0,1.3c0,0.7,0,1.4,0,2C31.7,31.1,31.7,31.8,31.7,32.4z"/>
	<path class="st0" d="M61.9,32.7c0,0.2,0,0.4,0.1,0.6c0,0.1,0,0.1,0.1,0.2c0,0.1,0.1,0.3,0.1,0.4c0,0.1,0.1,0.1,0.1,0.2
		c0.1,0.1,0.1,0.2,0.2,0.3c0.1,0.1,0.1,0.1,0.2,0.2c0.1,0.1,0.1,0.2,0.2,0.3c0.1,0.1,0.1,0.1,0.2,0.2c0.1,0.1,0.2,0.1,0.3,0.2
		c0.1,0,0.2,0.1,0.2,0.1c0.1,0,0.2,0.1,0.3,0.1c0.1,0,0.2,0.1,0.3,0.1c0.1,0,0.2,0.1,0.3,0.1c0.1,0,0.2,0,0.3,0c0.1,0,0.3,0,0.4,0
		c0.4,0,0.8-0.1,1.2-0.3c0.4-0.2,0.7-0.4,1-0.7c0.2-0.2,0.4-0.5,0.5-0.7c0.2-0.4,0.4-0.9,0.4-1.4c0-1.4,0-2.8,0-4.2c0,0,0,0,0,0
		c0-1.4,0-2.8,0-4.3c0-0.2,0-0.4-0.1-0.6c-0.2-0.8-0.7-1.5-1.3-1.9c-0.3-0.2-0.7-0.4-1.2-0.5c-0.2,0-0.4-0.1-0.6-0.1h0
		c-0.1,0-0.2,0-0.4,0c-0.1,0-0.2,0-0.3,0c-0.1,0-0.2,0.1-0.3,0.1c-0.1,0-0.2,0-0.3,0.1c-0.1,0-0.2,0.1-0.3,0.1
		c-0.1,0-0.2,0.1-0.2,0.1c-0.1,0.1-0.2,0.1-0.3,0.2c-0.1,0.1-0.1,0.1-0.2,0.2c-0.1,0.1-0.2,0.2-0.2,0.2c-0.1,0.1-0.1,0.1-0.2,0.2
		c-0.1,0.1-0.1,0.2-0.2,0.3c0,0.1-0.1,0.1-0.1,0.2c-0.1,0.1-0.1,0.2-0.1,0.4c0,0.1-0.1,0.1-0.1,0.2c0,0.2-0.1,0.4-0.1,0.6
		c0,0,0,0,0,0.1c0,0.7,0,1.4,0,2.2C61.8,28.4,61.8,30.5,61.9,32.7z"/>
	<path class="st0" d="M66.6,62.3c-1.9,0-3.7,0-5.6,0c-1,0-1.6,0.7-1.6,1.7c0,1.8,0,3.7,0,5.5c0,1.1,0.6,1.7,1.8,1.7
		c0.9,0,1.8,0,2.7,0c0.9,0,1.8,0,2.7,0c1.2,0,1.8-0.6,1.9-1.8c0-1.8,0-3.7,0-5.5C68.3,62.9,67.7,62.3,66.6,62.3z"/>
	<path class="st0" d="M61.2,56.7c1.8,0,3.6,0,5.4,0c1.1,0,1.7-0.6,1.8-1.7c0-1.9,0-3.7,0-5.6c0-1.1-0.7-1.7-1.7-1.7
		c-1.8,0-3.7,0-5.5,0c-1.1,0-1.7,0.7-1.7,1.8c0,0.9,0,1.8,0,2.7c0,0.9,0,1.8,0,2.7C59.4,56,60,56.7,61.2,56.7z"/>
	<path class="st0" d="M40.6,52.3c0-0.9,0-1.8,0-2.7c0-1.1-0.6-1.8-1.6-1.8c-1.9-0.1-3.8,0-5.7,0c-1,0-1.6,0.7-1.6,1.6
		c0,1.9,0,3.8,0,5.7c0,1,0.6,1.6,1.7,1.7c1.9,0,3.7,0,5.6,0c1,0,1.6-0.6,1.7-1.7C40.6,54.1,40.6,53.2,40.6,52.3
		C40.6,52.3,40.6,52.3,40.6,52.3z"/>
	<path class="st0" d="M47.3,56.7c1.8,0,3.7,0,5.5,0c1.1,0,1.7-0.7,1.7-1.7c0-0.9,0-1.8,0-2.7c0-0.9,0-1.7,0-2.6c0,0,0-0.1,0-0.1
		c0-1.1-0.6-1.8-1.7-1.8c-1.8,0-3.7,0-5.5,0c-1.1,0-1.7,0.7-1.7,1.7c0,1.8,0,3.7,0,5.5C45.6,56.1,46.2,56.7,47.3,56.7z"/>
	<path class="st0" d="M54.5,64c0-1-0.6-1.7-1.6-1.7c-1.9,0-3.8,0-5.7,0c-1,0-1.6,0.7-1.6,1.6c0,1.9,0,3.8,0,5.7c0,1,0.7,1.6,1.6,1.6
		c1.9,0,3.7,0,5.6,0c1,0,1.7-0.6,1.7-1.7c0-0.9,0-1.8,0-2.7C54.5,65.9,54.5,65,54.5,64z"/>
	<path class="st0" d="M38.8,62.3c-1.8,0-3.6,0-5.4,0c-1.1,0-1.7,0.6-1.7,1.7c0,1.9,0,3.7,0,5.6c0,1,0.7,1.7,1.7,1.7
		c1.9,0,3.7,0,5.6,0c1,0,1.6-0.6,1.7-1.7c0-0.9,0-1.8,0-2.7c0-0.9,0-1.8,0-2.7C40.6,63,40.1,62.4,38.8,62.3z"/>
</g>
</svg>
