<?xml version="1.0" encoding="utf-8"?>
<!-- Generator: Adobe Illustrator 25.4.1, SVG Export Plug-In . SVG Version: 6.00 Build 0)  -->
<svg version="1.1" id="Capa_1" fill="currentColor" xmlns="http://www.w3.org/2000/svg" xmlns:xlink="http://www.w3.org/1999/xlink" x="0px" y="0px"
	 viewBox="0 0 100 100" style="enable-background:new 0 0 100 100;" xml:space="preserve">
<style type="text/css">
	.st0{}
</style>
<g>
	<path class="st0" d="M83.1,18.8H16.9c-2.2,0-3.9,1.8-3.9,3.9v42.7c0,2.2,1.8,3.9,3.9,3.9h6.6h23.2v6.2h-18c-0.8,0-1.4,0.6-1.4,1.4
		v2.8c0,0.8,0.6,1.4,1.4,1.4h42.5c0.8,0,1.4-0.6,1.4-1.4V77c0-0.8-0.6-1.4-1.4-1.4H53.3v-6.2h23.2h6.6c2.2,0,3.9-1.8,3.9-3.9V22.7
		C87.1,20.5,85.3,18.8,83.1,18.8z M22.5,39.1c-0.2,0-0.3-0.1-0.5-0.2c-1.1-0.4-1.7-1.1-1.7-2c0-1,0.6-1.7,1.7-2
		c2.4-0.7,4.8-1.5,7.2-2.2c6.1-1.9,12.2-3.8,18.3-5.6c0.8-0.2,1.8-0.3,2.5,0c8.3,2.5,16.6,5.1,25,7.6c1.8,0.6,2.2,1,2.2,3
		c0,3.6,0,7.3,0,10.9h-4.1c0-2.9,0-5.9,0-8.9c-2.5,0.8-4.9,1.5-7.3,2.2c-5.3,1.6-10.6,3.3-15.9,4.9c-0.8,0.2-1.7,0.2-2.4,0
		C39.2,44.3,30.9,41.7,22.5,39.1z M65.5,55.8c-5.3,2-10.5,4-15.8,5.9c-0.6,0.2-1.4,0.2-2-0.1c-5.1-1.9-10.2-3.8-15.4-5.7
		c-1.6-0.6-2-1.3-1.7-2.9c0.5-2.5,1-5,1.5-7.4c0-0.2,0.1-0.4,0.2-0.6c4.2,1.3,8.3,2.6,12.4,3.8c0.7,0.2,1.5,0.4,2.2,0.7
		c1.2,0.5,2.3,0.4,3.6,0c4.9-1.5,9.7-3,14.7-4.5c0.3,1.3,0.5,2.6,0.8,3.9c0.3,1.5,0.6,3,0.9,4.5C67.2,54.4,66.7,55.3,65.5,55.8z
		 M77.2,57.4c-0.1,1.1-1,1.9-2.1,1.8c-1,0-1.9-0.8-2-1.8c-0.1-0.5,0-1,0-1.5c0-1.5,0-3,0-4.5h4.1c0,1.7,0,3.4,0,5.1
		C77.2,56.8,77.2,57.1,77.2,57.4z"/>
</g>
</svg>
