<?xml version="1.0" encoding="utf-8"?>
<!-- Generator: Adobe Illustrator 25.4.1, SVG Export Plug-In . SVG Version: 6.00 Build 0)  -->
<svg version="1.1" id="Capa_1" fill="currentColor" xmlns="http://www.w3.org/2000/svg" xmlns:xlink="http://www.w3.org/1999/xlink" x="0px" y="0px"
	 viewBox="0 0 100 100" style="enable-background:new 0 0 100 100;" xml:space="preserve">
<style type="text/css">
	.st0{}
</style>
<g>
	<path class="st0" d="M78.2,36.1l-23-23H27.9c-3.4,0-6.1,2.7-6.1,6.1v61.6c0,3.4,2.7,6.1,6.1,6.1h44.2c3.4,0,6.1-2.7,6.1-6.1V36.1
		L78.2,36.1z M33.6,32.9h18.2v6.3H33.6V32.9z M66.4,71.7H33.6v-6.3h32.9L66.4,71.7L66.4,71.7z M66.4,60.8H33.6v-6.3h32.9L66.4,60.8
		L66.4,60.8z M66.4,50.1H33.6v-6.3h32.9L66.4,50.1L66.4,50.1z"/>
</g>
</svg>
