<?xml version="1.0" encoding="utf-8"?>
<!-- Generator: Adobe Illustrator 25.4.1, SVG Export Plug-In . SVG Version: 6.00 Build 0)  -->
<svg version="1.1" id="Capa_1" xmlns="http://www.w3.org/2000/svg" xmlns:xlink="http://www.w3.org/1999/xlink" x="0px" y="0px"
	 viewBox="0 0 100 100" style="enable-background:new 0 0 100 100;" xml:space="preserve">
<style type="text/css">
	.st0{fill:#FFFFFF;}
</style>
<g>
	<path class="st0" d="M78.2,45.3c-1.6-0.6-3.2-1.3-4.8-1.9c-2.6-1-3.3-2.5-2.2-5c0.7-1.6,1.2-3.2,1.9-4.7c0.5-1.2,0.3-2.1-0.6-2.9
		c-1.1-0.9-2.2-2-3.2-3c-0.8-0.9-1.7-1.1-2.8-0.6c-1.7,0.7-3.4,1.4-5,2.1c-2.2,0.9-3.9,0.3-4.8-1.9c-0.6-1.5-1.3-3-1.9-4.5
		c-0.6-1.4-1.4-2.2-3-2c-1.4,0.2-2.9,0.1-4.4,0c-1-0.1-1.6,0.4-2,1.2c-0.7,1.7-1.4,3.3-2.1,5c-0.9,2.4-2.6,3.1-4.9,2.1
		c-1.2-0.5-2.4-0.9-3.5-1.4c-2.1-1.1-3.9-1-5.4,1.1c-0.6,0.8-1.3,1.4-2.1,2c-1,0.8-1.2,1.7-0.6,2.9c0.7,1.6,1.4,3.2,2.1,4.8
		c0.9,2.1,0.3,3.8-1.8,4.7c-1.1,0.4-2.2,0.8-3.2,1.3c-3.6,1.5-3.6,1.5-3.6,5.3c0,0.9,0.1,1.7,0,2.6c-0.1,1.1,0.4,1.7,1.3,2.1
		c1.7,0.7,3.5,1.4,5.2,2.1c2.4,0.9,3.1,2.5,2.1,4.8c-0.8,1.9-1.8,3.9-2.2,5.9c-0.1,0.7,0.3,1.2,0.7,1.6c1.1,1.1,2.3,2.2,3.4,3.3
		c0.8,0.8,1.6,1,2.6,0.5c1.9-0.8,3.7-1.5,5.6-2.3c1.6-0.7,3.5,0.1,4.2,1.7c0.3,0.6,0.5,1.2,0.8,1.9c2.1,5.1,2.2,5.1,7.6,5.1
		c0.2,0,0.5,0,0.7,0c1.5,0.2,2.3-0.5,2.8-1.8c0.6-1.5,1.2-3,1.8-4.6c0.9-2.3,2.5-3,4.8-2.1c1.2,0.5,2.4,0.9,3.5,1.4
		c2.2,1.1,4,1,5.5-1.2c0.6-0.9,1.5-1.6,2.3-2.3c0.7-0.6,0.8-1.3,0.5-2.1c-0.8-1.8-1.5-3.6-2.3-5.4c-0.9-1.9-0.2-3.7,1.8-4.5
		c1.1-0.4,2.1-0.8,3.2-1.3c3.6-1.5,3.6-1.5,3.6-5.2c0-0.9-0.1-1.7,0-2.6C79.9,46.4,79.3,45.7,78.2,45.3z M50,60
		c-5.7,0-10.1-4.4-10.1-10c0-5.5,4.6-10,10.2-10c5.5,0,10.2,4.6,10.2,10.1C60.3,55.5,55.6,60,50,60z"/>
</g>
</svg>
