<?xml version="1.0" encoding="utf-8"?>
<!-- Generator: Adobe Illustrator 25.4.1, SVG Export Plug-In . SVG Version: 6.00 Build 0)  -->
<svg version="1.1" id="Capa_1" xmlns="http://www.w3.org/2000/svg" xmlns:xlink="http://www.w3.org/1999/xlink" x="0px" y="0px"
	 viewBox="0 0 100 100" style="enable-background:new 0 0 100 100;" xml:space="preserve">
<style type="text/css">
	.st0{fill:#FFFFFF;}
</style>
<g>
	<polygon class="st0" points="49.5,37.8 44.7,45.7 51.3,45.7 	"/>
	<path class="st0" d="M72.1,37.1H68l-2.6,12.7H70c4.9,0,7.8-3.3,7.8-7.8C77.9,39,76,37.1,72.1,37.1z"/>
	<path class="st0" d="M83.1,18.8H16.9c-2.2,0-3.9,1.8-3.9,3.9v42.7c0,2.2,1.8,3.9,3.9,3.9h6.6h23.2v6.2h-18c-0.8,0-1.4,0.6-1.4,1.4
		v2.8c0,0.8,0.6,1.4,1.4,1.4h42.5c0.8,0,1.4-0.6,1.4-1.4V77c0-0.8-0.6-1.4-1.4-1.4H53.3v-6.2h23.2h6.6c2.2,0,3.9-1.8,3.9-3.9V22.7
		C87.1,20.5,85.3,18.8,83.1,18.8z M52.7,33.2l5,20.5H53l-1-4.4h-9.6l-2.7,4.4h-5.1L48,33.2H52.7z M17.8,53.7l4.1-20.5h15.5L36.6,37
		H25.8L25,41.5h9.5l-0.7,3.7h-9.6l-0.9,4.7h11.2l-0.8,3.8H17.8z M69.9,53.7h-10L64,33.2h8.6c6.3,0,10.1,3.3,10.1,8.6
		C82.7,49,77.5,53.7,69.9,53.7z"/>
</g>
</svg>
