<?xml version="1.0" encoding="utf-8"?>
<!-- Generator: Adobe Illustrator 25.4.1, SVG Export Plug-In . SVG Version: 6.00 Build 0)  -->
<svg version="1.1" id="Capa_1" xmlns="http://www.w3.org/2000/svg" xmlns:xlink="http://www.w3.org/1999/xlink" x="0px" y="0px"
	 viewBox="0 0 100 100" style="enable-background:new 0 0 100 100;" xml:space="preserve">
<style type="text/css">
	.st0{fill:#FFFFFF;}
</style>
<g>
	<polygon class="st0" points="33.5,71.5 34.2,67.8 24.7,67.8 25.6,63.4 36.3,63.4 37.1,59.6 21.6,59.6 17.5,80.1 33.4,80.1 
		34.2,76.3 23,76.3 23.9,71.5 	"/>
	<path class="st0" d="M47.8,59.6L34.5,80.1h5.1l2.7-4.4h9.6l1,4.4h4.8l-5-20.5H47.8z M44.4,72.1l4.8-7.9l1.7,7.9H44.4z"/>
	<path class="st0" d="M72.4,59.6h-8.6l-4.1,20.5h10c7.6,0,12.8-4.7,12.8-12C82.5,62.9,78.7,59.6,72.4,59.6z M69.8,76.2h-4.6
		l2.6-12.7h4.1c3.9,0,5.8,1.9,5.8,4.9C77.7,72.8,74.8,76.2,69.8,76.2z"/>
	<path class="st0" d="M66.7,37.8c-5,1.5-9.9,3-14.7,4.5c-1.2,0.4-2.4,0.4-3.6,0c-0.7-0.3-1.5-0.5-2.2-0.7c-4.1-1.3-8.2-2.5-12.4-3.8
		c-0.1,0.2-0.2,0.4-0.2,0.6c-0.5,2.5-1,5-1.5,7.4c-0.3,1.7,0.1,2.4,1.7,2.9c5.1,1.9,10.2,3.9,15.4,5.7c0.6,0.2,1.4,0.3,2,0.1
		c5.3-1.9,10.6-3.9,15.8-5.9c1.2-0.5,1.6-1.3,1.4-2.6c-0.3-1.5-0.6-3-0.9-4.5C67.2,40.4,66.9,39.1,66.7,37.8z"/>
	<path class="st0" d="M74.5,50.4c0.1,1,1,1.8,2,1.8c1,0,1.9-0.8,2.1-1.8c0-0.3,0-0.6,0-0.9c0-1.7,0-3.4,0-5.1h-4.1c0,1.5,0,3,0,4.5
		C74.5,49.4,74.5,49.9,74.5,50.4z"/>
	<path class="st0" d="M23.5,31.9c0.2,0.1,0.3,0.1,0.5,0.2c8.3,2.6,16.6,5.1,25,7.6c0.8,0.2,1.7,0.3,2.4,0c5.3-1.6,10.6-3.2,15.9-4.9
		c2.4-0.7,4.8-1.5,7.3-2.2c0,3,0,6,0,8.9h4.1c0-3.6,0-7.3,0-10.9c0-2-0.3-2.4-2.2-3c-8.3-2.6-16.6-5.1-25-7.6
		c-0.8-0.2-1.8-0.2-2.5,0c-6.1,1.8-12.2,3.7-18.3,5.6c-2.4,0.7-4.8,1.5-7.2,2.2c-1.1,0.3-1.7,1.1-1.7,2
		C21.8,30.9,22.3,31.5,23.5,31.9z"/>
</g>
</svg>
