<?xml version="1.0" encoding="utf-8"?>
<!-- Generator: Adobe Illustrator 25.4.1, SVG Export Plug-In . SVG Version: 6.00 Build 0)  -->
<svg version="1.1" id="Capa_1" fill="currentColor" xmlns="http://www.w3.org/2000/svg" xmlns:xlink="http://www.w3.org/1999/xlink" x="0px" y="0px"
	 viewBox="0 0 100 100" style="enable-background:new 0 0 100 100;" xml:space="preserve">
<style type="text/css"> 
</style>
<g>
	<path class="st0" d="M49.6,62.3c-1.3-0.3-2.4,0-3.3,0.9c-1.7,1.7-3.4,3.5-5.1,5.1c-2.1,2-4.7,2.4-7.3,1.2c-4.4-1.9-5.4-7.5-2-11
		c3.2-3.3,6.5-6.5,9.7-9.7c3-3,6.7-3.1,9.9-0.3c1.5,1.3,3.5,1.3,4.8-0.1c1.3-1.4,1.2-3.4-0.2-4.8c-5-5-13.5-5.1-18.6-0.2
		c-3.6,3.5-7.3,7-10.7,10.7c-3.9,4.2-4.8,9.2-2.6,14.5c2.3,5.3,6.6,7.9,11.9,8.2c3.7-0.1,6.7-1,9.1-3.2c2.2-1.9,4.1-3.9,6.1-6
		C53,65.9,52,63,49.6,62.3z"/>
	<path class="st0" d="M64,23c-3.9,0.1-7,1.1-9.5,3.5c-2,1.8-3.8,3.7-5.7,5.7c-1.1,1.2-1.2,2.9-0.3,4.2c1.2,1.7,3.6,1.9,5.1,0.4
		c1.7-1.6,3.3-3.3,5-5c2.1-2,4.9-2.6,7.5-1.5c4.4,1.9,5.5,7.5,2,11.1c-3.2,3.3-6.5,6.5-9.7,9.7c-2.9,2.9-6.7,3-9.8,0.3
		c-1.5-1.3-3.5-1.3-4.8,0.1c-1.3,1.4-1.2,3.4,0.2,4.8c5.1,5,13.4,5.2,18.6,0.2c3.7-3.5,7.3-7.1,10.8-10.8c3.9-4.2,4.8-9.2,2.5-14.5
		C73.5,25.9,69.2,23.3,64,23z"/>
</g>
</svg>
