<?xml version="1.0" encoding="utf-8"?>
<!-- Generator: Adobe Illustrator 25.4.1, SVG Export Plug-In . SVG Version: 6.00 Build 0)  -->
<svg version="1.1" id="Capa_1" xmlns="http://www.w3.org/2000/svg" xmlns:xlink="http://www.w3.org/1999/xlink" x="0px" y="0px"
	 viewBox="0 0 100 100" style="enable-background:new 0 0 100 100;" xml:space="preserve">
<style type="text/css">
	.st0{fill:#FFFFFF;}
</style>
<g>
	<path class="st0" d="M85.3,32.4L62.3,9.3H35c-3.4,0-6.1,2.7-6.1,6.1v30.8C20.5,49.7,14.7,58,14.7,67.6c0,12.8,10.4,23.1,23.1,23.1
		c6.7,0,12.7-2.9,16.9-7.4h24.5c3.4,0,6.1-2.7,6.1-6.1L85.3,32.4L85.3,32.4z M40.6,29.2h18.2v6.3H40.6V29.2z M45.2,85.2
		c-0.6,0.2-1.2,0.5-1.8,0.6c-1.8,0.6-3.7,0.9-5.7,0.9c-0.7,0-1.3,0-2-0.1c-3.9-0.4-7.4-1.9-10.2-4.3c-0.9-0.8-1.8-1.6-2.6-2.6
		c-2.7-3.3-4.4-7.5-4.4-12.2c0-4.6,1.6-8.9,4.4-12.2c1.6-1.9,3.5-3.5,5.6-4.7c0.1,0,0.1-0.1,0.2-0.1c0.7-0.4,1.4-0.7,2.1-0.9
		c2.1-0.8,4.4-1.3,6.9-1.3c3.3,0,6.4,0.8,9.1,2.3c0.1,0,0.1,0.1,0.2,0.1c1.5,0.9,3,1.9,4.2,3.2c0.9,0.9,1.8,2,2.5,3.1
		c0.9,1.4,1.7,2.9,2.2,4.6c0.6,1.8,0.9,3.8,0.9,5.8c0,0.2,0,0.3,0,0.5h0c-0.1,4.8-2,9.1-5,12.4c-0.6,0.7-1.2,1.3-1.9,1.9
		c-0.4,0.3-0.8,0.7-1.3,1C47.6,84,46.5,84.7,45.2,85.2z M73.6,68H60.9c0-0.2,0-0.3,0-0.5c0-2-0.3-4-0.7-5.8h13.4V68z M73.6,57.2
		H58.4c-1.2-2.4-2.8-4.5-4.7-6.3h19.8V57.2z M73.6,46.4H47.2c-2.1-0.9-4.3-1.5-6.6-1.8v-4.5h33V46.4z"/>
	<path class="st0" d="M42,68l-1.4-1.4l0,0c-0.1-0.2-0.1-0.4-0.2-0.5V55v-1h-1h-3.3h-1v1v11.2c-0.2,0.4-0.3,0.8-0.3,1.3
		s0.1,0.9,0.3,1.3l0.1,0.2l0.1,0.2c0.4,0.6,1,1,1.7,1.2l8.4,8.4l0.7,0.7l0.7-0.7l2.3-2.3l0.7-0.7l-0.7-0.7L42,68z M46.1,78.1"/>
</g>
</svg>
