<?xml version="1.0" encoding="utf-8"?>
<!-- Generator: Adobe Illustrator 25.4.1, SVG Export Plug-In . SVG Version: 6.00 Build 0)  -->
<svg version="1.1" id="Capa_1" xmlns="http://www.w3.org/2000/svg" xmlns:xlink="http://www.w3.org/1999/xlink" x="0px" y="0px"
	 viewBox="0 0 100 100" style="enable-background:new 0 0 100 100;" xml:space="preserve">
<style type="text/css">
	.st0{fill:#FFFFFF;}
</style>
<path class="st0" d="M63.5,35.6L50.7,23.3c-0.4-0.4-1-0.4-1.4,0L36.5,35.6L24.7,46.8c-0.6,0.6-0.2,1.7,0.7,1.7h4c0.6,0,1,0.4,1,1V76
	c0,0.6,0.4,1,1,1h11.7c0.6,0,1-0.4,1-1V59.6c0-0.6,0.4-1,1-1h9.6c0.6,0,1,0.4,1,1V76c0,0.6,0.4,1,1,1h11.7c0.6,0,1-0.4,1-1V49.5
	c0-0.6,0.4-1,1-1h4.2c0.9,0,1.3-1.1,0.7-1.7L63.5,35.6z"/>
</svg>
