<?xml version="1.0" encoding="utf-8"?>
<!-- Generator: Adobe Illustrator 25.4.1, SVG Export Plug-In . SVG Version: 6.00 Build 0)  -->
<svg version="1.1" id="Capa_1" xmlns="http://www.w3.org/2000/svg" xmlns:xlink="http://www.w3.org/1999/xlink" x="0px" y="0px"
	 viewBox="0 0 100 100" style="enable-background:new 0 0 100 100;" xml:space="preserve">
<style type="text/css">
	.st0{fill:#FFFFFF;}
</style>
<g>
	<path class="st0" d="M61.2,84.9c0.2,0,0.4,0,0.6,0c0,0,0,0,0,0c0.2,0,0.3,0,0.5,0c-0.2,0-0.3,0-0.5,0
		C61.6,84.9,61.4,84.9,61.2,84.9z"/>
	<path class="st0" d="M29.6,74.9c0,0.8,0.1,1.6,0.2,2.4C29.7,76.5,29.6,75.8,29.6,74.9L29.6,74.9z"/>
	<path class="st0" d="M86.6,84.2c-1.2,0.5-2.6,0.7-4.1,0.7C84,84.9,85.4,84.7,86.6,84.2z"/>
	<path class="st0" d="M89.1,82.9c-0.7,0.6-1.5,1-2.5,1.4C87.5,83.9,88.3,83.4,89.1,82.9z"/>
	<path class="st0" d="M63,32.9c-2.3,0-4.7,0-7,0c8.9,0,17.8,0,26.6,0C76.1,32.9,69.5,32.9,63,32.9z"/>
	<path class="st0" d="M79.2,84.9c1.1,0,2.2,0,3.3,0c-2.1,0-4.2,0-6.3,0C77.2,84.9,78.2,84.9,79.2,84.9z"/>
	<path class="st0" d="M55.1,28.7v-6.3c0,0,0,0,0,0c0-3.7,0-7.4,0-11.1c0-4.2-3.6-7.2-7.2-7.2c-11.1,0.1-22.2,0-33.3,0
		c-4.1,0-7.1,3-7.1,7.2c0,8.3,0,16.6,0,24.9c0,3.7,2.2,6.3,5.7,7.1c2,0.4,1.5,0.1,3.5,0.2c1.5,0,1.5,0,1.5,1.5c0,2.4,0,4.8,0,7.2
		c0.5-0.1,0.7-0.5,1-0.7c2.1-2.1,4.2-4.1,6.3-6.2c0-0.8,0-1.7,0-2.5c0-8.3,5.8-14,14-14.1C44.7,28.7,49.9,28.7,55.1,28.7z
		 M21.9,26.8c-1.9,0-3.3-1.3-3.3-3.2c0-2.2,1.6-3.7,3.7-3.7c1.9,0,3.2,1.3,3.2,3.2C25.5,25.3,23.8,26.8,21.9,26.8z M31.1,26.8
		c-1.9,0-3.3-1.3-3.3-3.2c0-2.2,1.6-3.7,3.7-3.7c1.9,0,3.2,1.3,3.2,3.2C34.8,25.3,33.1,26.8,31.1,26.8z M37.1,23.6
		c0-2.2,1.6-3.7,3.7-3.7c1.9,0,3.2,1.3,3.2,3.2c0,2.2-1.7,3.7-3.6,3.7C38.5,26.8,37.1,25.5,37.1,23.6z"/>
	<path class="st0" d="M91.8,38.7C91,36.6,89.5,35,87.5,34c-0.8-0.4-1.8-0.7-2.8-0.9c-0.7-0.1-1.4-0.2-2.1-0.2c-8.9,0-17.8,0-26.6,0
		c0,0-0.1,0-0.1,0c-0.3,0-0.5,0-0.8,0c-5.2,0-10.4,0-15.6,0c0,0,0,0-0.1,0c-0.5,0-1.1,0-1.6,0.1c-0.3,0-0.6,0.1-0.9,0.1
		c-1.1,0.2-2.1,0.6-2.9,1.1c-0.4,0.2-0.8,0.5-1.1,0.7c-1.7,1.4-2.8,3.3-3.2,5.7c-0.1,0.7-0.2,1.4-0.2,2.1c0,0.2,0,0.5,0,0.7
		c0,0.7,0,1.4,0,2.1c0,2.8,0,5.6,0,8.4c0,5.2,0,10.5,0,15.7c0,1.7,0,3.5,0,5.2c0,0.8,0.1,1.6,0.2,2.4c0.1,0.5,0.2,1,0.4,1.4
		c0.1,0.4,0.3,0.8,0.5,1.2c0.1,0.3,0.3,0.6,0.5,0.8c0.3,0.5,0.7,1,1.2,1.5c0.4,0.4,0.9,0.8,1.5,1.2c0.5,0.3,1.1,0.6,1.7,0.9
		c1.2,0.5,2.6,0.7,4.1,0.7c2.7,0,5.4,0,8.1,0c0.8,0,1.6,0,2.5,0c3.7,0,7.4,0,11.1,0c0.2,0,0.4,0,0.6,0c0.2,0,0.3,0,0.5,0
		c0,0,0.1,0,0.1,0c0.1,0,0.2,0,0.3,0c0,0,0,0,0,0c0.1,0,0.2,0,0.3,0.1c0,0,0.1,0,0.1,0c0.1,0.1,0.2,0.1,0.3,0.2
		c1.7,1.8,3.5,3.5,5.2,5.2c1.7,1.7,3.5,3.5,5.2,5.3c0.5,0,0.9,0,1.4,0c-0.1-1.3-0.1-2.5-0.1-3.8c0-2.1,0-4.2,0-6.3
		c0-0.1,0-0.2,0-0.3c0,0,0,0,0-0.1c0,0,0-0.1,0-0.1c0,0,0,0,0-0.1c0,0,0-0.1,0.1-0.1c0,0,0,0,0.1,0c0,0,0,0,0.1-0.1c0,0,0,0,0.1,0
		c0,0,0.1,0,0.1,0c0,0,0.1,0,0.1,0c0,0,0.1,0,0.1,0c0,0,0.1,0,0.1,0c0,0,0.1,0,0.1,0c0,0,0.1,0,0.1,0c0,0,0,0,0.1,0c0,0,0,0,0.1,0
		c2.1,0,4.2,0,6.3,0c1.5,0,2.9-0.2,4.1-0.7c0,0,0,0,0,0c0.9-0.3,1.7-0.8,2.5-1.4c0.2-0.2,0.5-0.4,0.7-0.6c0.7-0.6,1.2-1.4,1.6-2.2
		c0.3-0.6,0.5-1.2,0.7-1.8c0.3-1,0.4-2,0.4-3.2c0-2.7,0-5.4,0-8.1c0-8.1,0-16.1,0-24.2C92.5,41.3,92.2,39.9,91.8,38.7z M57.3,77.8
		c-2.7,0-4.7-1.9-4.7-4.2c0-2.8,2.2-4.9,5.1-4.9c2.7,0,4.6,1.8,4.6,4.1C62.4,75.6,60.2,77.8,57.3,77.8z M63,65.1h-7.6
		c1.5-7.5,10.5-8.4,10.5-13.7c0-2.1-1.7-3.4-4.9-3.4c-3.3,0-6,1.4-7.9,3.8L47.7,48c3-4,8.3-6.6,14.9-6.6c7.1,0,11.7,3.3,11.7,8.5
		C74.3,58.7,64.4,59.3,63,65.1z"/>
	<path class="st0" d="M86.6,84.2C86.6,84.2,86.6,84.2,86.6,84.2C86.6,84.2,86.6,84.2,86.6,84.2z"/>
	<path class="st0" d="M55.9,32.9C55.9,32.9,55.9,32.9,55.9,32.9C55.9,32.9,55.9,32.9,55.9,32.9c-0.3,0-0.5,0-0.8,0v0
		C55.3,32.9,55.6,32.9,55.9,32.9z"/>
	<path class="st0" d="M62.3,84.9c0.1,0,0.3,0,0.4,0c-0.1,0-0.2,0-0.3,0C62.4,84.9,62.3,84.9,62.3,84.9z"/>
	<path class="st0" d="M75.2,92.1c0-2.1,0-4.2,0-6.3c0-0.1,0-0.2,0-0.3c0,0.1,0,0.2,0,0.3C75.2,87.9,75.2,90,75.2,92.1z"/>
	<path class="st0" d="M47.7,84.9c-2.7,0-5.4,0-8.1,0c7.2,0,14.4,0,21.6,0c-3.7,0-7.4,0-11.1,0C49.4,84.9,48.5,84.9,47.7,84.9z"/>
	<path class="st0" d="M76.1,84.9c0,0,0.1,0,0.1,0C76.2,84.9,76.2,84.9,76.1,84.9C76.1,84.9,76.1,84.9,76.1,84.9z"/>
	<path class="st0" d="M33.8,83.4c-0.5-0.3-1-0.7-1.5-1.2C32.8,82.6,33.3,83,33.8,83.4z"/>
	<path class="st0" d="M32.3,82.2c-0.4-0.4-0.8-0.9-1.2-1.5C31.5,81.3,31.9,81.8,32.3,82.2z"/>
	<path class="st0" d="M55.1,32.9c-5.2,0-10.4,0-15.6,0C44.7,32.9,49.9,32.9,55.1,32.9L55.1,32.9z"/>
</g>
</svg>
