<?xml version="1.0" encoding="utf-8"?>
<!-- Generator: Adobe Illustrator 25.4.1, SVG Export Plug-In . SVG Version: 6.00 Build 0)  -->
<svg version="1.1" id="Capa_1" fill="currentColor" xmlns="http://www.w3.org/2000/svg" xmlns:xlink="http://www.w3.org/1999/xlink" x="0px" y="0px"
	 viewBox="0 0 100 100" style="enable-background:new 0 0 100 100;" xml:space="preserve">
<style type="text/css">
	.st0{}
</style>
<g>
	<path class="st0" d="M68.3,19.5H31.7c-6.5,0-11.8,5.3-11.8,11.8v37.5c0,6.5,5.3,11.8,11.8,11.8h36.6c6.5,0,11.8-5.3,11.8-11.8V31.3
		C80.1,24.8,74.8,19.5,68.3,19.5z M31.2,52.2c0-12.7,9.1-22.2,21.2-22.2c10,0,17,6.9,17,16.9c0,9.2-5.3,14-10.6,14
		c-1.4,0-2.6-0.5-3.4-1.4c-0.6-0.7-1.1-1.6-1.2-2.6c-2,2.7-4.5,4-7.7,4c-3.3,0-6.7-2.6-6.7-7.7c0-7.7,6.3-14,14-14
		c2.3,0,4.6,0.5,6.3,1.2l0.4,0.2l-2,10.7c-0.6,3.3-0.3,4.6,0.2,5.2c0.2,0.3,0.5,0.4,1,0.4c0.9,0.1,1.8-0.4,2.6-1.2
		c1.8-1.8,2.8-4.8,2.8-8.5c0-8.3-5-13.4-13-13.4c-9.4,0-16.3,7.6-16.3,18.1c0,8.7,5.6,14.6,13.9,14.6c3.2,0,6-0.7,8.2-1.9l0.6-0.3
		l1.3,3.6l-0.5,0.2c-3,1.6-6.2,2.3-10.3,2.3C38.6,70.4,31.2,62.7,31.2,52.2z"/>
	<path class="st0" d="M44.6,52.9c0,1.1,0.3,3.7,3.1,3.7c2.9,0,5.7-3.8,6.3-7.2l1.1-5.8c-0.7-0.2-1.4-0.2-2.1-0.2
		C48.5,43.4,44.6,47.8,44.6,52.9z"/>
</g>
</svg>
