<?xml version="1.0" encoding="utf-8"?>
<!-- Generator: Adobe Illustrator 25.4.1, SVG Export Plug-In . SVG Version: 6.00 Build 0)  -->
<svg version="1.1" id="Capa_1" xmlns="http://www.w3.org/2000/svg" xmlns:xlink="http://www.w3.org/1999/xlink" x="0px" y="0px"
	 viewBox="0 0 100 100" style="enable-background:new 0 0 100 100;" xml:space="preserve">
<style type="text/css">
	.st0{fill:#FFFFFF;}
</style>
<g>
	<polygon class="st0" points="45.9,53.9 53,53.9 54.1,46.1 47,46.1 	"/>
	<path class="st0" d="M68.3,19.5H31.7c-6.5,0-11.8,5.3-11.8,11.8v37.5c0,6.5,5.3,11.8,11.8,11.8h36.6c6.5,0,11.8-5.3,11.8-11.8V31.3
		C80.1,24.8,74.8,19.5,68.3,19.5z M64.8,53.9v5.3h-6.9l-1,7.7h-5.5l1-7.7h-7.1l-1,7.7h-5.4l1-7.7h-6.3v-5.3h7l1-7.8h-6.3v-5.3h7
		l1-7.7h5.4l-1,7.7h7.1l1-7.7h5.4l-1,7.7h6.3v5.3h-7l-1,7.8H64.8z"/>
</g>
</svg>
