<?xml version="1.0" encoding="utf-8"?>
<!-- Generator: Adobe Illustrator 25.4.1, SVG Export Plug-In . SVG Version: 6.00 Build 0)  -->
<svg version="1.1" id="Capa_1" xmlns="http://www.w3.org/2000/svg" xmlns:xlink="http://www.w3.org/1999/xlink" x="0px" y="0px"
	 viewBox="0 0 100 100" style="enable-background:new 0 0 100 100;" xml:space="preserve">
<style type="text/css">
	.st0{fill:#FFFFFF;}
</style>
<g>
	<path class="st0" d="M53.8,53.9c-0.9-1.5-1.7-2.9-2.5-4.3c-0.6-1.1-1.2-2.2-1.8-3.3l-18,39.2c-0.2,0.5,0.2,1,0.7,1l19.1-3.3
		c0.2,0,0.4-0.2,0.5-0.4l5.7-16.3l1.4-3.9l-1.9-3.1C57.1,59.4,55.7,57.2,53.8,53.9z"/>
	<path class="st0" d="M45,45.1l-14.8-4.9c-0.3-0.1-0.7,0-0.8,0.3L8.2,80.9c-0.2,0.4,0,0.9,0.4,1l17.5,4.9c0.3,0.1,0.7-0.1,0.8-0.4
		l3.6-7.9L45.4,46C45.6,45.6,45.4,45.2,45,45.1z"/>
	<path class="st0" d="M91.3,46.3L91,46.2l0,0l-16.3-3.9c-0.1,0.1-0.1,0.2-0.2,0.3c-4.4,8.5-9.4,16.5-9.6,16.9l-1.6,2.7l-1.6,4.6
		l-5.8,16.3c-0.1,0.3,0.1,0.7,0.4,0.9l20.3,7.6c0.4,0.1,0.8-0.1,0.9-0.4l14.4-44C91.9,46.7,91.7,46.3,91.3,46.3z"/>
	<g>
		<path class="st0" d="M49.8,36.9c0.6,1.1,1.1,2.3,1.7,3.4c1.2,2.3,2.5,4.6,3.7,6.7c0.9,1.6,1.7,3,2.4,4.3c1.9,3.3,3.3,5.5,3.3,5.5
			s5-8.1,9.4-16.6c0.6-1.1,1.2-2.3,1.7-3.4c2.6-5.4,4.7-10.5,4.7-13.3c0-8.1-8.6-15.1-15.8-15.1c-7.3,0-15.8,7-15.8,15.1
			C45.1,26.3,47.2,31.5,49.8,36.9z M60.9,13.3c5.4,0,9.7,4.3,9.7,9.7c0,5.4-4.3,9.7-9.7,9.7s-9.7-4.3-9.7-9.7
			C51.2,17.6,55.6,13.3,60.9,13.3z"/>
	</g>
</g>
</svg>
