<?xml version="1.0" encoding="utf-8"?>
<!-- Generator: Adobe Illustrator 25.4.1, SVG Export Plug-In . SVG Version: 6.00 Build 0)  -->
<svg version="1.1" id="Capa_1" xmlns="http://www.w3.org/2000/svg" xmlns:xlink="http://www.w3.org/1999/xlink" x="0px" y="0px"
	 viewBox="0 0 100 100" style="enable-background:new 0 0 100 100;" xml:space="preserve">
<style type="text/css">
	.st0{fill:currentColor;}
</style>
<g>
	<path class="st0" d="M13.1,75.9h3.2v1.7c-0.4,0.3-0.9,0.6-1.5,0.8c-0.6,0.2-1.2,0.3-1.8,0.3c-1.2,0-2.1-0.4-2.9-1.2
		c-0.7-0.8-1.1-2-1.1-3.7c0-1.5,0.4-2.7,1.1-3.4c0.7-0.8,1.7-1.2,2.9-1.2c0.8,0,1.5,0.2,2,0.6s0.9,0.9,1.1,1.6l2.8-0.5
		c-0.3-1.3-0.9-2.3-1.9-3s-2.3-1.1-4-1.1c-1.3,0-2.4,0.2-3.3,0.7c-1.2,0.6-2,1.5-2.6,2.6s-0.9,2.4-0.9,3.8c0,1.3,0.3,2.5,0.8,3.7
		c0.5,1.1,1.3,2,2.4,2.6s2.3,0.9,3.8,0.9c1.1,0,2.3-0.2,3.4-0.6s1.9-0.9,2.5-1.5v-5.5h-6V75.9z"/>
	<path class="st0" d="M29.8,74.8c0,1.1,0,1.9-0.1,2.3c-0.1,0.5-0.3,0.9-0.7,1.2c-0.4,0.3-1,0.5-1.8,0.5s-1.4-0.2-1.8-0.5
		s-0.7-0.8-0.9-1.4c-0.1-0.4-0.1-1.1-0.1-2.3v-7.5h-2.8v7.3c0,1.5,0.1,2.7,0.3,3.5c0.1,0.5,0.4,1,0.8,1.5s0.9,0.9,1.6,1.2
		c0.7,0.3,1.7,0.5,3,0.5c1.1,0,2-0.1,2.7-0.4s1.2-0.7,1.6-1.1c0.4-0.5,0.7-1,0.8-1.7c0.2-0.7,0.2-1.9,0.2-3.5v-7.2h-2.8
		C29.8,67.2,29.8,74.8,29.8,74.8z"/>
	<path class="st0" d="M39.5,67.2L34.1,81h3l1.1-3.1h5.5l1.2,3.1h3l-5.5-13.8H39.5z M39.1,75.5l1.9-5.1l1.9,5.1H39.1z"/>
	<path class="st0" d="M58.6,76c-0.4-0.4-0.9-0.8-1.5-1.2c1.2-0.2,2.1-0.6,2.7-1.3c0.6-0.7,0.9-1.5,0.9-2.6c0-0.8-0.2-1.5-0.6-2.2
		c-0.4-0.6-0.9-1.1-1.6-1.3c-0.7-0.2-1.7-0.4-3.2-0.4h-5.9v13.8h2.8V75h0.6c0.6,0,1.1,0.1,1.4,0.2c0.3,0.1,0.6,0.3,0.8,0.6
		c0.3,0.3,0.8,1,1.5,2l2,3h3.3l-1.7-2.7C59.5,77.2,58.9,76.4,58.6,76z M54.3,73h-2.1v-3.5h2.2c1.1,0,1.8,0,2,0
		c0.5,0.1,0.8,0.3,1,0.5c0.2,0.3,0.4,0.7,0.4,1.1s-0.1,0.8-0.3,1c-0.2,0.3-0.4,0.5-0.8,0.6C56.4,72.9,55.6,73,54.3,73z"/>
	<path class="st0" d="M67.3,67.2L61.9,81h3l1.1-3.1h5.5l1.2,3.1h3l-5.5-13.8H67.3z M66.9,75.5l1.9-5.1l1.9,5.1H66.9z"/>
	<polygon class="st0" points="85.6,76.4 80,67.2 77.3,67.2 77.3,80.9 79.8,80.9 79.8,72 85.4,80.9 88.2,80.9 88.2,67.2 85.6,67.2 	
		"/>
	<path class="st0" d="M24.3,52.5c-5.3,0-10.7,0-16,0c-0.7,0-1.4,0.1-2.2,0.1c0,2.8,0,5.5,0,8.2C6.5,60.9,6.6,61,6.8,61
		c6.4,0,12.8,0.2,19.2,0c4.7-0.2,8.5-2.6,11.1-6.6c3.1-4.9,3.2-10,0.3-15c-2.8-4.8-7.3-7.1-12.8-7.1c-2.8,0-5.7,0-8.5,0
		c-2.2-0.1-3.7-2.1-2.6-3.7c0.5-0.8,1.9-1.5,2.8-1.5C22.9,27,29.5,27,36.1,27c1.4,0,1.9-0.4,1.8-1.8c-0.1-1.4-0.1-2.8,0-4.2
		c0.1-1.5-0.4-2.1-2-2.1c-6.2,0.1-12.4,0-18.6,0.1c-3,0.1-6,0.3-8.4,2.6c-3.1,3-4.3,6.6-3.3,10.8s3.8,7,8.1,7.7
		c3.5,0.5,7.1,0.3,10.6,0.4c4,0.1,6.8,2.5,6.7,6.2C31,50.1,28.3,52.5,24.3,52.5z"/>
	<path class="st0" d="M88.9,18.8c-1.6,0-2.2,0.6-2.2,2.2c0.1,4.1,0,8.2,0,12.3c0,2.5,0,5.4,0,7.9c0,2.1-0.2,4.1-0.7,6.1
		c-1,3.9-5.1,6.2-9.1,5.5c-3.8-0.6-6.5-3.9-6.5-7.8c-0.1-7.2-0.2-14.3-0.4-21.5v-3.1c0-0.7-0.6-1.4-1.4-1.4h-5.1
		c-1.2,0-2.4,0-3.5-0.1c0,0,0,0,0,0.1h-0.2c-0.7,0-1.4,0.6-1.4,1.4v5c0,0.7,0.6,1.4,1.4,1.4h0.1l0,0c2.1-0.2,1.9,1.3,1.9,2.6
		c-0.1,5,0.2,10,0.1,15c-0.2,10.4,8.5,18.1,18.7,16.8c8.1-1.1,14.2-7.8,14.3-16.1c0-6.9-0.3-13.8-0.3-20.8
		C94.4,18.8,94.5,18.8,88.9,18.8z"/>
	<path class="st0" d="M46.2,60.9C48.6,61,51,61,53.7,61c0-1,0-1.8,0-2.5c-0.1-11.3-0.3-22.7-0.4-34c-0.1-5.7,0-5.7-5.7-5.6
		c-1.6,0-2,0.6-2,2.1c0,5.5-0.1,11.1-0.2,16.6c-0.1,7.3-0.1,14.6-0.1,21.9C45.3,60,45.9,60.9,46.2,60.9z"/>
</g>
</svg>
