<?xml version="1.0" encoding="utf-8"?>
<!-- Generator: Adobe Illustrator 25.4.1, SVG Export Plug-In . SVG Version: 6.00 Build 0)  -->
<svg version="1.1" id="Capa_1" xmlns="http://www.w3.org/2000/svg" xmlns:xlink="http://www.w3.org/1999/xlink" x="0px" y="0px"
	 viewBox="0 0 100 100" style="enable-background:new 0 0 100 100;" xml:space="preserve">
<style type="text/css">
	.st0{fill:#FFFFFF;}
</style>
<path class="st0" d="M79.2,13.6L79.2,13.6L79.2,13.6l-58.5,6.2c-3.9,0-7,3.2-7,7.1v46.2c0,3.9,3.1,7.1,7,7.1l58.4,6.2h0.1h0.1
	c3.9,0,7.1-3.2,7.1-7.1V20.7C86.3,16.7,83.1,13.6,79.2,13.6z M41.3,81L41.3,81l-20.5-2.1c-2,0-3.8-1-4.8-2.6c-0.3-0.5-0.6-1-0.7-1.5
	c-0.2-0.5-0.3-1.1-0.3-1.7v-17c2.6-5.8,7.6-9.5,13.8-9.5c4.9,0,8.9,2.1,11.7,6.1c0.3,0.5,0.3,1.2-0.1,1.7l-3.5,4.2
	C36.7,58.9,36.4,59,36,59c-0.3,0-0.7-0.2-0.9-0.5c-1.7-2.3-3.7-3.3-6.1-3.3c-4.8,0-8.1,4.2-8.1,10.5c0,6.2,3.3,10.5,8,10.5
	c1.5,0,2.7-0.3,3.9-1v-8.9c0-0.4,0.1-0.7,0.3-1c0.1-0.4,0.4-0.8,0.8-0.9c0.3-0.2,0.7-0.3,1.1-0.3h4.1c1.2,0,2.2,1,2.2,2.2
	C41.3,66.3,41.3,81,41.3,81z"/>
</svg>
