<?xml version="1.0" encoding="utf-8"?>
<!-- Generator: Adobe Illustrator 25.4.1, SVG Export Plug-In . SVG Version: 6.00 Build 0)  -->
<svg version="1.1" id="Capa_1" xmlns="http://www.w3.org/2000/svg" xmlns:xlink="http://www.w3.org/1999/xlink" x="0px" y="0px"
	 viewBox="0 0 100 100" style="enable-background:new 0 0 100 100;" xml:space="preserve">
<style type="text/css">
	.st0{fill:#FFFFFF;}
</style>
<g>
	<path class="st0" d="M23.8,43.8c5.8,0,9.8-4.7,9.7-9.6c0.2-5.1-4.3-9.9-9.8-9.8c-5,0.1-9.7,4.3-9.6,9.9
		C14.3,39.5,18.4,43.8,23.8,43.8z"/>
	<path class="st0" d="M37.9,50.8c-0.4-0.4-0.7-0.8-1.1-1.2c-1.8-1.8-3.9-3.2-6.3-4.2c-0.5-0.2-0.8-0.2-1.3,0c-3.5,1.7-7,1.7-10.5,0
		c-0.4-0.2-0.8-0.3-1.3-0.1c-3.7,1.5-6.6,4-8.9,7.2C7.6,53.7,7,55,6.3,56.2c0,0.2,0.1,0.3,0.2,0.4c1.7,1.3,3.3,2.6,5.2,3.5
		c1,0.5,1.9,1,2.9,1.4c1.9,0.6,3.8,1.1,5.7,1.4c1.6,0.2,3.1,0.3,4.7,0.2c0.6-1.1,1.2-2.2,2-3.3C29.9,55.9,33.4,52.7,37.9,50.8z"/>
	<path class="st0" d="M76.2,43.8c5.4,0,9.5-4.3,9.6-9.5c0.1-5.6-4.6-9.8-9.6-9.9c-5.5-0.1-10,4.7-9.8,9.8
		C66.3,39.1,70.4,43.8,76.2,43.8z"/>
	<path class="st0" d="M82.6,45.4c-0.5-0.2-0.8-0.1-1.3,0.1c-3.5,1.7-7,1.6-10.5,0c-0.5-0.2-0.8-0.2-1.3,0c-2.4,1-4.5,2.4-6.3,4.2
		c-0.4,0.4-0.8,0.8-1.1,1.2c4.5,2,8,5.1,10.9,9.1c0.7,1,1.4,2.2,2,3.3c1.6,0.1,3.1,0,4.7-0.2c2-0.3,3.9-0.7,5.7-1.4
		c1-0.4,2-0.9,2.9-1.4c1.9-0.9,3.5-2.2,5.2-3.5c0.1-0.1,0.2-0.2,0.2-0.4c-0.7-1.2-1.4-2.5-2.2-3.6C89.2,49.4,86.3,46.9,82.6,45.4z"
		/>
	<path class="st0" d="M66.9,57.9c-2.4-2.3-5.1-4.2-8.3-5.5c-0.6-0.2-1.1-0.2-1.7,0c-4.6,2.2-9.1,2.2-13.7,0
		c-0.6-0.3-1.1-0.3-1.7-0.1c-4.9,2-8.7,5.2-11.7,9.4c-1,1.6-1.8,3.3-2.8,4.9c0,0.2,0.2,0.4,0.3,0.5c2.2,1.7,4.3,3.4,6.8,4.6
		c1.3,0.6,2.5,1.3,3.8,1.8c2.4,0.8,4.9,1.5,7.5,1.8c3.9,0.5,7.8,0.5,11.7-0.4c2.6-0.6,5.1-1.4,7.5-2.5c2.2-1.1,4.3-2.3,6.2-3.8
		c0.8-0.6,1.7-1.1,2.3-2c-0.4-0.7-0.8-1.4-1.2-2.1C70.6,62.1,68.9,59.8,66.9,57.9z"/>
	<path class="st0" d="M50,50.9c7.6,0,12.8-6.2,12.7-12.6c0.3-6.7-5.6-12.9-12.8-12.8c-6.5,0.1-12.7,5.6-12.5,12.9
		C37.6,45.3,43,50.9,50,50.9z"/>
</g>
</svg>
