<?xml version="1.0" encoding="utf-8"?>
<!-- Generator: Adobe Illustrator 25.4.1, SVG Export Plug-In . SVG Version: 6.00 Build 0)  -->
<svg version="1.1" id="Capa_1" xmlns="http://www.w3.org/2000/svg" xmlns:xlink="http://www.w3.org/1999/xlink" x="0px" y="0px"
	 viewBox="0 0 118.6 57.1" style="enable-background:new 0 0 118.6 57.1;" xml:space="preserve">
<style type="text/css">
	.st0{fill:#1E3258;}
</style>
<g>
	<path class="st0" d="M81.2,28.3c-2.5,0-4.5,2-4.5,4.5c0,2.5,2,4.5,4.5,4.5c2.5,0,4.5-2,4.5-4.5C85.7,30.3,83.7,28.3,81.2,28.3z"/>
	<path class="st0" d="M103.2,11.2l-7.7,25V25.9c0-2.8-0.3-5-0.8-6.7c-0.6-1.7-1.5-3.1-2.8-4.3c-1.3-1.2-2.9-2.1-4.6-2.7
		c-1.8-0.6-3.7-0.9-6-0.9c-2.2,0-4.2,0.3-6,0.9c-1.8,0.6-3.3,1.5-4.6,2.7c-0.2,0.2-0.3,0.4-0.5,0.5c-2.7-2.9-6.6-4.3-11.7-4.3
		l-18.5,0c-0.1,0-0.1,0-0.2,0c-2.2,0-4.2,0.3-6,0.9c-1.8,0.6-3.3,1.5-4.6,2.7c-1.3,1.2-2.2,2.6-2.7,4.3c-0.5,1.7-0.8,3.9-0.8,6.8
		v6.6l0,0c0,2.3-0.5,4-1.4,5c-0.9,1-2.3,1.5-4.3,1.5c-2,0-3.5-0.5-4.4-1.5c-0.9-1-1.3-2.6-1.3-5V11.2H5.8v20c0,2.8,0.3,5,0.8,6.7
		c0.6,1.7,1.5,3.1,2.8,4.3c1.3,1.2,2.9,2.1,4.6,2.7c1.8,0.6,3.7,0.9,6,0.9c2.2,0,4.2-0.3,6-0.9c1.8-0.6,3.3-1.5,4.6-2.7
		c1.3-1.2,2.2-2.6,2.7-4.3c0.5-1.6,0.8-3.9,0.8-6.6l0,0v-6.7c0-2.3,0.5-4,1.4-5c0.9-1,2.3-1.5,4.3-1.5c2,0,3.5,0.5,4.4,1.5
		c0.9,1,1.3,2.6,1.3,5v21.2h0.2l0,0.1h11.6c4,0,7.2-0.7,9.8-2.1V46h8.5V24.8c0-2.3,0.5-4,1.4-5c0.9-1,2.3-1.5,4.3-1.5
		c2,0,3.5,0.5,4.4,1.5c0.9,1,1.3,2.6,1.3,5v21h5.5l0,0h8.6l11.7-34.6H103.2z M65,36.2c-1.3,1.6-3.3,2.4-6.1,2.4h-4.9V18.5H59
		c2.8,0,4.8,0.8,6.1,2.4c1.3,1.6,1.9,4.2,1.9,7.7C67,32,66.3,34.6,65,36.2z"/>
</g>
</svg>
