<?xml version="1.0" encoding="utf-8"?>
<!-- Generator: Adobe Illustrator 25.4.1, SVG Export Plug-In . SVG Version: 6.00 Build 0)  -->
<svg version="1.1" id="Capa_1" xmlns="http://www.w3.org/2000/svg" xmlns:xlink="http://www.w3.org/1999/xlink" x="0px" y="0px"
	 viewBox="0 0 291.6 290.1" style="enable-background:new 0 0 291.6 290.1;" xml:space="preserve">
<style type="text/css">
	.st0{fill:#1E3258;}
	.st1{fill:#FFFFFF;}
</style>
<path class="st0" d="M219.8,9.2H73.2C38.1,9.2,9.7,37.6,9.7,72.7v146.7c0,35.1,28.4,63.5,63.5,63.5h146.7
	c35.1,0,63.5-28.4,63.5-63.5V72.7C283.3,37.6,254.9,9.2,219.8,9.2z"/>
<g>
	<path class="st1" d="M160.4,169.1h15v-37.6c0-4.1,1-7,2.5-8.8c1.5-1.7,4.1-2.6,7.6-2.6c3.6,0,6.2,0.9,7.7,2.6
		c1.6,1.7,2.3,4.7,2.3,8.8v37.3h9.8l0,0h15.2l20.6-61.4h-17l-13.6,44.3v-18.3c0-5-0.5-8.9-1.5-11.9c-1-3-2.6-5.5-4.9-7.6
		c-2.4-2.1-5.1-3.7-8.2-4.8c-3.1-1.1-6.6-1.6-10.6-1.6c-3.9,0-7.4,0.5-10.6,1.6c-3.1,1.1-5.8,2.7-8.2,4.8c-0.3,0.3-0.6,0.6-0.9,0.9
		c-4.9-5.1-11.8-7.6-20.7-7.6l-32.8,0c-0.1,0-0.2,0-0.3,0c-3.9,0-7.4,0.5-10.6,1.6c-3.1,1.1-5.8,2.7-8.2,4.8
		c-2.2,2.1-3.9,4.6-4.8,7.5c-1,3-1.5,7-1.5,12v11.6l0,0c0,4.1-0.9,7-2.5,8.8c-1.5,1.7-4.1,2.6-7.6,2.6c-3.6,0-6.2-0.9-7.7-2.6
		c-1.6-1.7-2.3-4.7-2.3-8.8v-37.3h-15v35.5c0,5,0.5,8.9,1.5,11.9c1,3,2.6,5.5,4.9,7.6c2.4,2.1,5.1,3.7,8.2,4.8
		c3.1,1.1,6.6,1.6,10.6,1.6c3.9,0,7.4-0.5,10.6-1.6c3.1-1.1,5.9-2.7,8.2-4.8c2.2-2.1,3.8-4.6,4.8-7.5c0.9-2.9,1.4-6.9,1.4-11.7l0,0
		v-11.9c0-4.1,1-7,2.5-8.8c1.5-1.7,4.1-2.6,7.6-2.6c3.6,0,6.2,0.9,7.7,2.6c1.6,1.7,2.3,4.7,2.3,8.8v37.5h0.4l0,0.2H143
		c7,0,12.8-1.2,17.4-3.7V169.1z M156.6,151.7c-2.3,2.9-5.9,4.3-10.8,4.3h-8.6v-35.8h8.6c4.9,0,8.5,1.4,10.8,4.3
		c2.3,2.9,3.4,7.4,3.4,13.6C160,144.3,158.9,148.8,156.6,151.7z"/>
	<path class="st1" d="M185.3,137.7c-4.4,0-8,3.6-8,8c0,4.4,3.6,8,8,8c4.4,0,8-3.6,8-8C193.3,141.3,189.7,137.7,185.3,137.7z"/>
	<path class="st1" d="M160.4,178.3l-13,29.5h8.5l2.3-5.7h12.5l2.3,5.7h8.7l-13.1-29.5H160.4z M160.7,195.9l3.8-9.4l3.8,9.4H160.7z"
		/>
	<path class="st1" d="M197.5,178.3H184v29.5h8.3v-7.7h5.1c8,0,13.1-4.2,13.1-10.9C210.6,182.5,205.6,178.3,197.5,178.3z M197,193.5
		h-4.6v-8.6h4.6c3.5,0,5.2,1.6,5.2,4.3C202.2,191.9,200.5,193.5,197,193.5z"/>
	<path class="st1" d="M228.2,178.3h-13.5v29.5h8.3v-7.7h5.1c8.1,0,13.1-4.2,13.1-10.9C241.3,182.5,236.2,178.3,228.2,178.3z
		 M227.7,193.5H223v-8.6h4.6c3.5,0,5.2,1.6,5.2,4.3C232.9,191.9,231.1,193.5,227.7,193.5z"/>
</g>
</svg>
