<?xml version="1.0" encoding="utf-8"?>
<!-- Generator: Adobe Illustrator 25.4.1, SVG Export Plug-In . SVG Version: 6.00 Build 0)  -->
<svg version="1.1" xmlns="http://www.w3.org/2000/svg" xmlns:xlink="http://www.w3.org/1999/xlink" x="0px" y="0px"
	 viewBox="0 0 841.9 461.5" style="enable-background:new 0 0 841.9 461.5;" xml:space="preserve">
<style type="text/css">
	.st0{fill:#575756;}
	.st1{fill:#B2B2B2;stroke:#000000;stroke-miterlimit:10;}
	.st2{fill:#878787;stroke:#020203;stroke-miterlimit:10;}
	.st3{fill:#97D4E6;stroke:#020203;stroke-miterlimit:10;}
</style>
<g id="Capa_4">
	<rect x="0" class="st0" width="841.9" height="461.5"/>
</g>
<g id="Capa_1">
	<path class="st1" d="M17.2,110.2c-1.7,2.5,0,333.3,0,333.3l768.9-0.8l31.1-29.3l14.2-392.6l-81.2-2.9L325.5,65.7L17.2,110.2z"/>
	<path class="st2" d="M831.5,20.8l-81.2-2.9l-1.8,68.2l-12.5-0.6c0,0-1.8,13.3,12.2,13.6l-2.4,62.5l80,4L831.5,20.8z"/>
	<path class="st3" d="M822.5,262.2l3.3-96.4l-80-3.9l-3.1,79.1h2.4c0,0-1.7,18.7,15.8,18.8L822.5,262.2z"/>
	<path class="st3" d="M817.3,413.4l5.2-151.2l-64.7-2.3c0,0-13.8-0.1-14.1,15.7l-4-0.3l-7.8,167.3l54.4,0.2L817.3,413.4z"/>
	<path class="st3" d="M579.8,362.5l81.4,0.1v14.7h6.1l-0.2-11.6c0,0,11.3-1.8,11.4,11.2l4.8-0.1l-0.2-15l52.3,0.3l-3.8,80.4
		l-152.1,0.6L579.8,362.5z"/>
	<path class="st3" d="M506.2,443l-0.4-66.9h6.8l-0.2-12c0,0,11.8,0.3,12,12.5l6.6-0.1v-14.6l48.8,0.4l-0.1,80.9L506.2,443z"/>
	<path class="st3" d="M203.6,443.2l0.5-81.5l120.1,0.6l0.1,14.5l7.2,0v-13.6c0,0,12.7-1.6,13.2,14l5.3,0l-0.6-16.6l156.4,1l0.4,81.2
		L203.6,443.2z"/>
	<path class="st3" d="M111.4,443.5l92.2-0.2l0.5-81.5h-7.5l-0.2,16.4l-7,0.1c0,0,0.4-13.5-14-14.1l0.1,14.1l-6.3-0.1l-0.1-16.4
		l-57.3,0.3L111.4,443.5z"/>
	<path class="st3" d="M17.3,443.5l93.6-0.2l0.5-81.5h-7.7l-0.2,16.4l-7.1,0.1c0,0,0.4-13.5-14.2-14.1l0.1,14.1l-6.4-0.1l-0.1-16.4
		l-58.2,0.3L17.3,443.5z"/>
	<path class="st3" d="M707.6,217.1l-0.2,112.2h-48L658.8,224l2.9-0.6l1.8,10.8c0,0,10.4,1,10.4-12L707.6,217.1z"/>
	<path class="st3" d="M573.5,176.2l0.5,5.9l-14.1,2.1c0,0,1.1,13.2,15.9,10.6l15.9,114c0,0-14.6,4-11.6,15.7l14.1-2.9l1.1,8.5
		l-120.9-0.6L454,193.3L573.5,176.2z"/>
	<path class="st3" d="M446,330l-121.5-0.3L307.8,216l97.3-14.4l2.7,18l5.6-0.6l-1.8-12.8c0,0,9.6-3.2,13.5,11.1l4-0.6L446,330z"/>
	<path class="st3" d="M246.8,329.7l-12.7-85.6l3.9-0.6c0,0-2.7-12.2,6.7-14.3l2.1,12.5l5.3-0.8l-1.9-17.2l57.6-7.7l16.7,113.7H246.8
		z"/>
	<path class="st3" d="M246.8,329.7l-12.7-85.6l-3.9,0.5c0,0-0.9-12.5-10.6-11.7l1.6,12.6l-5.3,0.8l-2.8-17.8l-53.1,8l13.3,93.1
		L246.8,329.7z"/>
	<path class="st3" d="M325.5,65.7l16.7,111.4l-75.8,12l-0.6-2.2c0,0-14.1,3.2-15.1-10.3l13.5-2.1l-0.6-3.4l-16.5,2.4l-13.8-94.7
		L325.5,65.7z"/>
	<path class="st3" d="M140.9,92.5L156.5,204l76.1-9.9l0-2.3c0,0,14.5-0.9,11.6-14.1l-13.5,1.8l-0.3-3.4l16.5-2.4l-13.6-94.8
		L140.9,92.5z"/>
	<path class="st3" d="M160.4,227.7c-15.2,1.9-16.1-10.4-16.1-10.4l13.4-1.8c0,0-6.7-47-6.7-47.7s-78.6,11.6-79.2,10.8l10.8,76.1
		l80-11.2L160.4,227.7z"/>
	<path class="st3" d="M38.7,261.2l8.9,67.4l103.5,0.9l0.2-16.4l4,0.2l-0.2,14.6c0,0,10.9,4.3,13.8-14.6l1.8-0.3l-10.4-68.9
		L38.7,261.2z"/>
</g>
<g id="Capa_3">
</g>
</svg>
