<?xml version="1.0"?>
<svg width="450" height="450" xmlns="http://www.w3.org/2000/svg" xmlns:svg="http://www.w3.org/2000/svg" enable-background="new 0 0 1370.5 834.4" version="1.1" xml:space="preserve">
 <style type="text/css">.st0{fill:#005091;}
	.st1{fill:#2B79AF;}</style>

 <g class="layer">
  <title>Layer 1</title>
  <g id="Capa_1"/>
  <g id="svg_12"/>
  <path d="m14.92,933.59c2.03,0 3.95,0 5.58,0c1.91,0 3.77,0.26 5.09,-0.22c2.01,-0.74 2.79,-2.51 4.39,-3.16c1.36,-0.55 3.01,-0.41 5.52,-0.47c1.68,-0.04 3.27,-0.55 4.75,-1.1c2.07,-0.77 3.31,-0.74 5.3,-0.8c1.34,-0.04 3.73,-0.02 5.23,-0.02c2.37,0 3.93,0 5.5,0c1.85,0 3.55,0.01 5.5,0c1.74,-0.01 3.09,-0.01 4.51,-0.22c2.17,-0.32 4.17,-1.12 5.38,-1.7c1.72,-0.81 3.69,-1.69 4.99,-1.84c2.01,-0.23 3.47,-0.08 5.6,-0.08c1.83,0 3.19,0 4.53,0c2.39,0 3.89,0 6.24,0c1.56,0 3.13,0 4.99,0c1.95,0 3.75,0 5.15,0c1.95,0 3.87,0 5.68,0c1.79,0 3.31,0 5.09,0c1.72,0 3.69,0 5.64,0c1.46,0 3.41,0 5.01,0c1.99,0 3.61,0 5.36,0c1.99,0 3.67,0 4.83,0c2.39,0 4.23,0 5.52,0c1.4,0 3.73,0 5.44,0c1.75,0 3.47,0 5.78,0c1.3,0 2.91,0 5.32,0c1.58,0 2.75,0 4.63,0c2.05,0 3.53,0 5.76,0c1.48,0 3.59,0 4.93,0c1.89,0 4.31,0 5.5,0c1.87,0 3.21,0 5.44,0c1.66,0 3.43,0 5.23,0c1.75,0 3.43,0 5.68,0c1.44,0 2.91,0 5.38,0c1.89,0 2.91,0 4.99,0c1.04,0 3.09,0 5.86,0c1.6,0 3.07,0 4.51,0c2.25,0 3.93,0 5.68,0c0.9,0 2.67,0 5.23,0c1.52,0 3.57,0 4.83,0c2.41,0 4.23,0 5.48,0c2.65,0 4.09,0 5.56,0c1.5,0 2.97,0 5.76,0c1.28,0 3.05,0 5.13,0c1.75,0 3.49,0 5.23,0c2.13,0 3.33,0 5.3,0c1.34,0 3.73,0 5.23,0c1.4,0 3.39,0 5.5,0c1.85,0 3.55,0 5.5,0c1.72,0 3.03,0 4.39,0c2.51,0 4.07,0 5.94,0c1.99,0 3.59,0 5.09,0c2.21,0 3.87,0 5.64,0c1.42,0 3.79,0 5.15,0c1.34,0 3.71,0 5.32,0c2.03,0 3.39,0 4.93,0c2.57,0 3.95,0 5.6,0c1.99,0 3.59,0 5.58,0c1.66,0 3.53,0 5.09,0c1.58,0 3.81,0 5.58,0c1.81,0 3.31,0 5.28,0c1.6,0 3.59,0 5.15,0c1.99,0 3.53,0 5.32,0c2.03,0 3.83,0 5.38,0c1.79,0 3.95,0 5.28,0c1.48,0 3.69,0 5.46,0c1.79,0 3.19,0 5.26,0c1.89,0 3.25,0 4.87,0c2.35,0 4.15,0.02 5.34,-0.04c1.79,-0.09 4.19,-0.49 5.34,-0.78c1.62,-0.4 3.69,-1.01 5.24,-1.1c1.91,-0.1 3.47,-0.01 5.19,-0.01c2.37,0 3.55,0 5.64,0c1.91,0 3.87,0 5.23,0c1.68,0 3.67,0 5.36,0c1.24,0 3.95,0 5.4,0c1.5,0 2.97,0 5.15,0c1.99,0 3.75,0 5.64,0c1.66,0 3.75,0.04 5.23,-0.04c1.16,-0.06 3.77,-0.56 5.19,-1.05c1.52,-0.52 3.03,-1.2 4.63,-1.82c1.6,-0.62 3.17,-1.18 4.75,-1.61c2.19,-0.6 4.15,-0.98 5.8,-1.13c1.44,-0.14 3.85,-0.11 4.93,-0.11c1.7,0 4.07,0 5.84,0c1.68,0 3.55,0 5.17,0c1.99,0 3.39,0 5.26,0c1.5,0 3.87,0 5.15,0c1.4,0 2.83,0 5.62,0c1.28,0 3.05,0 5.13,0c1.87,0 3.37,0 5.76,0c1.34,0 2.69,0 5.05,0c1.6,0 3.63,0 5.11,0c1.42,0 3.81,0 5.19,0c1.44,0 2.91,0 5.68,0c1.28,0 3.03,0 5.13,0c1.79,0 3.83,0 5.44,0c1.74,0 3.73,0 5.4,0c1.16,0 3.55,0 5.34,0c1.2,0 3.59,0 5.36,0c1.68,0 3.55,0 4.97,0c1.68,0 3.65,0 5.36,0c1.93,0 2.93,0 4.95,0c1.89,0 4.35,0 5.76,0c1.3,0 3.71,0 5.54,0c1.3,0 2.69,0 5.03,0c1.72,0 3.47,0 5.17,0c2.31,0 3.61,0 5.23,0c2.41,0 3.99,0 5.15,0c1.87,0 3.95,0 5.4,0c2.23,0 3.71,0 5.84,0c1.32,0 3.07,0 5.34,0c1.58,0 3.37,0 4.85,0c1.75,0 3.75,0 5.94,0c1.56,0 3.19,0 4.03,0c2.65,0 4.53,0 6.44,0c0.98,0 2.95,0 4.95,0c1.99,0 3.95,0 4.91,0c1.85,0 4.41,0 5.92,0c1.4,0 3.31,0 5.72,0c1.22,0 3.21,0 4.71,0c2.61,0 3.59,0 5.62,0c1.04,0 3.13,0 4.13,0c2.77,0 4.37,0 5.84,0c2.17,0 4.51,0 6.26,0c0.92,0 2.81,0 4.77,0c1.99,0 3.99,0 4.99,0c1.99,0 3.99,0 4.99,0c2.99,0 3.99,0 5.94,0c1.89,0 2.81,0 5.36,0c2.21,0 3.53,0 5.28,0c2.01,0 3.89,0 6.02,0c1.26,0 2.61,0 4.59,0c2.19,0 3.93,0 5.68,0c1.58,0 3.69,0 4.95,0c2.09,0 3.55,0 5.7,0c1.36,0 3.19,0 4.77,0c2.23,0 4.21,0 5.56,0c1.62,0 3.97,0 5.76,0c1.24,0 3.15,0 5.23,0c1.46,0 2.95,0 4.45,0c2.85,0 4.19,0 6.06,0c1.22,0 3.61,0 5.44,0c1.28,0 3.29,0 5.44,0c1.5,0 2.97,0.01 5.15,0c1.36,0 3.33,0.13 4.95,-0.49c2.15,-0.83 2.87,-2.02 3.89,-2.82c2.03,-1.62 3.39,-2.07 5.42,-2.33c1.3,-0.17 3.51,-0.12 5.3,-0.12c1.79,0 3.23,0 4.81,0c2.05,0 3.81,0 5.84,0c1.44,0 3.57,0 5.4,0c1.34,0 2.69,0 5.07,0c1.81,0 3.77,0 5.3,0c1.87,0 3.89,0 5.26,0c2.03,0 3.45,0 5.4,0c1.91,0 3.85,0 5.48,0c1.83,0 3.55,-0.31 5.07,0.33c1.66,0.7 2.43,2.44 4.49,3.19c1.48,0.54 2.73,0.36 5.05,1.17c1.22,0.42 2.77,1.51 4.73,2.35c1.58,0.68 3.29,0.64 5.01,0.64c1.87,0 3.57,-0.03 5.17,0c1.95,0.03 3.79,0.29 5.4,0.96c1.7,0.7 3.39,0.76 5.26,0.97c1.56,0.17 3.09,1.34 4.11,2.27c1.64,1.49 2.59,2.72 4.73,3.26c1.38,0.35 2.89,0.23 4.97,0.23c1.7,0 3.57,0 5.58,0c1.66,0 3.41,0 4.83,0c1.95,0 3.87,0 5.82,0c1.34,0 3.65,0 5.23,0c1.46,0 3.51,-0.08 5.05,0.85c1.54,0.92 2.65,2.1 4.71,2.67c1.06,0.29 2.71,0.32 5.24,0.33c1.32,0 3.37,0 4.93,0c2.07,0 3.85,-0.32 5.44,0.08c1.74,0.44 2.87,1.94 3.99,2.67c1.81,1.19 3.77,1.09 5.6,1.09c1.64,0 3.45,-0.11 5.07,0.02c1.95,0.16 3.45,1.15 4.67,2.28l1.6,1.22l1.4,0.42" fill="#0000ff" id="svg_7" stroke="#000000"/>
  <rect fill="#0000ff" height="99" id="svg_1" stroke="#000000" width="100" x="1" y="0.4"/>
  <rect fill="#0000ff" height="99" id="svg_2" stroke="#000000" width="100" x="201.2" y="1.5"/>
  <rect fill="#0000ff" height="99" id="svg_3" stroke="#000000" width="48" x="401.2" y="1.5"/>
  <g id="svg_9"/>
  <g id="svg_8"/>
  <rect fill="#0000ff" height="99" id="svg_6" stroke="#000000" width="100" x="1.6" y="200.15"/>
  <rect fill="#0000ff" height="99" id="svg_5" stroke="#000000" width="100" x="201.8" y="201.25"/>
  <rect fill="#0000ff" height="99" id="svg_4" stroke="#000000" width="48" x="401.8" y="201.25"/>
  <g id="svg_15"/>
  <g id="svg_14"/>
  <rect fill="#0000ff" height="99" id="svg_13" stroke="#000000" width="100" x="100.9" y="101.03"/>
  <rect fill="#0000ff" height="99" id="svg_11" stroke="#000000" width="100" x="301.1" y="102.13"/>
  <g id="svg_20"/>
  <g id="svg_19"/>
  <rect fill="#0000ff" height="99" id="svg_18" stroke="#000000" width="100" x="100.9" y="300.03"/>
  <rect fill="#0000ff" height="99" id="svg_17" stroke="#000000" width="100" x="301.1" y="301.13"/>
  <rect fill="#0000ff" height="99" id="svg_16" stroke="#000000" transform="rotate(-90 49 424.625)" width="48" x="25.1" y="375.13"/>
  <rect fill="#0000ff" height="99" id="svg_26" stroke="#000000" transform="rotate(-90 252.2 426.1)" width="48" x="228.3" y="376.6"/>
  <rect fill="#0000ff" height="48" id="svg_27" stroke="#000000" transform="matrix(1 0 0 1 0 0) rotate(-90 424.7 425)" width="48" x="400.7" y="401"/>
 </g>
</svg>